<?xml version="1.0" encoding="utf-8" standalone="no"?>
<!DOCTYPE svg PUBLIC "-//W3C//DTD SVG 1.1//EN"
  "http://www.w3.org/Graphics/SVG/1.1/DTD/svg11.dtd">
<svg xmlns:xlink="http://www.w3.org/1999/xlink" width="957.898437pt" height="688.48125pt" viewBox="0 0 957.898437 688.48125" xmlns="http://www.w3.org/2000/svg" version="1.1">
 <metadata>
  <rdf:RDF xmlns:dc="http://purl.org/dc/elements/1.1/" xmlns:cc="http://creativecommons.org/ns#" xmlns:rdf="http://www.w3.org/1999/02/22-rdf-syntax-ns#">
   <cc:Work>
    <dc:type rdf:resource="http://purl.org/dc/dcmitype/StillImage"/>
    <dc:date>2022-10-11T12:07:01.682012</dc:date>
    <dc:format>image/svg+xml</dc:format>
    <dc:creator>
     <cc:Agent>
      <dc:title>Matplotlib v3.5.1, https://matplotlib.org/</dc:title>
     </cc:Agent>
    </dc:creator>
   </cc:Work>
  </rdf:RDF>
 </metadata>
 <defs>
  <style type="text/css">*{stroke-linejoin: round; stroke-linecap: butt}</style>
 </defs>
 <g id="figure_1">
  <g id="patch_1">
   <path d="M 0 688.48125 
L 957.898437 688.48125 
L 957.898437 -0 
L 0 -0 
z
" style="fill: #ffffff"/>
  </g>
  <g id="axes_1">
   <g id="patch_2">
    <path d="M 57.898438 242.258824 
L 950.698437 242.258824 
L 950.698437 79.2 
L 57.898438 79.2 
z
" style="fill: #ffffff"/>
   </g>
   <g id="matplotlib.axis_1">
    <g id="xtick_1">
     <g id="line2d_1">
      <defs>
       <path id="m007d1c09d4" d="M 0 0 
L 0 3.5 
" style="stroke: #000000; stroke-width: 0.8"/>
      </defs>
      <g>
       <use xlink:href="#m007d1c09d4" x="96.85373" y="242.258824" style="stroke: #000000; stroke-width: 0.8"/>
      </g>
     </g>
     <g id="text_1">
      <!-- 0 -->
      <g transform="translate(93.67248 256.857261)scale(0.1 -0.1)">
       <defs>
        <path id="DejaVuSans-30" d="M 2034 4250 
Q 1547 4250 1301 3770 
Q 1056 3291 1056 2328 
Q 1056 1369 1301 889 
Q 1547 409 2034 409 
Q 2525 409 2770 889 
Q 3016 1369 3016 2328 
Q 3016 3291 2770 3770 
Q 2525 4250 2034 4250 
z
M 2034 4750 
Q 2819 4750 3233 4129 
Q 3647 3509 3647 2328 
Q 3647 1150 3233 529 
Q 2819 -91 2034 -91 
Q 1250 -91 836 529 
Q 422 1150 422 2328 
Q 422 3509 836 4129 
Q 1250 4750 2034 4750 
z
" transform="scale(0.015625)"/>
       </defs>
       <use xlink:href="#DejaVuSans-30"/>
      </g>
     </g>
    </g>
    <g id="xtick_2">
     <g id="line2d_2">
      <g>
       <use xlink:href="#m007d1c09d4" x="259.506308" y="242.258824" style="stroke: #000000; stroke-width: 0.8"/>
      </g>
     </g>
     <g id="text_2">
      <!-- 1 -->
      <g transform="translate(256.325058 256.857261)scale(0.1 -0.1)">
       <defs>
        <path id="DejaVuSans-31" d="M 794 531 
L 1825 531 
L 1825 4091 
L 703 3866 
L 703 4441 
L 1819 4666 
L 2450 4666 
L 2450 531 
L 3481 531 
L 3481 0 
L 794 0 
L 794 531 
z
" transform="scale(0.015625)"/>
       </defs>
       <use xlink:href="#DejaVuSans-31"/>
      </g>
     </g>
    </g>
    <g id="xtick_3">
     <g id="line2d_3">
      <g>
       <use xlink:href="#m007d1c09d4" x="422.158886" y="242.258824" style="stroke: #000000; stroke-width: 0.8"/>
      </g>
     </g>
     <g id="text_3">
      <!-- 2 -->
      <g transform="translate(418.977636 256.857261)scale(0.1 -0.1)">
       <defs>
        <path id="DejaVuSans-32" d="M 1228 531 
L 3431 531 
L 3431 0 
L 469 0 
L 469 531 
Q 828 903 1448 1529 
Q 2069 2156 2228 2338 
Q 2531 2678 2651 2914 
Q 2772 3150 2772 3378 
Q 2772 3750 2511 3984 
Q 2250 4219 1831 4219 
Q 1534 4219 1204 4116 
Q 875 4013 500 3803 
L 500 4441 
Q 881 4594 1212 4672 
Q 1544 4750 1819 4750 
Q 2544 4750 2975 4387 
Q 3406 4025 3406 3419 
Q 3406 3131 3298 2873 
Q 3191 2616 2906 2266 
Q 2828 2175 2409 1742 
Q 1991 1309 1228 531 
z
" transform="scale(0.015625)"/>
       </defs>
       <use xlink:href="#DejaVuSans-32"/>
      </g>
     </g>
    </g>
    <g id="xtick_4">
     <g id="line2d_4">
      <g>
       <use xlink:href="#m007d1c09d4" x="584.811464" y="242.258824" style="stroke: #000000; stroke-width: 0.8"/>
      </g>
     </g>
     <g id="text_4">
      <!-- 3 -->
      <g transform="translate(581.630214 256.857261)scale(0.1 -0.1)">
       <defs>
        <path id="DejaVuSans-33" d="M 2597 2516 
Q 3050 2419 3304 2112 
Q 3559 1806 3559 1356 
Q 3559 666 3084 287 
Q 2609 -91 1734 -91 
Q 1441 -91 1130 -33 
Q 819 25 488 141 
L 488 750 
Q 750 597 1062 519 
Q 1375 441 1716 441 
Q 2309 441 2620 675 
Q 2931 909 2931 1356 
Q 2931 1769 2642 2001 
Q 2353 2234 1838 2234 
L 1294 2234 
L 1294 2753 
L 1863 2753 
Q 2328 2753 2575 2939 
Q 2822 3125 2822 3475 
Q 2822 3834 2567 4026 
Q 2313 4219 1838 4219 
Q 1578 4219 1281 4162 
Q 984 4106 628 3988 
L 628 4550 
Q 988 4650 1302 4700 
Q 1616 4750 1894 4750 
Q 2613 4750 3031 4423 
Q 3450 4097 3450 3541 
Q 3450 3153 3228 2886 
Q 3006 2619 2597 2516 
z
" transform="scale(0.015625)"/>
       </defs>
       <use xlink:href="#DejaVuSans-33"/>
      </g>
     </g>
    </g>
    <g id="xtick_5">
     <g id="line2d_5">
      <g>
       <use xlink:href="#m007d1c09d4" x="747.464041" y="242.258824" style="stroke: #000000; stroke-width: 0.8"/>
      </g>
     </g>
     <g id="text_5">
      <!-- 4 -->
      <g transform="translate(744.282791 256.857261)scale(0.1 -0.1)">
       <defs>
        <path id="DejaVuSans-34" d="M 2419 4116 
L 825 1625 
L 2419 1625 
L 2419 4116 
z
M 2253 4666 
L 3047 4666 
L 3047 1625 
L 3713 1625 
L 3713 1100 
L 3047 1100 
L 3047 0 
L 2419 0 
L 2419 1100 
L 313 1100 
L 313 1709 
L 2253 4666 
z
" transform="scale(0.015625)"/>
       </defs>
       <use xlink:href="#DejaVuSans-34"/>
      </g>
     </g>
    </g>
    <g id="xtick_6">
     <g id="line2d_6">
      <g>
       <use xlink:href="#m007d1c09d4" x="910.116619" y="242.258824" style="stroke: #000000; stroke-width: 0.8"/>
      </g>
     </g>
     <g id="text_6">
      <!-- 5 -->
      <g transform="translate(906.935369 256.857261)scale(0.1 -0.1)">
       <defs>
        <path id="DejaVuSans-35" d="M 691 4666 
L 3169 4666 
L 3169 4134 
L 1269 4134 
L 1269 2991 
Q 1406 3038 1543 3061 
Q 1681 3084 1819 3084 
Q 2600 3084 3056 2656 
Q 3513 2228 3513 1497 
Q 3513 744 3044 326 
Q 2575 -91 1722 -91 
Q 1428 -91 1123 -41 
Q 819 9 494 109 
L 494 744 
Q 775 591 1075 516 
Q 1375 441 1709 441 
Q 2250 441 2565 725 
Q 2881 1009 2881 1497 
Q 2881 1984 2565 2268 
Q 2250 2553 1709 2553 
Q 1456 2553 1204 2497 
Q 953 2441 691 2322 
L 691 4666 
z
" transform="scale(0.015625)"/>
       </defs>
       <use xlink:href="#DejaVuSans-35"/>
      </g>
     </g>
    </g>
   </g>
   <g id="matplotlib.axis_2">
    <g id="ytick_1">
     <g id="line2d_7">
      <defs>
       <path id="mb4e1e660d3" d="M 0 0 
L -3.5 0 
" style="stroke: #000000; stroke-width: 0.8"/>
      </defs>
      <g>
       <use xlink:href="#mb4e1e660d3" x="57.898438" y="225.287271" style="stroke: #000000; stroke-width: 0.8"/>
      </g>
     </g>
     <g id="text_7">
      <!-- −12.5 -->
      <g transform="translate(20.253125 229.08649)scale(0.1 -0.1)">
       <defs>
        <path id="DejaVuSans-2212" d="M 678 2272 
L 4684 2272 
L 4684 1741 
L 678 1741 
L 678 2272 
z
" transform="scale(0.015625)"/>
        <path id="DejaVuSans-2e" d="M 684 794 
L 1344 794 
L 1344 0 
L 684 0 
L 684 794 
z
" transform="scale(0.015625)"/>
       </defs>
       <use xlink:href="#DejaVuSans-2212"/>
       <use xlink:href="#DejaVuSans-31" x="83.789062"/>
       <use xlink:href="#DejaVuSans-32" x="147.412109"/>
       <use xlink:href="#DejaVuSans-2e" x="211.035156"/>
       <use xlink:href="#DejaVuSans-35" x="242.822266"/>
      </g>
     </g>
    </g>
    <g id="ytick_2">
     <g id="line2d_8">
      <g>
       <use xlink:href="#mb4e1e660d3" x="57.898438" y="204.818549" style="stroke: #000000; stroke-width: 0.8"/>
      </g>
     </g>
     <g id="text_8">
      <!-- −10.0 -->
      <g transform="translate(20.253125 208.617768)scale(0.1 -0.1)">
       <use xlink:href="#DejaVuSans-2212"/>
       <use xlink:href="#DejaVuSans-31" x="83.789062"/>
       <use xlink:href="#DejaVuSans-30" x="147.412109"/>
       <use xlink:href="#DejaVuSans-2e" x="211.035156"/>
       <use xlink:href="#DejaVuSans-30" x="242.822266"/>
      </g>
     </g>
    </g>
    <g id="ytick_3">
     <g id="line2d_9">
      <g>
       <use xlink:href="#mb4e1e660d3" x="57.898438" y="184.349827" style="stroke: #000000; stroke-width: 0.8"/>
      </g>
     </g>
     <g id="text_9">
      <!-- −7.5 -->
      <g transform="translate(26.615625 188.149046)scale(0.1 -0.1)">
       <defs>
        <path id="DejaVuSans-37" d="M 525 4666 
L 3525 4666 
L 3525 4397 
L 1831 0 
L 1172 0 
L 2766 4134 
L 525 4134 
L 525 4666 
z
" transform="scale(0.015625)"/>
       </defs>
       <use xlink:href="#DejaVuSans-2212"/>
       <use xlink:href="#DejaVuSans-37" x="83.789062"/>
       <use xlink:href="#DejaVuSans-2e" x="147.412109"/>
       <use xlink:href="#DejaVuSans-35" x="179.199219"/>
      </g>
     </g>
    </g>
    <g id="ytick_4">
     <g id="line2d_10">
      <g>
       <use xlink:href="#mb4e1e660d3" x="57.898438" y="163.881105" style="stroke: #000000; stroke-width: 0.8"/>
      </g>
     </g>
     <g id="text_10">
      <!-- −5.0 -->
      <g transform="translate(26.615625 167.680324)scale(0.1 -0.1)">
       <use xlink:href="#DejaVuSans-2212"/>
       <use xlink:href="#DejaVuSans-35" x="83.789062"/>
       <use xlink:href="#DejaVuSans-2e" x="147.412109"/>
       <use xlink:href="#DejaVuSans-30" x="179.199219"/>
      </g>
     </g>
    </g>
    <g id="ytick_5">
     <g id="line2d_11">
      <g>
       <use xlink:href="#mb4e1e660d3" x="57.898438" y="143.412383" style="stroke: #000000; stroke-width: 0.8"/>
      </g>
     </g>
     <g id="text_11">
      <!-- −2.5 -->
      <g transform="translate(26.615625 147.211602)scale(0.1 -0.1)">
       <use xlink:href="#DejaVuSans-2212"/>
       <use xlink:href="#DejaVuSans-32" x="83.789062"/>
       <use xlink:href="#DejaVuSans-2e" x="147.412109"/>
       <use xlink:href="#DejaVuSans-35" x="179.199219"/>
      </g>
     </g>
    </g>
    <g id="ytick_6">
     <g id="line2d_12">
      <g>
       <use xlink:href="#mb4e1e660d3" x="57.898438" y="122.943661" style="stroke: #000000; stroke-width: 0.8"/>
      </g>
     </g>
     <g id="text_12">
      <!-- 0.0 -->
      <g transform="translate(34.995313 126.742879)scale(0.1 -0.1)">
       <use xlink:href="#DejaVuSans-30"/>
       <use xlink:href="#DejaVuSans-2e" x="63.623047"/>
       <use xlink:href="#DejaVuSans-30" x="95.410156"/>
      </g>
     </g>
    </g>
    <g id="ytick_7">
     <g id="line2d_13">
      <g>
       <use xlink:href="#mb4e1e660d3" x="57.898438" y="102.474939" style="stroke: #000000; stroke-width: 0.8"/>
      </g>
     </g>
     <g id="text_13">
      <!-- 2.5 -->
      <g transform="translate(34.995313 106.274157)scale(0.1 -0.1)">
       <use xlink:href="#DejaVuSans-32"/>
       <use xlink:href="#DejaVuSans-2e" x="63.623047"/>
       <use xlink:href="#DejaVuSans-35" x="95.410156"/>
      </g>
     </g>
    </g>
    <g id="ytick_8">
     <g id="line2d_14">
      <g>
       <use xlink:href="#mb4e1e660d3" x="57.898438" y="82.006216" style="stroke: #000000; stroke-width: 0.8"/>
      </g>
     </g>
     <g id="text_14">
      <!-- 5.0 -->
      <g transform="translate(34.995313 85.805435)scale(0.1 -0.1)">
       <use xlink:href="#DejaVuSans-35"/>
       <use xlink:href="#DejaVuSans-2e" x="63.623047"/>
       <use xlink:href="#DejaVuSans-30" x="95.410156"/>
      </g>
     </g>
    </g>
   </g>
   <g id="line2d_15">
    <path d="M 98.480256 162.292348 
L 100.106781 118.380536 
L 101.733307 106.536659 
L 103.359833 111.556961 
L 104.986359 118.090298 
L 106.612885 121.823887 
L 108.23941 122.956267 
L 121.251617 122.956212 
L 122.878142 120.053561 
L 124.504668 121.902851 
L 126.131194 122.246326 
L 134.263823 124.554564 
L 137.516874 124.956566 
L 140.769926 125.001215 
L 145.649503 124.700152 
L 153.782132 124.074979 
L 155.408658 124.298309 
L 158.661709 126.349879 
L 161.914761 128.672223 
L 163.541287 129.344488 
L 165.167813 129.555756 
L 166.794338 129.397217 
L 168.420864 128.948817 
L 170.04739 128.305495 
L 179.806545 123.679495 
L 181.43307 115.118474 
L 183.059596 95.178763 
L 184.686122 86.611765 
L 186.312648 94.785139 
L 187.939174 101.996637 
L 189.565699 113.515072 
L 191.192225 119.236397 
L 192.818751 122.043972 
L 194.445277 122.95089 
L 210.710534 122.995994 
L 212.33706 123.531306 
L 213.963586 124.369953 
L 215.590112 124.788531 
L 218.843163 125.118675 
L 223.722741 125.213806 
L 228.602318 125.213858 
L 230.228844 125.344357 
L 231.85537 121.716945 
L 233.481895 116.445348 
L 235.108421 113.899028 
L 236.734947 112.929148 
L 238.361473 113.403677 
L 239.987998 114.900048 
L 241.614524 116.981655 
L 244.867576 121.526909 
L 246.494102 123.502698 
L 248.120627 125.052692 
L 249.747153 126.187586 
L 251.373679 126.869938 
L 253.000205 127.129118 
L 254.62673 127.035776 
L 259.506308 124.651922 
L 261.132834 123.995009 
L 262.759359 124.00537 
L 266.012411 125.542193 
L 267.638937 125.987382 
L 269.265462 125.936131 
L 270.891988 125.479504 
L 272.518514 124.714483 
L 275.771566 122.631109 
L 279.024617 120.38504 
L 280.651143 119.370686 
L 282.277669 118.487928 
L 283.904194 117.936303 
L 285.53072 117.644274 
L 287.157246 114.98522 
L 288.783772 137.143972 
L 290.410298 177.728737 
L 292.036823 190.908843 
L 293.663349 175.939629 
L 295.289875 150.330836 
L 296.916401 122.483872 
L 298.542926 121.764394 
L 300.169452 122.846311 
L 311.555133 122.796267 
L 313.181658 123.121011 
L 314.808184 124.304273 
L 316.43471 125.053635 
L 318.061236 125.423837 
L 321.314287 125.676106 
L 327.82039 125.69089 
L 329.446916 125.675061 
L 331.073442 126.14596 
L 332.699968 108.801156 
L 334.326494 102.215025 
L 335.953019 98.587675 
L 337.579545 97.583805 
L 339.206071 98.796433 
L 340.832597 101.647825 
L 342.459123 105.520547 
L 345.712174 114.623439 
L 347.3387 114.377676 
L 352.218277 119.151275 
L 353.844803 120.472011 
L 355.471329 121.515875 
L 357.097855 122.237334 
L 358.72438 122.65596 
L 360.350906 122.798572 
L 361.977432 122.711804 
L 363.603958 122.447186 
L 365.230483 122.065763 
L 366.857009 121.821237 
L 368.483535 122.362276 
L 370.110061 122.748184 
L 371.736587 122.98435 
L 373.363112 123.861353 
L 374.989638 124.103789 
L 376.616164 123.890768 
L 378.24269 123.323473 
L 379.869215 122.502866 
L 383.122267 120.454467 
L 386.375319 118.374603 
L 388.001844 117.462089 
L 389.62837 116.681215 
L 391.254896 116.057051 
L 392.881422 115.579695 
L 394.507947 115.463323 
L 396.134473 115.58132 
L 397.760999 112.516576 
L 399.387525 148.252776 
L 402.640576 234.847059 
L 404.267102 218.319712 
L 405.893628 175.889228 
L 407.520154 110.042036 
L 409.146679 103.066959 
L 410.773205 112.821136 
L 412.399731 119.263317 
L 414.026257 122.247327 
L 415.652783 122.817263 
L 427.038463 122.770612 
L 428.664989 122.969486 
L 430.291515 123.798712 
L 431.91804 125.234959 
L 433.544566 109.50715 
L 435.171092 103.644859 
L 436.797618 100.193145 
L 438.424143 98.952356 
L 440.050669 99.641025 
L 441.677195 101.892149 
L 443.303721 107.720561 
L 444.930247 114.331344 
L 446.556772 113.321735 
L 448.183298 113.264609 
L 449.809824 115.649458 
L 451.43635 118.946662 
L 453.062875 121.618569 
L 454.689401 122.630893 
L 456.315927 121.511624 
L 457.942453 122.608884 
L 459.568979 123.275599 
L 461.195504 123.557363 
L 462.82203 123.553994 
L 464.448556 123.305064 
L 467.701607 122.493813 
L 470.954659 121.63489 
L 474.207711 121.011141 
L 475.834236 120.849773 
L 477.460762 121.122926 
L 480.713814 122.387886 
L 482.340339 122.816538 
L 483.966865 123.099234 
L 487.219917 125.187012 
L 488.846443 125.77633 
L 490.472968 125.93743 
L 492.099494 125.758807 
L 493.72602 125.308208 
L 496.979071 124.019561 
L 501.858649 121.994832 
L 505.1117 121.037788 
L 506.738226 120.605159 
L 508.364752 120.410277 
L 509.991278 119.279923 
L 511.617804 112.295805 
L 513.244329 113.031282 
L 514.870855 123.096255 
L 516.497381 123.075254 
L 518.123907 123.457464 
L 519.750432 124.112656 
L 521.376958 124.597183 
L 526.256536 124.898191 
L 534.389164 124.927743 
L 553.907474 124.820262 
L 555.534 125.0511 
L 557.160525 116.108787 
L 558.787051 110.302993 
L 560.413577 109.849458 
L 562.040103 110.720256 
L 563.666628 112.161463 
L 570.172732 116.407717 
L 576.678835 121.674109 
L 578.30536 122.562852 
L 579.931886 123.164954 
L 581.558412 123.207559 
L 583.184938 123.086702 
L 584.811464 123.097834 
L 589.691041 125.431436 
L 591.317567 125.859447 
L 592.944092 125.720612 
L 594.570618 125.130199 
L 596.197144 124.205958 
L 599.450196 121.804459 
L 602.703247 119.301669 
L 604.329773 118.172294 
L 605.956299 117.232428 
L 607.582824 116.491433 
L 610.835876 115.74636 
L 612.462402 109.27984 
L 614.088928 140.259517 
L 615.715453 182.049024 
L 617.341979 207.175408 
L 618.968505 197.408619 
L 620.595031 166.837563 
L 622.221556 127.578903 
L 623.848082 110.769155 
L 625.474608 114.239434 
L 627.101134 119.835707 
L 628.72766 122.569023 
L 630.354185 122.824214 
L 641.739866 122.775804 
L 643.366392 123.112071 
L 644.992917 124.296176 
L 646.619443 124.994354 
L 648.245969 125.333709 
L 651.49902 125.552502 
L 654.752072 125.573104 
L 656.378598 126.16627 
L 658.005124 108.054518 
L 659.631649 101.386321 
L 661.258175 97.647633 
L 662.884701 96.560133 
L 664.511227 97.70709 
L 666.137752 100.554766 
L 667.764278 104.486432 
L 669.390804 110.745171 
L 671.01733 113.8967 
L 672.643856 113.087202 
L 674.270381 114.951757 
L 675.896907 117.052195 
L 677.523433 118.958224 
L 679.149959 120.544838 
L 680.776485 121.741713 
L 682.40301 122.546309 
L 684.029536 122.993709 
L 685.656062 123.116507 
L 687.282588 122.986675 
L 690.535639 122.258037 
L 692.162165 121.731851 
L 693.788691 121.541054 
L 695.415217 122.328676 
L 697.041742 122.814701 
L 698.668268 123.177018 
L 700.294794 123.886752 
L 701.92132 124.027433 
L 703.547845 123.759952 
L 705.174371 123.189583 
L 706.800897 122.407186 
L 714.933526 117.892447 
L 716.560052 117.222777 
L 718.186577 116.692956 
L 719.813103 116.307041 
L 721.439629 116.203572 
L 723.066155 116.342551 
L 724.692681 112.182275 
L 726.319206 142.790479 
L 727.945732 183.414918 
L 729.572258 215.719749 
L 731.198784 197.568297 
L 732.825309 162.498536 
L 734.451835 117.265639 
L 736.078361 112.684482 
L 737.704887 118.74761 
L 739.331413 122.042611 
L 740.957938 122.830038 
L 750.717093 122.784559 
L 752.343619 122.891275 
L 753.970145 123.537695 
L 755.59667 124.631439 
L 757.223196 125.212305 
L 758.849722 125.503689 
L 762.102773 125.707271 
L 763.729299 125.729556 
L 765.355825 126.333562 
L 766.982351 108.612441 
L 768.608877 101.906622 
L 770.235402 98.007756 
L 771.861928 96.673732 
L 773.488454 97.564159 
L 775.11498 100.226051 
L 776.741505 104.555934 
L 778.368031 111.730796 
L 779.994557 114.097802 
L 781.621083 114.171948 
L 783.247609 114.441059 
L 786.50066 119.144132 
L 788.127186 120.976185 
L 789.753712 122.371563 
L 791.380237 123.301573 
L 793.006763 123.819671 
L 794.633289 123.968161 
L 796.259815 123.866565 
L 797.886341 123.562287 
L 801.139392 122.65427 
L 804.392444 121.694516 
L 806.018969 122.139725 
L 807.645495 122.733616 
L 809.272021 123.092377 
L 810.898547 124.078002 
L 812.525073 124.870449 
L 814.151598 125.183631 
L 815.778124 125.105709 
L 817.40465 124.724239 
L 819.031176 124.126302 
L 822.284227 122.593675 
L 825.537279 121.036266 
L 828.79033 119.811269 
L 830.416856 119.374741 
L 833.669908 118.870971 
L 835.296433 118.309773 
L 836.922959 111.426205 
L 838.549485 124.346201 
L 840.176011 160.044223 
L 841.802537 151.227088 
L 843.429062 134.659402 
L 845.055588 126.821639 
L 846.682114 126.794386 
L 848.30864 126.182493 
L 851.561691 125.746579 
L 856.441269 125.552223 
L 874.333052 125.363101 
L 882.465681 125.283049 
L 884.092207 125.665296 
L 885.718733 111.269104 
L 887.345258 105.976373 
L 888.971784 103.271699 
L 890.59831 102.752904 
L 892.224836 104.01928 
L 893.851362 106.540742 
L 895.477887 109.799354 
L 897.104413 113.315897 
L 898.730939 114.946411 
L 900.357465 115.876786 
L 903.610516 118.48681 
L 905.237042 119.804422 
L 906.863568 120.963046 
L 908.490094 121.898478 
L 910.116619 122.585838 
L 910.116619 122.585838 
" clip-path="url(#p47549a6bbd)" style="fill: none; stroke: #ff0000; stroke-width: 2; stroke-linecap: square"/>
   </g>
   <g id="line2d_16">
    <path d="M 98.480256 122.943661 
L 100.106781 109.796082 
L 101.733307 112.967478 
L 103.359833 118.385779 
L 104.986359 121.747346 
L 106.612885 122.878424 
L 121.251617 122.760022 
L 122.878142 123.940719 
L 148.902555 123.20314 
L 152.155606 122.945362 
L 178.180019 121.824418 
L 181.43307 104.715257 
L 183.059596 87.41531 
L 184.686122 94.774051 
L 186.312648 98.810801 
L 187.939174 109.044272 
L 189.565699 114.076783 
L 191.192225 116.645447 
L 192.818751 117.575923 
L 202.577906 117.632115 
L 209.084009 117.78139 
L 210.710534 118.132016 
L 212.33706 118.920213 
L 213.963586 119.348729 
L 217.216638 119.793539 
L 228.602318 120.672077 
L 230.228844 123.820729 
L 231.85537 123.510006 
L 233.481895 123.766848 
L 241.614524 123.723513 
L 254.62673 123.298563 
L 256.253256 123.103877 
L 272.518514 122.390276 
L 282.277669 122.000594 
L 283.904194 122.011876 
L 285.53072 119.352294 
L 287.157246 112.170917 
L 288.783772 163.551045 
L 290.410298 182.944605 
L 292.036823 174.614687 
L 293.663349 150.991599 
L 295.289875 122.347342 
L 296.916401 121.317723 
L 298.542926 122.533099 
L 308.302081 123.24636 
L 311.555133 123.542143 
L 313.181658 124.688373 
L 314.808184 125.514194 
L 316.43471 126.022103 
L 319.687762 126.642516 
L 329.446916 128.051761 
L 331.073442 123.441799 
L 339.206071 123.748439 
L 340.832597 123.78013 
L 342.459123 124.073369 
L 344.085648 125.352798 
L 345.712174 123.790315 
L 357.097855 123.56948 
L 373.363112 123.010494 
L 389.62837 122.133582 
L 394.507947 122.043547 
L 396.134473 118.555231 
L 397.760999 113.38741 
L 401.014051 221.986145 
L 402.640576 218.367545 
L 404.267102 182.450881 
L 405.893628 117.704189 
L 407.520154 107.983584 
L 409.146679 116.035777 
L 410.773205 121.710968 
L 412.399731 124.671921 
L 414.026257 125.383392 
L 423.785411 126.263867 
L 427.038463 126.611532 
L 428.664989 127.38295 
L 430.291515 128.308866 
L 431.91804 123.590023 
L 436.797618 123.587766 
L 440.050669 123.650937 
L 441.677195 126.448333 
L 443.303721 131.668005 
L 444.930247 129.027623 
L 446.556772 126.713645 
L 448.183298 126.524349 
L 449.809824 127.229232 
L 451.43635 127.512448 
L 453.062875 126.48772 
L 454.689401 123.738076 
L 479.087288 123.165307 
L 490.472968 122.697053 
L 498.605597 122.282879 
L 506.738226 122.005483 
L 508.364752 120.892329 
L 509.991278 113.400496 
L 511.617804 110.669429 
L 513.244329 121.139781 
L 514.870855 120.94558 
L 516.497381 121.254558 
L 519.750432 122.287315 
L 526.256536 122.72004 
L 539.268742 123.320962 
L 549.027896 124.030649 
L 553.907474 124.475619 
L 555.534 123.596047 
L 566.91968 123.714747 
L 575.052309 123.535692 
L 581.558412 123.212121 
L 607.582824 121.933933 
L 609.20935 121.624051 
L 610.835876 114.569395 
L 612.462402 110.935865 
L 614.088928 161.21993 
L 615.715453 197.985197 
L 617.341979 195.896403 
L 618.968505 169.604596 
L 620.595031 131.987953 
L 622.221556 113.931631 
L 623.848082 115.926299 
L 625.474608 120.818725 
L 627.101134 123.643282 
L 628.72766 124.027463 
L 636.860288 124.712595 
L 641.739866 125.208342 
L 643.366392 126.383004 
L 644.992917 127.182703 
L 646.619443 127.684725 
L 649.872495 128.318769 
L 654.752072 129.061371 
L 656.378598 123.460436 
L 662.884701 123.754256 
L 666.137752 123.829486 
L 667.764278 126.607269 
L 669.390804 126.833349 
L 671.01733 124.128565 
L 672.643856 123.867625 
L 684.029536 123.624455 
L 695.415217 123.176653 
L 701.92132 122.871022 
L 716.560052 122.066581 
L 721.439629 121.988619 
L 724.692681 112.558113 
L 726.319206 164.680223 
L 727.945732 204.759191 
L 729.572258 196.644389 
L 731.198784 165.842239 
L 732.825309 120.991407 
L 734.451835 114.682718 
L 736.078361 119.919213 
L 737.704887 123.132329 
L 739.331413 124.056084 
L 747.464041 124.721833 
L 750.717093 125.043049 
L 752.343619 125.557116 
L 753.970145 126.68237 
L 755.59667 127.384419 
L 757.223196 127.848074 
L 760.476248 128.480408 
L 763.729299 128.997658 
L 765.355825 123.524533 
L 773.488454 123.753956 
L 775.11498 124.284708 
L 776.741505 128.586508 
L 778.368031 128.581281 
L 781.621083 123.844372 
L 784.874134 123.753744 
L 806.018969 123.173163 
L 817.40465 122.635837 
L 832.043382 121.956976 
L 833.669908 121.361464 
L 835.296433 113.878225 
L 836.922959 110.735265 
L 838.549485 155.260977 
L 840.176011 147.48567 
L 841.802537 132.765118 
L 843.429062 124.61406 
L 845.055588 124.811247 
L 846.682114 124.302009 
L 849.935166 124.048969 
L 854.814743 124.130745 
L 861.320846 124.518134 
L 869.453475 125.221673 
L 877.586104 126.135502 
L 882.465681 126.78269 
L 884.092207 123.626135 
L 892.224836 123.789982 
L 900.357465 123.68641 
L 910.116619 123.392567 
L 910.116619 123.392567 
" clip-path="url(#p47549a6bbd)" style="fill: none; stroke-dasharray: 2,3.3; stroke-dashoffset: 0; stroke: #008000; stroke-width: 2"/>
   </g>
   <g id="patch_3">
    <path d="M 57.898438 242.258824 
L 57.898438 79.2 
" style="fill: none; stroke: #000000; stroke-width: 0.8; stroke-linejoin: miter; stroke-linecap: square"/>
   </g>
   <g id="patch_4">
    <path d="M 950.698437 242.258824 
L 950.698437 79.2 
" style="fill: none; stroke: #000000; stroke-width: 0.8; stroke-linejoin: miter; stroke-linecap: square"/>
   </g>
   <g id="patch_5">
    <path d="M 57.898438 242.258824 
L 950.698437 242.258824 
" style="fill: none; stroke: #000000; stroke-width: 0.8; stroke-linejoin: miter; stroke-linecap: square"/>
   </g>
   <g id="patch_6">
    <path d="M 57.898438 79.2 
L 950.698437 79.2 
" style="fill: none; stroke: #000000; stroke-width: 0.8; stroke-linejoin: miter; stroke-linecap: square"/>
   </g>
   <g id="legend_1">
    <g id="patch_7">
     <path d="M 844.698437 151.75625 
L 936.698437 151.75625 
Q 940.698437 151.75625 940.698437 147.75625 
L 940.698437 93.2 
Q 940.698437 89.2 936.698437 89.2 
L 844.698437 89.2 
Q 840.698437 89.2 840.698437 93.2 
L 840.698437 147.75625 
Q 840.698437 151.75625 844.698437 151.75625 
z
" style="fill: #ffffff; opacity: 0.8; stroke: #cccccc; stroke-linejoin: miter"/>
    </g>
    <g id="line2d_17">
     <path d="M 848.698437 104.2 
L 868.698437 104.2 
L 888.698437 104.2 
" style="fill: none; stroke: #ff0000; stroke-width: 2; stroke-linecap: square"/>
    </g>
    <g id="text_15">
     <!-- $v_x$ -->
     <g transform="translate(904.698437 111.2)scale(0.2 -0.2)">
      <defs>
       <path id="DejaVuSans-Oblique-76" d="M 459 3500 
L 1069 3500 
L 1581 525 
L 3256 3500 
L 3866 3500 
L 1875 0 
L 1100 0 
L 459 3500 
z
" transform="scale(0.015625)"/>
       <path id="DejaVuSans-Oblique-78" d="M 3841 3500 
L 2234 1784 
L 3219 0 
L 2559 0 
L 1819 1388 
L 531 0 
L -166 0 
L 1556 1844 
L 641 3500 
L 1300 3500 
L 1972 2234 
L 3144 3500 
L 3841 3500 
z
" transform="scale(0.015625)"/>
      </defs>
      <use xlink:href="#DejaVuSans-Oblique-76" transform="translate(0 0.3125)"/>
      <use xlink:href="#DejaVuSans-Oblique-78" transform="translate(59.179688 -16.09375)scale(0.7)"/>
     </g>
    </g>
    <g id="line2d_18">
     <path d="M 848.698437 132.478125 
L 868.698437 132.478125 
L 888.698437 132.478125 
" style="fill: none; stroke-dasharray: 2,3.3; stroke-dashoffset: 0; stroke: #008000; stroke-width: 2"/>
    </g>
    <g id="text_16">
     <!-- $v_{xs}$ -->
     <g transform="translate(904.698437 139.478125)scale(0.2 -0.2)">
      <defs>
       <path id="DejaVuSans-Oblique-73" d="M 3200 3397 
L 3091 2853 
Q 2863 2978 2609 3040 
Q 2356 3103 2088 3103 
Q 1634 3103 1373 2948 
Q 1113 2794 1113 2528 
Q 1113 2219 1719 2053 
Q 1766 2041 1788 2034 
L 1972 1978 
Q 2547 1819 2739 1644 
Q 2931 1469 2931 1166 
Q 2931 609 2489 259 
Q 2047 -91 1331 -91 
Q 1053 -91 747 -37 
Q 441 16 72 128 
L 184 722 
Q 500 559 806 475 
Q 1113 391 1394 391 
Q 1816 391 2080 572 
Q 2344 753 2344 1031 
Q 2344 1331 1650 1516 
L 1591 1531 
L 1394 1581 
Q 956 1697 753 1886 
Q 550 2075 550 2369 
Q 550 2928 970 3256 
Q 1391 3584 2113 3584 
Q 2397 3584 2667 3537 
Q 2938 3491 3200 3397 
z
" transform="scale(0.015625)"/>
      </defs>
      <use xlink:href="#DejaVuSans-Oblique-76" transform="translate(0 0.3125)"/>
      <use xlink:href="#DejaVuSans-Oblique-78" transform="translate(59.179688 -16.09375)scale(0.7)"/>
      <use xlink:href="#DejaVuSans-Oblique-73" transform="translate(100.605469 -16.09375)scale(0.7)"/>
     </g>
    </g>
   </g>
  </g>
  <g id="axes_2">
   <g id="patch_8">
    <path d="M 57.898438 437.929412 
L 950.698437 437.929412 
L 950.698437 274.870588 
L 57.898438 274.870588 
z
" style="fill: #ffffff"/>
   </g>
   <g id="matplotlib.axis_3">
    <g id="xtick_7">
     <g id="line2d_19">
      <g>
       <use xlink:href="#m007d1c09d4" x="96.85373" y="437.929412" style="stroke: #000000; stroke-width: 0.8"/>
      </g>
     </g>
     <g id="text_17">
      <!-- 0 -->
      <g transform="translate(93.67248 452.527849)scale(0.1 -0.1)">
       <use xlink:href="#DejaVuSans-30"/>
      </g>
     </g>
    </g>
    <g id="xtick_8">
     <g id="line2d_20">
      <g>
       <use xlink:href="#m007d1c09d4" x="259.506308" y="437.929412" style="stroke: #000000; stroke-width: 0.8"/>
      </g>
     </g>
     <g id="text_18">
      <!-- 1 -->
      <g transform="translate(256.325058 452.527849)scale(0.1 -0.1)">
       <use xlink:href="#DejaVuSans-31"/>
      </g>
     </g>
    </g>
    <g id="xtick_9">
     <g id="line2d_21">
      <g>
       <use xlink:href="#m007d1c09d4" x="422.158886" y="437.929412" style="stroke: #000000; stroke-width: 0.8"/>
      </g>
     </g>
     <g id="text_19">
      <!-- 2 -->
      <g transform="translate(418.977636 452.527849)scale(0.1 -0.1)">
       <use xlink:href="#DejaVuSans-32"/>
      </g>
     </g>
    </g>
    <g id="xtick_10">
     <g id="line2d_22">
      <g>
       <use xlink:href="#m007d1c09d4" x="584.811464" y="437.929412" style="stroke: #000000; stroke-width: 0.8"/>
      </g>
     </g>
     <g id="text_20">
      <!-- 3 -->
      <g transform="translate(581.630214 452.527849)scale(0.1 -0.1)">
       <use xlink:href="#DejaVuSans-33"/>
      </g>
     </g>
    </g>
    <g id="xtick_11">
     <g id="line2d_23">
      <g>
       <use xlink:href="#m007d1c09d4" x="747.464041" y="437.929412" style="stroke: #000000; stroke-width: 0.8"/>
      </g>
     </g>
     <g id="text_21">
      <!-- 4 -->
      <g transform="translate(744.282791 452.527849)scale(0.1 -0.1)">
       <use xlink:href="#DejaVuSans-34"/>
      </g>
     </g>
    </g>
    <g id="xtick_12">
     <g id="line2d_24">
      <g>
       <use xlink:href="#m007d1c09d4" x="910.116619" y="437.929412" style="stroke: #000000; stroke-width: 0.8"/>
      </g>
     </g>
     <g id="text_22">
      <!-- 5 -->
      <g transform="translate(906.935369 452.527849)scale(0.1 -0.1)">
       <use xlink:href="#DejaVuSans-35"/>
      </g>
     </g>
    </g>
   </g>
   <g id="matplotlib.axis_4">
    <g id="ytick_9">
     <g id="line2d_25">
      <g>
       <use xlink:href="#mb4e1e660d3" x="57.898438" y="415.817771" style="stroke: #000000; stroke-width: 0.8"/>
      </g>
     </g>
     <g id="text_23">
      <!-- −10 -->
      <g transform="translate(29.79375 419.61699)scale(0.1 -0.1)">
       <use xlink:href="#DejaVuSans-2212"/>
       <use xlink:href="#DejaVuSans-31" x="83.789062"/>
       <use xlink:href="#DejaVuSans-30" x="147.412109"/>
      </g>
     </g>
    </g>
    <g id="ytick_10">
     <g id="line2d_26">
      <g>
       <use xlink:href="#mb4e1e660d3" x="57.898438" y="380.764794" style="stroke: #000000; stroke-width: 0.8"/>
      </g>
     </g>
     <g id="text_24">
      <!-- −5 -->
      <g transform="translate(36.15625 384.564013)scale(0.1 -0.1)">
       <use xlink:href="#DejaVuSans-2212"/>
       <use xlink:href="#DejaVuSans-35" x="83.789062"/>
      </g>
     </g>
    </g>
    <g id="ytick_11">
     <g id="line2d_27">
      <g>
       <use xlink:href="#mb4e1e660d3" x="57.898438" y="345.711817" style="stroke: #000000; stroke-width: 0.8"/>
      </g>
     </g>
     <g id="text_25">
      <!-- 0 -->
      <g transform="translate(44.535938 349.511035)scale(0.1 -0.1)">
       <use xlink:href="#DejaVuSans-30"/>
      </g>
     </g>
    </g>
    <g id="ytick_12">
     <g id="line2d_28">
      <g>
       <use xlink:href="#mb4e1e660d3" x="57.898438" y="310.658839" style="stroke: #000000; stroke-width: 0.8"/>
      </g>
     </g>
     <g id="text_26">
      <!-- 5 -->
      <g transform="translate(44.535938 314.458058)scale(0.1 -0.1)">
       <use xlink:href="#DejaVuSans-35"/>
      </g>
     </g>
    </g>
    <g id="ytick_13">
     <g id="line2d_29">
      <g>
       <use xlink:href="#mb4e1e660d3" x="57.898438" y="275.605862" style="stroke: #000000; stroke-width: 0.8"/>
      </g>
     </g>
     <g id="text_27">
      <!-- 10 -->
      <g transform="translate(38.173438 279.405081)scale(0.1 -0.1)">
       <use xlink:href="#DejaVuSans-31"/>
       <use xlink:href="#DejaVuSans-30" x="63.623047"/>
      </g>
     </g>
    </g>
    <g id="text_28">
     <!-- 速度 [m/s] -->
     <g transform="translate(22.903125 406.4)rotate(-90)scale(0.2 -0.2)">
      <defs>
       <path id="FangSong-901f" d="M 3925 375 
Q 3900 125 3825 250 
L 3550 600 
Q 3650 775 3700 1025 
L 3700 2025 
Q 3050 1175 2125 575 
L 2050 675 
Q 2900 1300 3525 2225 
L 2925 2150 
Q 2925 1925 2875 1925 
Q 2850 1925 2625 2225 
Q 2700 2350 2700 2775 
Q 2700 3200 2600 3400 
L 2700 3475 
L 2925 3200 
L 3700 3275 
L 3700 3850 
Q 2825 3750 2675 3700 
L 2400 3925 
Q 2800 3950 3700 4050 
L 3700 4525 
Q 3675 4900 3550 5200 
L 3625 5275 
L 4025 4900 
Q 3925 4725 3925 4500 
L 3925 4075 
Q 4975 4175 5125 4275 
L 5425 4050 
Q 5000 4000 3925 3875 
L 3925 3300 
L 4750 3425 
L 4925 3600 
L 5175 3325 
L 5000 3175 
L 4900 2625 
L 5075 2350 
L 3925 2250 
L 3925 375 
z
M 1925 3050 
L 2225 2775 
L 2050 2600 
Q 1700 1950 1600 1725 
Q 1825 1375 1812 1187 
Q 1800 1000 1600 500 
Q 3025 200 3825 -12 
Q 4625 -225 4850 -225 
Q 5100 -225 5950 -125 
L 5975 -250 
Q 5225 -475 4875 -600 
Q 3800 -225 3100 -25 
Q 2400 175 1937 250 
Q 1475 325 1175 312 
Q 875 300 700 200 
L 400 475 
Q 700 575 1425 525 
Q 1600 1000 1600 1175 
Q 1600 1375 1425 1725 
Q 1500 2000 1775 2575 
Q 850 2425 725 2375 
L 400 2600 
Q 750 2625 1775 2775 
L 1925 3050 
z
M 3700 2425 
L 3700 3075 
L 2925 3000 
L 2925 2350 
L 3700 2425 
z
M 4650 2550 
L 4750 3200 
L 3925 3100 
L 3925 2450 
L 4650 2550 
z
M 5300 1275 
Q 5325 1025 5300 775 
Q 5075 1025 4050 1800 
L 4100 1900 
Q 4950 1450 5300 1275 
z
M 1850 3475 
Q 1675 3800 1025 4550 
L 1100 4650 
Q 1700 4225 1975 3950 
Q 1925 3700 1850 3475 
z
" transform="scale(0.015625)"/>
       <path id="FangSong-5ea6" d="M 3975 3250 
Q 4050 3725 4000 3950 
L 4050 4000 
L 4375 3750 
Q 4275 3650 4225 3275 
Q 4975 3350 5175 3400 
L 5450 3150 
Q 5175 3150 4175 3025 
L 4100 2450 
L 4250 2225 
L 2950 2100 
Q 2950 1850 2850 1900 
L 2625 2175 
Q 2700 2275 2725 2425 
L 2725 2875 
Q 2250 2825 2025 2750 
L 1800 2925 
Q 1750 1825 1400 937 
Q 1050 50 525 -550 
L 425 -475 
Q 900 225 1137 825 
Q 1375 1425 1462 1962 
Q 1550 2500 1575 3337 
Q 1600 4175 1525 4600 
L 1625 4600 
L 1800 4075 
Q 5100 4350 5175 4450 
L 5475 4150 
Q 5225 4200 2775 3925 
L 3025 3675 
Q 2975 3550 2950 3400 
L 2950 3150 
L 3975 3250 
z
M 4750 -675 
Q 4600 -525 4350 -300 
Q 4100 -75 3475 400 
Q 2500 -375 1300 -600 
L 1275 -500 
Q 2650 -25 3275 550 
Q 3025 800 2812 950 
Q 2600 1100 2475 1075 
L 2450 1150 
L 2825 1275 
Q 2825 1175 3025 1012 
Q 3225 850 3450 675 
Q 3925 1175 4100 1500 
Q 2675 1375 2475 1300 
L 2225 1575 
Q 2675 1575 4225 1750 
L 4350 1900 
L 4675 1650 
L 4475 1500 
Q 4100 1025 3650 525 
Q 4200 75 4450 -100 
Q 4700 -275 4925 -325 
Q 5150 -375 5850 -350 
L 5850 -450 
L 4750 -675 
z
M 1800 3025 
Q 2125 3050 2725 3100 
L 2725 3475 
Q 2700 3725 2650 3925 
L 1825 3850 
L 1800 3025 
z
M 3850 2450 
L 3925 3000 
L 2950 2900 
L 2950 2350 
L 3850 2450 
z
M 3525 4350 
Q 3275 4750 2950 5200 
L 3025 5275 
Q 3375 5000 3700 4750 
Q 3650 4550 3525 4350 
z
" transform="scale(0.015625)"/>
       <path id="FangSong-20" transform="scale(0.015625)"/>
       <path id="FangSong-5b" d="M 2725 5100 
L 2725 4875 
L 1475 4875 
L 1475 -225 
L 2725 -225 
L 2725 -450 
L 1225 -450 
L 1225 5100 
L 2725 5100 
z
" transform="scale(0.015625)"/>
       <path id="FangSong-6d" d="M 150 2800 
Q 275 2800 400 2825 
Q 525 2850 600 2900 
L 650 2900 
L 650 2475 
Q 775 2675 925 2762 
Q 1075 2850 1250 2850 
Q 1475 2850 1600 2762 
Q 1725 2675 1750 2475 
Q 1875 2675 2037 2762 
Q 2200 2850 2375 2850 
Q 2675 2850 2787 2675 
Q 2900 2500 2900 2225 
L 2900 325 
Q 2900 225 2950 187 
Q 3000 150 3100 150 
L 3150 150 
L 3150 0 
L 2300 0 
L 2300 150 
L 2350 150 
Q 2450 150 2500 187 
Q 2550 225 2550 325 
L 2550 2200 
Q 2550 2475 2487 2562 
Q 2425 2650 2300 2650 
Q 2125 2650 1987 2525 
Q 1850 2400 1775 2175 
L 1775 325 
Q 1775 225 1825 187 
Q 1875 150 1975 150 
L 2025 150 
L 2025 0 
L 1175 0 
L 1175 150 
L 1225 150 
Q 1325 150 1375 187 
Q 1425 225 1425 325 
L 1425 2200 
Q 1425 2425 1375 2537 
Q 1325 2650 1175 2650 
Q 1000 2650 862 2525 
Q 725 2400 650 2150 
L 650 325 
Q 650 225 700 187 
Q 750 150 850 150 
L 900 150 
L 900 0 
L 50 0 
L 50 150 
L 100 150 
Q 200 150 250 187 
Q 300 225 300 325 
L 300 2500 
Q 300 2575 275 2612 
Q 250 2650 175 2650 
L 75 2650 
L 75 2800 
L 150 2800 
z
" transform="scale(0.015625)"/>
       <path id="FangSong-2f" d="M 375 -575 
L 200 -475 
L 2750 4875 
L 2925 4775 
L 375 -575 
z
" transform="scale(0.015625)"/>
       <path id="FangSong-73" d="M 600 2075 
Q 600 2450 887 2650 
Q 1175 2850 1575 2850 
Q 1800 2850 2000 2787 
Q 2200 2725 2275 2725 
Q 2350 2725 2400 2750 
Q 2450 2775 2525 2850 
L 2625 2025 
L 2475 2000 
Q 2375 2325 2137 2512 
Q 1900 2700 1600 2700 
Q 1275 2700 1087 2575 
Q 900 2450 900 2225 
Q 900 2025 987 1912 
Q 1075 1800 1300 1750 
Q 1475 1675 1737 1587 
Q 2000 1500 2225 1400 
Q 2425 1300 2562 1137 
Q 2700 975 2700 775 
Q 2700 400 2437 187 
Q 2175 -25 1675 -25 
Q 1350 -25 1187 37 
Q 1025 100 925 100 
Q 850 100 762 62 
Q 675 25 575 -25 
L 500 900 
L 650 925 
Q 725 525 975 325 
Q 1225 125 1675 125 
Q 2025 125 2212 250 
Q 2400 375 2400 625 
Q 2400 800 2300 912 
Q 2200 1025 2100 1075 
Q 1850 1175 1550 1287 
Q 1250 1400 1025 1500 
Q 800 1600 700 1750 
Q 600 1900 600 2075 
z
" transform="scale(0.015625)"/>
       <path id="FangSong-5d" d="M 1900 -450 
L 400 -450 
L 400 -225 
L 1650 -225 
L 1650 4875 
L 400 4875 
L 400 5100 
L 1900 5100 
L 1900 -450 
z
" transform="scale(0.015625)"/>
      </defs>
      <use xlink:href="#FangSong-901f"/>
      <use xlink:href="#FangSong-5ea6" x="100"/>
      <use xlink:href="#FangSong-20" x="200"/>
      <use xlink:href="#FangSong-5b" x="250"/>
      <use xlink:href="#FangSong-6d" x="300"/>
      <use xlink:href="#FangSong-2f" x="350"/>
      <use xlink:href="#FangSong-73" x="400"/>
      <use xlink:href="#FangSong-5d" x="450"/>
     </g>
    </g>
   </g>
   <g id="line2d_30">
    <path d="M 98.480256 346.067142 
L 100.106781 345.714188 
L 148.902555 345.717439 
L 155.408658 345.715249 
L 178.180019 345.733116 
L 179.806545 345.822986 
L 181.43307 346.365512 
L 183.059596 341.428335 
L 184.686122 325.590266 
L 186.312648 341.606542 
L 187.939174 340.795095 
L 189.565699 343.176566 
L 191.192225 343.907666 
L 192.818751 344.420136 
L 196.071802 344.859624 
L 200.95138 345.028051 
L 213.963586 345.055791 
L 230.228844 345.006128 
L 231.85537 349.84323 
L 233.481895 351.884576 
L 235.108421 353.052629 
L 236.734947 353.518152 
L 238.361473 353.343589 
L 239.987998 352.675308 
L 241.614524 351.666033 
L 246.494102 348.067821 
L 249.747153 346.197244 
L 251.373679 345.61655 
L 261.132834 345.755443 
L 264.385885 346.030861 
L 274.14504 347.123254 
L 277.398091 347.275044 
L 282.277669 347.241059 
L 285.53072 347.063225 
L 287.157246 346.402381 
L 288.783772 336.29834 
L 290.410298 314.292206 
L 292.036823 331.042696 
L 293.663349 338.202701 
L 295.289875 341.835162 
L 296.916401 344.585526 
L 298.542926 344.945421 
L 300.169452 345.650817 
L 303.422504 345.751597 
L 329.446916 345.829664 
L 331.073442 344.501703 
L 332.699968 347.033918 
L 337.579545 348.04039 
L 340.832597 348.305332 
L 344.085648 348.185528 
L 350.591751 347.467439 
L 353.844803 347.188709 
L 357.097855 347.066851 
L 361.977432 347.151937 
L 373.363112 347.712762 
L 378.24269 347.567133 
L 384.748793 347.633497 
L 396.134473 347.891052 
L 397.760999 347.453561 
L 399.387525 330.987188 
L 401.014051 297.31095 
L 402.640576 318.887408 
L 404.267102 333.544009 
L 405.893628 340.850532 
L 407.520154 343.829413 
L 409.146679 342.442638 
L 410.773205 344.96802 
L 412.399731 345.483833 
L 414.026257 345.714916 
L 418.905834 345.751966 
L 430.291515 345.802263 
L 431.91804 344.827434 
L 433.544566 348.339971 
L 436.797618 348.659916 
L 440.050669 348.994106 
L 441.677195 349.019687 
L 443.303721 348.717263 
L 444.930247 348.06901 
L 446.556772 347.851069 
L 448.183298 347.863457 
L 451.43635 347.4261 
L 453.062875 347.244493 
L 454.689401 347.255009 
L 456.315927 347.501061 
L 461.195504 347.414251 
L 475.834236 347.524934 
L 490.472968 347.485146 
L 498.605597 347.50243 
L 503.485175 347.435731 
L 508.364752 347.578994 
L 509.991278 347.758384 
L 511.617804 347.75338 
L 513.244329 333.733552 
L 514.870855 298.082654 
L 516.497381 336.233583 
L 518.123907 331.076213 
L 519.750432 341.017374 
L 521.376958 340.856338 
L 523.003484 343.585173 
L 524.63001 343.892237 
L 526.256536 344.689413 
L 531.136113 345.200827 
L 536.01569 345.339975 
L 553.907474 345.407991 
L 555.534 344.876562 
L 557.160525 350.73747 
L 558.787051 352.580912 
L 560.413577 353.830557 
L 562.040103 354.325354 
L 563.666628 354.171982 
L 565.293154 353.472636 
L 566.91968 352.424408 
L 573.425783 347.512123 
L 575.052309 346.630639 
L 576.678835 346.13234 
L 581.558412 345.87648 
L 584.811464 345.781025 
L 588.064515 346.063048 
L 599.450196 347.704883 
L 602.703247 347.867824 
L 605.956299 347.805112 
L 609.20935 347.556179 
L 612.462402 346.434009 
L 614.088928 338.669522 
L 615.715453 323.139288 
L 617.341979 330.951983 
L 618.968505 340.527785 
L 620.595031 342.686101 
L 622.221556 345.308251 
L 623.848082 345.223685 
L 628.72766 345.740193 
L 654.752072 345.852618 
L 656.378598 344.301683 
L 658.005124 347.032464 
L 666.137752 348.569787 
L 667.764278 348.633211 
L 669.390804 348.348341 
L 671.01733 348.177009 
L 672.643856 348.326229 
L 682.40301 347.517114 
L 687.282588 347.536985 
L 697.041742 347.885281 
L 706.800897 347.969452 
L 721.439629 348.487146 
L 723.066155 348.446749 
L 724.692681 347.686694 
L 726.319206 326.743469 
L 727.945732 282.282353 
L 729.572258 314.908944 
L 731.198784 328.886158 
L 732.825309 338.278775 
L 734.451835 342.458049 
L 736.078361 342.73362 
L 737.704887 345.005416 
L 739.331413 345.26419 
L 740.957938 345.776071 
L 753.970145 345.814375 
L 758.849722 345.98287 
L 763.729299 346.010818 
L 765.355825 344.495316 
L 766.982351 349.04486 
L 770.235402 350.241593 
L 771.861928 350.690311 
L 773.488454 350.954606 
L 775.11498 350.938004 
L 776.741505 350.544822 
L 778.368031 349.122825 
L 779.994557 348.287681 
L 781.621083 348.320558 
L 783.247609 348.562619 
L 786.50066 347.709709 
L 789.753712 347.201146 
L 793.006763 347.050906 
L 797.886341 347.198019 
L 804.392444 347.458644 
L 812.525073 347.325362 
L 822.284227 346.921653 
L 828.79033 346.93647 
L 833.669908 347.057228 
L 835.296433 347.210905 
L 836.922959 347.506433 
L 838.549485 340.409005 
L 840.176011 322.270612 
L 841.802537 338.006705 
L 843.429062 339.531972 
L 845.055588 342.724353 
L 848.30864 344.4393 
L 851.561691 345.037061 
L 856.441269 345.279617 
L 866.200423 345.344062 
L 882.465681 345.37537 
L 884.092207 344.877027 
L 885.718733 349.148477 
L 887.345258 350.496253 
L 888.971784 351.392829 
L 890.59831 351.857386 
L 892.224836 351.85183 
L 893.851362 351.481198 
L 895.477887 350.829168 
L 901.98399 347.549913 
L 903.610516 346.943557 
L 905.237042 346.501898 
L 906.863568 346.227831 
L 908.490094 346.111268 
L 910.116619 346.128559 
L 910.116619 346.128559 
" clip-path="url(#p9f9e340ad9)" style="fill: none; stroke: #ff0000; stroke-width: 2; stroke-linecap: square"/>
   </g>
   <g id="line2d_31">
    <path d="M 98.480256 345.711817 
L 100.106781 334.454109 
L 101.733307 337.169639 
L 103.359833 341.809098 
L 104.986359 344.687463 
L 106.612885 345.655957 
L 121.251617 345.554575 
L 122.878142 346.565555 
L 148.902555 345.933998 
L 153.782132 345.64841 
L 165.167813 345.218518 
L 178.180019 344.753457 
L 181.43307 330.103616 
L 183.059596 315.290414 
L 184.686122 321.591388 
L 186.312648 325.047884 
L 187.939174 333.810366 
L 189.565699 338.11949 
L 191.192225 340.318927 
L 192.818751 341.115653 
L 204.204431 341.188302 
L 209.084009 341.291585 
L 210.710534 341.591812 
L 212.33706 342.266711 
L 213.963586 342.63363 
L 217.216638 343.014502 
L 228.602318 343.766757 
L 230.228844 346.462812 
L 231.85537 346.196754 
L 233.481895 346.416677 
L 243.24105 346.33331 
L 254.62673 346.015704 
L 257.879782 345.778387 
L 274.14504 345.177011 
L 282.277669 344.904309 
L 283.904194 344.913969 
L 285.53072 342.636684 
L 287.157246 336.487578 
L 288.783772 380.482177 
L 290.410298 397.088051 
L 292.036823 389.9555 
L 293.663349 369.728063 
L 295.289875 345.201215 
L 296.916401 344.319596 
L 298.542926 345.360271 
L 308.302081 345.971005 
L 311.555133 346.224271 
L 313.181658 347.205739 
L 314.808184 347.912854 
L 316.43471 348.347754 
L 319.687762 348.878988 
L 329.446916 350.085664 
L 331.073442 346.138351 
L 339.206071 346.400914 
L 340.832597 346.42805 
L 342.459123 346.679137 
L 344.085648 347.774658 
L 345.712174 346.436771 
L 357.097855 346.247679 
L 373.363112 345.769043 
L 389.62837 345.018181 
L 394.507947 344.941088 
L 396.134473 341.954192 
L 397.760999 337.529209 
L 401.014051 430.517647 
L 402.640576 427.419195 
L 404.267102 396.665297 
L 405.893628 341.225482 
L 407.520154 332.902145 
L 409.146679 339.796892 
L 410.773205 344.656315 
L 412.399731 347.191652 
L 414.026257 347.800854 
L 423.785411 348.554767 
L 427.038463 348.852458 
L 428.664989 349.512989 
L 430.291515 350.305811 
L 431.91804 346.265269 
L 438.424143 346.280957 
L 440.050669 346.317427 
L 441.677195 348.712717 
L 443.303721 353.182098 
L 444.930247 350.921253 
L 446.556772 348.939892 
L 448.183298 348.777806 
L 449.809824 349.381367 
L 451.43635 349.623873 
L 453.062875 348.746442 
L 454.689401 346.39204 
L 483.966865 345.792807 
L 505.1117 344.900541 
L 506.738226 344.908496 
L 508.364752 343.955349 
L 509.991278 337.540414 
L 511.617804 335.201919 
L 513.244329 344.167232 
L 514.870855 344.000946 
L 516.497381 344.26551 
L 519.750432 345.149816 
L 526.256536 345.52034 
L 539.268742 346.034883 
L 549.027896 346.642558 
L 553.907474 347.023566 
L 555.534 346.270427 
L 568.546206 346.354579 
L 579.931886 346.075759 
L 583.184938 345.871575 
L 597.82367 345.229591 
L 607.582824 344.84723 
L 609.20935 344.581891 
L 610.835876 338.541292 
L 612.462402 335.430056 
L 614.088928 378.486145 
L 615.715453 409.966665 
L 617.341979 408.17812 
L 618.968505 385.665574 
L 620.595031 353.456056 
L 622.221556 337.995202 
L 623.848082 339.70315 
L 625.474608 343.892326 
L 627.101134 346.310872 
L 628.72766 346.63983 
L 638.486814 347.362375 
L 641.739866 347.650966 
L 643.366392 348.656779 
L 644.992917 349.341527 
L 646.619443 349.771386 
L 649.872495 350.314292 
L 654.752072 350.95015 
L 656.378598 346.154309 
L 664.511227 346.452487 
L 666.137752 346.470311 
L 667.764278 348.848807 
L 669.390804 349.042389 
L 671.01733 346.726399 
L 672.643856 346.502967 
L 684.029536 346.294751 
L 698.668268 345.825254 
L 714.933526 345.02157 
L 719.813103 344.860051 
L 721.439629 344.894056 
L 724.692681 336.819118 
L 726.319206 381.449045 
L 727.945732 415.766946 
L 729.572258 408.818589 
L 731.198784 382.444029 
L 732.825309 344.040185 
L 734.451835 338.638326 
L 736.078361 343.122112 
L 737.704887 345.873365 
L 739.331413 346.664337 
L 749.090567 347.369068 
L 750.717093 347.509433 
L 752.343619 347.949606 
L 753.970145 348.913113 
L 755.59667 349.514247 
L 758.849722 350.206344 
L 763.729299 350.895595 
L 765.355825 346.209193 
L 773.488454 346.405638 
L 775.11498 346.860098 
L 776.741505 350.543545 
L 778.368031 350.539069 
L 781.621083 346.483057 
L 784.874134 346.405456 
L 809.272021 345.823255 
L 830.416856 344.920811 
L 832.043382 344.866961 
L 833.669908 344.357049 
L 835.296433 337.949473 
L 836.922959 335.258291 
L 838.549485 373.383749 
L 840.176011 366.726086 
L 841.802537 354.12151 
L 843.429062 347.142108 
L 845.055588 347.31095 
L 846.682114 346.874912 
L 849.935166 346.658245 
L 854.814743 346.728266 
L 862.947372 347.165631 
L 872.706526 347.953993 
L 882.465681 348.999013 
L 884.092207 346.29619 
L 892.224836 346.436485 
L 901.98399 346.312121 
L 910.116619 346.096196 
L 910.116619 346.096196 
" clip-path="url(#p9f9e340ad9)" style="fill: none; stroke-dasharray: 2,3.3; stroke-dashoffset: 0; stroke: #008000; stroke-width: 2"/>
   </g>
   <g id="patch_9">
    <path d="M 57.898438 437.929412 
L 57.898438 274.870588 
" style="fill: none; stroke: #000000; stroke-width: 0.8; stroke-linejoin: miter; stroke-linecap: square"/>
   </g>
   <g id="patch_10">
    <path d="M 950.698437 437.929412 
L 950.698437 274.870588 
" style="fill: none; stroke: #000000; stroke-width: 0.8; stroke-linejoin: miter; stroke-linecap: square"/>
   </g>
   <g id="patch_11">
    <path d="M 57.898438 437.929412 
L 950.698437 437.929412 
" style="fill: none; stroke: #000000; stroke-width: 0.8; stroke-linejoin: miter; stroke-linecap: square"/>
   </g>
   <g id="patch_12">
    <path d="M 57.898438 274.870588 
L 950.698437 274.870588 
" style="fill: none; stroke: #000000; stroke-width: 0.8; stroke-linejoin: miter; stroke-linecap: square"/>
   </g>
   <g id="legend_2">
    <g id="patch_13">
     <path d="M 844.698437 351.270588 
L 936.698437 351.270588 
Q 940.698437 351.270588 940.698437 347.270588 
L 940.698437 288.870588 
Q 940.698437 284.870588 936.698437 284.870588 
L 844.698437 284.870588 
Q 840.698437 284.870588 840.698437 288.870588 
L 840.698437 347.270588 
Q 840.698437 351.270588 844.698437 351.270588 
z
" style="fill: #ffffff; opacity: 0.8; stroke: #cccccc; stroke-linejoin: miter"/>
    </g>
    <g id="line2d_32">
     <path d="M 848.698437 299.870588 
L 868.698437 299.870588 
L 888.698437 299.870588 
" style="fill: none; stroke: #ff0000; stroke-width: 2; stroke-linecap: square"/>
    </g>
    <g id="text_29">
     <!-- $v_y$ -->
     <g transform="translate(904.698437 306.870588)scale(0.2 -0.2)">
      <defs>
       <path id="DejaVuSans-Oblique-79" d="M 1588 -325 
Q 1188 -997 936 -1164 
Q 684 -1331 294 -1331 
L -159 -1331 
L -63 -850 
L 269 -850 
Q 509 -850 678 -719 
Q 847 -588 1056 -206 
L 1234 128 
L 459 3500 
L 1069 3500 
L 1650 819 
L 3256 3500 
L 3859 3500 
L 1588 -325 
z
" transform="scale(0.015625)"/>
      </defs>
      <use xlink:href="#DejaVuSans-Oblique-76" transform="translate(0 0.3125)"/>
      <use xlink:href="#DejaVuSans-Oblique-79" transform="translate(59.179688 -16.09375)scale(0.7)"/>
     </g>
    </g>
    <g id="line2d_33">
     <path d="M 848.698437 330.070588 
L 868.698437 330.070588 
L 888.698437 330.070588 
" style="fill: none; stroke-dasharray: 2,3.3; stroke-dashoffset: 0; stroke: #008000; stroke-width: 2"/>
    </g>
    <g id="text_30">
     <!-- $v_{ys}$ -->
     <g transform="translate(904.698437 337.070588)scale(0.2 -0.2)">
      <use xlink:href="#DejaVuSans-Oblique-76" transform="translate(0 0.3125)"/>
      <use xlink:href="#DejaVuSans-Oblique-79" transform="translate(59.179688 -16.09375)scale(0.7)"/>
      <use xlink:href="#DejaVuSans-Oblique-73" transform="translate(100.605469 -16.09375)scale(0.7)"/>
     </g>
    </g>
   </g>
  </g>
  <g id="axes_3">
   <g id="patch_14">
    <path d="M 57.898438 633.6 
L 950.698437 633.6 
L 950.698437 470.541176 
L 57.898438 470.541176 
z
" style="fill: #ffffff"/>
   </g>
   <g id="matplotlib.axis_5">
    <g id="xtick_13">
     <g id="line2d_34">
      <g>
       <use xlink:href="#m007d1c09d4" x="96.85373" y="633.6" style="stroke: #000000; stroke-width: 0.8"/>
      </g>
     </g>
     <g id="text_31">
      <!-- 0 -->
      <g transform="translate(91.85373 654.4875)scale(0.2 -0.2)">
       <defs>
        <path id="TimesNewRomanPSMT-30" d="M 231 2094 
Q 231 2819 450 3342 
Q 669 3866 1031 4122 
Q 1313 4325 1613 4325 
Q 2100 4325 2488 3828 
Q 2972 3213 2972 2159 
Q 2972 1422 2759 906 
Q 2547 391 2217 158 
Q 1888 -75 1581 -75 
Q 975 -75 572 641 
Q 231 1244 231 2094 
z
M 844 2016 
Q 844 1141 1059 588 
Q 1238 122 1591 122 
Q 1759 122 1940 273 
Q 2122 425 2216 781 
Q 2359 1319 2359 2297 
Q 2359 3022 2209 3506 
Q 2097 3866 1919 4016 
Q 1791 4119 1609 4119 
Q 1397 4119 1231 3928 
Q 1006 3669 925 3112 
Q 844 2556 844 2016 
z
" transform="scale(0.015625)"/>
       </defs>
       <use xlink:href="#TimesNewRomanPSMT-30"/>
      </g>
     </g>
    </g>
    <g id="xtick_14">
     <g id="line2d_35">
      <g>
       <use xlink:href="#m007d1c09d4" x="259.506308" y="633.6" style="stroke: #000000; stroke-width: 0.8"/>
      </g>
     </g>
     <g id="text_32">
      <!-- 1 -->
      <g transform="translate(254.506308 654.4875)scale(0.2 -0.2)">
       <defs>
        <path id="TimesNewRomanPSMT-31" d="M 750 3822 
L 1781 4325 
L 1884 4325 
L 1884 747 
Q 1884 391 1914 303 
Q 1944 216 2037 169 
Q 2131 122 2419 116 
L 2419 0 
L 825 0 
L 825 116 
Q 1125 122 1212 167 
Q 1300 213 1334 289 
Q 1369 366 1369 747 
L 1369 3034 
Q 1369 3497 1338 3628 
Q 1316 3728 1258 3775 
Q 1200 3822 1119 3822 
Q 1003 3822 797 3725 
L 750 3822 
z
" transform="scale(0.015625)"/>
       </defs>
       <use xlink:href="#TimesNewRomanPSMT-31"/>
      </g>
     </g>
    </g>
    <g id="xtick_15">
     <g id="line2d_36">
      <g>
       <use xlink:href="#m007d1c09d4" x="422.158886" y="633.6" style="stroke: #000000; stroke-width: 0.8"/>
      </g>
     </g>
     <g id="text_33">
      <!-- 2 -->
      <g transform="translate(417.158886 654.4875)scale(0.2 -0.2)">
       <defs>
        <path id="TimesNewRomanPSMT-32" d="M 2934 816 
L 2638 0 
L 138 0 
L 138 116 
Q 1241 1122 1691 1759 
Q 2141 2397 2141 2925 
Q 2141 3328 1894 3587 
Q 1647 3847 1303 3847 
Q 991 3847 742 3664 
Q 494 3481 375 3128 
L 259 3128 
Q 338 3706 661 4015 
Q 984 4325 1469 4325 
Q 1984 4325 2329 3994 
Q 2675 3663 2675 3213 
Q 2675 2891 2525 2569 
Q 2294 2063 1775 1497 
Q 997 647 803 472 
L 1909 472 
Q 2247 472 2383 497 
Q 2519 522 2628 598 
Q 2738 675 2819 816 
L 2934 816 
z
" transform="scale(0.015625)"/>
       </defs>
       <use xlink:href="#TimesNewRomanPSMT-32"/>
      </g>
     </g>
    </g>
    <g id="xtick_16">
     <g id="line2d_37">
      <g>
       <use xlink:href="#m007d1c09d4" x="584.811464" y="633.6" style="stroke: #000000; stroke-width: 0.8"/>
      </g>
     </g>
     <g id="text_34">
      <!-- 3 -->
      <g transform="translate(579.811464 654.4875)scale(0.2 -0.2)">
       <defs>
        <path id="TimesNewRomanPSMT-33" d="M 325 3431 
Q 506 3859 782 4092 
Q 1059 4325 1472 4325 
Q 1981 4325 2253 3994 
Q 2459 3747 2459 3466 
Q 2459 3003 1878 2509 
Q 2269 2356 2469 2072 
Q 2669 1788 2669 1403 
Q 2669 853 2319 450 
Q 1863 -75 997 -75 
Q 569 -75 414 31 
Q 259 138 259 259 
Q 259 350 332 419 
Q 406 488 509 488 
Q 588 488 669 463 
Q 722 447 909 348 
Q 1097 250 1169 231 
Q 1284 197 1416 197 
Q 1734 197 1970 444 
Q 2206 691 2206 1028 
Q 2206 1275 2097 1509 
Q 2016 1684 1919 1775 
Q 1784 1900 1550 2001 
Q 1316 2103 1072 2103 
L 972 2103 
L 972 2197 
Q 1219 2228 1467 2375 
Q 1716 2522 1828 2728 
Q 1941 2934 1941 3181 
Q 1941 3503 1739 3701 
Q 1538 3900 1238 3900 
Q 753 3900 428 3381 
L 325 3431 
z
" transform="scale(0.015625)"/>
       </defs>
       <use xlink:href="#TimesNewRomanPSMT-33"/>
      </g>
     </g>
    </g>
    <g id="xtick_17">
     <g id="line2d_38">
      <g>
       <use xlink:href="#m007d1c09d4" x="747.464041" y="633.6" style="stroke: #000000; stroke-width: 0.8"/>
      </g>
     </g>
     <g id="text_35">
      <!-- 4 -->
      <g transform="translate(742.464041 654.4875)scale(0.2 -0.2)">
       <defs>
        <path id="TimesNewRomanPSMT-34" d="M 2978 1563 
L 2978 1119 
L 2409 1119 
L 2409 0 
L 1894 0 
L 1894 1119 
L 100 1119 
L 100 1519 
L 2066 4325 
L 2409 4325 
L 2409 1563 
L 2978 1563 
z
M 1894 1563 
L 1894 3666 
L 406 1563 
L 1894 1563 
z
" transform="scale(0.015625)"/>
       </defs>
       <use xlink:href="#TimesNewRomanPSMT-34"/>
      </g>
     </g>
    </g>
    <g id="xtick_18">
     <g id="line2d_39">
      <g>
       <use xlink:href="#m007d1c09d4" x="910.116619" y="633.6" style="stroke: #000000; stroke-width: 0.8"/>
      </g>
     </g>
     <g id="text_36">
      <!-- 5 -->
      <g transform="translate(905.116619 654.4875)scale(0.2 -0.2)">
       <defs>
        <path id="TimesNewRomanPSMT-35" d="M 2778 4238 
L 2534 3706 
L 1259 3706 
L 981 3138 
Q 1809 3016 2294 2522 
Q 2709 2097 2709 1522 
Q 2709 1188 2573 903 
Q 2438 619 2231 419 
Q 2025 219 1772 97 
Q 1413 -75 1034 -75 
Q 653 -75 479 54 
Q 306 184 306 341 
Q 306 428 378 495 
Q 450 563 559 563 
Q 641 563 702 538 
Q 763 513 909 409 
Q 1144 247 1384 247 
Q 1750 247 2026 523 
Q 2303 800 2303 1197 
Q 2303 1581 2056 1914 
Q 1809 2247 1375 2428 
Q 1034 2569 447 2591 
L 1259 4238 
L 2778 4238 
z
" transform="scale(0.015625)"/>
       </defs>
       <use xlink:href="#TimesNewRomanPSMT-35"/>
      </g>
     </g>
    </g>
    <g id="text_37">
     <!-- 时间 [s] -->
     <g transform="translate(464.298437 678.390625)scale(0.2 -0.2)">
      <defs>
       <path id="FangSong-65f6" d="M 1200 725 
Q 1225 -50 1100 125 
L 875 550 
Q 1000 725 975 1125 
L 975 3350 
Q 975 3850 900 4375 
L 975 4400 
L 1150 3925 
L 2275 4100 
L 2400 4325 
L 2700 4100 
L 2525 3875 
Q 2525 1425 2462 837 
Q 2400 250 2325 337 
Q 2250 425 2200 850 
L 1200 725 
z
M 1200 975 
Q 1925 1050 1975 1100 
L 2225 850 
Q 2275 1625 2275 2175 
L 2275 3825 
L 1200 3675 
L 1200 2525 
Q 1875 2600 2025 2700 
L 2250 2400 
Q 1900 2375 1200 2275 
L 1200 975 
z
M 4325 5250 
L 4775 4875 
Q 4625 4775 4650 4300 
L 4650 3100 
Q 5650 3225 5650 3325 
L 6000 3025 
Q 5625 3000 4650 2875 
L 4650 425 
Q 4675 -350 4475 -675 
Q 4225 -325 3400 275 
L 3450 375 
L 4375 -150 
Q 4425 150 4425 425 
L 4425 2850 
Q 3100 2675 2900 2600 
L 2550 2900 
Q 3000 2900 4425 3075 
L 4425 4400 
Q 4450 4925 4250 5175 
L 4325 5250 
z
M 3525 1275 
Q 3325 1850 3050 2450 
L 3125 2500 
Q 3425 2100 3725 1675 
Q 3650 1500 3525 1275 
z
" transform="scale(0.015625)"/>
       <path id="FangSong-95f4" d="M 4150 1450 
L 2525 1300 
Q 2550 800 2450 900 
L 2225 1275 
Q 2300 1400 2300 1650 
L 2300 2875 
Q 2325 3225 2200 3525 
L 2275 3575 
L 2500 3225 
L 3750 3400 
L 3900 3600 
L 4200 3325 
L 4025 3150 
L 3975 1650 
L 4150 1450 
z
M 5000 4925 
L 5325 4675 
L 5175 4475 
L 5175 450 
Q 5175 -325 4975 -650 
Q 4700 -225 3975 500 
L 4050 575 
L 4875 -75 
Q 4925 -75 4950 425 
L 4950 4475 
Q 3075 4275 2925 4250 
L 2550 4475 
Q 2925 4450 4875 4700 
L 5000 4925 
z
M 3775 3150 
L 2525 3000 
L 2525 2375 
Q 3225 2475 3300 2550 
L 3550 2300 
Q 3300 2300 2525 2175 
L 2525 1525 
L 3725 1650 
L 3775 3150 
z
M 1400 -225 
Q 1425 -675 1325 -550 
L 1075 -175 
Q 1175 -25 1175 350 
L 1175 3475 
Q 1175 3900 1025 4225 
L 1100 4275 
L 1475 3875 
Q 1400 3725 1400 3375 
L 1400 -225 
z
M 1425 5175 
Q 1950 4725 2200 4525 
Q 2125 4275 2050 4075 
Q 1875 4425 1350 5100 
L 1425 5175 
z
" transform="scale(0.015625)"/>
      </defs>
      <use xlink:href="#FangSong-65f6"/>
      <use xlink:href="#FangSong-95f4" x="100"/>
      <use xlink:href="#FangSong-20" x="200"/>
      <use xlink:href="#FangSong-5b" x="250"/>
      <use xlink:href="#FangSong-73" x="300"/>
      <use xlink:href="#FangSong-5d" x="350"/>
     </g>
    </g>
   </g>
   <g id="matplotlib.axis_6">
    <g id="ytick_14">
     <g id="line2d_40">
      <g>
       <use xlink:href="#mb4e1e660d3" x="57.898438" y="610.599674" style="stroke: #000000; stroke-width: 0.8"/>
      </g>
     </g>
     <g id="text_38">
      <!-- −10 -->
      <g transform="translate(19.620313 617.543424)scale(0.2 -0.2)">
       <defs>
        <path id="TimesNewRomanPSMT-2212" d="M 3484 2000 
L 116 2000 
L 116 2256 
L 3484 2256 
L 3484 2000 
z
" transform="scale(0.015625)"/>
       </defs>
       <use xlink:href="#TimesNewRomanPSMT-2212"/>
       <use xlink:href="#TimesNewRomanPSMT-31" x="56.396484"/>
       <use xlink:href="#TimesNewRomanPSMT-30" x="106.396484"/>
      </g>
     </g>
    </g>
    <g id="ytick_15">
     <g id="line2d_41">
      <g>
       <use xlink:href="#mb4e1e660d3" x="57.898438" y="573.427559" style="stroke: #000000; stroke-width: 0.8"/>
      </g>
     </g>
     <g id="text_39">
      <!-- −5 -->
      <g transform="translate(29.620313 580.371309)scale(0.2 -0.2)">
       <use xlink:href="#TimesNewRomanPSMT-2212"/>
       <use xlink:href="#TimesNewRomanPSMT-35" x="56.396484"/>
      </g>
     </g>
    </g>
    <g id="ytick_16">
     <g id="line2d_42">
      <g>
       <use xlink:href="#mb4e1e660d3" x="57.898438" y="536.255443" style="stroke: #000000; stroke-width: 0.8"/>
      </g>
     </g>
     <g id="text_40">
      <!-- 0 -->
      <g transform="translate(40.898438 543.199193)scale(0.2 -0.2)">
       <use xlink:href="#TimesNewRomanPSMT-30"/>
      </g>
     </g>
    </g>
    <g id="ytick_17">
     <g id="line2d_43">
      <g>
       <use xlink:href="#mb4e1e660d3" x="57.898438" y="499.083328" style="stroke: #000000; stroke-width: 0.8"/>
      </g>
     </g>
     <g id="text_41">
      <!-- 5 -->
      <g transform="translate(40.898438 506.027078)scale(0.2 -0.2)">
       <use xlink:href="#TimesNewRomanPSMT-35"/>
      </g>
     </g>
    </g>
   </g>
   <g id="line2d_44">
    <path d="M 98.480256 492.213918 
L 100.106781 535.886578 
L 101.733307 536.247305 
L 103.359833 535.738835 
L 104.986359 535.543936 
L 114.745513 535.531546 
L 121.251617 535.535187 
L 122.878142 536.581506 
L 124.504668 525.428817 
L 126.131194 525.220502 
L 127.75772 525.129986 
L 129.384245 525.32155 
L 132.637297 525.155049 
L 135.890349 525.48183 
L 137.516874 525.712972 
L 140.769926 526.497385 
L 145.649503 528.375604 
L 148.902555 529.998272 
L 150.529081 532.966889 
L 153.782132 536.255177 
L 155.408658 537.690195 
L 157.035184 538.92748 
L 161.914761 542.00244 
L 168.420864 545.901895 
L 171.673916 547.67307 
L 173.300442 548.455946 
L 176.553493 549.588192 
L 178.180019 548.837151 
L 179.806545 548.276691 
L 181.43307 543.049929 
L 183.059596 539.121138 
L 184.686122 553.175773 
L 186.312648 535.030427 
L 187.939174 534.008748 
L 191.192225 534.995787 
L 192.818751 535.298053 
L 196.071802 535.428656 
L 228.602318 535.580011 
L 230.228844 536.234544 
L 231.85537 525.425261 
L 233.481895 525.943278 
L 235.108421 525.988844 
L 239.987998 525.647458 
L 241.614524 525.791774 
L 244.867576 526.573946 
L 246.494102 527.182605 
L 249.747153 528.767159 
L 254.62673 531.030874 
L 256.253256 533.334753 
L 257.879782 535.178509 
L 259.506308 536.122352 
L 261.132834 536.861059 
L 267.638937 541.911729 
L 270.891988 544.120422 
L 274.14504 546.058755 
L 277.398091 547.742251 
L 279.024617 548.362437 
L 282.277669 549.200008 
L 285.53072 547.780692 
L 287.157246 544.285725 
L 288.783772 537.870156 
L 290.410298 507.525428 
L 292.036823 556.50479 
L 293.663349 544.928192 
L 295.289875 542.318038 
L 296.916401 535.508481 
L 298.542926 535.731618 
L 300.169452 535.52879 
L 311.555133 535.55212 
L 313.181658 535.463509 
L 316.43471 534.94553 
L 319.687762 534.771392 
L 329.446916 534.647488 
L 331.073442 534.92475 
L 332.699968 531.618308 
L 334.326494 533.880005 
L 335.953019 534.428956 
L 337.579545 533.663911 
L 342.459123 529.819852 
L 344.085648 528.879206 
L 345.712174 528.520016 
L 347.3387 528.469969 
L 350.591751 528.728807 
L 353.844803 529.461999 
L 355.471329 529.893971 
L 358.72438 531.063914 
L 363.603958 533.168567 
L 370.110061 535.900785 
L 371.736587 536.286137 
L 379.869215 542.387708 
L 383.122267 544.546176 
L 384.748793 545.503203 
L 388.001844 547.030491 
L 389.62837 547.601665 
L 392.881422 548.254817 
L 396.134473 546.747499 
L 397.760999 540.759864 
L 399.387525 537.600488 
L 401.014051 477.952941 
L 402.640576 572.991821 
L 404.267102 544.889521 
L 405.893628 537.287655 
L 407.520154 541.412849 
L 409.146679 543.862765 
L 410.773205 539.610906 
L 412.399731 536.946259 
L 414.026257 535.774282 
L 415.652783 535.551933 
L 428.664989 535.485208 
L 430.291515 535.161904 
L 431.91804 535.023769 
L 433.544566 536.109028 
L 435.171092 538.416617 
L 436.797618 539.032022 
L 438.424143 538.359176 
L 440.050669 536.807204 
L 443.303721 533.506378 
L 444.930247 532.453031 
L 449.809824 530.026764 
L 453.062875 529.003794 
L 456.315927 528.127039 
L 459.568979 528.315588 
L 462.82203 528.764003 
L 467.701607 530.356815 
L 475.834236 533.80488 
L 480.713814 535.729894 
L 482.340339 536.173727 
L 483.966865 536.468116 
L 492.099494 541.849344 
L 493.72602 542.749182 
L 496.979071 544.826963 
L 498.605597 545.839097 
L 501.858649 547.436793 
L 505.1117 548.437627 
L 508.364752 547.120483 
L 509.991278 545.752527 
L 511.617804 538.928483 
L 514.870855 532.855743 
L 516.497381 534.327322 
L 518.123907 533.165478 
L 519.750432 534.625647 
L 521.376958 534.509989 
L 523.003484 535.021378 
L 524.63001 535.062425 
L 526.256536 535.219391 
L 536.01569 535.309425 
L 553.907474 535.25025 
L 555.534 535.764355 
L 557.160525 527.037161 
L 558.787051 528.614061 
L 560.413577 528.787223 
L 562.040103 528.63439 
L 563.666628 528.331023 
L 566.91968 528.076144 
L 568.546206 528.172439 
L 570.172732 528.387987 
L 571.799257 528.743545 
L 575.052309 529.766422 
L 578.30536 531.246818 
L 579.931886 532.058015 
L 581.558412 534.015957 
L 583.184938 535.452971 
L 584.811464 536.456169 
L 591.317567 541.484871 
L 594.570618 543.764325 
L 597.82367 545.810527 
L 601.076721 547.503945 
L 602.703247 548.241045 
L 604.329773 548.567378 
L 605.956299 549.119035 
L 607.582824 549.365919 
L 609.20935 548.601349 
L 610.835876 547.634609 
L 612.462402 538.30211 
L 614.088928 535.913496 
L 615.715453 491.527337 
L 617.341979 560.702597 
L 618.968505 548.104735 
L 620.595031 542.361824 
L 622.221556 539.525535 
L 623.848082 539.819457 
L 625.474608 538.411175 
L 627.101134 536.511387 
L 628.72766 535.63224 
L 631.980711 535.551681 
L 643.366392 535.452852 
L 644.992917 535.071963 
L 648.245969 534.716877 
L 653.125546 534.590088 
L 654.752072 534.573508 
L 656.378598 534.80282 
L 658.005124 532.209014 
L 659.631649 534.715262 
L 661.258175 535.296697 
L 662.884701 534.598603 
L 666.137752 531.506058 
L 667.764278 529.962805 
L 669.390804 529.007619 
L 671.01733 528.492956 
L 672.643856 528.141894 
L 674.270381 528.025443 
L 677.523433 528.204965 
L 679.149959 528.453938 
L 682.40301 529.365191 
L 684.029536 529.881456 
L 687.282588 531.23579 
L 693.788691 534.201606 
L 695.415217 535.31375 
L 697.041742 535.995703 
L 698.668268 536.493766 
L 705.174371 541.595742 
L 708.427423 543.960393 
L 711.680474 545.993044 
L 713.307 546.810845 
L 716.560052 548.061423 
L 718.186577 548.493927 
L 719.813103 548.75819 
L 721.439629 548.044879 
L 723.066155 547.095654 
L 724.692681 540.166944 
L 726.319206 537.31469 
L 727.945732 489.336926 
L 729.572258 565.438564 
L 731.198784 541.544337 
L 732.825309 538.035596 
L 734.451835 536.962519 
L 736.078361 538.69314 
L 737.704887 536.871851 
L 739.331413 535.703225 
L 740.957938 535.549706 
L 752.343619 535.520692 
L 753.970145 535.293703 
L 755.59667 534.909524 
L 758.849722 534.577263 
L 763.729299 534.440161 
L 765.355825 534.434079 
L 766.982351 533.956199 
L 768.608877 536.812689 
L 770.235402 537.697387 
L 771.861928 537.063742 
L 773.488454 535.431522 
L 776.741505 531.875631 
L 778.368031 530.6119 
L 779.994557 529.926121 
L 781.621083 529.369086 
L 783.247609 528.962308 
L 786.50066 528.405142 
L 789.753712 528.713844 
L 793.006763 529.391958 
L 796.259815 530.563908 
L 801.139392 532.752805 
L 804.392444 534.385215 
L 806.018969 535.460877 
L 809.272021 536.588579 
L 822.284227 545.577578 
L 825.537279 547.343297 
L 827.163805 548.050239 
L 830.416856 548.971389 
L 832.043382 549.196216 
L 833.669908 548.443998 
L 835.296433 546.97485 
L 836.922959 538.98713 
L 840.176011 530.645466 
L 841.802537 542.478724 
L 843.429062 533.568232 
L 845.055588 534.650517 
L 854.814743 535.027792 
L 882.465681 534.874176 
L 884.092207 535.328307 
L 885.718733 529.296857 
L 887.345258 531.098316 
L 888.971784 531.793505 
L 890.59831 531.288904 
L 892.224836 530.538854 
L 893.851362 529.633923 
L 895.477887 528.969458 
L 897.104413 528.484962 
L 898.730939 528.544202 
L 901.98399 528.988012 
L 905.237042 529.971508 
L 910.116619 531.947669 
L 910.116619 531.947669 
" clip-path="url(#pa61e982a66)" style="fill: none; stroke: #ff0000; stroke-width: 2; stroke-linecap: square"/>
   </g>
   <g id="line2d_45">
    <path d="M 98.480256 536.255443 
L 100.106781 524.317148 
L 101.733307 527.196846 
L 103.359833 532.116785 
L 104.986359 535.169163 
L 106.612885 536.196207 
L 121.251617 536.088696 
L 122.878142 537.160795 
L 148.902555 536.491056 
L 153.782132 536.188204 
L 165.167813 535.732322 
L 178.180019 535.239146 
L 181.43307 519.703645 
L 183.059596 503.994906 
L 184.686122 510.676807 
L 186.312648 514.342267 
L 187.939174 523.634487 
L 189.565699 528.20412 
L 191.192225 530.536525 
L 192.818751 531.381418 
L 204.204431 531.458459 
L 209.084009 531.567986 
L 210.710534 531.886362 
L 212.33706 532.602063 
L 213.963586 532.991164 
L 217.216638 533.395062 
L 228.602318 534.192795 
L 230.228844 537.051841 
L 231.85537 536.769698 
L 233.481895 537.002916 
L 243.24105 536.91451 
L 254.62673 536.577702 
L 257.879782 536.326038 
L 274.14504 535.688306 
L 282.277669 535.399117 
L 283.904194 535.409362 
L 285.53072 532.994402 
L 287.157246 526.473551 
L 288.783772 573.127857 
L 290.410298 590.737644 
L 292.036823 583.173892 
L 293.663349 561.723599 
L 295.289875 535.713973 
L 296.916401 534.779056 
L 298.542926 535.882644 
L 308.302081 536.530301 
L 311.555133 536.798879 
L 313.181658 537.839681 
L 314.808184 538.589545 
L 316.43471 539.050738 
L 319.687762 539.614087 
L 329.446916 540.893713 
L 331.073442 536.707764 
L 339.206071 536.9862 
L 340.832597 537.014976 
L 342.459123 537.281243 
L 344.085648 538.442994 
L 345.712174 537.024225 
L 357.097855 536.823701 
L 373.363112 536.316129 
L 389.62837 535.519874 
L 394.507947 535.43812 
L 396.134473 532.270651 
L 397.760999 527.578154 
L 401.014051 626.188235 
L 402.640576 622.902466 
L 404.267102 590.289331 
L 405.893628 531.497886 
L 407.520154 522.671359 
L 409.146679 529.982931 
L 410.773205 535.136131 
L 412.399731 537.824742 
L 414.026257 538.470774 
L 423.785411 539.270265 
L 427.038463 539.585953 
L 428.664989 540.286417 
L 430.291515 541.127169 
L 431.91804 536.842355 
L 436.797618 536.840306 
L 440.050669 536.897666 
L 441.677195 539.437764 
L 443.303721 544.177343 
L 444.930247 541.779817 
L 446.556772 539.678673 
L 448.183298 539.506788 
L 449.809824 540.146838 
L 451.43635 540.404004 
L 453.062875 539.473528 
L 454.689401 536.97679 
L 480.713814 536.405204 
L 488.846443 536.105904 
L 505.1117 535.395122 
L 506.738226 535.403557 
L 508.364752 534.392788 
L 509.991278 527.590036 
L 511.617804 525.110167 
L 513.244329 534.61748 
L 514.870855 534.441141 
L 516.497381 534.7217 
L 519.750432 535.659467 
L 526.256536 536.052391 
L 539.268742 536.598041 
L 549.027896 537.242453 
L 553.907474 537.646495 
L 555.534 536.847825 
L 566.91968 536.955607 
L 576.678835 536.743015 
L 581.558412 536.499211 
L 607.582824 535.338588 
L 609.20935 535.057208 
L 610.835876 528.651423 
L 612.462402 525.352096 
L 614.088928 571.011153 
L 615.715453 604.394838 
L 617.341979 602.498166 
L 618.968505 578.624617 
L 620.595031 544.467863 
L 622.221556 528.072319 
L 623.848082 529.883521 
L 625.474608 534.325955 
L 627.101134 536.890715 
L 628.72766 537.23956 
L 638.486814 538.005786 
L 641.739866 538.311825 
L 643.366392 539.378444 
L 644.992917 540.104589 
L 646.619443 540.560436 
L 649.872495 541.136162 
L 654.752072 541.810462 
L 656.378598 536.724687 
L 662.884701 536.991482 
L 666.137752 537.059793 
L 667.764278 539.582081 
L 669.390804 539.787367 
L 671.01733 537.331363 
L 672.643856 537.094423 
L 684.029536 536.873619 
L 698.668268 536.375738 
L 714.933526 535.523467 
L 719.813103 535.352184 
L 721.439629 535.388244 
L 724.692681 526.825134 
L 726.319206 574.153176 
L 727.945732 610.545776 
L 729.572258 603.177354 
L 731.198784 575.208313 
L 732.825309 534.482753 
L 734.451835 528.754323 
L 736.078361 533.509177 
L 737.704887 536.426758 
L 739.331413 537.265549 
L 747.464041 537.870064 
L 750.717093 538.161735 
L 752.343619 538.628519 
L 753.970145 539.650275 
L 755.59667 540.287751 
L 758.849722 541.021689 
L 763.729299 541.752608 
L 765.355825 536.782889 
L 773.488454 536.991209 
L 775.11498 537.473145 
L 776.741505 541.379275 
L 778.368031 541.374529 
L 781.621083 537.07331 
L 784.874134 536.991017 
L 806.018969 536.463836 
L 817.40465 535.975932 
L 832.043382 535.359512 
L 833.669908 534.818773 
L 835.296433 528.023825 
L 836.922959 525.169947 
L 838.549485 565.60029 
L 840.176011 558.540137 
L 841.802537 545.173547 
L 843.429062 537.772203 
L 845.055588 537.951253 
L 846.682114 537.488854 
L 849.935166 537.259088 
L 854.814743 537.333342 
L 861.320846 537.6851 
L 869.453475 538.32393 
L 877.586104 539.153707 
L 882.465681 539.741368 
L 884.092207 536.875145 
L 892.224836 537.023922 
L 901.98399 536.892039 
L 910.116619 536.66306 
L 910.116619 536.66306 
" clip-path="url(#pa61e982a66)" style="fill: none; stroke-dasharray: 2,3.3; stroke-dashoffset: 0; stroke: #008000; stroke-width: 2"/>
   </g>
   <g id="patch_15">
    <path d="M 57.898438 633.6 
L 57.898438 470.541176 
" style="fill: none; stroke: #000000; stroke-width: 0.8; stroke-linejoin: miter; stroke-linecap: square"/>
   </g>
   <g id="patch_16">
    <path d="M 950.698437 633.6 
L 950.698437 470.541176 
" style="fill: none; stroke: #000000; stroke-width: 0.8; stroke-linejoin: miter; stroke-linecap: square"/>
   </g>
   <g id="patch_17">
    <path d="M 57.898438 633.6 
L 950.698437 633.6 
" style="fill: none; stroke: #000000; stroke-width: 0.8; stroke-linejoin: miter; stroke-linecap: square"/>
   </g>
   <g id="patch_18">
    <path d="M 57.898438 470.541176 
L 950.698437 470.541176 
" style="fill: none; stroke: #000000; stroke-width: 0.8; stroke-linejoin: miter; stroke-linecap: square"/>
   </g>
   <g id="legend_3">
    <g id="patch_19">
     <path d="M 845.498437 543.097426 
L 936.698437 543.097426 
Q 940.698437 543.097426 940.698437 539.097426 
L 940.698437 484.541176 
Q 940.698437 480.541176 936.698437 480.541176 
L 845.498437 480.541176 
Q 841.498437 480.541176 841.498437 484.541176 
L 841.498437 539.097426 
Q 841.498437 543.097426 845.498437 543.097426 
z
" style="fill: #ffffff; opacity: 0.8; stroke: #cccccc; stroke-linejoin: miter"/>
    </g>
    <g id="line2d_46">
     <path d="M 849.498437 495.541176 
L 869.498437 495.541176 
L 889.498437 495.541176 
" style="fill: none; stroke: #ff0000; stroke-width: 2; stroke-linecap: square"/>
    </g>
    <g id="text_42">
     <!-- $v_z$ -->
     <g transform="translate(905.498437 502.541176)scale(0.2 -0.2)">
      <defs>
       <path id="DejaVuSans-Oblique-7a" d="M 744 3500 
L 3475 3500 
L 3372 2975 
L 738 459 
L 2913 459 
L 2822 0 
L -19 0 
L 84 525 
L 2719 3041 
L 653 3041 
L 744 3500 
z
" transform="scale(0.015625)"/>
      </defs>
      <use xlink:href="#DejaVuSans-Oblique-76" transform="translate(0 0.3125)"/>
      <use xlink:href="#DejaVuSans-Oblique-7a" transform="translate(59.179688 -16.09375)scale(0.7)"/>
     </g>
    </g>
    <g id="line2d_47">
     <path d="M 849.498437 523.819301 
L 869.498437 523.819301 
L 889.498437 523.819301 
" style="fill: none; stroke-dasharray: 2,3.3; stroke-dashoffset: 0; stroke: #008000; stroke-width: 2"/>
    </g>
    <g id="text_43">
     <!-- $v_{zs}$ -->
     <g transform="translate(905.498437 530.819301)scale(0.2 -0.2)">
      <use xlink:href="#DejaVuSans-Oblique-76" transform="translate(0 0.3125)"/>
      <use xlink:href="#DejaVuSans-Oblique-7a" transform="translate(59.179688 -16.09375)scale(0.7)"/>
      <use xlink:href="#DejaVuSans-Oblique-73" transform="translate(95.922852 -16.09375)scale(0.7)"/>
     </g>
    </g>
   </g>
  </g>
  <g id="text_44">
   <!-- 足端速度曲线 -->
   <g transform="translate(417.898438 26.1375)scale(0.24 -0.24)">
    <defs>
     <path id="FangSong-8db3" d="M 2175 3000 
Q 2175 2775 2162 2700 
Q 2150 2625 1875 3050 
Q 1925 3200 1925 3425 
L 1900 4325 
Q 1875 4700 1775 4900 
L 1875 4975 
L 2125 4525 
L 4175 4800 
L 4375 5075 
L 4650 4775 
L 4475 4550 
L 4325 3525 
L 4575 3275 
L 3275 3125 
L 3275 2075 
Q 4375 2275 4650 2375 
L 4925 2125 
Q 4525 2075 3275 1875 
L 3275 700 
Q 3850 375 4200 212 
Q 4550 50 4750 -25 
Q 4950 -100 5950 -150 
L 5975 -275 
Q 5350 -300 4700 -425 
Q 4425 -175 1900 1275 
Q 1325 175 500 -600 
L 400 -500 
Q 1100 250 1487 1000 
Q 1875 1750 1937 2050 
Q 2000 2350 1900 2525 
L 1975 2575 
L 2325 2050 
Q 2250 2100 2162 1900 
Q 2075 1700 1975 1450 
Q 2550 1100 3050 850 
L 3050 3100 
L 2175 3000 
z
M 4250 4575 
L 2125 4325 
L 2150 3200 
L 4100 3450 
L 4250 4575 
z
" transform="scale(0.015625)"/>
     <path id="FangSong-7aef" d="M 4275 1575 
L 3750 1525 
L 3750 -75 
Q 3725 -450 3650 -375 
L 3400 -50 
Q 3525 75 3525 325 
L 3525 1500 
L 2975 1450 
L 2975 -375 
Q 2975 -625 2875 -550 
L 2625 -200 
Q 2725 -100 2750 175 
L 2750 1275 
Q 2725 1650 2600 1925 
L 2700 2000 
L 2975 1650 
L 3575 1700 
L 3825 2400 
Q 2925 2300 2800 2250 
L 2550 2500 
Q 2875 2500 4150 2637 
Q 5425 2775 5625 2850 
L 5925 2625 
Q 5525 2600 4100 2425 
L 3750 1725 
L 5125 1850 
L 5300 2100 
L 5575 1825 
L 5400 1650 
Q 5350 -375 5050 -700 
Q 4850 -400 4500 0 
L 4500 -100 
Q 4500 -425 4425 -375 
L 4200 -75 
Q 4275 25 4275 300 
L 4275 1575 
z
M 4000 4550 
Q 3975 5000 3825 5175 
L 3900 5250 
L 4350 4900 
Q 4225 4725 4225 4450 
L 4225 3475 
L 4950 3575 
Q 5150 4400 4975 4600 
L 5050 4675 
L 5450 4300 
Q 5325 4200 5275 3812 
Q 5225 3425 5150 3225 
Q 5075 3025 5037 3075 
Q 5000 3125 4925 3350 
L 3275 3150 
L 3150 3000 
L 2875 3225 
L 3050 3375 
L 3050 4100 
Q 3050 4400 2900 4625 
L 3000 4700 
L 3375 4400 
Q 3275 4250 3275 4000 
L 3275 3375 
L 4000 3450 
L 4000 4550 
z
M 4500 50 
L 4550 125 
L 5000 -225 
Q 5125 350 5150 1650 
L 4500 1600 
L 4500 50 
z
M 2600 1350 
Q 875 550 850 450 
L 475 675 
Q 700 700 1725 1175 
Q 1875 2000 1937 2387 
Q 2000 2775 1900 3025 
L 1975 3100 
L 2375 2700 
Q 2225 2650 2125 2237 
Q 2025 1825 1900 1225 
L 2575 1475 
L 2600 1350 
z
M 2675 3300 
Q 2375 3250 1737 3150 
Q 1100 3050 850 3000 
L 600 3250 
Q 975 3275 1625 3375 
Q 2275 3475 2475 3525 
L 2675 3300 
z
M 1250 1275 
Q 1175 1900 950 2725 
L 1050 2775 
Q 1350 2075 1475 1650 
Q 1375 1450 1250 1275 
z
M 1975 4075 
Q 1875 3850 1725 3650 
Q 1575 4225 1250 4800 
L 1325 4850 
Q 1750 4375 1975 4075 
z
" transform="scale(0.015625)"/>
     <path id="FangSong-66f2" d="M 5250 3550 
L 5550 3275 
L 5350 3100 
Q 5050 450 4950 25 
Q 4850 -400 4812 -312 
Q 4775 -225 4725 150 
L 1625 -75 
Q 1650 -425 1575 -375 
L 1275 0 
Q 1400 200 1375 400 
L 1250 2575 
Q 1250 3025 1125 3400 
L 1225 3425 
L 1450 3000 
L 2575 3100 
L 2575 4250 
Q 2600 4700 2425 4925 
L 2500 4975 
L 2900 4575 
Q 2775 4525 2800 4225 
L 2800 3125 
L 3675 3200 
L 3675 4525 
Q 3675 5050 3500 5175 
L 3550 5250 
L 4050 4875 
Q 3875 4825 3900 4450 
L 3900 3225 
L 5075 3350 
L 5250 3550 
z
M 3900 1925 
Q 4500 2000 4475 2050 
L 4700 1750 
Q 4400 1750 3900 1700 
L 3900 325 
Q 4550 375 4550 425 
L 4725 175 
Q 4850 475 5075 3075 
L 3900 3000 
L 3900 1925 
z
M 2575 1550 
Q 2075 1500 2000 1450 
L 1700 1725 
Q 1975 1725 2575 1775 
L 2575 2875 
L 1500 2775 
L 1625 175 
L 2575 225 
L 2575 1550 
z
M 2800 250 
L 3675 300 
L 3675 1675 
L 2800 1575 
L 2800 250 
z
M 3675 1900 
L 3675 2975 
L 2800 2900 
L 2800 1800 
L 3675 1900 
z
" transform="scale(0.015625)"/>
     <path id="FangSong-7ebf" d="M 4100 1125 
Q 4450 1450 4637 1700 
Q 4825 1950 4800 2150 
L 4875 2175 
L 5050 1625 
Q 4950 1650 4775 1475 
Q 4600 1300 4200 875 
Q 4800 0 5425 -200 
L 5475 800 
L 5575 800 
Q 5650 -350 5725 -625 
Q 4700 -350 4025 725 
Q 3425 150 2325 -350 
L 2275 -250 
Q 3150 175 3925 950 
Q 3750 1350 3575 2050 
Q 2975 1875 2900 1825 
L 2550 1975 
Q 2875 2050 3550 2250 
Q 3500 2575 3425 3025 
Q 3075 2950 2950 2875 
L 2650 3025 
Q 2850 3075 3425 3225 
Q 3325 4025 3300 4462 
Q 3275 4900 3125 5125 
L 3200 5200 
L 3650 4825 
Q 3550 4650 3562 4325 
Q 3575 4000 3625 3325 
Q 4550 3600 4600 3675 
L 4950 3475 
Q 4600 3400 3650 3100 
Q 3700 2600 3775 2300 
Q 5000 2725 5050 2800 
L 5400 2600 
Q 5225 2575 3800 2125 
Q 3925 1500 4100 1125 
z
M 2525 1725 
Q 1375 1350 1175 1225 
L 950 1500 
L 1225 1575 
L 1950 2725 
Q 1175 2575 975 2450 
L 775 2750 
L 1050 2875 
Q 1550 3800 1737 4250 
Q 1925 4700 1850 4900 
L 1925 4950 
L 2225 4475 
Q 2125 4525 1812 3937 
Q 1500 3350 1225 2800 
L 2075 2925 
Q 2450 3500 2375 3750 
L 2450 3800 
L 2700 3325 
Q 2600 3325 2337 2925 
Q 2075 2525 1475 1625 
L 2500 1825 
L 2525 1725 
z
M 2825 825 
Q 1100 50 1000 -25 
L 625 200 
Q 1000 250 2775 950 
L 2825 825 
z
M 4700 3900 
Q 4450 4175 3925 4650 
L 3975 4750 
Q 4525 4475 4700 4400 
L 4700 3900 
z
" transform="scale(0.015625)"/>
    </defs>
    <use xlink:href="#FangSong-8db3"/>
    <use xlink:href="#FangSong-7aef" x="100"/>
    <use xlink:href="#FangSong-901f" x="200"/>
    <use xlink:href="#FangSong-5ea6" x="300"/>
    <use xlink:href="#FangSong-66f2" x="400"/>
    <use xlink:href="#FangSong-7ebf" x="500"/>
   </g>
  </g>
 </g>
 <defs>
  <clipPath id="p47549a6bbd">
   <rect x="57.898438" y="79.2" width="892.8" height="163.058824"/>
  </clipPath>
  <clipPath id="p9f9e340ad9">
   <rect x="57.898438" y="274.870588" width="892.8" height="163.058824"/>
  </clipPath>
  <clipPath id="pa61e982a66">
   <rect x="57.898438" y="470.541176" width="892.8" height="163.058824"/>
  </clipPath>
 </defs>
</svg>
