<?xml version="1.0" encoding="utf-8" standalone="no"?>
<!DOCTYPE svg PUBLIC "-//W3C//DTD SVG 1.1//EN"
  "http://www.w3.org/Graphics/SVG/1.1/DTD/svg11.dtd">
<svg xmlns:xlink="http://www.w3.org/1999/xlink" width="1152pt" height="576pt" viewBox="0 0 1152 576" xmlns="http://www.w3.org/2000/svg" version="1.1">
 <metadata>
  <rdf:RDF xmlns:dc="http://purl.org/dc/elements/1.1/" xmlns:cc="http://creativecommons.org/ns#" xmlns:rdf="http://www.w3.org/1999/02/22-rdf-syntax-ns#">
   <cc:Work>
    <dc:type rdf:resource="http://purl.org/dc/dcmitype/StillImage"/>
    <dc:date>2022-10-11T09:54:05.688871</dc:date>
    <dc:format>image/svg+xml</dc:format>
    <dc:creator>
     <cc:Agent>
      <dc:title>Matplotlib v3.5.1, https://matplotlib.org/</dc:title>
     </cc:Agent>
    </dc:creator>
   </cc:Work>
  </rdf:RDF>
 </metadata>
 <defs>
  <style type="text/css">*{stroke-linejoin: round; stroke-linecap: butt}</style>
 </defs>
 <g id="figure_1">
  <g id="patch_1">
   <path d="M 0 576 
L 1152 576 
L 1152 0 
L 0 0 
z
" style="fill: #ffffff"/>
  </g>
  <g id="axes_1">
   <g id="patch_2">
    <path d="M 144 512.64 
L 1036.8 512.64 
L 1036.8 69.12 
L 144 69.12 
z
" style="fill: #ffffff"/>
   </g>
   <g id="matplotlib.axis_1">
    <g id="xtick_1">
     <g id="line2d_1">
      <defs>
       <path id="mc09c866f95" d="M 0 0 
L 0 3.5 
" style="stroke: #000000; stroke-width: 0.8"/>
      </defs>
      <g>
       <use xlink:href="#mc09c866f95" x="184.257034" y="512.64" style="stroke: #000000; stroke-width: 0.8"/>
      </g>
     </g>
     <g id="text_1">
      <!-- 0 -->
      <g transform="translate(179.257034 533.5275)scale(0.2 -0.2)">
       <defs>
        <path id="TimesNewRomanPSMT-30" d="M 231 2094 
Q 231 2819 450 3342 
Q 669 3866 1031 4122 
Q 1313 4325 1613 4325 
Q 2100 4325 2488 3828 
Q 2972 3213 2972 2159 
Q 2972 1422 2759 906 
Q 2547 391 2217 158 
Q 1888 -75 1581 -75 
Q 975 -75 572 641 
Q 231 1244 231 2094 
z
M 844 2016 
Q 844 1141 1059 588 
Q 1238 122 1591 122 
Q 1759 122 1940 273 
Q 2122 425 2216 781 
Q 2359 1319 2359 2297 
Q 2359 3022 2209 3506 
Q 2097 3866 1919 4016 
Q 1791 4119 1609 4119 
Q 1397 4119 1231 3928 
Q 1006 3669 925 3112 
Q 844 2556 844 2016 
z
" transform="scale(0.015625)"/>
       </defs>
       <use xlink:href="#TimesNewRomanPSMT-30"/>
      </g>
     </g>
    </g>
    <g id="xtick_2">
     <g id="line2d_2">
      <g>
       <use xlink:href="#mc09c866f95" x="346.649263" y="512.64" style="stroke: #000000; stroke-width: 0.8"/>
      </g>
     </g>
     <g id="text_2">
      <!-- 5 -->
      <g transform="translate(341.649263 533.5275)scale(0.2 -0.2)">
       <defs>
        <path id="TimesNewRomanPSMT-35" d="M 2778 4238 
L 2534 3706 
L 1259 3706 
L 981 3138 
Q 1809 3016 2294 2522 
Q 2709 2097 2709 1522 
Q 2709 1188 2573 903 
Q 2438 619 2231 419 
Q 2025 219 1772 97 
Q 1413 -75 1034 -75 
Q 653 -75 479 54 
Q 306 184 306 341 
Q 306 428 378 495 
Q 450 563 559 563 
Q 641 563 702 538 
Q 763 513 909 409 
Q 1144 247 1384 247 
Q 1750 247 2026 523 
Q 2303 800 2303 1197 
Q 2303 1581 2056 1914 
Q 1809 2247 1375 2428 
Q 1034 2569 447 2591 
L 1259 4238 
L 2778 4238 
z
" transform="scale(0.015625)"/>
       </defs>
       <use xlink:href="#TimesNewRomanPSMT-35"/>
      </g>
     </g>
    </g>
    <g id="xtick_3">
     <g id="line2d_3">
      <g>
       <use xlink:href="#mc09c866f95" x="509.041493" y="512.64" style="stroke: #000000; stroke-width: 0.8"/>
      </g>
     </g>
     <g id="text_3">
      <!-- 10 -->
      <g transform="translate(499.041493 533.5275)scale(0.2 -0.2)">
       <defs>
        <path id="TimesNewRomanPSMT-31" d="M 750 3822 
L 1781 4325 
L 1884 4325 
L 1884 747 
Q 1884 391 1914 303 
Q 1944 216 2037 169 
Q 2131 122 2419 116 
L 2419 0 
L 825 0 
L 825 116 
Q 1125 122 1212 167 
Q 1300 213 1334 289 
Q 1369 366 1369 747 
L 1369 3034 
Q 1369 3497 1338 3628 
Q 1316 3728 1258 3775 
Q 1200 3822 1119 3822 
Q 1003 3822 797 3725 
L 750 3822 
z
" transform="scale(0.015625)"/>
       </defs>
       <use xlink:href="#TimesNewRomanPSMT-31"/>
       <use xlink:href="#TimesNewRomanPSMT-30" x="50"/>
      </g>
     </g>
    </g>
    <g id="xtick_4">
     <g id="line2d_4">
      <g>
       <use xlink:href="#mc09c866f95" x="671.433723" y="512.64" style="stroke: #000000; stroke-width: 0.8"/>
      </g>
     </g>
     <g id="text_4">
      <!-- 15 -->
      <g transform="translate(661.433723 533.5275)scale(0.2 -0.2)">
       <use xlink:href="#TimesNewRomanPSMT-31"/>
       <use xlink:href="#TimesNewRomanPSMT-35" x="50"/>
      </g>
     </g>
    </g>
    <g id="xtick_5">
     <g id="line2d_5">
      <g>
       <use xlink:href="#mc09c866f95" x="833.825952" y="512.64" style="stroke: #000000; stroke-width: 0.8"/>
      </g>
     </g>
     <g id="text_5">
      <!-- 20 -->
      <g transform="translate(823.825952 533.5275)scale(0.2 -0.2)">
       <defs>
        <path id="TimesNewRomanPSMT-32" d="M 2934 816 
L 2638 0 
L 138 0 
L 138 116 
Q 1241 1122 1691 1759 
Q 2141 2397 2141 2925 
Q 2141 3328 1894 3587 
Q 1647 3847 1303 3847 
Q 991 3847 742 3664 
Q 494 3481 375 3128 
L 259 3128 
Q 338 3706 661 4015 
Q 984 4325 1469 4325 
Q 1984 4325 2329 3994 
Q 2675 3663 2675 3213 
Q 2675 2891 2525 2569 
Q 2294 2063 1775 1497 
Q 997 647 803 472 
L 1909 472 
Q 2247 472 2383 497 
Q 2519 522 2628 598 
Q 2738 675 2819 816 
L 2934 816 
z
" transform="scale(0.015625)"/>
       </defs>
       <use xlink:href="#TimesNewRomanPSMT-32"/>
       <use xlink:href="#TimesNewRomanPSMT-30" x="50"/>
      </g>
     </g>
    </g>
    <g id="xtick_6">
     <g id="line2d_6">
      <g>
       <use xlink:href="#mc09c866f95" x="996.218182" y="512.64" style="stroke: #000000; stroke-width: 0.8"/>
      </g>
     </g>
     <g id="text_6">
      <!-- 25 -->
      <g transform="translate(986.218182 533.5275)scale(0.2 -0.2)">
       <use xlink:href="#TimesNewRomanPSMT-32"/>
       <use xlink:href="#TimesNewRomanPSMT-35" x="50"/>
      </g>
     </g>
    </g>
    <g id="text_7">
     <!-- 时间 [s] -->
     <g transform="translate(550.4 557.430625)scale(0.2 -0.2)">
      <defs>
       <path id="FangSong-65f6" d="M 1200 725 
Q 1225 -50 1100 125 
L 875 550 
Q 1000 725 975 1125 
L 975 3350 
Q 975 3850 900 4375 
L 975 4400 
L 1150 3925 
L 2275 4100 
L 2400 4325 
L 2700 4100 
L 2525 3875 
Q 2525 1425 2462 837 
Q 2400 250 2325 337 
Q 2250 425 2200 850 
L 1200 725 
z
M 1200 975 
Q 1925 1050 1975 1100 
L 2225 850 
Q 2275 1625 2275 2175 
L 2275 3825 
L 1200 3675 
L 1200 2525 
Q 1875 2600 2025 2700 
L 2250 2400 
Q 1900 2375 1200 2275 
L 1200 975 
z
M 4325 5250 
L 4775 4875 
Q 4625 4775 4650 4300 
L 4650 3100 
Q 5650 3225 5650 3325 
L 6000 3025 
Q 5625 3000 4650 2875 
L 4650 425 
Q 4675 -350 4475 -675 
Q 4225 -325 3400 275 
L 3450 375 
L 4375 -150 
Q 4425 150 4425 425 
L 4425 2850 
Q 3100 2675 2900 2600 
L 2550 2900 
Q 3000 2900 4425 3075 
L 4425 4400 
Q 4450 4925 4250 5175 
L 4325 5250 
z
M 3525 1275 
Q 3325 1850 3050 2450 
L 3125 2500 
Q 3425 2100 3725 1675 
Q 3650 1500 3525 1275 
z
" transform="scale(0.015625)"/>
       <path id="FangSong-95f4" d="M 4150 1450 
L 2525 1300 
Q 2550 800 2450 900 
L 2225 1275 
Q 2300 1400 2300 1650 
L 2300 2875 
Q 2325 3225 2200 3525 
L 2275 3575 
L 2500 3225 
L 3750 3400 
L 3900 3600 
L 4200 3325 
L 4025 3150 
L 3975 1650 
L 4150 1450 
z
M 5000 4925 
L 5325 4675 
L 5175 4475 
L 5175 450 
Q 5175 -325 4975 -650 
Q 4700 -225 3975 500 
L 4050 575 
L 4875 -75 
Q 4925 -75 4950 425 
L 4950 4475 
Q 3075 4275 2925 4250 
L 2550 4475 
Q 2925 4450 4875 4700 
L 5000 4925 
z
M 3775 3150 
L 2525 3000 
L 2525 2375 
Q 3225 2475 3300 2550 
L 3550 2300 
Q 3300 2300 2525 2175 
L 2525 1525 
L 3725 1650 
L 3775 3150 
z
M 1400 -225 
Q 1425 -675 1325 -550 
L 1075 -175 
Q 1175 -25 1175 350 
L 1175 3475 
Q 1175 3900 1025 4225 
L 1100 4275 
L 1475 3875 
Q 1400 3725 1400 3375 
L 1400 -225 
z
M 1425 5175 
Q 1950 4725 2200 4525 
Q 2125 4275 2050 4075 
Q 1875 4425 1350 5100 
L 1425 5175 
z
" transform="scale(0.015625)"/>
       <path id="FangSong-20" transform="scale(0.015625)"/>
       <path id="FangSong-5b" d="M 2725 5100 
L 2725 4875 
L 1475 4875 
L 1475 -225 
L 2725 -225 
L 2725 -450 
L 1225 -450 
L 1225 5100 
L 2725 5100 
z
" transform="scale(0.015625)"/>
       <path id="FangSong-73" d="M 600 2075 
Q 600 2450 887 2650 
Q 1175 2850 1575 2850 
Q 1800 2850 2000 2787 
Q 2200 2725 2275 2725 
Q 2350 2725 2400 2750 
Q 2450 2775 2525 2850 
L 2625 2025 
L 2475 2000 
Q 2375 2325 2137 2512 
Q 1900 2700 1600 2700 
Q 1275 2700 1087 2575 
Q 900 2450 900 2225 
Q 900 2025 987 1912 
Q 1075 1800 1300 1750 
Q 1475 1675 1737 1587 
Q 2000 1500 2225 1400 
Q 2425 1300 2562 1137 
Q 2700 975 2700 775 
Q 2700 400 2437 187 
Q 2175 -25 1675 -25 
Q 1350 -25 1187 37 
Q 1025 100 925 100 
Q 850 100 762 62 
Q 675 25 575 -25 
L 500 900 
L 650 925 
Q 725 525 975 325 
Q 1225 125 1675 125 
Q 2025 125 2212 250 
Q 2400 375 2400 625 
Q 2400 800 2300 912 
Q 2200 1025 2100 1075 
Q 1850 1175 1550 1287 
Q 1250 1400 1025 1500 
Q 800 1600 700 1750 
Q 600 1900 600 2075 
z
" transform="scale(0.015625)"/>
       <path id="FangSong-5d" d="M 1900 -450 
L 400 -450 
L 400 -225 
L 1650 -225 
L 1650 4875 
L 400 4875 
L 400 5100 
L 1900 5100 
L 1900 -450 
z
" transform="scale(0.015625)"/>
      </defs>
      <use xlink:href="#FangSong-65f6"/>
      <use xlink:href="#FangSong-95f4" x="100"/>
      <use xlink:href="#FangSong-20" x="200"/>
      <use xlink:href="#FangSong-5b" x="250"/>
      <use xlink:href="#FangSong-73" x="300"/>
      <use xlink:href="#FangSong-5d" x="350"/>
     </g>
    </g>
   </g>
   <g id="matplotlib.axis_2">
    <g id="ytick_1">
     <g id="line2d_7">
      <defs>
       <path id="mcc2e98e2a4" d="M 0 0 
L -3.5 0 
" style="stroke: #000000; stroke-width: 0.8"/>
      </defs>
      <g>
       <use xlink:href="#mcc2e98e2a4" x="144" y="497.300562" style="stroke: #000000; stroke-width: 0.8"/>
      </g>
     </g>
     <g id="text_8">
      <!-- −4 -->
      <g transform="translate(115.721875 504.244312)scale(0.2 -0.2)">
       <defs>
        <path id="TimesNewRomanPSMT-2212" d="M 3484 2000 
L 116 2000 
L 116 2256 
L 3484 2256 
L 3484 2000 
z
" transform="scale(0.015625)"/>
        <path id="TimesNewRomanPSMT-34" d="M 2978 1563 
L 2978 1119 
L 2409 1119 
L 2409 0 
L 1894 0 
L 1894 1119 
L 100 1119 
L 100 1519 
L 2066 4325 
L 2409 4325 
L 2409 1563 
L 2978 1563 
z
M 1894 1563 
L 1894 3666 
L 406 1563 
L 1894 1563 
z
" transform="scale(0.015625)"/>
       </defs>
       <use xlink:href="#TimesNewRomanPSMT-2212"/>
       <use xlink:href="#TimesNewRomanPSMT-34" x="56.396484"/>
      </g>
     </g>
    </g>
    <g id="ytick_2">
     <g id="line2d_8">
      <g>
       <use xlink:href="#mcc2e98e2a4" x="144" y="415.984252" style="stroke: #000000; stroke-width: 0.8"/>
      </g>
     </g>
     <g id="text_9">
      <!-- −3 -->
      <g transform="translate(115.721875 422.928002)scale(0.2 -0.2)">
       <defs>
        <path id="TimesNewRomanPSMT-33" d="M 325 3431 
Q 506 3859 782 4092 
Q 1059 4325 1472 4325 
Q 1981 4325 2253 3994 
Q 2459 3747 2459 3466 
Q 2459 3003 1878 2509 
Q 2269 2356 2469 2072 
Q 2669 1788 2669 1403 
Q 2669 853 2319 450 
Q 1863 -75 997 -75 
Q 569 -75 414 31 
Q 259 138 259 259 
Q 259 350 332 419 
Q 406 488 509 488 
Q 588 488 669 463 
Q 722 447 909 348 
Q 1097 250 1169 231 
Q 1284 197 1416 197 
Q 1734 197 1970 444 
Q 2206 691 2206 1028 
Q 2206 1275 2097 1509 
Q 2016 1684 1919 1775 
Q 1784 1900 1550 2001 
Q 1316 2103 1072 2103 
L 972 2103 
L 972 2197 
Q 1219 2228 1467 2375 
Q 1716 2522 1828 2728 
Q 1941 2934 1941 3181 
Q 1941 3503 1739 3701 
Q 1538 3900 1238 3900 
Q 753 3900 428 3381 
L 325 3431 
z
" transform="scale(0.015625)"/>
       </defs>
       <use xlink:href="#TimesNewRomanPSMT-2212"/>
       <use xlink:href="#TimesNewRomanPSMT-33" x="56.396484"/>
      </g>
     </g>
    </g>
    <g id="ytick_3">
     <g id="line2d_9">
      <g>
       <use xlink:href="#mcc2e98e2a4" x="144" y="334.667942" style="stroke: #000000; stroke-width: 0.8"/>
      </g>
     </g>
     <g id="text_10">
      <!-- −2 -->
      <g transform="translate(115.721875 341.611692)scale(0.2 -0.2)">
       <use xlink:href="#TimesNewRomanPSMT-2212"/>
       <use xlink:href="#TimesNewRomanPSMT-32" x="56.396484"/>
      </g>
     </g>
    </g>
    <g id="ytick_4">
     <g id="line2d_10">
      <g>
       <use xlink:href="#mcc2e98e2a4" x="144" y="253.351632" style="stroke: #000000; stroke-width: 0.8"/>
      </g>
     </g>
     <g id="text_11">
      <!-- −1 -->
      <g transform="translate(115.721875 260.295382)scale(0.2 -0.2)">
       <use xlink:href="#TimesNewRomanPSMT-2212"/>
       <use xlink:href="#TimesNewRomanPSMT-31" x="56.396484"/>
      </g>
     </g>
    </g>
    <g id="ytick_5">
     <g id="line2d_11">
      <g>
       <use xlink:href="#mcc2e98e2a4" x="144" y="172.035323" style="stroke: #000000; stroke-width: 0.8"/>
      </g>
     </g>
     <g id="text_12">
      <!-- 0 -->
      <g transform="translate(127 178.979073)scale(0.2 -0.2)">
       <use xlink:href="#TimesNewRomanPSMT-30"/>
      </g>
     </g>
    </g>
    <g id="ytick_6">
     <g id="line2d_12">
      <g>
       <use xlink:href="#mcc2e98e2a4" x="144" y="90.719013" style="stroke: #000000; stroke-width: 0.8"/>
      </g>
     </g>
     <g id="text_13">
      <!-- 1 -->
      <g transform="translate(127 97.662763)scale(0.2 -0.2)">
       <use xlink:href="#TimesNewRomanPSMT-31"/>
      </g>
     </g>
    </g>
    <g id="text_14">
     <!-- 位置 [m] -->
     <g transform="translate(108.83125 330.88)rotate(-90)scale(0.2 -0.2)">
      <defs>
       <path id="FangSong-4f4d" d="M 1625 3325 
Q 1250 2725 500 2000 
L 450 2125 
Q 1225 2975 1737 3900 
Q 2250 4825 2200 5100 
L 2300 5125 
L 2550 4625 
Q 2450 4625 2300 4387 
Q 2150 4150 1850 3650 
L 1825 -350 
Q 1825 -725 1725 -550 
L 1475 -100 
Q 1600 0 1600 325 
L 1625 3325 
z
M 4925 2725 
Q 4775 2700 4600 1962 
Q 4425 1225 4175 375 
Q 5500 475 5675 550 
L 6000 250 
Q 5475 250 4062 150 
Q 2650 50 2450 0 
L 2150 250 
Q 2650 250 4000 350 
Q 4275 1350 4425 2112 
Q 4575 2875 4425 3125 
L 4500 3175 
L 4925 2725 
z
M 2375 3350 
Q 2900 3375 4050 3500 
Q 5200 3625 5300 3700 
L 5625 3425 
Q 5250 3400 4062 3287 
Q 2875 3175 2675 3100 
L 2375 3350 
z
M 3575 1375 
Q 3500 1125 3325 925 
Q 3200 1625 2825 2750 
L 2925 2800 
Q 3400 1750 3575 1375 
z
M 3950 3800 
Q 3825 4250 3400 5100 
L 3500 5150 
Q 3950 4575 4150 4275 
Q 4075 4050 3950 3800 
z
" transform="scale(0.015625)"/>
       <path id="FangSong-7f6e" d="M 1575 3650 
Q 1600 3350 1500 3400 
L 1275 3700 
Q 1375 3800 1375 4300 
Q 1375 4825 1300 5050 
L 1375 5100 
L 1575 4775 
L 4800 4975 
L 4950 5200 
L 5225 4950 
L 5050 4750 
L 4975 4075 
L 5150 3875 
L 3025 3725 
L 3350 3525 
Q 3275 3525 3250 3225 
L 3250 3150 
Q 4975 3300 5150 3375 
L 5450 3100 
Q 5000 3100 3250 2925 
L 3225 2425 
L 4200 2525 
L 4350 2700 
L 4625 2425 
L 4450 2275 
L 4325 0 
Q 5475 75 5650 100 
L 5950 -150 
Q 5300 -175 3137 -300 
Q 975 -425 725 -500 
L 450 -200 
Q 750 -225 1975 -150 
L 1875 2050 
Q 1850 2350 1775 2550 
L 1850 2575 
L 2075 2325 
L 3000 2400 
L 3025 2900 
Q 1600 2775 1225 2700 
L 925 2975 
Q 1400 2975 3025 3125 
L 3025 3250 
Q 3050 3600 2950 3700 
L 3000 3725 
L 1575 3650 
z
M 2150 1700 
Q 3475 1825 3775 1875 
L 4050 1675 
Q 3350 1600 2150 1475 
L 2150 1075 
Q 3600 1250 3775 1300 
L 3975 1075 
Q 3600 1050 2175 875 
L 2175 475 
Q 3600 625 3775 675 
L 3975 450 
Q 3600 425 2200 250 
L 2200 -125 
L 4100 0 
L 4225 2300 
L 2150 2100 
L 2150 1700 
z
M 2700 3950 
L 3650 4000 
L 3675 4650 
L 2725 4600 
L 2700 3950 
z
M 4750 4075 
L 4825 4750 
L 3900 4675 
L 3875 4025 
L 4750 4075 
z
M 2500 4575 
L 1600 4525 
L 1600 3875 
L 2475 3925 
L 2500 4575 
z
" transform="scale(0.015625)"/>
       <path id="FangSong-6d" d="M 150 2800 
Q 275 2800 400 2825 
Q 525 2850 600 2900 
L 650 2900 
L 650 2475 
Q 775 2675 925 2762 
Q 1075 2850 1250 2850 
Q 1475 2850 1600 2762 
Q 1725 2675 1750 2475 
Q 1875 2675 2037 2762 
Q 2200 2850 2375 2850 
Q 2675 2850 2787 2675 
Q 2900 2500 2900 2225 
L 2900 325 
Q 2900 225 2950 187 
Q 3000 150 3100 150 
L 3150 150 
L 3150 0 
L 2300 0 
L 2300 150 
L 2350 150 
Q 2450 150 2500 187 
Q 2550 225 2550 325 
L 2550 2200 
Q 2550 2475 2487 2562 
Q 2425 2650 2300 2650 
Q 2125 2650 1987 2525 
Q 1850 2400 1775 2175 
L 1775 325 
Q 1775 225 1825 187 
Q 1875 150 1975 150 
L 2025 150 
L 2025 0 
L 1175 0 
L 1175 150 
L 1225 150 
Q 1325 150 1375 187 
Q 1425 225 1425 325 
L 1425 2200 
Q 1425 2425 1375 2537 
Q 1325 2650 1175 2650 
Q 1000 2650 862 2525 
Q 725 2400 650 2150 
L 650 325 
Q 650 225 700 187 
Q 750 150 850 150 
L 900 150 
L 900 0 
L 50 0 
L 50 150 
L 100 150 
Q 200 150 250 187 
Q 300 225 300 325 
L 300 2500 
Q 300 2575 275 2612 
Q 250 2650 175 2650 
L 75 2650 
L 75 2800 
L 150 2800 
z
" transform="scale(0.015625)"/>
      </defs>
      <use xlink:href="#FangSong-4f4d"/>
      <use xlink:href="#FangSong-7f6e" x="100"/>
      <use xlink:href="#FangSong-20" x="200"/>
      <use xlink:href="#FangSong-5b" x="250"/>
      <use xlink:href="#FangSong-6d" x="300"/>
      <use xlink:href="#FangSong-5d" x="350"/>
     </g>
    </g>
   </g>
   <g id="line2d_13">
    <path d="M 184.581818 172.035361 
L 186.20574 172.108137 
L 192.376645 172.022649 
L 194.325352 171.777005 
L 195.62449 171.428022 
L 196.598843 170.968287 
L 197.897981 170.018955 
L 199.846688 168.244117 
L 201.47061 166.792144 
L 203.094532 165.273132 
L 211.214144 157.074439 
L 212.188497 156.52018 
L 215.761126 154.996653 
L 216.73548 154.901784 
L 218.034617 155.098443 
L 219.008971 155.441945 
L 219.983324 156.05377 
L 220.957678 156.935274 
L 222.256815 158.321546 
L 222.5816 158.419368 
L 223.555953 159.185 
L 232.000349 167.507135 
L 233.624272 169.499837 
L 235.248194 171.043416 
L 240.119961 175.299839 
L 241.419099 176.850566 
L 242.718236 178.846974 
L 244.342159 181.712084 
L 244.666943 181.916885 
L 245.641297 183.318946 
L 250.513063 191.771824 
L 255.060046 199.284192 
L 256.359184 200.902489 
L 257.983106 202.558499 
L 259.931813 204.192795 
L 261.230951 205.010927 
L 262.205304 205.455219 
L 264.154011 206.006267 
L 267.72664 206.793948 
L 276.171036 208.068749 
L 282.34194 211.096706 
L 283.641078 212.05633 
L 284.615432 213.069293 
L 285.914569 214.838705 
L 287.213707 216.829066 
L 287.538492 217.016022 
L 288.512845 218.173942 
L 297.60681 231.485019 
L 298.905948 233.424199 
L 300.52987 235.432889 
L 306.700775 242.337701 
L 307.999913 244.367708 
L 309.623835 247.211656 
L 309.948619 247.423148 
L 310.922973 248.82082 
L 320.666507 265.257215 
L 321.965644 267.001392 
L 323.264782 268.390311 
L 325.213489 270.133239 
L 326.837411 271.377265 
L 330.085256 273.608278 
L 332.683532 275.574495 
L 334.632238 276.970415 
L 342.102281 282.564871 
L 344.050988 284.572657 
L 345.999694 286.097839 
L 348.273186 287.787475 
L 350.546677 289.720252 
L 351.845815 291.178311 
L 353.794521 293.463134 
L 354.768875 294.485819 
L 363.86284 305.706651 
L 365.486762 307.885621 
L 367.110684 309.687336 
L 370.033744 312.791755 
L 371.982451 315.089638 
L 373.281589 317.008359 
L 375.55508 320.606768 
L 376.529434 322.042672 
L 386.922536 339.462153 
L 388.546459 341.528107 
L 392.768657 346.57706 
L 394.717363 349.177048 
L 396.341286 351.73369 
L 397.640423 353.948625 
L 397.965208 354.159199 
L 399.264346 356.104853 
L 409.00788 371.929385 
L 410.307017 373.488447 
L 412.255724 375.418204 
L 417.127491 380.142097 
L 420.375336 383.66844 
L 428.494947 392.717717 
L 431.418007 396.234623 
L 433.041929 397.70864 
L 435.315421 399.761715 
L 437.588912 402.204689 
L 439.537619 404.602557 
L 441.161541 406.836746 
L 441.486325 407.023105 
L 442.785463 408.633777 
L 452.853782 422.027024 
L 454.477704 423.688012 
L 457.400764 426.608243 
L 460.648609 430.342232 
L 462.9221 433.329229 
L 463.246884 433.7656 
L 463.571669 433.945544 
L 464.870807 435.561899 
L 473.639987 447.133306 
L 475.263909 448.910178 
L 477.212616 450.611196 
L 480.785245 453.633071 
L 494.426192 466.270832 
L 497.349252 468.645081 
L 499.622744 470.011556 
L 501.57145 471.240828 
L 506.118433 474.507666 
L 506.768002 474.836591 
L 516.511536 481.332255 
L 525.930285 485.87257 
L 532.425974 488.297785 
L 536.648172 489.98581 
L 541.844723 490.8166 
L 548.015628 492.004985 
L 551.913042 492.084307 
L 559.0583 492.359124 
L 561.331791 491.807944 
L 564.254851 491.44333 
L 567.177911 491.000171 
L 568.152265 490.727486 
L 569.126618 490.266611 
L 570.425756 489.412225 
L 571.075325 488.94587 
L 571.724894 488.71709 
L 572.699247 488.173185 
L 579.844505 483.879967 
L 580.818858 483.251216 
L 583.741919 480.70028 
L 585.365841 479.762499 
L 589.588039 477.54678 
L 590.887177 476.586793 
L 592.511099 474.991855 
L 593.160668 474.315558 
L 593.810237 473.944177 
L 594.78459 473.100253 
L 603.228986 465.094479 
L 604.852908 463.095923 
L 606.476831 461.598023 
L 610.04946 458.636774 
L 611.348598 457.286219 
L 612.647735 455.610452 
L 615.246011 451.981162 
L 616.545149 450.147124 
L 624.66476 437.994242 
L 625.963898 435.887615 
L 627.263036 434.159833 
L 629.211743 432.01408 
L 630.835665 430.125242 
L 633.433941 426.698337 
L 635.057863 424.073986 
L 636.357001 421.758051 
L 636.681785 421.519445 
L 637.980923 419.484561 
L 648.374026 401.924746 
L 649.997948 399.947051 
L 652.921008 396.506785 
L 654.869715 393.877367 
L 656.818422 390.93337 
L 658.11756 388.816729 
L 658.442344 388.583999 
L 659.741482 386.680748 
L 669.8098 371.030186 
L 671.108938 369.544236 
L 678.903765 361.533217 
L 679.553334 361.010147 
L 681.177256 359.387183 
L 688.972083 351.362489 
L 691.895144 348.896821 
L 701.638677 341.974032 
L 703.587384 340.588947 
L 709.758289 336.066654 
L 712.681349 334.876116 
L 715.929193 333.726266 
L 718.527469 333.084663 
L 720.151391 332.811385 
L 721.450529 332.877109 
L 724.698374 333.271374 
L 730.869279 333.876578 
L 732.168416 334.060077 
L 736.06583 335.601287 
L 739.638459 336.657355 
L 740.937597 337.172614 
L 741.91195 337.757918 
L 743.211088 338.825196 
L 744.185441 339.712147 
L 744.83501 340.016728 
L 745.809364 340.739756 
L 753.928975 347.291411 
L 755.877682 349.47467 
L 757.501604 350.847255 
L 760.749449 353.35126 
L 762.698156 355.216831 
L 763.997293 356.856999 
L 766.595569 360.438593 
L 767.569923 361.777141 
L 775.689534 373.860259 
L 776.988672 375.955199 
L 778.28781 377.670753 
L 780.236516 379.77512 
L 782.185223 381.970435 
L 784.458714 384.898072 
L 786.082637 387.386777 
L 787.706559 390.20731 
L 788.031343 390.441373 
L 789.330481 392.438233 
L 800.048368 410.037108 
L 801.997075 412.20695 
L 804.270566 414.790316 
L 806.219273 417.335756 
L 808.492764 420.641557 
L 809.467118 422.136186 
L 809.791902 422.355833 
L 811.09104 424.164481 
L 820.509789 438.077964 
L 821.808927 439.646291 
L 823.43285 441.227002 
L 827.005479 444.60435 
L 829.27897 446.848545 
L 831.227677 448.530117 
L 833.176383 450.289527 
L 840.646426 457.212776 
L 843.569486 459.270117 
L 849.415606 462.573597 
L 851.039529 463.216263 
L 855.586511 464.793572 
L 861.432631 466.98238 
L 866.629183 467.443395 
L 868.902674 467.650715 
L 871.176165 467.711159 
L 872.475303 467.447872 
L 874.099225 466.803593 
L 875.073579 466.49498 
L 877.34707 465.80612 
L 883.842759 463.548177 
L 885.791466 462.117961 
L 887.090604 461.456203 
L 889.364095 460.654727 
L 890.663233 460.071125 
L 892.611939 458.998889 
L 893.911077 457.98374 
L 895.210215 456.652309 
L 896.184568 455.575924 
L 896.509353 455.437364 
L 897.808491 454.263279 
L 906.252887 445.699961 
L 907.876809 443.640241 
L 909.500731 442.038707 
L 912.748576 439.126856 
L 914.372498 437.323294 
L 915.671636 435.571834 
L 917.620343 432.818625 
L 918.919481 431.047898 
L 928.33823 417.000235 
L 929.637368 414.900295 
L 930.936506 413.191112 
L 934.833919 408.506251 
L 936.782626 405.595687 
L 944.577453 392.61304 
L 949.774004 383.874808 
L 951.397926 381.476139 
L 953.346633 379.096455 
L 955.620124 376.278461 
L 958.867969 371.807594 
L 966.338012 360.671843 
L 970.235425 354.757081 
L 972.508916 351.951189 
L 973.808054 350.676822 
L 975.756761 349.107822 
L 978.355037 347.379851 
L 979.978959 346.411638 
L 981.278097 345.875966 
L 985.500295 344.392677 
L 991.671199 342.107979 
L 996.218182 341.685657 
L 996.218182 341.685657 
" clip-path="url(#p4dd1479804)" style="fill: none; stroke: #ff0000; stroke-width: 2; stroke-linecap: square"/>
   </g>
   <g id="line2d_14">
    <path d="M 184.581818 172.034766 
L 195.299705 171.968054 
L 196.923628 171.615303 
L 198.872334 170.936232 
L 204.718455 168.743206 
L 211.863713 165.900224 
L 214.786773 164.367096 
L 219.983324 162.208924 
L 228.42772 157.675927 
L 232.974703 155.258255 
L 238.171254 152.507382 
L 240.76953 150.715973 
L 243.367805 148.737308 
L 244.342159 147.950388 
L 244.666943 147.84877 
L 245.966081 146.802315 
L 253.111339 140.9344 
L 256.359184 138.817573 
L 260.256597 136.57344 
L 262.530088 135.166178 
L 264.80358 133.416826 
L 267.72664 131.233597 
L 269.350562 130.018747 
L 278.444527 122.991694 
L 279.743665 122.286556 
L 282.991509 120.930632 
L 297.60681 114.625988 
L 300.205086 113.654493 
L 302.803361 112.446214 
L 305.726421 110.771814 
L 309.299051 108.572223 
L 309.948619 108.285433 
L 311.572542 107.200087 
L 318.7178 102.343097 
L 325.213489 99.639565 
L 336.90573 95.665535 
L 342.102281 93.885326 
L 346.649263 92.828185 
L 349.247539 92.010871 
L 350.871461 91.630106 
L 352.495384 91.494538 
L 355.093659 91.304675 
L 363.538055 90.712181 
L 365.161978 90.819536 
L 367.435469 90.695758 
L 369.70896 90.299074 
L 372.63202 89.813917 
L 374.580727 89.812769 
L 376.204649 89.763762 
L 383.025123 89.417157 
L 383.674692 89.429411 
L 386.922536 89.86105 
L 388.871243 89.850491 
L 392.119088 89.574066 
L 395.042148 89.281682 
L 397.315639 89.460354 
L 398.289992 89.481595 
L 399.58913 89.479163 
L 406.409604 89.669349 
L 408.358311 90.229323 
L 410.631802 90.529621 
L 415.503569 90.732152 
L 417.127491 90.837317 
L 418.751413 91.171032 
L 419.725767 91.34287 
L 421.999258 91.68395 
L 428.494947 92.740704 
L 431.742792 93.960237 
L 434.016283 94.520732 
L 437.588912 95.343078 
L 438.563265 95.764016 
L 439.862403 96.585512 
L 441.161541 97.553134 
L 441.81111 97.785514 
L 442.785463 98.350605 
L 450.58029 103.537589 
L 452.204213 104.964312 
L 453.828135 106.028417 
L 456.101626 107.161535 
L 459.99904 109.227836 
L 461.298177 110.2844 
L 463.896453 112.589385 
L 464.870807 113.404984 
L 472.665634 120.704996 
L 474.289556 122.579028 
L 475.913478 123.976882 
L 477.862185 125.259245 
L 481.759598 127.818238 
L 483.058736 128.965725 
L 485.657012 131.446471 
L 486.631365 132.343383 
L 495.075761 140.726727 
L 496.699684 142.728793 
L 498.323606 144.263316 
L 502.870588 148.006833 
L 504.169726 149.503178 
L 506.768002 152.728336 
L 508.06714 154.337873 
L 516.511536 165.445732 
L 517.810673 167.374318 
L 519.434596 169.317968 
L 523.007225 173.241277 
L 524.631147 175.325444 
L 525.930285 177.366205 
L 528.203776 181.1832 
L 529.178129 182.714793 
L 539.896017 201.749088 
L 541.519939 203.861453 
L 545.092568 208.244633 
L 547.041275 210.979853 
L 548.989981 214.14314 
L 549.63955 215.240815 
L 549.964335 215.48157 
L 551.263473 217.422983 
L 561.98136 234.548634 
L 563.605282 236.366839 
L 566.528342 239.540004 
L 568.801833 242.445333 
L 584.391488 263.237464 
L 588.93847 267.895585 
L 598.032435 279.17057 
L 603.228986 285.737836 
L 605.502477 288.215232 
L 607.1264 289.585835 
L 610.374244 292.250968 
L 612.647735 294.248206 
L 614.596442 295.761547 
L 615.246011 296.131382 
L 624.339976 303.263311 
L 629.211743 305.763151 
L 634.08351 307.962166 
L 636.357001 308.445577 
L 637.331354 308.682482 
L 643.177475 310.281801 
L 645.126181 310.76315 
L 649.997948 310.730041 
L 652.596224 310.761259 
L 655.1945 310.664095 
L 656.493637 310.279415 
L 658.767129 309.436344 
L 659.741482 309.122662 
L 666.237171 306.8815 
L 667.211525 306.492849 
L 670.459369 304.383939 
L 672.73286 303.427589 
L 674.356783 302.620072 
L 675.655921 301.840142 
L 676.955058 300.739461 
L 678.254196 299.294905 
L 679.22855 298.12073 
L 679.553334 297.967627 
L 680.852472 296.685266 
L 688.972083 287.661952 
L 690.596006 285.480341 
L 692.219928 283.778138 
L 696.117341 280.059038 
L 698.066048 277.850521 
L 699.365186 275.980746 
L 701.638677 272.458321 
L 702.937815 270.517252 
L 711.057427 257.023137 
L 712.356564 254.893524 
L 713.655702 253.157221 
L 715.929193 250.667724 
L 718.202685 248.051503 
L 720.151391 245.507606 
L 722.100098 242.573855 
L 723.074452 241.01655 
L 723.399236 240.791523 
L 724.698374 238.950829 
L 735.091477 223.242351 
L 736.390614 221.833604 
L 741.262381 216.915895 
L 744.185441 213.486416 
L 744.83501 212.959539 
L 747.108502 210.39012 
L 754.578544 201.941063 
L 756.852035 199.692972 
L 762.373371 194.915265 
L 765.946 191.70896 
L 766.270785 191.568299 
L 767.894707 190.118935 
L 775.039965 183.54011 
L 778.937379 181.136198 
L 785.108283 177.997512 
L 786.732206 177.492005 
L 789.98005 176.54054 
L 796.800524 174.366062 
L 799.3988 174.377559 
L 803.620997 174.354704 
L 806.219273 174.730679 
L 807.193627 175.128732 
L 808.492764 175.930658 
L 809.467118 176.605768 
L 810.116687 176.810873 
L 811.09104 177.329665 
L 818.885867 182.015318 
L 820.834574 183.799218 
L 822.458496 184.857572 
L 826.680694 187.230071 
L 827.979832 188.239108 
L 829.27897 189.550464 
L 831.227677 191.630285 
L 832.526814 192.913101 
L 840.97121 202.23339 
L 842.595133 204.439702 
L 844.219055 206.142244 
L 847.142115 208.907796 
L 849.090822 211.212925 
L 850.38996 213.076643 
L 852.988235 217.012454 
L 854.287373 219.024535 
L 865.00526 236.23778 
L 870.201812 242.864513 
L 872.150518 245.872754 
L 873.774441 248.830389 
L 874.748794 250.693843 
L 875.073579 250.938865 
L 876.372716 253.197159 
L 885.141897 269.467839 
L 886.441035 271.478347 
L 887.740172 273.090231 
L 889.688879 275.090415 
L 893.586293 278.5592 
L 896.184568 280.754048 
L 896.834137 281.173207 
L 902.680258 286.009525 
L 905.928102 288.60788 
L 909.175947 290.632416 
L 913.07336 292.725549 
L 915.022067 293.922745 
L 916.970774 294.803482 
L 920.218618 296.254186 
L 927.363876 299.662498 
L 934.509135 300.458374 
L 935.808272 300.461512 
L 936.782626 300.247218 
L 938.081764 299.680229 
L 939.056117 299.168601 
L 939.705686 299.02877 
L 940.680039 298.669571 
L 948.474866 295.294647 
L 950.423573 293.773185 
L 952.047495 292.908665 
L 955.620124 291.245271 
L 957.893616 289.814796 
L 959.192753 288.618879 
L 961.791029 285.920249 
L 962.765383 284.938183 
L 970.235425 276.806591 
L 972.184132 274.117854 
L 973.48327 272.754989 
L 975.431976 271.156622 
L 977.055899 269.739456 
L 979.004605 267.756671 
L 980.303743 266.0941 
L 982.25245 263.150288 
L 982.577235 262.647226 
L 982.902019 262.435139 
L 984.201157 260.693296 
L 992.645553 248.206333 
L 994.269475 245.716387 
L 995.568613 244.129563 
L 996.218182 243.433162 
L 996.218182 243.433162 
" clip-path="url(#p4dd1479804)" style="fill: none; stroke-dasharray: 7.4,3.2; stroke-dashoffset: 0; stroke: #008000; stroke-width: 2"/>
   </g>
   <g id="line2d_15">
    <path d="M 184.581818 104.542786 
L 185.231387 104.761778 
L 185.880956 105.314942 
L 186.530525 106.190604 
L 187.180094 107.383856 
L 188.154447 109.767873 
L 189.128801 112.862648 
L 190.752723 118.587112 
L 193.026214 126.738259 
L 194.000567 129.538309 
L 194.650136 131.003066 
L 194.974921 131.366304 
L 195.299705 131.526513 
L 195.62449 131.533139 
L 195.949274 131.379836 
L 196.598843 130.671047 
L 197.248412 129.461167 
L 197.897981 127.779926 
L 198.872334 124.449472 
L 202.120179 111.889006 
L 203.094532 109.556519 
L 203.744101 108.40825 
L 204.39367 107.580361 
L 205.043239 107.072334 
L 205.692808 106.883716 
L 206.342377 107.014116 
L 206.991946 107.463292 
L 207.641515 108.231602 
L 208.291084 109.317964 
L 209.265437 111.542042 
L 210.23979 114.47729 
L 212.188497 120.98758 
L 214.461988 127.856256 
L 215.436342 130.176472 
L 215.761126 130.795487 
L 216.085911 131.148385 
L 216.73548 131.376493 
L 217.060264 131.335712 
L 217.385049 131.153233 
L 218.034617 130.393376 
L 218.684186 129.12512 
L 219.333755 127.371043 
L 220.308109 123.957588 
L 222.5816 115.193346 
L 223.555953 112.461207 
L 224.530307 110.489937 
L 225.179876 109.577373 
L 225.829445 108.984877 
L 226.479013 108.711966 
L 227.128582 108.758231 
L 227.778151 109.126094 
L 228.42772 109.813845 
L 229.077289 110.81981 
L 230.051642 112.923586 
L 232.325134 118.664388 
L 233.624272 121.788356 
L 235.572978 126.539973 
L 236.547332 128.407801 
L 237.196901 129.330331 
L 237.846469 129.943534 
L 238.496038 130.22697 
L 239.145607 130.275598 
L 239.470392 130.153215 
L 240.119961 129.511259 
L 240.76953 128.345519 
L 241.419099 126.69634 
L 242.393452 123.48273 
L 244.342159 116.314069 
L 245.966081 112.345351 
L 246.61565 111.280957 
L 247.265219 110.569272 
L 247.914788 110.182725 
L 248.564357 110.115571 
L 249.213926 110.367351 
L 249.863494 110.937607 
L 250.513063 111.826519 
L 251.487417 113.399448 
L 252.786555 114.959456 
L 253.760908 116.63653 
L 254.735261 118.754761 
L 256.683968 123.771645 
L 257.983106 126.805014 
L 258.957459 128.510587 
L 259.607028 129.300506 
L 260.256597 129.787833 
L 260.906166 129.982453 
L 261.555735 129.970091 
L 262.205304 129.563965 
L 262.854873 128.673332 
L 263.504442 127.301119 
L 264.478795 124.426051 
L 265.777933 119.48574 
L 266.752286 116.013752 
L 267.72664 113.334809 
L 268.700993 111.403231 
L 269.350562 110.514609 
L 270.000131 109.945382 
L 270.6497 109.695349 
L 271.299269 109.764249 
L 271.948838 110.151784 
L 272.598407 110.857592 
L 273.247976 111.88122 
L 274.222329 114.011346 
L 275.196682 116.853038 
L 276.820605 122.024343 
L 278.769311 127.375528 
L 279.743665 129.505401 
L 280.718018 131.057608 
L 281.042803 131.290925 
L 281.692371 131.372743 
L 282.017156 131.228811 
L 282.666725 130.553489 
L 283.316294 129.371652 
L 283.965863 127.696046 
L 284.940216 124.370642 
L 287.863276 113.227597 
L 288.83763 110.69889 
L 289.811983 108.916598 
L 290.461552 108.146673 
L 291.111121 107.69697 
L 291.76069 107.566695 
L 292.410259 107.755425 
L 293.059828 108.262748 
L 293.709396 109.090985 
L 294.358965 110.238212 
L 295.333319 112.553587 
L 296.632457 115.93688 
L 298.256379 119.697255 
L 301.504224 127.993978 
L 302.478577 129.64231 
L 303.128146 130.330086 
L 303.777715 130.639993 
L 304.427284 130.642414 
L 304.752068 130.483023 
L 305.401637 129.751276 
L 306.051206 128.481495 
L 306.700775 126.719941 
L 307.675128 123.334588 
L 309.623835 115.856736 
L 311.247757 111.669302 
L 311.897326 110.525388 
L 312.546895 109.718181 
L 313.196464 109.231858 
L 313.846033 109.065086 
L 314.495602 109.217407 
L 315.145171 109.688777 
L 315.79474 110.48145 
L 316.444309 111.592997 
L 317.418662 113.85487 
L 318.068231 115.398028 
L 320.016938 119.308553 
L 321.965644 124.237334 
L 323.264782 127.380263 
L 324.239136 129.208352 
L 324.888705 130.055859 
L 325.538273 130.566775 
L 326.187842 130.685478 
L 326.512627 130.659497 
L 326.837411 130.508332 
L 327.48698 129.827189 
L 328.136549 128.635016 
L 328.786118 126.956024 
L 329.760471 123.661232 
L 332.683532 112.747896 
L 333.657885 110.402284 
L 334.632238 108.767238 
L 335.281807 108.076668 
L 335.931376 107.705517 
L 336.580945 107.653479 
L 337.230514 107.920231 
L 337.880083 108.505421 
L 338.529652 109.408622 
L 339.179221 110.629319 
L 340.153574 113.0543 
L 341.127928 116.18977 
L 342.102281 119.285247 
L 344.700557 126.383722 
L 345.67491 128.565416 
L 346.649263 130.190967 
L 346.974048 130.580797 
L 347.623617 130.89177 
L 348.273186 130.861213 
L 348.59797 130.682109 
L 349.247539 129.931339 
L 349.897108 128.659791 
L 350.546677 126.889418 
L 351.52103 123.440419 
L 353.794521 114.642245 
L 354.768875 111.918029 
L 355.743228 109.94469 
L 356.392797 109.029686 
L 357.042366 108.434659 
L 357.691935 108.159188 
L 358.341504 108.20378 
L 358.991073 108.569718 
L 359.640642 109.254727 
L 360.290211 110.25774 
L 361.264564 112.356978 
L 362.238917 115.167744 
L 363.213271 117.92593 
L 367.760253 128.932694 
L 368.409822 129.885024 
L 369.059391 130.512352 
L 369.70896 130.699581 
L 370.033744 130.690794 
L 370.358529 130.549387 
L 371.008098 129.868921 
L 371.657667 128.657256 
L 372.307236 126.946617 
L 373.281589 123.604359 
L 375.55508 115.15022 
L 376.529434 112.534163 
L 377.503787 110.683316 
L 378.153356 109.856908 
L 378.802925 109.350413 
L 379.452494 109.163432 
L 380.102063 109.29554 
L 380.751632 109.746307 
L 381.4012 110.517651 
L 382.050769 111.608319 
L 383.025123 113.839155 
L 383.674692 115.383375 
L 385.623398 119.381197 
L 389.196028 127.716755 
L 390.170381 129.133556 
L 390.81995 129.693791 
L 391.469519 129.942901 
L 392.119088 129.978484 
L 392.443872 129.940603 
L 392.768657 129.774589 
L 393.418225 129.050431 
L 394.067794 127.812312 
L 394.717363 126.103266 
L 395.691717 122.82579 
L 397.640423 115.616697 
L 398.939561 112.306335 
L 399.913915 110.637848 
L 400.563484 109.924175 
L 401.213052 109.529871 
L 401.862621 109.454794 
L 402.51219 109.699156 
L 403.161759 110.264852 
L 403.811328 111.149591 
L 404.460897 112.352018 
L 405.43525 114.749487 
L 406.084819 116.403414 
L 408.358311 121.413359 
L 410.631802 126.85885 
L 411.606155 128.680684 
L 412.255724 129.566619 
L 412.905293 130.137986 
L 413.554862 130.372371 
L 414.204431 130.378361 
L 414.529215 130.237267 
L 415.178784 129.578003 
L 415.828353 128.408969 
L 416.477922 126.75349 
L 417.452275 123.494027 
L 419.725767 115.05244 
L 420.70012 112.522937 
L 421.674473 110.720172 
L 422.324042 109.918343 
L 422.973611 109.436158 
L 423.62318 109.273248 
L 424.272749 109.42925 
L 424.922318 109.903796 
L 425.571887 110.696467 
L 426.221456 111.806769 
L 427.195809 114.066475 
L 430.118869 121.950763 
L 432.067576 126.671534 
L 433.041929 128.509356 
L 433.691498 129.425323 
L 434.341067 130.039061 
L 434.990636 130.319629 
L 435.640205 130.367386 
L 435.96499 130.3336 
L 436.289774 130.172403 
L 436.939343 129.467209 
L 437.588912 128.247901 
L 438.238481 126.543983 
L 439.212834 123.231178 
L 441.486325 114.874996 
L 442.460679 112.328806 
L 443.435032 110.542071 
L 444.084601 109.750476 
L 444.73417 109.278527 
L 445.383739 109.125948 
L 446.033308 109.292381 
L 446.682877 109.779119 
L 447.332446 110.585962 
L 447.982015 111.710885 
L 448.956368 113.992557 
L 450.255506 117.392466 
L 452.204213 121.976469 
L 454.152919 126.682986 
L 455.127273 128.528568 
L 455.776842 129.432875 
L 456.426411 130.02431 
L 457.075979 130.281058 
L 457.725548 130.313537 
L 458.050333 130.271321 
L 458.375117 130.100474 
L 459.024686 129.364477 
L 459.674255 128.108512 
L 460.323824 126.372075 
L 461.298177 123.033431 
L 463.246884 115.646572 
L 464.546022 112.211551 
L 465.520375 110.452478 
L 466.169944 109.678733 
L 466.819513 109.224492 
L 467.469082 109.089578 
L 468.118651 109.274011 
L 468.76822 109.779742 
L 469.417789 110.604623 
L 470.067358 111.747298 
L 471.041711 114.055374 
L 472.340849 117.470392 
L 473.964771 121.195038 
L 476.563047 127.501878 
L 477.5374 129.232174 
L 478.186969 130.023218 
L 478.836538 130.476287 
L 479.486107 130.584891 
L 479.810892 130.567597 
L 480.135676 130.421765 
L 480.785245 129.744955 
L 481.434814 128.550201 
L 482.084383 126.862355 
L 483.058736 123.538482 
L 485.332227 114.965196 
L 486.306581 112.358919 
L 487.280934 110.487529 
L 487.930503 109.642082 
L 488.580072 109.117384 
L 489.229641 108.912317 
L 489.87921 109.026297 
L 490.528779 109.458879 
L 491.178348 110.209623 
L 491.827917 111.27803 
L 492.80227 113.474965 
L 493.776623 116.382979 
L 494.750977 119.245047 
L 498.323606 128.254722 
L 499.297959 129.980378 
L 499.947528 130.753416 
L 500.597097 130.988632 
L 500.921881 130.969276 
L 501.246666 130.818704 
L 501.896235 130.130322 
L 502.545804 128.926337 
L 503.195373 127.221455 
L 504.169726 123.844916 
L 506.443217 115.05091 
L 507.417571 112.339283 
L 508.391924 110.366036 
L 509.041493 109.450483 
L 509.691062 108.856688 
L 510.340631 108.584116 
L 510.9902 108.631054 
L 511.639769 108.996771 
L 512.289338 109.680756 
L 512.938906 110.682502 
L 513.91326 112.779654 
L 514.887613 115.588183 
L 515.861967 118.348011 
L 520.084165 128.560716 
L 520.733733 129.594078 
L 521.383302 130.313999 
L 522.032871 130.664682 
L 522.68244 130.688659 
L 523.007225 130.54084 
L 523.656794 129.850306 
L 524.306363 128.632535 
L 524.955931 126.91936 
L 525.930285 123.579558 
L 528.203776 115.142753 
L 529.178129 112.542191 
L 530.152483 110.7081 
L 530.802052 109.888322 
L 531.451621 109.388118 
L 532.10119 109.207326 
L 532.750758 109.345595 
L 533.400327 109.802515 
L 534.049896 110.580167 
L 534.699465 111.676646 
L 535.673819 113.915903 
L 536.972956 117.229686 
L 538.596879 120.858993 
L 541.195154 127.222296 
L 542.169508 129.035029 
L 542.819077 129.890457 
L 543.468646 130.409035 
L 544.118215 130.588734 
L 544.442999 130.592045 
L 544.767783 130.46612 
L 545.417352 129.826383 
L 546.066921 128.662826 
L 546.71649 126.99629 
L 547.690844 123.698217 
L 549.964335 115.179458 
L 550.938688 112.58552 
L 551.913042 110.733489 
L 552.56261 109.897856 
L 553.212179 109.384223 
L 553.861748 109.190879 
L 554.511317 109.316744 
L 555.160886 109.761226 
L 555.810455 110.523826 
L 556.460024 111.604021 
L 557.434377 113.81848 
L 559.707869 119.872658 
L 563.280498 128.367182 
L 564.254851 129.85425 
L 564.90442 130.459363 
L 565.553989 130.652457 
L 565.878773 130.653756 
L 566.203558 130.527885 
L 566.853127 129.898093 
L 567.502696 128.760924 
L 568.152265 127.125327 
L 569.126618 123.862076 
L 572.049678 112.961201 
L 573.024031 110.566726 
L 573.998385 108.901275 
L 574.647954 108.191157 
L 575.297523 107.802795 
L 575.947092 107.735397 
L 576.59666 107.987263 
L 577.246229 108.557642 
L 577.895798 109.445978 
L 578.545367 110.651712 
L 579.519721 113.054037 
L 581.793212 119.445318 
L 583.741919 124.589041 
L 585.041056 127.752779 
L 586.01541 129.583545 
L 586.664979 130.430203 
L 586.989763 130.721467 
L 587.639332 130.907079 
L 587.964117 130.88235 
L 588.288901 130.724 
L 588.93847 130.009256 
L 589.588039 128.764782 
L 590.237608 127.015836 
L 591.211961 123.597157 
L 593.485452 114.849117 
L 594.459806 112.162523 
L 595.434159 110.218881 
L 596.083728 109.322266 
L 596.733297 108.747188 
L 597.382866 108.493118 
L 598.032435 108.558491 
L 598.682004 108.942602 
L 599.331573 109.644936 
L 599.981142 110.664975 
L 600.955495 112.789442 
L 601.929848 115.625115 
L 602.904202 118.402767 
L 607.1264 128.755464 
L 608.100753 130.235144 
L 608.750322 130.748171 
L 609.399891 130.833205 
L 609.724675 130.71027 
L 610.374244 130.079136 
L 611.023813 128.923896 
L 611.673382 127.262416 
L 612.647735 123.956702 
L 614.921227 115.358623 
L 615.89558 112.710613 
L 616.869933 110.812599 
L 617.519502 109.946626 
L 618.169071 109.400377 
L 618.81864 109.173617 
L 619.468209 109.267998 
L 620.117778 109.682328 
L 620.767347 110.41514 
L 621.416916 111.465667 
L 622.391269 113.635739 
L 624.66476 119.565812 
L 626.288683 123.61295 
L 627.912605 127.437478 
L 628.886958 129.181122 
L 629.536527 129.990625 
L 630.186096 130.469091 
L 630.835665 130.614951 
L 631.16045 130.618296 
L 631.485234 130.492309 
L 632.134803 129.850133 
L 632.784372 128.683325 
L 633.433941 127.018094 
L 634.408294 123.734143 
L 636.681785 115.297763 
L 637.656139 112.724085 
L 638.630492 110.902877 
L 639.280061 110.087328 
L 639.92963 109.591283 
L 640.579199 109.415129 
L 641.228768 109.560167 
L 641.878337 110.024512 
L 642.527906 110.807118 
L 643.177475 111.90731 
L 644.151828 114.151656 
L 645.450966 117.499039 
L 647.399673 121.985106 
L 649.348379 126.675672 
L 650.322733 128.54175 
L 650.972302 129.467941 
L 651.621871 130.083132 
L 652.271439 130.353003 
L 652.921008 130.390764 
L 653.245793 130.262091 
L 653.895362 129.622556 
L 654.544931 128.470305 
L 655.1945 126.826969 
L 656.168853 123.580649 
L 658.442344 115.212614 
L 659.416698 112.682628 
L 660.391051 110.895493 
L 661.04062 110.102677 
L 661.690189 109.631473 
L 662.339758 109.480413 
L 662.989327 109.648479 
L 663.638896 110.135093 
L 664.288464 110.939758 
L 664.938033 112.061939 
L 665.912387 114.339211 
L 668.185878 120.543721 
L 671.758507 129.054668 
L 672.408076 130.065805 
L 673.057645 130.765792 
L 673.707214 130.971193 
L 674.031998 130.947009 
L 674.356783 130.794531 
L 675.006352 130.109828 
L 675.655921 128.918186 
L 676.305489 127.234143 
L 677.279843 123.895329 
L 679.553334 115.206134 
L 680.527687 112.52666 
L 681.502041 110.591476 
L 682.15161 109.701206 
L 682.801179 109.130779 
L 683.450748 108.880831 
L 684.100316 108.952023 
L 684.749885 109.34238 
L 685.399454 110.051067 
L 686.049023 111.077488 
L 687.023377 113.211542 
L 689.621652 119.854156 
L 693.194281 128.218434 
L 693.84385 129.213105 
L 694.493419 129.906465 
L 695.142988 130.266804 
L 695.792557 130.337468 
L 696.117341 130.311221 
L 696.442126 130.15582 
L 697.091695 129.46025 
L 697.741264 128.25313 
L 698.390833 126.568698 
L 699.365186 123.306175 
L 701.313893 116.045084 
L 702.613031 112.655057 
L 703.587384 110.948234 
L 704.236953 110.208285 
L 704.886522 109.787602 
L 705.536091 109.686164 
L 706.18566 109.90402 
L 706.835229 110.44245 
L 707.484798 111.299632 
L 708.134366 112.474414 
L 709.10872 114.830386 
L 709.758289 116.462774 
L 712.03178 121.460215 
L 714.305271 126.891623 
L 715.279625 128.699976 
L 715.929193 129.574396 
L 716.578762 130.134197 
L 717.228331 130.363375 
L 717.8779 130.381881 
L 718.202685 130.248032 
L 718.852254 129.607141 
L 719.501823 128.461799 
L 720.151391 126.826256 
L 721.125745 123.590368 
L 723.399236 115.229178 
L 724.373589 112.700768 
L 725.347943 110.913652 
L 725.997512 110.121375 
L 726.647081 109.650634 
L 727.29665 109.499879 
L 727.946218 109.668213 
L 728.595787 110.155092 
L 729.245356 110.96003 
L 729.894925 112.082501 
L 730.869279 114.360242 
L 733.467554 121.372008 
L 736.390614 128.476787 
L 737.364968 130.101168 
L 738.014537 130.798911 
L 738.664106 130.987527 
L 738.98889 130.953068 
L 739.313675 130.786935 
L 739.963243 130.066034 
L 740.612812 128.828738 
L 741.262381 127.093713 
L 742.236735 123.687706 
L 744.510226 114.886204 
L 745.484579 112.173792 
L 746.458933 110.199799 
L 747.108502 109.283767 
L 747.758071 108.689327 
L 748.407639 108.41585 
L 749.057208 108.461819 
L 749.706777 108.826553 
L 750.356346 109.509557 
L 751.005915 110.51033 
L 751.980268 112.606046 
L 752.954622 115.413171 
L 753.928975 118.177657 
L 758.151173 128.473502 
L 759.125527 129.940433 
L 759.775095 130.51653 
L 760.424664 130.698473 
L 760.749449 130.690157 
L 761.074233 130.551043 
L 761.723802 129.880112 
L 762.373371 128.688278 
L 763.02294 127.002423 
L 763.997293 123.695936 
L 766.270785 115.247234 
L 767.245138 112.664278 
L 768.219491 110.838303 
L 768.86906 110.019693 
L 769.518629 109.520619 
L 770.168198 109.340943 
L 770.817767 109.481081 
L 771.467336 109.94189 
L 772.116905 110.72138 
L 772.766474 111.818566 
L 773.740827 114.058453 
L 775.039965 117.393953 
L 776.663887 121.048456 
L 779.262163 127.2476 
L 780.236516 128.95579 
L 780.886085 129.746829 
L 781.535654 130.206888 
L 782.185223 130.349137 
L 782.510008 130.355311 
L 782.834792 130.232973 
L 783.484361 129.604212 
L 784.13393 128.465192 
L 784.783499 126.837733 
L 785.757852 123.620404 
L 788.031343 115.323217 
L 789.005697 112.822556 
L 789.98005 111.066229 
L 790.629619 110.293552 
L 791.279188 109.842331 
L 791.928757 109.711166 
L 792.578326 109.899081 
L 793.227895 110.405505 
L 793.877464 111.229934 
L 794.527033 112.371828 
L 795.501386 114.678555 
L 796.800524 118.119939 
L 798.749231 122.714552 
L 800.373153 126.604631 
L 801.347506 128.50574 
L 801.997075 129.470066 
L 802.646644 130.134077 
L 803.296213 130.466062 
L 803.945782 130.540863 
L 804.270566 130.520382 
L 804.595351 130.370563 
L 805.24492 129.686241 
L 805.894489 128.486028 
L 806.544058 126.795984 
L 807.518411 123.488713 
L 809.791902 115.055799 
L 810.766256 112.481137 
L 811.740609 110.660177 
L 812.390178 109.845164 
L 813.039747 109.349714 
L 813.689316 109.173651 
L 814.338885 109.318005 
L 814.988454 109.782536 
L 815.638022 110.565573 
L 816.287591 111.666279 
L 817.261945 113.911473 
L 819.535436 120.006179 
L 823.43285 129.233375 
L 824.082418 130.18411 
L 824.407203 130.540063 
L 825.056772 130.810672 
L 825.706341 130.776232 
L 826.031125 130.607431 
L 826.680694 129.891442 
L 827.330263 128.669398 
L 827.979832 126.953107 
L 828.954185 123.582746 
L 831.227677 114.900758 
L 832.20203 112.242884 
L 833.176383 110.323199 
L 833.825952 109.443239 
L 834.475521 108.88522 
L 835.12509 108.647479 
L 835.774659 108.728979 
L 836.424228 109.129155 
L 837.073797 109.847534 
L 837.723366 110.883614 
L 838.697719 113.032141 
L 839.672072 115.891869 
L 840.646426 118.706218 
L 844.543839 128.412848 
L 845.518193 130.03304 
L 846.167762 130.724389 
L 846.817331 130.938844 
L 847.142115 130.925847 
L 847.466899 130.781168 
L 848.116468 130.100582 
L 848.766037 128.896942 
L 849.415606 127.190508 
L 850.38996 123.829146 
L 852.663451 115.161655 
L 853.637804 112.490436 
L 854.612158 110.569362 
L 855.261727 109.687907 
L 855.911295 109.126182 
L 856.560864 108.884115 
L 857.210433 108.963332 
L 857.860002 109.362115 
L 858.509571 110.079302 
L 859.15914 111.114207 
L 860.133493 113.260905 
L 862.406985 119.142276 
L 864.030907 123.181492 
L 865.654829 127.070842 
L 866.629183 128.888269 
L 867.278752 129.759215 
L 867.92832 130.306741 
L 868.577889 130.527163 
L 869.227458 130.549843 
L 869.552243 130.501762 
L 869.877027 130.323387 
L 870.526596 129.575163 
L 871.176165 128.311656 
L 871.825734 126.572039 
L 872.800087 123.238277 
L 874.748794 115.898927 
L 876.047932 112.452359 
L 877.022285 110.710433 
L 877.671854 109.946272 
L 878.321423 109.501227 
L 878.970992 109.375465 
L 879.620561 109.570726 
L 880.27013 110.085376 
L 880.919699 110.918227 
L 881.569268 112.068548 
L 882.543621 114.387805 
L 883.842759 117.811404 
L 885.466681 121.537649 
L 888.064957 127.937885 
L 889.03931 129.738002 
L 889.688879 130.577298 
L 890.338448 130.867816 
L 890.988017 130.827937 
L 891.637586 130.362106 
L 892.287155 129.390906 
L 892.936724 127.914489 
L 893.911077 124.847191 
L 895.210215 119.629462 
L 896.184568 115.966583 
L 897.483706 112.350406 
L 898.45806 110.444884 
L 899.107629 109.575339 
L 899.757197 109.027545 
L 900.406766 108.799687 
L 901.056335 108.890975 
L 901.705904 109.300912 
L 902.355473 110.02905 
L 903.005042 111.074896 
L 903.979395 113.23809 
L 904.953749 116.112504 
L 905.928102 118.952184 
L 909.500731 127.987902 
L 910.475085 129.754679 
L 911.124653 130.567509 
L 911.774222 130.847126 
L 912.099007 130.855894 
L 912.423791 130.732133 
L 913.07336 130.092592 
L 913.722929 128.939124 
L 914.372498 127.284166 
L 915.346851 123.98298 
L 918.269912 112.90753 
L 919.244265 110.469941 
L 920.218618 108.757349 
L 920.868187 108.017286 
L 921.517756 107.597111 
L 922.167325 107.496249 
L 922.816894 107.714252 
L 923.466463 108.250691 
L 924.116032 109.105104 
L 924.765601 110.276961 
L 925.739954 112.628587 
L 926.714308 115.69061 
L 927.688661 118.666214 
L 931.586074 128.765322 
L 932.560428 130.438038 
L 932.885212 130.834371 
L 933.534781 131.127756 
L 933.859566 131.117783 
L 934.18435 130.974532 
L 934.833919 130.292958 
L 935.483488 129.085644 
L 936.133057 127.371793 
L 937.10741 123.991866 
L 939.380901 115.26282 
L 940.355255 112.554735 
L 941.329608 110.602385 
L 941.979177 109.700141 
L 942.628746 109.117675 
L 943.278315 108.854774 
L 943.927884 108.911074 
L 944.577453 109.28813 
L 945.227022 109.984533 
L 945.876591 110.998896 
L 946.850944 113.114897 
L 949.124435 118.896056 
L 950.423573 122.047363 
L 952.37228 126.834127 
L 953.346633 128.712635 
L 953.996202 129.630869 
L 954.645771 130.228442 
L 955.29534 130.490181 
L 955.944909 130.507185 
L 956.269693 130.365585 
L 956.919262 129.694156 
L 957.568831 128.506953 
L 958.2184 126.834644 
L 959.192753 123.570659 
L 961.466245 115.276659 
L 962.440598 112.778595 
L 963.414951 111.032784 
L 964.06452 110.265915 
L 964.714089 109.818532 
L 965.363658 109.692218 
L 966.013227 109.885443 
L 966.662796 110.397273 
L 967.312365 111.227102 
L 967.961934 112.374353 
L 968.936287 114.689005 
L 970.235425 118.132645 
L 972.184132 122.747384 
L 974.132839 127.468741 
L 975.107192 129.305155 
L 975.756761 130.192683 
L 976.40633 130.692952 
L 977.055899 130.780554 
L 977.380683 130.744371 
L 977.705468 130.579421 
L 978.355037 129.866519 
L 979.004605 128.641496 
L 979.654174 126.928453 
L 980.628528 123.578751 
L 982.902019 114.984552 
L 983.876372 112.348108 
L 984.850726 110.458152 
L 985.500295 109.597688 
L 986.149864 109.056954 
L 986.799433 108.83639 
L 987.449001 108.936769 
L 988.09857 109.356304 
L 988.748139 110.09414 
L 989.397708 111.149665 
L 990.372062 113.327268 
L 992.970337 120.087105 
L 996.218182 127.923558 
L 996.218182 127.923558 
" clip-path="url(#p4dd1479804)" style="fill: none; stroke-dasharray: 2,3.3; stroke-dashoffset: 0; stroke: #0000ff; stroke-width: 2"/>
   </g>
   <g id="patch_3">
    <path d="M 144 512.64 
L 144 69.12 
" style="fill: none; stroke: #000000; stroke-width: 0.8; stroke-linejoin: miter; stroke-linecap: square"/>
   </g>
   <g id="patch_4">
    <path d="M 1036.8 512.64 
L 1036.8 69.12 
" style="fill: none; stroke: #000000; stroke-width: 0.8; stroke-linejoin: miter; stroke-linecap: square"/>
   </g>
   <g id="patch_5">
    <path d="M 144 512.64 
L 1036.8 512.64 
" style="fill: none; stroke: #000000; stroke-width: 0.8; stroke-linejoin: miter; stroke-linecap: square"/>
   </g>
   <g id="patch_6">
    <path d="M 144 69.12 
L 1036.8 69.12 
" style="fill: none; stroke: #000000; stroke-width: 0.8; stroke-linejoin: miter; stroke-linecap: square"/>
   </g>
  </g>
 </g>
 <defs>
  <clipPath id="p4dd1479804">
   <rect x="144" y="69.12" width="892.8" height="443.52"/>
  </clipPath>
 </defs>
</svg>
