<?xml version="1.0" encoding="utf-8" standalone="no"?>
<!DOCTYPE svg PUBLIC "-//W3C//DTD SVG 1.1//EN"
  "http://www.w3.org/Graphics/SVG/1.1/DTD/svg11.dtd">
<svg xmlns:xlink="http://www.w3.org/1999/xlink" width="720pt" height="720pt" viewBox="0 0 720 720" xmlns="http://www.w3.org/2000/svg" version="1.1">
 <metadata>
  <rdf:RDF xmlns:dc="http://purl.org/dc/elements/1.1/" xmlns:cc="http://creativecommons.org/ns#" xmlns:rdf="http://www.w3.org/1999/02/22-rdf-syntax-ns#">
   <cc:Work>
    <dc:type rdf:resource="http://purl.org/dc/dcmitype/StillImage"/>
    <dc:date>2022-10-11T09:54:05.761893</dc:date>
    <dc:format>image/svg+xml</dc:format>
    <dc:creator>
     <cc:Agent>
      <dc:title>Matplotlib v3.5.1, https://matplotlib.org/</dc:title>
     </cc:Agent>
    </dc:creator>
   </cc:Work>
  </rdf:RDF>
 </metadata>
 <defs>
  <style type="text/css">*{stroke-linejoin: round; stroke-linecap: butt}</style>
 </defs>
 <g id="figure_1">
  <g id="patch_1">
   <path d="M 0 720 
L 720 720 
L 720 0 
L 0 0 
z
" style="fill: #ffffff"/>
  </g>
  <g id="axes_1">
   <g id="patch_2">
    <path d="M 90 640.8 
L 648 640.8 
L 648 86.4 
L 90 86.4 
z
" style="fill: #ffffff"/>
   </g>
   <g id="matplotlib.axis_1">
    <g id="xtick_1">
     <g id="line2d_1">
      <defs>
       <path id="mf3aaa9ec2b" d="M 0 0 
L 0 3.5 
" style="stroke: #000000; stroke-width: 0.8"/>
      </defs>
      <g>
       <use xlink:href="#mf3aaa9ec2b" x="108.119864" y="640.8" style="stroke: #000000; stroke-width: 0.8"/>
      </g>
     </g>
     <g id="text_1">
      <!-- −4 -->
      <g transform="translate(97.480802 661.6875)scale(0.2 -0.2)">
       <defs>
        <path id="TimesNewRomanPSMT-2212" d="M 3484 2000 
L 116 2000 
L 116 2256 
L 3484 2256 
L 3484 2000 
z
" transform="scale(0.015625)"/>
        <path id="TimesNewRomanPSMT-34" d="M 2978 1563 
L 2978 1119 
L 2409 1119 
L 2409 0 
L 1894 0 
L 1894 1119 
L 100 1119 
L 100 1519 
L 2066 4325 
L 2409 4325 
L 2409 1563 
L 2978 1563 
z
M 1894 1563 
L 1894 3666 
L 406 1563 
L 1894 1563 
z
" transform="scale(0.015625)"/>
       </defs>
       <use xlink:href="#TimesNewRomanPSMT-2212"/>
       <use xlink:href="#TimesNewRomanPSMT-34" x="56.396484"/>
      </g>
     </g>
    </g>
    <g id="xtick_2">
     <g id="line2d_2">
      <g>
       <use xlink:href="#mf3aaa9ec2b" x="230.312424" y="640.8" style="stroke: #000000; stroke-width: 0.8"/>
      </g>
     </g>
     <g id="text_2">
      <!-- −3 -->
      <g transform="translate(219.673361 661.6875)scale(0.2 -0.2)">
       <defs>
        <path id="TimesNewRomanPSMT-33" d="M 325 3431 
Q 506 3859 782 4092 
Q 1059 4325 1472 4325 
Q 1981 4325 2253 3994 
Q 2459 3747 2459 3466 
Q 2459 3003 1878 2509 
Q 2269 2356 2469 2072 
Q 2669 1788 2669 1403 
Q 2669 853 2319 450 
Q 1863 -75 997 -75 
Q 569 -75 414 31 
Q 259 138 259 259 
Q 259 350 332 419 
Q 406 488 509 488 
Q 588 488 669 463 
Q 722 447 909 348 
Q 1097 250 1169 231 
Q 1284 197 1416 197 
Q 1734 197 1970 444 
Q 2206 691 2206 1028 
Q 2206 1275 2097 1509 
Q 2016 1684 1919 1775 
Q 1784 1900 1550 2001 
Q 1316 2103 1072 2103 
L 972 2103 
L 972 2197 
Q 1219 2228 1467 2375 
Q 1716 2522 1828 2728 
Q 1941 2934 1941 3181 
Q 1941 3503 1739 3701 
Q 1538 3900 1238 3900 
Q 753 3900 428 3381 
L 325 3431 
z
" transform="scale(0.015625)"/>
       </defs>
       <use xlink:href="#TimesNewRomanPSMT-2212"/>
       <use xlink:href="#TimesNewRomanPSMT-33" x="56.396484"/>
      </g>
     </g>
    </g>
    <g id="xtick_3">
     <g id="line2d_3">
      <g>
       <use xlink:href="#mf3aaa9ec2b" x="352.504983" y="640.8" style="stroke: #000000; stroke-width: 0.8"/>
      </g>
     </g>
     <g id="text_3">
      <!-- −2 -->
      <g transform="translate(341.865921 661.6875)scale(0.2 -0.2)">
       <defs>
        <path id="TimesNewRomanPSMT-32" d="M 2934 816 
L 2638 0 
L 138 0 
L 138 116 
Q 1241 1122 1691 1759 
Q 2141 2397 2141 2925 
Q 2141 3328 1894 3587 
Q 1647 3847 1303 3847 
Q 991 3847 742 3664 
Q 494 3481 375 3128 
L 259 3128 
Q 338 3706 661 4015 
Q 984 4325 1469 4325 
Q 1984 4325 2329 3994 
Q 2675 3663 2675 3213 
Q 2675 2891 2525 2569 
Q 2294 2063 1775 1497 
Q 997 647 803 472 
L 1909 472 
Q 2247 472 2383 497 
Q 2519 522 2628 598 
Q 2738 675 2819 816 
L 2934 816 
z
" transform="scale(0.015625)"/>
       </defs>
       <use xlink:href="#TimesNewRomanPSMT-2212"/>
       <use xlink:href="#TimesNewRomanPSMT-32" x="56.396484"/>
      </g>
     </g>
    </g>
    <g id="xtick_4">
     <g id="line2d_4">
      <g>
       <use xlink:href="#mf3aaa9ec2b" x="474.697543" y="640.8" style="stroke: #000000; stroke-width: 0.8"/>
      </g>
     </g>
     <g id="text_4">
      <!-- −1 -->
      <g transform="translate(464.05848 661.6875)scale(0.2 -0.2)">
       <defs>
        <path id="TimesNewRomanPSMT-31" d="M 750 3822 
L 1781 4325 
L 1884 4325 
L 1884 747 
Q 1884 391 1914 303 
Q 1944 216 2037 169 
Q 2131 122 2419 116 
L 2419 0 
L 825 0 
L 825 116 
Q 1125 122 1212 167 
Q 1300 213 1334 289 
Q 1369 366 1369 747 
L 1369 3034 
Q 1369 3497 1338 3628 
Q 1316 3728 1258 3775 
Q 1200 3822 1119 3822 
Q 1003 3822 797 3725 
L 750 3822 
z
" transform="scale(0.015625)"/>
       </defs>
       <use xlink:href="#TimesNewRomanPSMT-2212"/>
       <use xlink:href="#TimesNewRomanPSMT-31" x="56.396484"/>
      </g>
     </g>
    </g>
    <g id="xtick_5">
     <g id="line2d_5">
      <g>
       <use xlink:href="#mf3aaa9ec2b" x="596.890103" y="640.8" style="stroke: #000000; stroke-width: 0.8"/>
      </g>
     </g>
     <g id="text_5">
      <!-- 0 -->
      <g transform="translate(591.890103 661.6875)scale(0.2 -0.2)">
       <defs>
        <path id="TimesNewRomanPSMT-30" d="M 231 2094 
Q 231 2819 450 3342 
Q 669 3866 1031 4122 
Q 1313 4325 1613 4325 
Q 2100 4325 2488 3828 
Q 2972 3213 2972 2159 
Q 2972 1422 2759 906 
Q 2547 391 2217 158 
Q 1888 -75 1581 -75 
Q 975 -75 572 641 
Q 231 1244 231 2094 
z
M 844 2016 
Q 844 1141 1059 588 
Q 1238 122 1591 122 
Q 1759 122 1940 273 
Q 2122 425 2216 781 
Q 2359 1319 2359 2297 
Q 2359 3022 2209 3506 
Q 2097 3866 1919 4016 
Q 1791 4119 1609 4119 
Q 1397 4119 1231 3928 
Q 1006 3669 925 3112 
Q 844 2556 844 2016 
z
" transform="scale(0.015625)"/>
       </defs>
       <use xlink:href="#TimesNewRomanPSMT-30"/>
      </g>
     </g>
    </g>
    <g id="text_6">
     <!-- X 位置 [m] -->
     <g transform="translate(319 685.590625)scale(0.2 -0.2)">
      <defs>
       <path id="FangSong-58" d="M 1725 2300 
L 2600 425 
Q 2675 275 2762 212 
Q 2850 150 2950 150 
L 3025 150 
L 3025 0 
L 1950 0 
L 1950 150 
L 2050 150 
Q 2175 150 2212 212 
Q 2250 275 2200 375 
L 1525 1850 
L 950 650 
Q 900 525 862 437 
Q 825 350 825 325 
Q 825 225 887 187 
Q 950 150 1050 150 
L 1100 150 
L 1100 0 
L 150 0 
L 150 150 
L 250 150 
Q 375 150 475 225 
Q 575 300 625 400 
L 1425 2100 
L 575 3950 
Q 550 4025 487 4075 
Q 425 4125 325 4125 
L 225 4125 
L 225 4275 
L 1250 4275 
L 1250 4125 
L 1175 4125 
Q 1025 4125 1000 4050 
Q 975 3975 1025 3825 
L 1625 2500 
L 2225 3775 
Q 2300 3950 2275 4037 
Q 2250 4125 2100 4125 
L 1950 4125 
L 1950 4275 
L 2925 4275 
L 2925 4125 
L 2775 4125 
Q 2725 4125 2650 4075 
Q 2575 4025 2500 3925 
L 1725 2300 
z
" transform="scale(0.015625)"/>
       <path id="FangSong-20" transform="scale(0.015625)"/>
       <path id="FangSong-4f4d" d="M 1625 3325 
Q 1250 2725 500 2000 
L 450 2125 
Q 1225 2975 1737 3900 
Q 2250 4825 2200 5100 
L 2300 5125 
L 2550 4625 
Q 2450 4625 2300 4387 
Q 2150 4150 1850 3650 
L 1825 -350 
Q 1825 -725 1725 -550 
L 1475 -100 
Q 1600 0 1600 325 
L 1625 3325 
z
M 4925 2725 
Q 4775 2700 4600 1962 
Q 4425 1225 4175 375 
Q 5500 475 5675 550 
L 6000 250 
Q 5475 250 4062 150 
Q 2650 50 2450 0 
L 2150 250 
Q 2650 250 4000 350 
Q 4275 1350 4425 2112 
Q 4575 2875 4425 3125 
L 4500 3175 
L 4925 2725 
z
M 2375 3350 
Q 2900 3375 4050 3500 
Q 5200 3625 5300 3700 
L 5625 3425 
Q 5250 3400 4062 3287 
Q 2875 3175 2675 3100 
L 2375 3350 
z
M 3575 1375 
Q 3500 1125 3325 925 
Q 3200 1625 2825 2750 
L 2925 2800 
Q 3400 1750 3575 1375 
z
M 3950 3800 
Q 3825 4250 3400 5100 
L 3500 5150 
Q 3950 4575 4150 4275 
Q 4075 4050 3950 3800 
z
" transform="scale(0.015625)"/>
       <path id="FangSong-7f6e" d="M 1575 3650 
Q 1600 3350 1500 3400 
L 1275 3700 
Q 1375 3800 1375 4300 
Q 1375 4825 1300 5050 
L 1375 5100 
L 1575 4775 
L 4800 4975 
L 4950 5200 
L 5225 4950 
L 5050 4750 
L 4975 4075 
L 5150 3875 
L 3025 3725 
L 3350 3525 
Q 3275 3525 3250 3225 
L 3250 3150 
Q 4975 3300 5150 3375 
L 5450 3100 
Q 5000 3100 3250 2925 
L 3225 2425 
L 4200 2525 
L 4350 2700 
L 4625 2425 
L 4450 2275 
L 4325 0 
Q 5475 75 5650 100 
L 5950 -150 
Q 5300 -175 3137 -300 
Q 975 -425 725 -500 
L 450 -200 
Q 750 -225 1975 -150 
L 1875 2050 
Q 1850 2350 1775 2550 
L 1850 2575 
L 2075 2325 
L 3000 2400 
L 3025 2900 
Q 1600 2775 1225 2700 
L 925 2975 
Q 1400 2975 3025 3125 
L 3025 3250 
Q 3050 3600 2950 3700 
L 3000 3725 
L 1575 3650 
z
M 2150 1700 
Q 3475 1825 3775 1875 
L 4050 1675 
Q 3350 1600 2150 1475 
L 2150 1075 
Q 3600 1250 3775 1300 
L 3975 1075 
Q 3600 1050 2175 875 
L 2175 475 
Q 3600 625 3775 675 
L 3975 450 
Q 3600 425 2200 250 
L 2200 -125 
L 4100 0 
L 4225 2300 
L 2150 2100 
L 2150 1700 
z
M 2700 3950 
L 3650 4000 
L 3675 4650 
L 2725 4600 
L 2700 3950 
z
M 4750 4075 
L 4825 4750 
L 3900 4675 
L 3875 4025 
L 4750 4075 
z
M 2500 4575 
L 1600 4525 
L 1600 3875 
L 2475 3925 
L 2500 4575 
z
" transform="scale(0.015625)"/>
       <path id="FangSong-5b" d="M 2725 5100 
L 2725 4875 
L 1475 4875 
L 1475 -225 
L 2725 -225 
L 2725 -450 
L 1225 -450 
L 1225 5100 
L 2725 5100 
z
" transform="scale(0.015625)"/>
       <path id="FangSong-6d" d="M 150 2800 
Q 275 2800 400 2825 
Q 525 2850 600 2900 
L 650 2900 
L 650 2475 
Q 775 2675 925 2762 
Q 1075 2850 1250 2850 
Q 1475 2850 1600 2762 
Q 1725 2675 1750 2475 
Q 1875 2675 2037 2762 
Q 2200 2850 2375 2850 
Q 2675 2850 2787 2675 
Q 2900 2500 2900 2225 
L 2900 325 
Q 2900 225 2950 187 
Q 3000 150 3100 150 
L 3150 150 
L 3150 0 
L 2300 0 
L 2300 150 
L 2350 150 
Q 2450 150 2500 187 
Q 2550 225 2550 325 
L 2550 2200 
Q 2550 2475 2487 2562 
Q 2425 2650 2300 2650 
Q 2125 2650 1987 2525 
Q 1850 2400 1775 2175 
L 1775 325 
Q 1775 225 1825 187 
Q 1875 150 1975 150 
L 2025 150 
L 2025 0 
L 1175 0 
L 1175 150 
L 1225 150 
Q 1325 150 1375 187 
Q 1425 225 1425 325 
L 1425 2200 
Q 1425 2425 1375 2537 
Q 1325 2650 1175 2650 
Q 1000 2650 862 2525 
Q 725 2400 650 2150 
L 650 325 
Q 650 225 700 187 
Q 750 150 850 150 
L 900 150 
L 900 0 
L 50 0 
L 50 150 
L 100 150 
Q 200 150 250 187 
Q 300 225 300 325 
L 300 2500 
Q 300 2575 275 2612 
Q 250 2650 175 2650 
L 75 2650 
L 75 2800 
L 150 2800 
z
" transform="scale(0.015625)"/>
       <path id="FangSong-5d" d="M 1900 -450 
L 400 -450 
L 400 -225 
L 1650 -225 
L 1650 4875 
L 400 4875 
L 400 5100 
L 1900 5100 
L 1900 -450 
z
" transform="scale(0.015625)"/>
      </defs>
      <use xlink:href="#FangSong-58"/>
      <use xlink:href="#FangSong-20" x="50"/>
      <use xlink:href="#FangSong-4f4d" x="100"/>
      <use xlink:href="#FangSong-7f6e" x="200"/>
      <use xlink:href="#FangSong-20" x="300"/>
      <use xlink:href="#FangSong-5b" x="350"/>
      <use xlink:href="#FangSong-6d" x="400"/>
      <use xlink:href="#FangSong-5d" x="450"/>
     </g>
    </g>
   </g>
   <g id="matplotlib.axis_2">
    <g id="ytick_1">
     <g id="line2d_6">
      <defs>
       <path id="mbc2419db0a" d="M 0 0 
L -3.5 0 
" style="stroke: #000000; stroke-width: 0.8"/>
      </defs>
      <g>
       <use xlink:href="#mbc2419db0a" x="90" y="577.443191" style="stroke: #000000; stroke-width: 0.8"/>
      </g>
     </g>
     <g id="text_7">
      <!-- −1.5 -->
      <g transform="translate(46.721875 584.386941)scale(0.2 -0.2)">
       <defs>
        <path id="TimesNewRomanPSMT-2e" d="M 800 606 
Q 947 606 1047 504 
Q 1147 403 1147 259 
Q 1147 116 1045 14 
Q 944 -88 800 -88 
Q 656 -88 554 14 
Q 453 116 453 259 
Q 453 406 554 506 
Q 656 606 800 606 
z
" transform="scale(0.015625)"/>
        <path id="TimesNewRomanPSMT-35" d="M 2778 4238 
L 2534 3706 
L 1259 3706 
L 981 3138 
Q 1809 3016 2294 2522 
Q 2709 2097 2709 1522 
Q 2709 1188 2573 903 
Q 2438 619 2231 419 
Q 2025 219 1772 97 
Q 1413 -75 1034 -75 
Q 653 -75 479 54 
Q 306 184 306 341 
Q 306 428 378 495 
Q 450 563 559 563 
Q 641 563 702 538 
Q 763 513 909 409 
Q 1144 247 1384 247 
Q 1750 247 2026 523 
Q 2303 800 2303 1197 
Q 2303 1581 2056 1914 
Q 1809 2247 1375 2428 
Q 1034 2569 447 2591 
L 1259 4238 
L 2778 4238 
z
" transform="scale(0.015625)"/>
       </defs>
       <use xlink:href="#TimesNewRomanPSMT-2212"/>
       <use xlink:href="#TimesNewRomanPSMT-31" x="56.396484"/>
       <use xlink:href="#TimesNewRomanPSMT-2e" x="106.396484"/>
       <use xlink:href="#TimesNewRomanPSMT-35" x="131.396484"/>
      </g>
     </g>
    </g>
    <g id="ytick_2">
     <g id="line2d_7">
      <g>
       <use xlink:href="#mbc2419db0a" x="90" y="484.92942" style="stroke: #000000; stroke-width: 0.8"/>
      </g>
     </g>
     <g id="text_8">
      <!-- −1.0 -->
      <g transform="translate(46.721875 491.87317)scale(0.2 -0.2)">
       <use xlink:href="#TimesNewRomanPSMT-2212"/>
       <use xlink:href="#TimesNewRomanPSMT-31" x="56.396484"/>
       <use xlink:href="#TimesNewRomanPSMT-2e" x="106.396484"/>
       <use xlink:href="#TimesNewRomanPSMT-30" x="131.396484"/>
      </g>
     </g>
    </g>
    <g id="ytick_3">
     <g id="line2d_8">
      <g>
       <use xlink:href="#mbc2419db0a" x="90" y="392.415649" style="stroke: #000000; stroke-width: 0.8"/>
      </g>
     </g>
     <g id="text_9">
      <!-- −0.5 -->
      <g transform="translate(46.721875 399.359399)scale(0.2 -0.2)">
       <use xlink:href="#TimesNewRomanPSMT-2212"/>
       <use xlink:href="#TimesNewRomanPSMT-30" x="56.396484"/>
       <use xlink:href="#TimesNewRomanPSMT-2e" x="106.396484"/>
       <use xlink:href="#TimesNewRomanPSMT-35" x="131.396484"/>
      </g>
     </g>
    </g>
    <g id="ytick_4">
     <g id="line2d_9">
      <g>
       <use xlink:href="#mbc2419db0a" x="90" y="299.901879" style="stroke: #000000; stroke-width: 0.8"/>
      </g>
     </g>
     <g id="text_10">
      <!-- 0.0 -->
      <g transform="translate(58 306.845629)scale(0.2 -0.2)">
       <use xlink:href="#TimesNewRomanPSMT-30"/>
       <use xlink:href="#TimesNewRomanPSMT-2e" x="50"/>
       <use xlink:href="#TimesNewRomanPSMT-30" x="75"/>
      </g>
     </g>
    </g>
    <g id="ytick_5">
     <g id="line2d_10">
      <g>
       <use xlink:href="#mbc2419db0a" x="90" y="207.388108" style="stroke: #000000; stroke-width: 0.8"/>
      </g>
     </g>
     <g id="text_11">
      <!-- 0.5 -->
      <g transform="translate(58 214.331858)scale(0.2 -0.2)">
       <use xlink:href="#TimesNewRomanPSMT-30"/>
       <use xlink:href="#TimesNewRomanPSMT-2e" x="50"/>
       <use xlink:href="#TimesNewRomanPSMT-35" x="75"/>
      </g>
     </g>
    </g>
    <g id="ytick_6">
     <g id="line2d_11">
      <g>
       <use xlink:href="#mbc2419db0a" x="90" y="114.874337" style="stroke: #000000; stroke-width: 0.8"/>
      </g>
     </g>
     <g id="text_12">
      <!-- 1.0 -->
      <g transform="translate(58 121.818087)scale(0.2 -0.2)">
       <use xlink:href="#TimesNewRomanPSMT-31"/>
       <use xlink:href="#TimesNewRomanPSMT-2e" x="50"/>
       <use xlink:href="#TimesNewRomanPSMT-30" x="75"/>
      </g>
     </g>
    </g>
    <g id="text_13">
     <!-- Y 位置 [m] -->
     <g transform="translate(39.83125 413.6)rotate(-90)scale(0.2 -0.2)">
      <defs>
       <path id="FangSong-59" d="M 2350 3825 
Q 2375 3975 2312 4050 
Q 2250 4125 2075 4125 
L 2025 4125 
L 2025 4275 
L 3000 4275 
L 3000 4125 
L 2925 4125 
Q 2800 4125 2700 4037 
Q 2600 3950 2525 3775 
L 1750 1800 
L 1750 350 
Q 1750 250 1812 200 
Q 1875 150 1975 150 
L 2200 150 
L 2200 0 
L 900 0 
L 900 150 
L 1125 150 
Q 1250 150 1300 200 
Q 1350 250 1350 350 
L 1350 1650 
L 500 3850 
Q 450 3975 375 4050 
Q 300 4125 175 4125 
L 125 4125 
L 125 4275 
L 1225 4275 
L 1225 4125 
L 1075 4125 
Q 925 4125 900 4050 
Q 875 3975 925 3825 
L 1600 1975 
L 1650 1975 
L 2350 3825 
z
" transform="scale(0.015625)"/>
      </defs>
      <use xlink:href="#FangSong-59"/>
      <use xlink:href="#FangSong-20" x="50"/>
      <use xlink:href="#FangSong-4f4d" x="100"/>
      <use xlink:href="#FangSong-7f6e" x="200"/>
      <use xlink:href="#FangSong-20" x="300"/>
      <use xlink:href="#FangSong-5b" x="350"/>
      <use xlink:href="#FangSong-6d" x="400"/>
      <use xlink:href="#FangSong-5d" x="450"/>
     </g>
    </g>
   </g>
   <g id="line2d_12">
    <path d="M 596.890045 299.900613 
L 596.775438 299.870476 
L 597.494439 299.849908 
L 600.765342 297.695929 
L 604.44802 295.362711 
L 607.051526 293.827192 
L 619.371554 286.714965 
L 619.968589 285.942045 
L 622.633465 281.034375 
L 622.534848 280.20332 
L 622.206727 279.298434 
L 621.566359 278.282113 
L 620.50497 277.156448 
L 618.543217 275.528181 
L 617.00823 274.202008 
L 615.725736 273.011772 
L 609.137752 267.228437 
L 604.933526 263.579875 
L 600.203091 260.603126 
L 597.968407 258.751825 
L 595.578646 256.364781 
L 593.388555 254.001864 
L 591.462681 251.915175 
L 589.654323 250.326797 
L 586.654357 248.080782 
L 581.402951 244.34453 
L 579.934404 243.122396 
L 571.403992 236.73947 
L 564.771428 231.715015 
L 555.943716 226.178963 
L 553.51193 224.318043 
L 551.023473 222.131119 
L 548.937601 220.047773 
L 547.902149 218.785449 
L 547.081847 217.461868 
L 546.506605 216.009642 
L 545.967627 213.799318 
L 544.65894 207.061427 
L 543.808688 200.225355 
L 542.743319 192.142076 
L 541.049976 188.307758 
L 539.773796 186.038703 
L 539.072386 185.118363 
L 537.163932 183.294728 
L 535.785276 182.294316 
L 533.978429 181.269441 
L 531.820551 180.275828 
L 529.579348 179.342796 
L 529.298413 179.073567 
L 526.852 177.737183 
L 522.565971 175.770324 
L 510.778727 170.201862 
L 504.642139 168.226494 
L 502.176402 167.061845 
L 500.060448 165.771409 
L 496.935869 163.509075 
L 492.564639 160.070852 
L 489.788587 158.31074 
L 484.775113 155.497623 
L 482.95625 154.399586 
L 481.505914 153.376592 
L 473.22317 148.190949 
L 463.496046 142.017384 
L 460.852282 141.003449 
L 457.550918 139.681072 
L 454.785227 138.365219 
L 452.099191 136.806403 
L 447.291978 133.677618 
L 445.370959 132.177777 
L 443.044289 130.745871 
L 441.612992 129.80826 
L 439.92118 128.509618 
L 431.295303 122.248571 
L 426.568395 120.550611 
L 424.814157 119.673558 
L 420.519466 117.221434 
L 419.010547 116.847219 
L 417.239739 116.66771 
L 413.953065 116.430116 
L 412.292308 116.206957 
L 403.423544 115.249018 
L 398.146548 114.71543 
L 392.750297 115.089139 
L 390.549734 114.966218 
L 388.559697 114.615998 
L 384.292066 113.456024 
L 382.55881 113.046583 
L 380.553256 112.814878 
L 377.403476 112.768816 
L 372.970708 112.795057 
L 371.476751 112.651321 
L 359.898495 112.185207 
L 353.399411 111.93997 
L 346.728095 112.834934 
L 343.371306 112.966735 
L 340.507396 112.810736 
L 336.424004 112.361989 
L 331.398498 111.617681 
L 329.237339 111.62672 
L 325.189852 111.934924 
L 323.215821 112.08074 
L 319.491167 112.053176 
L 308.245992 112.154617 
L 304.305812 112.144131 
L 302.688591 112.485926 
L 297.882332 113.760094 
L 293.653319 114.443395 
L 287.596561 114.916067 
L 285.73371 114.939451 
L 284.171787 115.143526 
L 282.473873 115.544412 
L 279.85103 116.293865 
L 277.799967 116.713874 
L 266.374526 119.136729 
L 265.850802 119.235925 
L 264.035412 120.103656 
L 261.572995 121.338666 
L 258.61974 122.673158 
L 256.519247 123.524787 
L 252.639206 124.808957 
L 251.018727 125.395958 
L 249.293292 126.353763 
L 247.415492 127.702369 
L 243.229552 130.95349 
L 242.011406 131.755984 
L 234.098365 137.487467 
L 226.92846 142.676539 
L 220.695152 148.816927 
L 218.273078 150.868621 
L 214.347944 153.788201 
L 210.476172 156.496413 
L 208.736945 158.107564 
L 206.230434 160.822016 
L 202.766512 164.638292 
L 201.542753 165.810944 
L 194.305246 173.286043 
L 186.502265 181.326152 
L 179.926821 190.54946 
L 176.692468 194.400523 
L 174.185037 197.257907 
L 172.343821 199.290102 
L 170.93227 201.193321 
L 169.090028 204.214824 
L 167.059392 207.545801 
L 165.740404 209.586639 
L 160.671002 217.466304 
L 154.747682 226.768107 
L 149.126564 238.997698 
L 146.173281 244.49334 
L 145.036177 246.84173 
L 143.993984 249.590825 
L 140.223788 260.590617 
L 134.459078 276.673779 
L 132.843619 281.424826 
L 129.986644 293.718796 
L 128.206852 300.013635 
L 126.094926 307.388237 
L 125.475133 310.789679 
L 124.788362 316.043056 
L 124.034894 321.794879 
L 123.614986 324.202 
L 120.441194 345.377536 
L 119.111611 354.486904 
L 118.351628 368.55756 
L 117.659424 374.943841 
L 116.148591 388.51646 
L 116.081138 393.211901 
L 116.083054 399.783167 
L 115.998126 403.177191 
L 115.673949 417.481862 
L 115.430716 430.472283 
L 116.97678 448.573854 
L 117.694017 456.262608 
L 118.196906 459.135331 
L 118.977947 462.115232 
L 123.337396 476.795919 
L 128.574942 495.143676 
L 129.231564 497.112354 
L 133.678335 507.423692 
L 135.445967 512.39648 
L 136.990058 517.142651 
L 138.119352 520.721109 
L 139.246073 523.438883 
L 141.132906 527.217661 
L 143.217085 531.37715 
L 144.485234 534.114292 
L 149.887728 545.591767 
L 155.279703 556.908087 
L 157.164407 559.472043 
L 158.991745 561.975505 
L 166.219245 572.763522 
L 168.248699 575.498363 
L 169.4394 576.776816 
L 171.479441 578.57257 
L 177.536661 583.434636 
L 186.179106 590.599846 
L 193.965475 597.190873 
L 195.54284 598.093893 
L 200.403997 600.550169 
L 205.700901 603.838201 
L 209.063013 605.957354 
L 212.836574 608.164488 
L 214.212561 608.733046 
L 216.492238 609.384015 
L 219.899188 610.009461 
L 221.994789 610.40148 
L 226.715107 611.593004 
L 239.167629 614.677378 
L 242.424604 615.512829 
L 244.130547 615.542754 
L 249.289919 615.285825 
L 260.839825 615.557496 
L 262.841458 615.527692 
L 264.232096 615.338486 
L 266.416186 614.737358 
L 269.54816 613.494111 
L 271.486293 612.745505 
L 275.112763 611.563354 
L 284.374697 608.489528 
L 291.249194 606.255514 
L 292.755567 605.347588 
L 297.213627 602.218991 
L 302.917704 598.553417 
L 305.82562 596.209247 
L 307.445171 594.711054 
L 308.516896 593.460338 
L 310.077069 591.198071 
L 315.871371 581.909703 
L 325.59716 566.71546 
L 326.091526 565.962341 
L 326.98426 564.04839 
L 329.574984 558.035247 
L 333.20475 550.882989 
L 335.434489 546.484295 
L 337.320853 542.483269 
L 338.381989 539.692378 
L 339.389423 536.419819 
L 343.607596 521.561826 
L 350.403165 498.613201 
L 351.176361 493.28358 
L 351.995359 488.437848 
L 353.272545 481.979325 
L 354.061193 478.016926 
L 354.650711 473.755795 
L 355.186523 469.119689 
L 355.306574 466.033388 
L 355.196036 462.73771 
L 354.603581 452.16176 
L 353.96929 437.467857 
L 353.418412 426.28273 
L 352.474721 421.600023 
L 351.549206 416.418609 
L 349.844473 407.573238 
L 348.741259 402.878016 
L 347.861732 400.284509 
L 346.697122 397.688362 
L 344.46746 393.021048 
L 343.380979 390.568911 
L 337.965057 378.672673 
L 334.074904 370.306088 
L 331.795738 367.166421 
L 330.255179 364.880479 
L 322.150801 351.963014 
L 320.468621 349.955182 
L 318.456526 347.976251 
L 313.169569 343.078027 
L 297.527048 327.814556 
L 296.857167 327.139644 
L 295.293934 326.079929 
L 290.463363 323.206875 
L 278.353367 314.83525 
L 276.329762 313.76442 
L 274.08713 312.953372 
L 270.751364 312.124629 
L 268.69525 311.598962 
L 263.255987 309.906899 
L 252.710656 306.58696 
L 248.715669 305.309947 
L 247.035637 305.205254 
L 241.945048 305.301136 
L 234.936977 305.018679 
L 232.696051 305.255689 
L 228.948869 305.836813 
L 227.607727 306.285395 
L 226.229978 306.940638 
L 224.064319 308.256862 
L 220.737964 310.434692 
L 217.291052 312.389626 
L 205.552183 319.295139 
L 201.935056 321.37748 
L 200.545722 322.61041 
L 196.475547 326.669505 
L 187.812227 334.476087 
L 186.290158 336.137494 
L 184.856271 338.176801 
L 183.474893 340.603447 
L 181.000526 345.145372 
L 179.674071 347.40728 
L 173.693923 357.784454 
L 169.120634 365.641736 
L 168.35906 367.557839 
L 166.22444 373.634966 
L 162.586253 383.010626 
L 160.5484 389.046793 
L 159.871234 392.155473 
L 159.337729 395.685608 
L 158.446251 402.24307 
L 157.886139 405.629744 
L 155.084421 423.512786 
L 153.678453 432.943193 
L 153.645107 438.164924 
L 153.539794 441.836386 
L 152.557273 461.066975 
L 152.583329 464.349654 
L 152.840905 467.911943 
L 153.519048 473.220658 
L 154.537723 480.619736 
L 154.788305 483.200228 
L 156.720436 499.969247 
L 158.503584 515.139705 
L 159.6088 519.05151 
L 160.988128 523.999979 
L 162.527345 530.664255 
L 163.374406 534.393955 
L 164.314028 537.084616 
L 165.675101 540.366839 
L 166.770745 542.286848 
L 168.150004 544.195944 
L 170.281737 546.670463 
L 171.02694 547.675609 
L 172.791217 550.026265 
L 179.068916 558.012148 
L 184.386558 564.648054 
L 186.979291 566.613518 
L 188.754265 568.073913 
L 196.555424 575.014311 
L 198.246628 576.430736 
L 200.177405 577.616912 
L 202.358065 578.62961 
L 205.015715 579.763641 
L 209.119772 581.831314 
L 224.8686 589.768176 
L 225.5485 590.125508 
L 227.108311 590.398942 
L 231.941266 590.736372 
L 238.354581 591.921082 
L 242.238024 592.194933 
L 243.653827 592.123477 
L 245.144782 591.850132 
L 246.724141 591.373454 
L 249.256492 590.345743 
L 252.228142 589.092108 
L 257.016048 587.419009 
L 272.116468 581.950568 
L 273.746756 581.382365 
L 275.345391 580.366768 
L 280.087789 576.904826 
L 284.595573 574.303854 
L 288.089883 572.380996 
L 292.618672 569.428636 
L 294.622378 567.897886 
L 296.695895 565.932134 
L 298.883561 563.534868 
L 302.881737 559.036215 
L 304.305554 557.598121 
L 311.902552 549.61808 
L 321.005728 540.214219 
L 322.317395 538.298952 
L 326.533758 531.334723 
L 331.48607 523.592318 
L 333.403026 519.311635 
L 334.317286 516.833611 
L 335.092088 513.923696 
L 335.662888 510.67618 
L 336.426237 505.598077 
L 337.345732 500.55491 
L 341.048695 479.026504 
L 341.236523 478.002384 
L 341.368945 475.688947 
L 341.548632 468.58208 
L 341.959589 462.360883 
L 341.959589 462.360883 
" clip-path="url(#p1525b64193)" style="fill: none; stroke: #ff0000; stroke-width: 2; stroke-linecap: square"/>
   </g>
   <g id="patch_3">
    <path d="M 90 640.8 
L 90 86.4 
" style="fill: none; stroke: #000000; stroke-width: 0.8; stroke-linejoin: miter; stroke-linecap: square"/>
   </g>
   <g id="patch_4">
    <path d="M 648 640.8 
L 648 86.4 
" style="fill: none; stroke: #000000; stroke-width: 0.8; stroke-linejoin: miter; stroke-linecap: square"/>
   </g>
   <g id="patch_5">
    <path d="M 90 640.8 
L 648 640.8 
" style="fill: none; stroke: #000000; stroke-width: 0.8; stroke-linejoin: miter; stroke-linecap: square"/>
   </g>
   <g id="patch_6">
    <path d="M 90 86.4 
L 648 86.4 
" style="fill: none; stroke: #000000; stroke-width: 0.8; stroke-linejoin: miter; stroke-linecap: square"/>
   </g>
   <g id="text_14">
    <!-- 躯干水平位置 -->
    <g transform="translate(297 80.4)scale(0.24 -0.24)">
     <defs>
      <path id="FangSong-8eaf" d="M 1775 275 
L 2525 -100 
Q 2600 25 2575 425 
L 2600 1825 
Q 1525 500 500 -100 
L 450 0 
Q 1275 550 2250 1800 
Q 1075 1525 925 1450 
L 650 1725 
Q 950 1750 1350 1825 
L 1350 3575 
Q 1325 3975 1275 4275 
L 1350 4300 
L 1550 3975 
L 1800 4000 
Q 1925 4400 1987 4687 
Q 2050 4975 1975 5175 
L 2050 5225 
L 2375 4825 
Q 2325 4825 2212 4625 
Q 2100 4425 1950 4025 
L 2600 4125 
L 2750 4375 
L 3050 4125 
L 2850 3875 
L 2825 550 
Q 2875 -200 2625 -625 
Q 2300 -200 1725 175 
L 1775 275 
z
M 5700 4225 
Q 5500 4275 3650 4000 
L 3625 75 
Q 5475 200 5650 300 
L 5925 25 
Q 5775 50 3625 -150 
L 3450 -300 
L 3225 25 
L 3400 100 
L 3425 3850 
Q 3425 4275 3325 4675 
L 3425 4700 
L 3625 4225 
Q 5375 4425 5375 4500 
L 5700 4225 
z
M 1575 3225 
Q 2175 3300 2300 3375 
L 2500 3150 
Q 2200 3125 1575 3025 
L 1575 2600 
Q 2175 2675 2325 2725 
L 2525 2500 
Q 2350 2475 1575 2375 
L 1575 1875 
L 2600 2050 
L 2625 3900 
L 1575 3750 
L 1575 3225 
z
M 4825 2200 
Q 5200 1475 5450 1125 
Q 5375 850 5275 650 
Q 5150 1000 4700 2000 
Q 4350 1275 3750 550 
L 3675 625 
Q 4200 1400 4550 2225 
L 3925 3575 
L 4000 3625 
L 4675 2450 
Q 4850 2800 5012 3250 
Q 5175 3700 5075 3875 
L 5125 3900 
L 5425 3450 
Q 5350 3450 5187 3087 
Q 5025 2725 4825 2200 
z
" transform="scale(0.015625)"/>
      <path id="FangSong-5e72" d="M 2875 -175 
Q 3050 -50 3025 450 
L 3050 2575 
Q 1125 2400 950 2375 
L 625 2650 
Q 1025 2625 3050 2800 
L 3075 4425 
Q 1800 4300 1650 4275 
L 1350 4550 
Q 1825 4550 3150 4675 
Q 4475 4800 4725 4875 
L 5025 4600 
Q 4575 4600 3300 4450 
L 3275 2825 
Q 5550 3050 5600 3100 
L 5925 2800 
Q 5425 2800 3275 2600 
L 3250 -225 
Q 3275 -625 3175 -675 
L 2875 -175 
z
" transform="scale(0.015625)"/>
      <path id="FangSong-6c34" d="M 4900 325 
Q 4975 400 4562 1112 
Q 4150 1825 3350 3225 
L 3350 100 
Q 3350 -425 3150 -675 
Q 2875 -275 2175 325 
L 2225 400 
L 3075 -125 
Q 3150 150 3125 450 
L 3125 4375 
Q 3150 4925 3000 5175 
L 3075 5225 
L 3475 4850 
Q 3325 4800 3350 4375 
L 3350 3600 
Q 3700 2950 3925 2600 
Q 4475 3075 4725 3362 
Q 4975 3650 4950 3825 
L 5025 3825 
L 5175 3300 
Q 5125 3350 4825 3100 
Q 4500 2825 4025 2425 
Q 4675 1325 4837 1087 
Q 5000 850 5137 712 
Q 5275 575 5975 525 
L 5975 400 
L 4900 325 
z
M 2700 3325 
L 3025 3050 
L 2800 2825 
Q 1975 900 475 -150 
L 400 -75 
Q 1850 1200 2525 2825 
Q 1375 2650 1250 2600 
L 900 2850 
Q 1325 2850 2575 3100 
L 2700 3325 
z
" transform="scale(0.015625)"/>
      <path id="FangSong-5e73" d="M 3125 4450 
Q 1775 4325 1625 4275 
L 1350 4575 
Q 1825 4550 3375 4687 
Q 4925 4825 4950 4875 
L 5250 4575 
Q 4650 4575 3350 4450 
L 3325 2375 
Q 5600 2550 5625 2600 
L 5975 2300 
Q 5550 2350 3325 2150 
L 3300 -100 
Q 3325 -675 3225 -625 
L 2950 -125 
Q 3100 -100 3075 400 
L 3100 2125 
Q 850 1975 800 1900 
L 425 2200 
Q 825 2175 3100 2350 
L 3125 4450 
z
M 4900 3900 
Q 4850 3950 4587 3525 
Q 4325 3100 3975 2575 
L 3875 2625 
Q 4200 3225 4412 3687 
Q 4625 4150 4500 4300 
L 4575 4350 
L 4900 3900 
z
M 2475 3000 
Q 2425 2875 2275 2625 
Q 1975 3275 1650 3850 
L 1700 3900 
Q 2100 3475 2475 3000 
z
" transform="scale(0.015625)"/>
     </defs>
     <use xlink:href="#FangSong-8eaf"/>
     <use xlink:href="#FangSong-5e72" x="100"/>
     <use xlink:href="#FangSong-6c34" x="200"/>
     <use xlink:href="#FangSong-5e73" x="300"/>
     <use xlink:href="#FangSong-4f4d" x="400"/>
     <use xlink:href="#FangSong-7f6e" x="500"/>
    </g>
   </g>
   <g id="legend_1">
    <g id="patch_7">
     <path d="M 510 130.915625 
L 634 130.915625 
Q 638 130.915625 638 126.915625 
L 638 100.4 
Q 638 96.4 634 96.4 
L 510 96.4 
Q 506 96.4 506 100.4 
L 506 126.915625 
Q 506 130.915625 510 130.915625 
z
" style="fill: #ffffff; opacity: 0.8; stroke: #cccccc; stroke-linejoin: miter"/>
    </g>
    <g id="line2d_13">
     <path d="M 514 113.025 
L 534 113.025 
L 554 113.025 
" style="fill: none; stroke: #ff0000; stroke-width: 2; stroke-linecap: square"/>
    </g>
    <g id="text_15">
     <!-- XY位置 -->
     <g transform="translate(570 120.025)scale(0.2 -0.2)">
      <use xlink:href="#FangSong-58"/>
      <use xlink:href="#FangSong-59" x="50"/>
      <use xlink:href="#FangSong-4f4d" x="100"/>
      <use xlink:href="#FangSong-7f6e" x="200"/>
     </g>
    </g>
   </g>
  </g>
 </g>
 <defs>
  <clipPath id="p1525b64193">
   <rect x="90" y="86.4" width="558" height="554.4"/>
  </clipPath>
 </defs>
</svg>
