<?xml version="1.0" encoding="utf-8" standalone="no"?>
<!DOCTYPE svg PUBLIC "-//W3C//DTD SVG 1.1//EN"
  "http://www.w3.org/Graphics/SVG/1.1/DTD/svg11.dtd">
<svg xmlns:xlink="http://www.w3.org/1999/xlink" width="1152pt" height="576pt" viewBox="0 0 1152 576" xmlns="http://www.w3.org/2000/svg" version="1.1">
 <metadata>
  <rdf:RDF xmlns:dc="http://purl.org/dc/elements/1.1/" xmlns:cc="http://creativecommons.org/ns#" xmlns:rdf="http://www.w3.org/1999/02/22-rdf-syntax-ns#">
   <cc:Work>
    <dc:type rdf:resource="http://purl.org/dc/dcmitype/StillImage"/>
    <dc:date>2022-10-11T09:54:05.830908</dc:date>
    <dc:format>image/svg+xml</dc:format>
    <dc:creator>
     <cc:Agent>
      <dc:title>Matplotlib v3.5.1, https://matplotlib.org/</dc:title>
     </cc:Agent>
    </dc:creator>
   </cc:Work>
  </rdf:RDF>
 </metadata>
 <defs>
  <style type="text/css">*{stroke-linejoin: round; stroke-linecap: butt}</style>
 </defs>
 <g id="figure_1">
  <g id="patch_1">
   <path d="M 0 576 
L 1152 576 
L 1152 0 
L 0 0 
z
" style="fill: #ffffff"/>
  </g>
  <g id="axes_1">
   <g id="patch_2">
    <path d="M 144 512.64 
L 1036.8 512.64 
L 1036.8 69.12 
L 144 69.12 
z
" style="fill: #ffffff"/>
   </g>
   <g id="matplotlib.axis_1">
    <g id="xtick_1">
     <g id="line2d_1">
      <defs>
       <path id="m983ad69bba" d="M 0 0 
L 0 3.5 
" style="stroke: #000000; stroke-width: 0.8"/>
      </defs>
      <g>
       <use xlink:href="#m983ad69bba" x="184.257034" y="512.64" style="stroke: #000000; stroke-width: 0.8"/>
      </g>
     </g>
     <g id="text_1">
      <!-- 0 -->
      <g transform="translate(179.257034 533.5275)scale(0.2 -0.2)">
       <defs>
        <path id="TimesNewRomanPSMT-30" d="M 231 2094 
Q 231 2819 450 3342 
Q 669 3866 1031 4122 
Q 1313 4325 1613 4325 
Q 2100 4325 2488 3828 
Q 2972 3213 2972 2159 
Q 2972 1422 2759 906 
Q 2547 391 2217 158 
Q 1888 -75 1581 -75 
Q 975 -75 572 641 
Q 231 1244 231 2094 
z
M 844 2016 
Q 844 1141 1059 588 
Q 1238 122 1591 122 
Q 1759 122 1940 273 
Q 2122 425 2216 781 
Q 2359 1319 2359 2297 
Q 2359 3022 2209 3506 
Q 2097 3866 1919 4016 
Q 1791 4119 1609 4119 
Q 1397 4119 1231 3928 
Q 1006 3669 925 3112 
Q 844 2556 844 2016 
z
" transform="scale(0.015625)"/>
       </defs>
       <use xlink:href="#TimesNewRomanPSMT-30"/>
      </g>
     </g>
    </g>
    <g id="xtick_2">
     <g id="line2d_2">
      <g>
       <use xlink:href="#m983ad69bba" x="346.649263" y="512.64" style="stroke: #000000; stroke-width: 0.8"/>
      </g>
     </g>
     <g id="text_2">
      <!-- 5 -->
      <g transform="translate(341.649263 533.5275)scale(0.2 -0.2)">
       <defs>
        <path id="TimesNewRomanPSMT-35" d="M 2778 4238 
L 2534 3706 
L 1259 3706 
L 981 3138 
Q 1809 3016 2294 2522 
Q 2709 2097 2709 1522 
Q 2709 1188 2573 903 
Q 2438 619 2231 419 
Q 2025 219 1772 97 
Q 1413 -75 1034 -75 
Q 653 -75 479 54 
Q 306 184 306 341 
Q 306 428 378 495 
Q 450 563 559 563 
Q 641 563 702 538 
Q 763 513 909 409 
Q 1144 247 1384 247 
Q 1750 247 2026 523 
Q 2303 800 2303 1197 
Q 2303 1581 2056 1914 
Q 1809 2247 1375 2428 
Q 1034 2569 447 2591 
L 1259 4238 
L 2778 4238 
z
" transform="scale(0.015625)"/>
       </defs>
       <use xlink:href="#TimesNewRomanPSMT-35"/>
      </g>
     </g>
    </g>
    <g id="xtick_3">
     <g id="line2d_3">
      <g>
       <use xlink:href="#m983ad69bba" x="509.041493" y="512.64" style="stroke: #000000; stroke-width: 0.8"/>
      </g>
     </g>
     <g id="text_3">
      <!-- 10 -->
      <g transform="translate(499.041493 533.5275)scale(0.2 -0.2)">
       <defs>
        <path id="TimesNewRomanPSMT-31" d="M 750 3822 
L 1781 4325 
L 1884 4325 
L 1884 747 
Q 1884 391 1914 303 
Q 1944 216 2037 169 
Q 2131 122 2419 116 
L 2419 0 
L 825 0 
L 825 116 
Q 1125 122 1212 167 
Q 1300 213 1334 289 
Q 1369 366 1369 747 
L 1369 3034 
Q 1369 3497 1338 3628 
Q 1316 3728 1258 3775 
Q 1200 3822 1119 3822 
Q 1003 3822 797 3725 
L 750 3822 
z
" transform="scale(0.015625)"/>
       </defs>
       <use xlink:href="#TimesNewRomanPSMT-31"/>
       <use xlink:href="#TimesNewRomanPSMT-30" x="50"/>
      </g>
     </g>
    </g>
    <g id="xtick_4">
     <g id="line2d_4">
      <g>
       <use xlink:href="#m983ad69bba" x="671.433723" y="512.64" style="stroke: #000000; stroke-width: 0.8"/>
      </g>
     </g>
     <g id="text_4">
      <!-- 15 -->
      <g transform="translate(661.433723 533.5275)scale(0.2 -0.2)">
       <use xlink:href="#TimesNewRomanPSMT-31"/>
       <use xlink:href="#TimesNewRomanPSMT-35" x="50"/>
      </g>
     </g>
    </g>
    <g id="xtick_5">
     <g id="line2d_5">
      <g>
       <use xlink:href="#m983ad69bba" x="833.825952" y="512.64" style="stroke: #000000; stroke-width: 0.8"/>
      </g>
     </g>
     <g id="text_5">
      <!-- 20 -->
      <g transform="translate(823.825952 533.5275)scale(0.2 -0.2)">
       <defs>
        <path id="TimesNewRomanPSMT-32" d="M 2934 816 
L 2638 0 
L 138 0 
L 138 116 
Q 1241 1122 1691 1759 
Q 2141 2397 2141 2925 
Q 2141 3328 1894 3587 
Q 1647 3847 1303 3847 
Q 991 3847 742 3664 
Q 494 3481 375 3128 
L 259 3128 
Q 338 3706 661 4015 
Q 984 4325 1469 4325 
Q 1984 4325 2329 3994 
Q 2675 3663 2675 3213 
Q 2675 2891 2525 2569 
Q 2294 2063 1775 1497 
Q 997 647 803 472 
L 1909 472 
Q 2247 472 2383 497 
Q 2519 522 2628 598 
Q 2738 675 2819 816 
L 2934 816 
z
" transform="scale(0.015625)"/>
       </defs>
       <use xlink:href="#TimesNewRomanPSMT-32"/>
       <use xlink:href="#TimesNewRomanPSMT-30" x="50"/>
      </g>
     </g>
    </g>
    <g id="xtick_6">
     <g id="line2d_6">
      <g>
       <use xlink:href="#m983ad69bba" x="996.218182" y="512.64" style="stroke: #000000; stroke-width: 0.8"/>
      </g>
     </g>
     <g id="text_6">
      <!-- 25 -->
      <g transform="translate(986.218182 533.5275)scale(0.2 -0.2)">
       <use xlink:href="#TimesNewRomanPSMT-32"/>
       <use xlink:href="#TimesNewRomanPSMT-35" x="50"/>
      </g>
     </g>
    </g>
    <g id="text_7">
     <!-- 时间 [s] -->
     <g transform="translate(550.4 557.430625)scale(0.2 -0.2)">
      <defs>
       <path id="FangSong-65f6" d="M 1200 725 
Q 1225 -50 1100 125 
L 875 550 
Q 1000 725 975 1125 
L 975 3350 
Q 975 3850 900 4375 
L 975 4400 
L 1150 3925 
L 2275 4100 
L 2400 4325 
L 2700 4100 
L 2525 3875 
Q 2525 1425 2462 837 
Q 2400 250 2325 337 
Q 2250 425 2200 850 
L 1200 725 
z
M 1200 975 
Q 1925 1050 1975 1100 
L 2225 850 
Q 2275 1625 2275 2175 
L 2275 3825 
L 1200 3675 
L 1200 2525 
Q 1875 2600 2025 2700 
L 2250 2400 
Q 1900 2375 1200 2275 
L 1200 975 
z
M 4325 5250 
L 4775 4875 
Q 4625 4775 4650 4300 
L 4650 3100 
Q 5650 3225 5650 3325 
L 6000 3025 
Q 5625 3000 4650 2875 
L 4650 425 
Q 4675 -350 4475 -675 
Q 4225 -325 3400 275 
L 3450 375 
L 4375 -150 
Q 4425 150 4425 425 
L 4425 2850 
Q 3100 2675 2900 2600 
L 2550 2900 
Q 3000 2900 4425 3075 
L 4425 4400 
Q 4450 4925 4250 5175 
L 4325 5250 
z
M 3525 1275 
Q 3325 1850 3050 2450 
L 3125 2500 
Q 3425 2100 3725 1675 
Q 3650 1500 3525 1275 
z
" transform="scale(0.015625)"/>
       <path id="FangSong-95f4" d="M 4150 1450 
L 2525 1300 
Q 2550 800 2450 900 
L 2225 1275 
Q 2300 1400 2300 1650 
L 2300 2875 
Q 2325 3225 2200 3525 
L 2275 3575 
L 2500 3225 
L 3750 3400 
L 3900 3600 
L 4200 3325 
L 4025 3150 
L 3975 1650 
L 4150 1450 
z
M 5000 4925 
L 5325 4675 
L 5175 4475 
L 5175 450 
Q 5175 -325 4975 -650 
Q 4700 -225 3975 500 
L 4050 575 
L 4875 -75 
Q 4925 -75 4950 425 
L 4950 4475 
Q 3075 4275 2925 4250 
L 2550 4475 
Q 2925 4450 4875 4700 
L 5000 4925 
z
M 3775 3150 
L 2525 3000 
L 2525 2375 
Q 3225 2475 3300 2550 
L 3550 2300 
Q 3300 2300 2525 2175 
L 2525 1525 
L 3725 1650 
L 3775 3150 
z
M 1400 -225 
Q 1425 -675 1325 -550 
L 1075 -175 
Q 1175 -25 1175 350 
L 1175 3475 
Q 1175 3900 1025 4225 
L 1100 4275 
L 1475 3875 
Q 1400 3725 1400 3375 
L 1400 -225 
z
M 1425 5175 
Q 1950 4725 2200 4525 
Q 2125 4275 2050 4075 
Q 1875 4425 1350 5100 
L 1425 5175 
z
" transform="scale(0.015625)"/>
       <path id="FangSong-20" transform="scale(0.015625)"/>
       <path id="FangSong-5b" d="M 2725 5100 
L 2725 4875 
L 1475 4875 
L 1475 -225 
L 2725 -225 
L 2725 -450 
L 1225 -450 
L 1225 5100 
L 2725 5100 
z
" transform="scale(0.015625)"/>
       <path id="FangSong-73" d="M 600 2075 
Q 600 2450 887 2650 
Q 1175 2850 1575 2850 
Q 1800 2850 2000 2787 
Q 2200 2725 2275 2725 
Q 2350 2725 2400 2750 
Q 2450 2775 2525 2850 
L 2625 2025 
L 2475 2000 
Q 2375 2325 2137 2512 
Q 1900 2700 1600 2700 
Q 1275 2700 1087 2575 
Q 900 2450 900 2225 
Q 900 2025 987 1912 
Q 1075 1800 1300 1750 
Q 1475 1675 1737 1587 
Q 2000 1500 2225 1400 
Q 2425 1300 2562 1137 
Q 2700 975 2700 775 
Q 2700 400 2437 187 
Q 2175 -25 1675 -25 
Q 1350 -25 1187 37 
Q 1025 100 925 100 
Q 850 100 762 62 
Q 675 25 575 -25 
L 500 900 
L 650 925 
Q 725 525 975 325 
Q 1225 125 1675 125 
Q 2025 125 2212 250 
Q 2400 375 2400 625 
Q 2400 800 2300 912 
Q 2200 1025 2100 1075 
Q 1850 1175 1550 1287 
Q 1250 1400 1025 1500 
Q 800 1600 700 1750 
Q 600 1900 600 2075 
z
" transform="scale(0.015625)"/>
       <path id="FangSong-5d" d="M 1900 -450 
L 400 -450 
L 400 -225 
L 1650 -225 
L 1650 4875 
L 400 4875 
L 400 5100 
L 1900 5100 
L 1900 -450 
z
" transform="scale(0.015625)"/>
      </defs>
      <use xlink:href="#FangSong-65f6"/>
      <use xlink:href="#FangSong-95f4" x="100"/>
      <use xlink:href="#FangSong-20" x="200"/>
      <use xlink:href="#FangSong-5b" x="250"/>
      <use xlink:href="#FangSong-73" x="300"/>
      <use xlink:href="#FangSong-5d" x="350"/>
     </g>
    </g>
   </g>
   <g id="matplotlib.axis_2">
    <g id="ytick_1">
     <g id="line2d_7">
      <defs>
       <path id="mdfa2da7062" d="M 0 0 
L -3.5 0 
" style="stroke: #000000; stroke-width: 0.8"/>
      </defs>
      <g>
       <use xlink:href="#mdfa2da7062" x="144" y="458.850527" style="stroke: #000000; stroke-width: 0.8"/>
      </g>
     </g>
     <g id="text_8">
      <!-- −150 -->
      <g transform="translate(95.721875 465.794277)scale(0.2 -0.2)">
       <defs>
        <path id="TimesNewRomanPSMT-2212" d="M 3484 2000 
L 116 2000 
L 116 2256 
L 3484 2256 
L 3484 2000 
z
" transform="scale(0.015625)"/>
       </defs>
       <use xlink:href="#TimesNewRomanPSMT-2212"/>
       <use xlink:href="#TimesNewRomanPSMT-31" x="56.396484"/>
       <use xlink:href="#TimesNewRomanPSMT-35" x="106.396484"/>
       <use xlink:href="#TimesNewRomanPSMT-30" x="156.396484"/>
      </g>
     </g>
    </g>
    <g id="ytick_2">
     <g id="line2d_8">
      <g>
       <use xlink:href="#mdfa2da7062" x="144" y="402.800222" style="stroke: #000000; stroke-width: 0.8"/>
      </g>
     </g>
     <g id="text_9">
      <!-- −100 -->
      <g transform="translate(95.721875 409.743972)scale(0.2 -0.2)">
       <use xlink:href="#TimesNewRomanPSMT-2212"/>
       <use xlink:href="#TimesNewRomanPSMT-31" x="56.396484"/>
       <use xlink:href="#TimesNewRomanPSMT-30" x="106.396484"/>
       <use xlink:href="#TimesNewRomanPSMT-30" x="156.396484"/>
      </g>
     </g>
    </g>
    <g id="ytick_3">
     <g id="line2d_9">
      <g>
       <use xlink:href="#mdfa2da7062" x="144" y="346.749917" style="stroke: #000000; stroke-width: 0.8"/>
      </g>
     </g>
     <g id="text_10">
      <!-- −50 -->
      <g transform="translate(105.721875 353.693667)scale(0.2 -0.2)">
       <use xlink:href="#TimesNewRomanPSMT-2212"/>
       <use xlink:href="#TimesNewRomanPSMT-35" x="56.396484"/>
       <use xlink:href="#TimesNewRomanPSMT-30" x="106.396484"/>
      </g>
     </g>
    </g>
    <g id="ytick_4">
     <g id="line2d_10">
      <g>
       <use xlink:href="#mdfa2da7062" x="144" y="290.699613" style="stroke: #000000; stroke-width: 0.8"/>
      </g>
     </g>
     <g id="text_11">
      <!-- 0 -->
      <g transform="translate(127 297.643363)scale(0.2 -0.2)">
       <use xlink:href="#TimesNewRomanPSMT-30"/>
      </g>
     </g>
    </g>
    <g id="ytick_5">
     <g id="line2d_11">
      <g>
       <use xlink:href="#mdfa2da7062" x="144" y="234.649308" style="stroke: #000000; stroke-width: 0.8"/>
      </g>
     </g>
     <g id="text_12">
      <!-- 50 -->
      <g transform="translate(117 241.593058)scale(0.2 -0.2)">
       <use xlink:href="#TimesNewRomanPSMT-35"/>
       <use xlink:href="#TimesNewRomanPSMT-30" x="50"/>
      </g>
     </g>
    </g>
    <g id="ytick_6">
     <g id="line2d_12">
      <g>
       <use xlink:href="#mdfa2da7062" x="144" y="178.599003" style="stroke: #000000; stroke-width: 0.8"/>
      </g>
     </g>
     <g id="text_13">
      <!-- 100 -->
      <g transform="translate(107 185.542753)scale(0.2 -0.2)">
       <use xlink:href="#TimesNewRomanPSMT-31"/>
       <use xlink:href="#TimesNewRomanPSMT-30" x="50"/>
       <use xlink:href="#TimesNewRomanPSMT-30" x="100"/>
      </g>
     </g>
    </g>
    <g id="ytick_7">
     <g id="line2d_13">
      <g>
       <use xlink:href="#mdfa2da7062" x="144" y="122.548698" style="stroke: #000000; stroke-width: 0.8"/>
      </g>
     </g>
     <g id="text_14">
      <!-- 150 -->
      <g transform="translate(107 129.492448)scale(0.2 -0.2)">
       <use xlink:href="#TimesNewRomanPSMT-31"/>
       <use xlink:href="#TimesNewRomanPSMT-35" x="50"/>
       <use xlink:href="#TimesNewRomanPSMT-30" x="100"/>
      </g>
     </g>
    </g>
    <g id="text_15">
     <!-- 姿态 [°] -->
     <g transform="translate(88.83125 335.88)rotate(-90)scale(0.2 -0.2)">
      <defs>
       <path id="FangSong-59ff" d="M 4050 3825 
Q 3950 3800 3900 3600 
Q 4425 2825 4562 2675 
Q 4700 2525 4850 2400 
Q 5000 2275 5700 2300 
L 5700 2175 
L 4625 2050 
Q 4650 2150 4475 2425 
Q 4300 2700 3825 3425 
Q 3475 2725 2725 2250 
L 2775 2275 
L 3025 1925 
Q 2950 1925 2912 1862 
Q 2875 1800 2750 1600 
Q 5525 1750 5650 1800 
L 5900 1525 
Q 5450 1525 4150 1450 
Q 3850 800 3475 375 
Q 4400 25 5000 -150 
Q 5075 -425 5050 -575 
Q 4625 -325 3275 225 
Q 2300 -400 900 -600 
L 875 -500 
Q 2400 -125 3000 325 
Q 2725 400 1900 675 
Q 2175 1025 2350 1375 
Q 875 1250 800 1225 
L 475 1525 
Q 1050 1500 2475 1600 
Q 2650 1900 2700 2050 
Q 2750 2200 2700 2250 
Q 2375 2050 2000 1900 
L 1950 2025 
Q 3525 2725 3750 4000 
L 3150 3900 
Q 2875 3475 2400 2975 
L 2325 3050 
Q 2900 3825 3175 4450 
Q 3450 5075 3350 5200 
L 3400 5275 
L 3725 4900 
Q 3675 4925 3600 4775 
L 3300 4175 
L 4825 4350 
L 5000 4600 
L 5300 4300 
Q 5150 4225 4575 3525 
L 4500 3575 
L 4775 4100 
L 3850 4000 
L 4050 3825 
z
M 2275 775 
Q 2800 600 3225 475 
Q 3650 925 3850 1425 
L 2625 1375 
L 2275 775 
z
M 925 2975 
L 1400 2625 
L 2550 4200 
L 2625 4150 
Q 1725 2675 1425 2125 
Q 1300 2325 875 2900 
L 925 2975 
z
M 1925 3900 
Q 1725 4275 1275 4775 
L 1350 4875 
Q 1775 4550 2050 4375 
Q 2000 4100 1925 3900 
z
" transform="scale(0.015625)"/>
       <path id="FangSong-6001" d="M 675 1525 
Q 2050 2475 2625 3675 
Q 1525 3575 1400 3500 
L 1050 3800 
Q 1600 3800 2725 3900 
Q 2925 4425 2975 4725 
Q 3025 5025 2900 5175 
L 2975 5225 
L 3350 4850 
Q 3275 4875 3212 4650 
Q 3150 4425 3000 3925 
Q 5000 4100 5075 4150 
L 5375 3875 
Q 5050 3875 3750 3775 
Q 4250 3000 4525 2650 
Q 4800 2300 4937 2225 
Q 5075 2150 5825 2100 
L 5825 2000 
L 4700 1875 
Q 4650 2100 4387 2500 
Q 4125 2900 3575 3750 
L 2900 3700 
Q 2225 2300 725 1425 
L 675 1525 
z
M 4000 800 
Q 4475 -225 4725 -525 
Q 3600 -575 2937 -150 
Q 2275 275 1925 1200 
L 2025 1225 
Q 2400 475 2975 125 
Q 3550 -225 4225 -225 
L 3925 775 
L 4000 800 
z
M 5500 650 
Q 5450 400 5375 175 
Q 4950 750 4300 1375 
L 4375 1450 
Q 5150 875 5500 650 
z
M 1600 1100 
Q 1525 175 975 -375 
L 800 0 
Q 1275 200 1500 1125 
L 1600 1100 
z
M 3475 1300 
Q 3475 1050 3400 825 
Q 3050 1300 2550 1800 
L 2625 1875 
Q 3225 1475 3475 1300 
z
M 2625 3025 
Q 3100 2650 3375 2450 
Q 3300 2200 3250 1950 
Q 3000 2375 2525 2950 
L 2625 3025 
z
" transform="scale(0.015625)"/>
       <path id="FangSong-b0" d="M 1025 4300 
Q 1250 4525 1575 4525 
Q 1900 4525 2125 4300 
Q 2300 4100 2300 3825 
Q 2300 3550 2125 3325 
Q 1900 3100 1575 3100 
Q 1250 3100 1025 3325 
Q 850 3550 850 3825 
Q 850 4100 1025 4300 
z
M 1200 4150 
Q 1075 4000 1075 3825 
Q 1075 3625 1200 3475 
Q 1350 3325 1575 3325 
Q 1800 3325 1950 3475 
Q 2075 3625 2075 3825 
Q 2075 4000 1950 4150 
Q 1800 4300 1575 4300 
Q 1350 4300 1200 4150 
z
" transform="scale(0.015625)"/>
      </defs>
      <use xlink:href="#FangSong-59ff"/>
      <use xlink:href="#FangSong-6001" x="100"/>
      <use xlink:href="#FangSong-20" x="200"/>
      <use xlink:href="#FangSong-5b" x="250"/>
      <use xlink:href="#FangSong-b0" x="300"/>
      <use xlink:href="#FangSong-5d" x="400"/>
     </g>
    </g>
   </g>
   <g id="line2d_14">
    <path d="M 184.581818 290.699613 
L 194.974921 290.748752 
L 196.274059 291.116329 
L 198.222765 291.940065 
L 199.846688 292.601073 
L 201.145826 292.95328 
L 201.47061 293.705569 
L 203.094532 294.614086 
L 206.991946 295.948939 
L 210.889359 297.269296 
L 211.214144 296.996281 
L 211.863713 295.657364 
L 213.162851 292.394738 
L 213.81242 291.489581 
L 214.137204 291.301895 
L 214.461988 291.276548 
L 215.111557 291.60964 
L 217.060264 292.829871 
L 218.034617 293.189941 
L 219.008971 293.213213 
L 222.256815 292.691725 
L 222.5816 293.92924 
L 222.906384 294.321203 
L 223.555953 294.530783 
L 225.179876 294.324812 
L 230.701211 293.419455 
L 231.35078 293.602063 
L 232.000349 293.524502 
L 234.923409 292.632933 
L 236.222547 292.71867 
L 238.171254 292.909618 
L 242.718236 292.84274 
L 244.342159 292.819153 
L 244.666943 294.943478 
L 244.991728 295.551268 
L 245.316512 295.739964 
L 245.641297 295.751818 
L 249.213926 294.383012 
L 250.837848 293.721314 
L 251.487417 293.684965 
L 252.46177 293.339206 
L 253.760908 292.775891 
L 254.735261 292.60741 
L 255.709615 292.676521 
L 258.30789 293.023817 
L 260.256597 292.929117 
L 263.179657 292.805044 
L 267.077071 292.881386 
L 267.401855 294.679731 
L 267.72664 294.943006 
L 268.051424 295.519928 
L 269.350562 296.166754 
L 271.948838 296.758241 
L 275.846251 297.632717 
L 276.171036 297.356568 
L 276.820605 295.958332 
L 278.119742 292.485084 
L 278.769311 291.505173 
L 279.094096 291.294469 
L 279.41888 291.256044 
L 280.068449 291.55673 
L 281.692371 292.690143 
L 282.666725 293.215834 
L 283.316294 293.328931 
L 284.290647 293.194315 
L 286.239354 292.704037 
L 287.213707 292.677115 
L 287.538492 293.655784 
L 287.863276 294.052338 
L 288.512845 294.150593 
L 295.658103 293.227327 
L 296.307672 293.498856 
L 296.957241 293.522737 
L 297.931594 293.243352 
L 299.555517 292.717977 
L 300.52987 292.652784 
L 306.37599 292.876196 
L 309.623835 292.78578 
L 309.948619 295.476174 
L 310.273404 296.211824 
L 310.598188 296.584634 
L 310.922973 296.680931 
L 311.897326 296.530635 
L 314.495602 295.704939 
L 317.418662 294.758449 
L 317.743446 294.854852 
L 318.068231 294.815438 
L 318.7178 294.367284 
L 320.666507 292.468403 
L 321.316076 292.266816 
L 321.965644 292.32812 
L 323.264782 292.830813 
L 324.239136 293.138392 
L 325.213489 293.20977 
L 326.837411 292.986106 
L 328.461334 292.821798 
L 332.033963 292.855425 
L 332.358747 293.791894 
L 333.333101 294.432606 
L 334.632238 294.778577 
L 341.452712 296.122894 
L 341.777496 295.958539 
L 342.427065 295.024822 
L 343.726203 292.659774 
L 344.375772 291.968406 
L 345.025341 291.767123 
L 345.67491 291.96053 
L 347.948401 293.182242 
L 348.922755 293.230359 
L 350.546677 292.970061 
L 352.170599 292.764881 
L 353.469737 292.771469 
L 353.794521 294.20345 
L 354.119306 294.659534 
L 354.768875 295.022609 
L 356.068013 295.106682 
L 362.238917 295.00778 
L 362.563702 295.169224 
L 362.888486 295.114958 
L 363.538055 294.531549 
L 365.161978 292.531073 
L 365.811546 292.156271 
L 366.461115 292.113146 
L 367.435469 292.452015 
L 368.734607 292.97842 
L 369.70896 293.109116 
L 371.008098 293.022627 
L 373.931158 292.727233 
L 375.230296 292.773345 
L 375.55508 295.303735 
L 375.879865 296.054798 
L 376.204649 296.438356 
L 376.529434 296.584338 
L 377.503787 296.584456 
L 379.777278 296.20932 
L 383.025123 295.65721 
L 383.349907 295.909301 
L 383.674692 295.890633 
L 383.999476 295.634555 
L 384.649045 294.661761 
L 385.948183 292.516134 
L 386.597752 291.96217 
L 387.247321 291.864586 
L 387.89689 292.110712 
L 389.845596 293.182856 
L 390.495165 293.277074 
L 391.469519 293.149737 
L 393.418225 292.724622 
L 394.717363 292.74011 
L 397.640423 292.863014 
L 397.965208 295.77077 
L 398.614777 297.071342 
L 399.264346 297.373329 
L 399.913915 297.430362 
L 401.537837 297.29116 
L 405.43525 296.843535 
L 405.760035 297.089085 
L 406.084819 296.975333 
L 406.409604 296.555368 
L 407.059173 295.149238 
L 408.033526 292.846156 
L 408.683095 291.848425 
L 409.00788 291.589232 
L 409.332664 291.487428 
L 409.657448 291.524979 
L 410.307017 291.906569 
L 411.93094 293.142302 
L 412.580509 293.385293 
L 413.230077 293.417924 
L 414.204431 293.190112 
L 415.828353 292.744156 
L 417.127491 292.674107 
L 419.400982 292.891549 
L 419.725767 294.608763 
L 420.375336 295.509258 
L 421.024905 295.931288 
L 422.324042 296.389921 
L 428.170163 298.116181 
L 428.494947 297.848126 
L 428.819732 297.216273 
L 429.794085 294.308479 
L 430.443654 292.510285 
L 431.093223 291.39498 
L 431.418007 291.141932 
L 431.742792 291.079254 
L 432.067576 291.179546 
L 433.041929 291.990378 
L 434.341067 293.107708 
L 434.990636 293.374357 
L 435.640205 293.395986 
L 436.614559 293.134292 
L 437.913696 292.773531 
L 439.212834 292.681005 
L 441.161541 292.827007 
L 441.486325 295.255443 
L 441.81111 295.980049 
L 442.135894 296.43216 
L 442.785463 296.734619 
L 443.759817 296.859091 
L 449.281152 296.931533 
L 449.605937 297.164314 
L 449.930721 297.017622 
L 450.255506 296.559294 
L 450.905075 295.085856 
L 451.879428 292.7457 
L 452.528997 291.762443 
L 452.853782 291.517157 
L 453.178566 291.430551 
L 453.828135 291.645681 
L 454.802488 292.468625 
L 455.776842 293.189558 
L 456.426411 293.396203 
L 457.075979 293.375616 
L 458.375117 292.970051 
L 459.349471 292.735549 
L 460.648609 292.695095 
L 463.246884 292.861932 
L 463.571669 295.747424 
L 464.221238 297.092935 
L 464.870807 297.427631 
L 465.520375 297.51692 
L 467.469082 297.452602 
L 471.366496 297.252229 
L 471.69128 297.500468 
L 472.016065 297.350722 
L 472.340849 296.868184 
L 472.990418 295.300837 
L 473.964771 292.785928 
L 474.61434 291.716913 
L 474.939125 291.446068 
L 475.263909 291.346445 
L 475.588694 291.397374 
L 476.238263 291.826398 
L 477.862185 293.227478 
L 478.511754 293.465932 
L 479.161323 293.46323 
L 480.135676 293.166285 
L 481.434814 292.723482 
L 482.409167 292.607194 
L 483.708305 292.752548 
L 485.007443 292.909287 
L 485.332227 295.15732 
L 485.981796 296.31248 
L 486.631365 296.765784 
L 487.605719 297.110964 
L 491.827917 298.120722 
L 493.776623 298.587669 
L 494.101408 298.796273 
L 494.426192 298.488595 
L 494.750977 297.773758 
L 495.72533 294.50637 
L 496.374899 292.48973 
L 497.024468 291.237528 
L 497.349252 290.952832 
L 497.674037 290.881865 
L 497.998821 290.994097 
L 498.973175 291.891712 
L 500.272313 293.138453 
L 500.921881 293.448741 
L 501.57145 293.484889 
L 502.545804 293.188622 
L 503.844942 292.717513 
L 504.819295 292.61296 
L 506.118433 292.732888 
L 506.443217 294.974927 
L 506.768002 295.702856 
L 507.092786 296.148208 
L 507.742355 296.532649 
L 508.716709 296.788664 
L 515.212398 298.040074 
L 515.537182 297.831112 
L 515.861967 297.2523 
L 516.511536 295.450256 
L 517.485889 292.652585 
L 518.135458 291.503319 
L 518.460242 291.224914 
L 518.785027 291.135266 
L 519.109811 291.209458 
L 519.75938 291.706178 
L 521.058518 293.020959 
L 521.708087 293.395689 
L 522.357656 293.484964 
L 523.332009 293.243616 
L 524.955931 292.730463 
L 525.930285 292.617983 
L 527.229423 292.685571 
L 527.878992 292.774745 
L 528.203776 295.958884 
L 528.528561 296.93523 
L 528.853345 297.459378 
L 529.178129 297.708609 
L 530.152483 297.859377 
L 531.776405 297.764683 
L 535.998603 297.436801 
L 536.323388 297.734779 
L 536.648172 297.611092 
L 536.972956 297.129893 
L 537.622525 295.506672 
L 538.596879 292.842202 
L 539.246448 291.687 
L 539.571232 291.385963 
L 539.896017 291.266615 
L 540.220801 291.308174 
L 540.87037 291.744877 
L 542.494292 293.244413 
L 543.143861 293.500932 
L 543.79343 293.496696 
L 544.767783 293.174666 
L 546.066921 292.695467 
L 547.041275 292.603807 
L 548.989981 292.822075 
L 549.63955 292.885333 
L 549.964335 295.834999 
L 550.613904 297.290189 
L 551.263473 297.81618 
L 552.237826 298.153779 
L 555.485671 298.780022 
L 558.083946 299.272257 
L 558.408731 299.544858 
L 558.733515 299.240145 
L 559.0583 298.470687 
L 560.032653 294.831418 
L 560.682222 292.536031 
L 561.331791 291.082874 
L 561.656575 290.740551 
L 561.98136 290.641534 
L 562.306144 290.752727 
L 562.955713 291.376102 
L 564.579635 293.128963 
L 565.229204 293.507656 
L 565.878773 293.582389 
L 566.528342 293.421184 
L 568.477049 292.689664 
L 569.451402 292.63516 
L 571.075325 292.812351 
L 571.400109 295.134833 
L 571.724894 295.877842 
L 572.049678 296.336342 
L 572.699247 296.717833 
L 573.6736 296.970521 
L 580.494074 298.238589 
L 580.818858 298.00972 
L 581.143643 297.401512 
L 582.117996 294.492264 
L 582.767565 292.646794 
L 583.417134 291.466425 
L 583.741919 291.181744 
L 584.066703 291.091786 
L 584.391488 291.170822 
L 585.041056 291.687993 
L 586.340194 293.052126 
L 586.989763 293.442087 
L 587.639332 293.537878 
L 588.288901 293.393734 
L 590.237608 292.679751 
L 591.211961 292.605653 
L 592.835883 292.770761 
L 593.160668 292.815505 
L 593.485452 295.740603 
L 594.135021 297.227545 
L 594.78459 297.739745 
L 595.758944 298.06405 
L 599.656357 298.799694 
L 601.929848 299.228889 
L 602.254633 299.507873 
L 602.579417 299.208537 
L 602.904202 298.44515 
L 603.878555 294.830479 
L 604.528124 292.550337 
L 605.177693 291.104583 
L 605.502477 290.76212 
L 605.827262 290.660737 
L 606.152046 290.767791 
L 606.801615 291.421934 
L 608.425537 293.277772 
L 609.075106 293.600941 
L 609.724675 293.600825 
L 610.699029 293.217555 
L 611.998167 292.692312 
L 612.97252 292.57774 
L 614.271658 292.704583 
L 614.596442 292.75857 
L 614.921227 295.586317 
L 615.246011 296.496207 
L 615.570796 297.027266 
L 616.220365 297.465865 
L 617.194718 297.719627 
L 623.040838 298.505678 
L 623.365623 298.797939 
L 623.690407 298.570229 
L 624.015192 297.918984 
L 624.66476 295.869081 
L 625.639114 292.657842 
L 626.288683 291.328448 
L 626.613467 291.003363 
L 626.938252 290.895787 
L 627.263036 290.97762 
L 627.912605 291.546015 
L 629.211743 293.06795 
L 629.861312 293.507915 
L 630.510881 293.617887 
L 631.16045 293.459951 
L 633.109156 292.71664 
L 634.08351 292.610676 
L 635.707432 292.733555 
L 636.357001 292.817842 
L 636.681785 296.069982 
L 637.331354 297.661703 
L 637.980923 298.16383 
L 638.630492 298.366159 
L 640.579199 298.606674 
L 644.476612 299.010181 
L 644.801397 299.325619 
L 645.126181 299.079419 
L 645.450966 298.373375 
L 646.100535 296.144723 
L 647.074888 292.642576 
L 647.724457 291.190238 
L 648.049242 290.834833 
L 648.374026 290.717369 
L 648.69881 290.80732 
L 649.348379 291.431281 
L 650.972302 293.270331 
L 651.621871 293.604292 
L 652.271439 293.621344 
L 653.245793 293.25236 
L 654.544931 292.678194 
L 655.519284 292.551835 
L 656.818422 292.699994 
L 658.11756 292.883455 
L 658.442344 295.996309 
L 659.091913 297.557449 
L 659.741482 298.136607 
L 660.715835 298.515575 
L 663.96368 299.246905 
L 666.561956 299.817349 
L 666.88674 300.092577 
L 667.211525 299.745569 
L 667.536309 298.899969 
L 668.510662 294.949899 
L 669.160231 292.477456 
L 669.8098 290.924681 
L 670.134585 290.564474 
L 670.459369 290.466592 
L 670.784154 290.594609 
L 671.758507 291.650854 
L 673.057645 293.135334 
L 673.707214 293.547101 
L 674.356783 293.63414 
L 675.006352 293.467859 
L 676.955058 292.67275 
L 677.929412 292.602391 
L 679.22855 292.755293 
L 679.553334 295.090753 
L 679.878119 295.864797 
L 680.202903 296.321787 
L 680.852472 296.713566 
L 681.826825 296.97469 
L 687.672946 297.963046 
L 687.99773 298.237395 
L 688.322514 298.034286 
L 688.647299 297.444434 
L 689.296868 295.583555 
L 690.271221 292.670047 
L 690.92079 291.465386 
L 691.245575 291.170751 
L 691.570359 291.073117 
L 691.895144 291.146957 
L 692.544712 291.660753 
L 693.84385 293.034624 
L 694.493419 293.429526 
L 695.142988 293.525065 
L 696.117341 293.277137 
L 697.741264 292.738838 
L 698.715617 292.617811 
L 700.339539 292.695906 
L 701.313893 292.813775 
L 701.638677 296.429837 
L 702.288246 298.157258 
L 702.613031 298.499661 
L 703.2626 298.775887 
L 704.561737 298.887884 
L 709.10872 298.957952 
L 709.433504 299.273812 
L 709.758289 299.039645 
L 710.083073 298.350138 
L 710.732642 296.15369 
L 711.706996 292.675876 
L 712.356564 291.224025 
L 712.681349 290.865373 
L 713.006133 290.743639 
L 713.330918 290.829024 
L 713.980487 291.445189 
L 715.604409 293.249836 
L 716.253978 293.596861 
L 716.903547 293.633709 
L 717.553116 293.43836 
L 719.501823 292.63503 
L 720.476176 292.565486 
L 723.074452 292.921475 
L 723.399236 295.776529 
L 724.048805 297.208621 
L 724.698374 297.745269 
L 725.672727 298.107293 
L 728.920572 298.823766 
L 731.518848 299.380507 
L 731.843632 299.634332 
L 732.168416 299.305536 
L 732.493201 298.510536 
L 733.467554 294.808573 
L 734.117123 292.496599 
L 734.766692 291.047762 
L 735.091477 290.713079 
L 735.416261 290.62395 
L 735.741046 290.746045 
L 736.715399 291.733825 
L 738.014537 293.121323 
L 738.664106 293.509188 
L 739.313675 293.593351 
L 739.963243 293.440568 
L 742.236735 292.605349 
L 743.211088 292.61143 
L 744.185441 292.754547 
L 744.510226 294.937669 
L 745.159795 296.12102 
L 745.809364 296.536578 
L 746.783717 296.848189 
L 753.279406 298.482658 
L 753.604191 298.23966 
L 753.928975 297.598491 
L 754.903329 294.536213 
L 755.552898 292.600755 
L 756.202466 291.371648 
L 756.527251 291.078916 
L 756.852035 290.990231 
L 757.17682 291.078038 
L 757.826389 291.626377 
L 759.125527 293.051411 
L 759.775095 293.451336 
L 760.424664 293.541732 
L 761.074233 293.395631 
L 763.347725 292.655013 
L 764.322078 292.593721 
L 765.946 292.768275 
L 766.270785 296.057045 
L 766.595569 297.055392 
L 766.920354 297.672558 
L 767.245138 297.991208 
L 767.894707 298.255699 
L 769.193845 298.408566 
L 774.065612 298.707701 
L 774.390396 299.030333 
L 774.715181 298.81481 
L 775.039965 298.156048 
L 775.689534 296.044449 
L 776.663887 292.693827 
L 777.313456 291.29029 
L 777.638241 290.941479 
L 777.963025 290.820363 
L 778.28781 290.898425 
L 778.937379 291.483375 
L 780.236516 293.0786 
L 780.886085 293.549254 
L 781.535654 293.676896 
L 782.185223 293.522821 
L 784.458714 292.580927 
L 785.433068 292.56871 
L 787.706559 292.877189 
L 788.031343 296.260488 
L 788.680912 297.937932 
L 789.330481 298.558528 
L 790.304835 298.943072 
L 793.227895 299.568105 
L 795.82617 300.102086 
L 796.150955 300.420821 
L 796.475739 300.08639 
L 796.800524 299.224215 
L 797.450093 296.579877 
L 798.424446 292.505814 
L 799.074015 290.852408 
L 799.3988 290.46101 
L 799.723584 290.345894 
L 800.048368 290.469814 
L 800.697937 291.167685 
L 802.646644 293.394037 
L 803.296213 293.661286 
L 803.945782 293.610644 
L 804.920135 293.185667 
L 806.219273 292.641565 
L 807.193627 292.564005 
L 808.817549 292.784577 
L 809.467118 292.874653 
L 809.791902 295.814553 
L 810.441471 297.286941 
L 811.09104 297.759704 
L 812.065393 298.041887 
L 817.261945 298.81424 
L 817.911514 298.912204 
L 818.236298 299.175362 
L 818.561083 298.895012 
L 818.885867 298.175097 
L 819.86022 294.75083 
L 820.509789 292.584177 
L 821.159358 291.208007 
L 821.484143 290.881656 
L 821.808927 290.784902 
L 822.133712 290.886838 
L 822.783281 291.501158 
L 824.407203 293.240725 
L 825.056772 293.567835 
L 825.706341 293.588273 
L 826.680694 293.243057 
L 827.979832 292.717181 
L 828.954185 292.612145 
L 830.578108 292.78312 
L 830.902892 292.826773 
L 831.227677 295.264534 
L 831.877245 296.552731 
L 832.526814 297.017226 
L 833.501168 297.352379 
L 838.372935 298.460578 
L 839.672072 298.754425 
L 839.996857 299.008128 
L 840.321641 298.722287 
L 840.646426 298.006999 
L 841.620779 294.647849 
L 842.270348 292.543674 
L 842.919917 291.219575 
L 843.244702 290.910098 
L 843.569486 290.823091 
L 843.89427 290.927768 
L 844.543839 291.53917 
L 845.842977 293.074765 
L 846.492546 293.510486 
L 847.142115 293.612723 
L 847.791684 293.44885 
L 849.740391 292.692505 
L 850.714744 292.5857 
L 852.013882 292.701105 
L 852.338666 292.753564 
L 852.663451 295.713918 
L 852.988235 296.657963 
L 853.31302 297.219801 
L 853.637804 297.523771 
L 854.612158 297.86049 
L 856.885649 298.145068 
L 860.783062 298.593287 
L 861.107847 298.903676 
L 861.432631 298.682879 
L 861.757416 298.028412 
L 862.406985 295.95014 
L 863.381338 292.676992 
L 864.030907 291.315047 
L 864.355691 290.979127 
L 864.680476 290.864872 
L 865.00526 290.944057 
L 865.654829 291.517065 
L 866.953967 293.064721 
L 867.603536 293.514244 
L 868.253105 293.627854 
L 868.902674 293.468498 
L 870.851381 292.664634 
L 871.825734 292.56543 
L 873.449656 292.705584 
L 874.748794 292.851022 
L 875.073579 296.899145 
L 875.723147 298.83287 
L 876.047932 299.243537 
L 876.697501 299.579174 
L 877.671854 299.714997 
L 882.868406 299.867913 
L 883.19319 300.153289 
L 883.517974 299.831615 
L 883.842759 299.010573 
L 884.492328 296.490119 
L 885.466681 292.585346 
L 886.11625 290.987243 
L 886.441035 290.604044 
L 886.765819 290.486761 
L 887.090604 290.60049 
L 888.064957 291.636077 
L 889.364095 293.113067 
L 890.013664 293.562402 
L 890.663233 293.702032 
L 891.312801 293.570917 
L 893.911077 292.612259 
L 894.885431 292.599693 
L 896.184568 292.797307 
L 896.509353 294.647517 
L 897.158922 295.688908 
L 897.808491 296.111297 
L 899.107629 296.591621 
L 905.278533 298.575999 
L 905.603318 298.294934 
L 905.928102 297.616734 
L 906.902456 294.475475 
L 907.552024 292.525839 
L 908.201593 291.310559 
L 908.526378 291.031575 
L 908.851162 290.958823 
L 909.175947 291.063034 
L 909.825516 291.640073 
L 911.124653 293.060623 
L 911.774222 293.460711 
L 912.423791 293.550239 
L 913.07336 293.39672 
L 915.022067 292.674153 
L 915.99642 292.588338 
L 917.295558 292.719794 
L 917.620343 295.472999 
L 917.945127 296.363697 
L 918.269912 296.919014 
L 918.919481 297.413028 
L 919.893834 297.719267 
L 923.791247 298.419182 
L 926.714308 298.945222 
L 927.039092 299.233378 
L 927.363876 298.961658 
L 927.688661 298.241177 
L 928.663014 294.798867 
L 929.312583 292.617221 
L 929.962152 291.222729 
L 930.286937 290.88607 
L 930.611721 290.77923 
L 930.936506 290.87175 
L 931.586074 291.479738 
L 932.885212 293.079189 
L 933.534781 293.535923 
L 934.18435 293.642822 
L 934.833919 293.474248 
L 937.10741 292.619718 
L 938.081764 292.561468 
L 939.056117 292.686915 
L 939.380901 295.772856 
L 939.705686 296.79203 
L 940.03047 297.327739 
L 940.355255 297.620813 
L 941.329608 297.875058 
L 943.603099 297.982054 
L 947.500513 298.149928 
L 947.825297 298.484273 
L 948.150082 298.323766 
L 948.474866 297.751388 
L 949.124435 295.857423 
L 950.098789 292.793494 
L 950.748358 291.483356 
L 951.073142 291.147438 
L 951.397926 291.019376 
L 951.722711 291.074444 
L 952.37228 291.583313 
L 953.996202 293.279163 
L 954.645771 293.553744 
L 955.29534 293.53077 
L 956.269693 293.163053 
L 957.568831 292.70449 
L 958.543185 292.590296 
L 960.167107 292.691251 
L 961.14146 292.815945 
L 961.466245 296.833536 
L 962.115814 298.77529 
L 962.440598 299.217638 
L 963.090167 299.644017 
L 964.06452 299.904494 
L 968.286718 300.536402 
L 969.261072 300.681265 
L 969.585856 300.993334 
L 969.910641 300.616893 
L 970.235425 299.681713 
L 970.884994 296.838139 
L 971.859347 292.474186 
L 972.508916 290.710224 
L 972.833701 290.295566 
L 973.158485 290.1774 
L 973.48327 290.315508 
L 974.457623 291.484133 
L 975.756761 293.130468 
L 976.40633 293.613656 
L 977.055899 293.745163 
L 977.705468 293.584214 
L 980.303743 292.534919 
L 981.278097 292.589614 
L 982.577235 292.832709 
L 982.902019 295.371814 
L 983.551588 296.728672 
L 984.201157 297.210083 
L 985.17551 297.572149 
L 991.346415 299.351752 
L 991.671199 299.061885 
L 991.995984 298.316246 
L 992.970337 294.775614 
L 993.619906 292.542587 
L 994.269475 291.129796 
L 994.59426 290.796392 
L 994.919044 290.69937 
L 995.243828 290.806577 
L 995.893397 291.451472 
L 996.218182 291.849409 
L 996.218182 291.849409 
" clip-path="url(#p0880aca31a)" style="fill: none; stroke: #ff0000; stroke-width: 2; stroke-linecap: square"/>
   </g>
   <g id="line2d_15">
    <path d="M 184.581818 290.699613 
L 185.231387 289.850467 
L 185.880956 289.641414 
L 189.128801 289.639813 
L 190.427938 288.460012 
L 191.077507 288.168847 
L 191.727076 288.102037 
L 192.70143 288.263276 
L 194.650136 288.650631 
L 195.949274 288.733954 
L 196.274059 288.918698 
L 196.923628 289.755776 
L 198.872334 293.483782 
L 199.521903 293.939987 
L 200.171472 293.945384 
L 200.821041 293.634319 
L 201.145826 293.423297 
L 201.47061 291.889589 
L 202.120179 290.863027 
L 202.444963 290.783837 
L 203.094532 291.080463 
L 207.641515 294.369938 
L 210.889359 297.282606 
L 211.214144 296.776732 
L 211.863713 294.24224 
L 213.162851 288.357207 
L 213.81242 286.765034 
L 214.137204 286.398215 
L 214.461988 286.278463 
L 214.786773 286.359146 
L 215.436342 286.90688 
L 216.410695 287.922642 
L 217.709833 289.109385 
L 218.684186 291.155724 
L 219.333755 292.445534 
L 219.983324 293.278167 
L 220.632893 293.60388 
L 221.282462 293.538153 
L 222.256815 293.139498 
L 222.5816 296.178339 
L 223.231169 299.011013 
L 223.555953 299.638847 
L 228.102936 304.051579 
L 231.025996 307.580137 
L 231.35078 306.361659 
L 232.000349 301.782829 
L 232.974703 294.162737 
L 233.624272 290.84184 
L 234.27384 288.870618 
L 234.923409 287.594257 
L 235.248194 287.255438 
L 235.572978 287.098133 
L 235.897763 287.0934 
L 236.547332 287.398962 
L 238.496038 288.844969 
L 239.145607 289.674114 
L 241.094314 293.112967 
L 241.743883 293.533919 
L 242.393452 293.543457 
L 243.367805 293.145633 
L 244.342159 292.767799 
L 244.666943 297.154725 
L 245.316512 300.814731 
L 245.641297 301.603785 
L 245.966081 301.610936 
L 246.290865 301.231278 
L 246.61565 301.169577 
L 247.265219 301.595659 
L 250.837848 304.869858 
L 251.162632 305.258458 
L 251.487417 304.239894 
L 252.136986 300.419105 
L 253.111339 294.009231 
L 254.085692 289.532213 
L 254.735261 287.556207 
L 255.060046 286.981389 
L 255.38483 286.670918 
L 255.709615 286.591558 
L 256.034399 286.699522 
L 256.683968 287.274406 
L 257.983106 288.637731 
L 258.632675 289.013753 
L 259.282244 289.131275 
L 260.581382 289.102789 
L 261.230951 289.466068 
L 261.555735 289.715608 
L 262.205304 290.642991 
L 263.504442 292.9311 
L 264.154011 293.582741 
L 264.80358 293.799759 
L 265.453149 293.686658 
L 266.752286 293.051934 
L 267.077071 292.904278 
L 268.376209 293.829414 
L 275.846251 300.253257 
L 276.171036 299.509247 
L 278.119742 291.001312 
L 278.769311 288.946921 
L 279.41888 287.56716 
L 279.743665 287.181355 
L 280.068449 286.984651 
L 280.393234 286.950092 
L 281.042803 287.209447 
L 281.692371 287.698216 
L 282.34194 288.728393 
L 284.290647 293.156835 
L 284.940216 293.728379 
L 285.589785 293.772828 
L 286.239354 293.491941 
L 287.213707 292.960475 
L 287.538492 296.580872 
L 288.188061 299.983613 
L 288.512845 300.796986 
L 288.83763 301.055787 
L 289.487199 300.985033 
L 290.136767 301.458626 
L 293.709396 304.834282 
L 295.982888 307.511131 
L 296.307672 306.306525 
L 296.957241 301.766451 
L 297.931594 294.183076 
L 298.581163 290.761514 
L 299.230732 288.529697 
L 299.880301 287.204935 
L 300.205086 286.900886 
L 300.52987 286.803542 
L 300.854655 286.873493 
L 301.504224 287.336916 
L 302.803361 288.479449 
L 303.777715 289.157087 
L 304.427284 290.045739 
L 306.051206 292.919272 
L 306.700775 293.476621 
L 307.350344 293.601636 
L 307.999913 293.429174 
L 309.623835 292.757688 
L 309.948619 296.504011 
L 310.598188 299.757331 
L 310.922973 300.579509 
L 311.247757 300.817286 
L 311.572542 300.809632 
L 312.222111 301.295382 
L 315.79474 305.066233 
L 317.743446 307.597709 
L 318.068231 306.437932 
L 318.7178 301.941016 
L 319.692153 294.305502 
L 320.341722 290.746865 
L 320.991291 288.23794 
L 321.64086 286.846269 
L 321.965644 286.564617 
L 322.290429 286.51527 
L 322.615213 286.649831 
L 323.264782 287.260057 
L 324.56392 288.623239 
L 325.213489 288.978807 
L 325.863058 289.200922 
L 326.512627 289.747585 
L 327.162196 290.773907 
L 328.136549 292.547941 
L 328.786118 293.337571 
L 329.435687 293.680311 
L 330.085256 293.652393 
L 331.059609 293.249201 
L 332.033963 292.830025 
L 332.358747 294.453827 
L 333.008316 295.945986 
L 335.606592 298.954718 
L 341.452712 305.412892 
L 341.777496 304.324005 
L 342.427065 300.348789 
L 343.401419 293.847459 
L 344.050988 291.058587 
L 345.025341 288.39479 
L 345.67491 287.431752 
L 345.999694 287.218663 
L 346.324479 287.158149 
L 346.974048 287.369813 
L 347.948401 288.051383 
L 348.273186 288.381069 
L 348.922755 289.523463 
L 350.221892 292.520761 
L 350.871461 293.440297 
L 351.52103 293.795552 
L 352.170599 293.710345 
L 353.469737 293.036021 
L 353.794521 295.789831 
L 354.44409 298.346886 
L 354.768875 298.896105 
L 358.991073 302.796657 
L 362.563702 306.796284 
L 362.888486 305.615652 
L 363.538055 301.245312 
L 364.512409 294.032002 
L 365.161978 290.911768 
L 365.811546 288.92782 
L 366.461115 287.628186 
L 366.7859 287.277801 
L 367.110684 287.110228 
L 367.435469 287.097115 
L 368.085038 287.392563 
L 369.70896 288.648207 
L 370.358529 289.593044 
L 371.982451 292.911366 
L 372.63202 293.561771 
L 373.281589 293.716453 
L 373.931158 293.528846 
L 375.230296 292.892643 
L 375.55508 296.199711 
L 376.204649 299.130301 
L 376.529434 299.8231 
L 376.854218 300.128242 
L 377.179003 300.210177 
L 377.828571 300.736267 
L 381.725985 304.581754 
L 383.349907 306.53842 
L 383.674692 305.419201 
L 384.324261 301.175286 
L 385.298614 294.074402 
L 385.948183 290.88227 
L 386.597752 288.75549 
L 387.247321 287.42648 
L 387.572105 287.094052 
L 387.89689 286.959201 
L 388.221674 286.988069 
L 388.871243 287.375721 
L 390.495165 288.634108 
L 391.144734 288.929808 
L 391.794303 289.510784 
L 392.443872 290.276166 
L 394.067794 292.878097 
L 394.717363 293.413548 
L 395.366932 293.554334 
L 396.016501 293.415298 
L 397.640423 292.792573 
L 397.965208 295.828828 
L 398.614777 298.510722 
L 398.939561 299.136639 
L 403.811328 304.41462 
L 405.760035 306.910128 
L 406.084819 305.779786 
L 406.734388 301.436385 
L 407.708742 294.131062 
L 408.358311 290.864751 
L 409.00788 288.72925 
L 409.657448 287.401587 
L 409.982233 287.071385 
L 410.307017 286.939147 
L 410.631802 286.970889 
L 411.281371 287.364391 
L 412.905293 288.636518 
L 413.554862 288.942211 
L 414.204431 289.455612 
L 414.854 290.469755 
L 416.153138 292.84569 
L 416.802707 293.491444 
L 417.452275 293.687285 
L 418.101844 293.554484 
L 419.400982 292.960338 
L 419.725767 294.864636 
L 420.375336 296.476445 
L 428.170163 304.604523 
L 428.494947 303.56567 
L 429.144516 299.81464 
L 430.118869 293.718607 
L 430.768438 291.123489 
L 431.742792 288.519853 
L 432.392361 287.537569 
L 432.717145 287.30613 
L 433.041929 287.225445 
L 433.691498 287.402513 
L 435.315421 288.48188 
L 435.96499 289.086337 
L 436.614559 290.217477 
L 437.913696 292.79791 
L 438.563265 293.486266 
L 439.212834 293.688545 
L 439.862403 293.54119 
L 441.161541 292.931867 
L 441.486325 295.835553 
L 442.135894 298.44144 
L 442.460679 299.023203 
L 447.332446 303.772938 
L 449.605937 306.422675 
L 449.930721 305.288473 
L 450.58029 301.041339 
L 451.554644 293.995709 
L 452.204213 290.934889 
L 452.853782 288.905523 
L 453.50335 287.586871 
L 453.828135 287.235379 
L 454.152919 287.071317 
L 454.477704 287.065379 
L 455.127273 287.381974 
L 457.725548 289.392512 
L 458.375117 290.303063 
L 459.674255 292.663305 
L 460.323824 293.357581 
L 460.973393 293.605101 
L 461.622962 293.512326 
L 463.246884 292.840982 
L 463.571669 295.79124 
L 464.221238 298.433071 
L 464.546022 299.042639 
L 469.417789 304.247856 
L 471.69128 307.100007 
L 472.016065 305.942887 
L 472.665634 301.523466 
L 473.639987 294.11603 
L 474.289556 290.830594 
L 474.939125 288.754721 
L 475.588694 287.451171 
L 475.913478 287.121384 
L 476.238263 286.983698 
L 476.563047 287.005732 
L 477.212616 287.373592 
L 478.836538 288.603761 
L 479.486107 289.034392 
L 479.810892 289.343886 
L 480.460461 290.419109 
L 481.759598 292.852156 
L 482.409167 293.49741 
L 483.058736 293.684646 
L 483.708305 293.541054 
L 485.007443 292.942438 
L 485.332227 295.238787 
L 485.981796 297.26194 
L 486.631365 297.963389 
L 488.255288 299.618855 
L 494.101408 306.193023 
L 494.426192 305.053698 
L 495.075761 300.840671 
L 496.050115 293.90841 
L 496.699684 290.927375 
L 497.349252 288.933963 
L 497.998821 287.614713 
L 498.323606 287.256036 
L 498.64839 287.082931 
L 498.973175 287.067145 
L 499.622744 287.364133 
L 500.921881 288.399667 
L 501.57145 289.482792 
L 503.195373 293.000344 
L 503.844942 293.660949 
L 504.494511 293.801861 
L 505.144079 293.589752 
L 506.118433 293.062424 
L 506.443217 295.510696 
L 507.092786 297.728341 
L 507.742355 298.482692 
L 510.015846 300.716218 
L 515.212398 306.603845 
L 515.537182 305.438067 
L 516.186751 301.109501 
L 517.161104 293.96543 
L 517.810673 290.883437 
L 518.460242 288.938916 
L 519.109811 287.65084 
L 519.434596 287.297814 
L 519.75938 287.12408 
L 520.084165 287.102775 
L 520.733733 287.380679 
L 522.357656 288.586645 
L 523.007225 289.458143 
L 524.631147 292.797489 
L 525.280716 293.502321 
L 525.930285 293.705036 
L 526.579854 293.549158 
L 527.878992 292.924508 
L 528.203776 296.023497 
L 528.853345 298.790574 
L 529.178129 299.449015 
L 529.827698 299.99202 
L 531.451621 301.609942 
L 534.374681 304.713898 
L 536.323388 307.145856 
L 536.648172 305.98992 
L 537.297741 301.559971 
L 538.272094 294.11957 
L 538.921663 290.788143 
L 539.571232 288.606044 
L 540.220801 287.280023 
L 540.545586 286.962589 
L 540.87037 286.847426 
L 541.195154 286.897994 
L 541.844723 287.326658 
L 543.143861 288.445739 
L 544.118215 289.033008 
L 544.442999 289.342343 
L 545.092568 290.420124 
L 546.391706 292.848265 
L 547.041275 293.490936 
L 547.690844 293.674782 
L 548.340413 293.528958 
L 549.63955 292.934354 
L 549.964335 295.347478 
L 550.613904 297.464322 
L 551.263473 298.227546 
L 553.536964 300.630516 
L 558.408731 306.382361 
L 558.733515 305.250896 
L 559.383084 301.001306 
L 560.357438 293.949503 
L 561.007006 290.899247 
L 561.656575 288.894096 
L 562.306144 287.582964 
L 562.630929 287.23027 
L 562.955713 287.063318 
L 563.280498 287.053662 
L 563.930067 287.361267 
L 565.878773 288.828257 
L 566.528342 289.871628 
L 567.82748 292.574723 
L 568.477049 293.392155 
L 569.126618 293.700987 
L 569.776187 293.615662 
L 571.075325 292.995019 
L 571.400109 295.690744 
L 572.049678 298.106676 
L 572.699247 298.956098 
L 575.947092 302.382619 
L 580.494074 307.840019 
L 580.818858 306.596962 
L 581.468427 301.913552 
L 582.442781 294.12266 
L 583.09235 290.741457 
L 583.741919 288.706965 
L 584.391488 287.43481 
L 584.716272 287.115032 
L 585.041056 286.983348 
L 585.365841 287.007593 
L 586.01541 287.37051 
L 587.964117 288.941358 
L 588.613685 290.03802 
L 589.912823 292.694106 
L 590.562392 293.456774 
L 591.211961 293.718791 
L 591.86153 293.604888 
L 593.160668 292.982973 
L 593.485452 295.361205 
L 594.135021 297.537419 
L 594.78459 298.332532 
L 597.382866 301.132075 
L 602.254633 306.964764 
L 602.579417 305.788217 
L 603.228986 301.360845 
L 604.20334 294.004967 
L 604.852908 290.817916 
L 605.502477 288.807344 
L 606.152046 287.511871 
L 606.476831 287.170901 
L 606.801615 287.01586 
L 607.1264 287.017541 
L 607.775969 287.342983 
L 609.399891 288.600805 
L 610.04946 289.646035 
L 611.348598 292.481695 
L 611.998167 293.366654 
L 612.647735 293.717573 
L 613.297304 293.648416 
L 614.596442 293.024348 
L 614.921227 295.714586 
L 615.570796 298.099159 
L 616.220365 298.940164 
L 620.117778 302.958903 
L 623.365623 306.761488 
L 623.690407 305.600147 
L 624.339976 301.238459 
L 625.314329 293.993988 
L 625.963898 290.854815 
L 626.613467 288.820513 
L 627.263036 287.513349 
L 627.587821 287.170762 
L 627.912605 287.01634 
L 628.23739 287.019915 
L 628.886958 287.352659 
L 631.485234 289.498382 
L 633.433941 293.105946 
L 634.08351 293.595549 
L 634.733079 293.648278 
L 635.707432 293.269003 
L 636.357001 292.968171 
L 636.681785 295.565028 
L 637.331354 297.865714 
L 637.980923 298.716767 
L 641.878337 302.965708 
L 644.801397 306.522857 
L 645.126181 305.395299 
L 645.77575 301.12138 
L 646.750104 293.988111 
L 647.399673 290.852341 
L 648.049242 288.819863 
L 648.69881 287.510128 
L 649.023595 287.165707 
L 649.348379 287.009723 
L 649.673164 287.012766 
L 650.322733 287.346366 
L 651.946655 288.539995 
L 652.596224 288.894051 
L 652.921008 289.151425 
L 653.570577 290.132392 
L 654.869715 292.638383 
L 655.519284 293.377948 
L 656.168853 293.645642 
L 656.818422 293.55381 
L 658.11756 292.981906 
L 658.442344 295.33942 
L 659.091913 297.410853 
L 659.741482 298.173708 
L 662.339758 300.978557 
L 666.88674 306.296235 
L 667.211525 305.166056 
L 667.861094 300.934418 
L 668.835447 293.918308 
L 669.485016 290.881931 
L 670.134585 288.837218 
L 670.784154 287.509034 
L 671.108938 287.155419 
L 671.433723 286.991786 
L 671.758507 286.988411 
L 672.408076 287.31245 
L 674.031998 288.588304 
L 674.681567 289.63087 
L 675.980705 292.457928 
L 676.630274 293.347341 
L 677.279843 293.707636 
L 677.929412 293.647637 
L 679.22855 293.0313 
L 679.553334 295.654091 
L 680.202903 297.985968 
L 680.852472 298.794104 
L 684.425101 302.419844 
L 687.99773 306.465244 
L 688.322514 305.310278 
L 688.972083 301.022111 
L 689.946437 293.939983 
L 690.596006 290.88353 
L 691.245575 288.914481 
L 691.895144 287.617341 
L 692.219928 287.265244 
L 692.544712 287.095324 
L 692.869497 287.080034 
L 693.519066 287.373623 
L 696.117341 289.280993 
L 696.76691 290.369794 
L 697.741264 292.308407 
L 698.390833 293.191656 
L 699.040402 293.594089 
L 699.689971 293.593684 
L 700.664324 293.200593 
L 701.313893 292.919871 
L 701.638677 295.599501 
L 702.288246 297.997711 
L 702.937815 298.914354 
L 707.809582 304.413208 
L 709.433504 306.459532 
L 709.758289 305.353648 
L 710.407858 301.120736 
L 711.382211 294.013997 
L 712.03178 290.838101 
L 712.681349 288.704658 
L 713.330918 287.364134 
L 713.655702 287.025568 
L 713.980487 286.885942 
L 714.305271 286.91246 
L 714.95484 287.300753 
L 716.578762 288.577193 
L 717.553116 289.059341 
L 717.8779 289.310023 
L 718.527469 290.27461 
L 719.826607 292.674236 
L 720.476176 293.368849 
L 721.125745 293.611751 
L 721.775314 293.514134 
L 723.074452 292.963496 
L 723.399236 295.358694 
L 724.048805 297.433105 
L 724.698374 298.188699 
L 726.971865 300.602201 
L 731.843632 306.214135 
L 732.168416 305.083534 
L 732.817985 300.871727 
L 733.792339 293.904694 
L 734.441908 290.893481 
L 735.091477 288.848283 
L 735.741046 287.51303 
L 736.06583 287.156023 
L 736.390614 286.989401 
L 736.715399 286.983505 
L 737.364968 287.304238 
L 738.98889 288.592596 
L 739.638459 289.622918 
L 741.262381 292.979651 
L 741.91195 293.607297 
L 742.561519 293.739226 
L 743.211088 293.536456 
L 744.185441 293.041099 
L 744.510226 295.464372 
L 745.159795 297.658205 
L 745.809364 298.420558 
L 748.407639 301.054073 
L 753.279406 306.498005 
L 753.604191 305.330231 
L 754.25376 301.01832 
L 755.228113 293.920579 
L 755.877682 290.865565 
L 756.527251 288.893886 
L 757.17682 287.595488 
L 757.501604 287.242995 
L 757.826389 287.072726 
L 758.151173 287.058203 
L 758.800742 287.3551 
L 760.749449 288.798667 
L 761.399018 289.852159 
L 762.698156 292.567647 
L 763.347725 293.382159 
L 763.997293 293.686798 
L 764.646862 293.599719 
L 765.946 292.996355 
L 766.270785 295.652869 
L 766.920354 298.04005 
L 767.569923 298.925341 
L 772.116905 303.895195 
L 774.390396 306.682317 
L 774.715181 305.545488 
L 775.36475 301.227898 
L 776.339103 294.012597 
L 776.988672 290.841909 
L 777.638241 288.801607 
L 778.28781 287.491644 
L 778.612594 287.149131 
L 778.937379 286.995825 
L 779.262163 287.001477 
L 779.911732 287.34049 
L 781.535654 288.54098 
L 782.185223 288.875978 
L 782.510008 289.123704 
L 783.159577 290.060987 
L 784.458714 292.54743 
L 785.108283 293.317904 
L 785.757852 293.620644 
L 786.407421 293.556637 
L 787.706559 293.004405 
L 788.031343 295.334714 
L 788.680912 297.385975 
L 789.655266 298.506253 
L 791.603972 300.669297 
L 796.150955 306.140447 
L 796.475739 305.034558 
L 797.125308 300.862904 
L 798.099662 293.91851 
L 798.749231 290.900759 
L 799.3988 288.897254 
L 800.048368 287.575053 
L 800.373153 287.215336 
L 800.697937 287.042167 
L 801.022722 287.027732 
L 801.672291 287.330242 
L 804.595351 289.608888 
L 806.544058 293.100091 
L 807.193627 293.559271 
L 807.843195 293.599657 
L 808.817549 293.229764 
L 809.467118 292.946831 
L 809.791902 295.641799 
L 810.441471 298.02654 
L 811.09104 298.89527 
L 815.313238 303.379174 
L 818.236298 306.838282 
L 818.561083 305.673129 
L 819.210652 301.289615 
L 820.185005 293.999252 
L 820.834574 290.82805 
L 821.484143 288.720007 
L 822.133712 287.393288 
L 822.458496 287.056656 
L 822.783281 286.915454 
L 823.108065 286.9373 
L 823.757634 287.31023 
L 826.031125 289.325848 
L 827.005479 291.349479 
L 827.655047 292.603824 
L 828.304616 293.403159 
L 828.954185 293.700074 
L 829.603754 293.610253 
L 830.902892 293.001275 
L 831.227677 295.358194 
L 831.877245 297.482512 
L 832.526814 298.239962 
L 834.800306 300.602552 
L 839.996857 306.492595 
L 840.321641 305.328892 
L 840.97121 301.020369 
L 841.945564 293.917497 
L 842.595133 290.855966 
L 843.244702 288.84271 
L 843.89427 287.531249 
L 844.219055 287.18067 
L 844.543839 287.016287 
L 844.868624 287.009283 
L 845.518193 287.323209 
L 847.142115 288.584552 
L 847.791684 289.617209 
L 849.415606 292.951411 
L 850.065175 293.579152 
L 850.714744 293.715132 
L 851.364313 293.518664 
L 852.338666 293.035955 
L 852.663451 295.633062 
L 853.31302 297.977377 
L 853.962589 298.83357 
L 857.860002 303.034518 
L 861.107847 306.912301 
L 861.432631 305.742615 
L 862.0822 301.337775 
L 863.056554 294.007601 
L 863.706122 290.826024 
L 864.355691 288.788241 
L 865.00526 287.482118 
L 865.330045 287.141487 
L 865.654829 286.989715 
L 865.979614 286.996402 
L 866.629183 287.335638 
L 868.253105 288.524354 
L 868.902674 288.908964 
L 869.552243 289.473637 
L 870.201812 290.546828 
L 871.176165 292.385576 
L 871.825734 293.202174 
L 872.475303 293.560891 
L 873.124872 293.543706 
L 874.42401 293.023278 
L 874.748794 292.900532 
L 875.073579 295.496408 
L 876.047932 298.403977 
L 881.244483 304.773208 
L 883.19319 307.35786 
L 883.517974 306.203767 
L 884.167543 301.723787 
L 885.141897 294.137938 
L 885.791466 290.698696 
L 886.441035 288.361136 
L 887.090604 286.987713 
L 887.415388 286.679662 
L 887.740172 286.590762 
L 888.064957 286.679179 
L 888.714526 287.194881 
L 890.013664 288.428766 
L 890.988017 289.099903 
L 891.637586 290.098822 
L 892.936724 292.632849 
L 893.586293 293.379019 
L 894.235862 293.648059 
L 894.885431 293.553184 
L 896.184568 292.975101 
L 896.509353 295.351407 
L 897.158922 297.440043 
L 897.808491 298.157024 
L 899.757197 300.071334 
L 905.278533 305.98461 
L 905.603318 304.840912 
L 906.252887 300.667555 
L 907.22724 293.838652 
L 907.876809 290.912089 
L 908.526378 288.897208 
L 909.175947 287.571098 
L 909.500731 287.21148 
L 909.825516 287.038062 
L 910.1503 287.022632 
L 910.799869 287.322505 
L 912.099007 288.303618 
L 912.748576 289.216999 
L 914.697283 293.197529 
L 915.346851 293.707573 
L 915.99642 293.742629 
L 916.645989 293.482585 
L 917.295558 293.132466 
L 917.620343 295.408844 
L 918.269912 297.51246 
L 918.919481 298.316427 
L 920.543403 300.213156 
L 927.039092 308.264866 
L 927.363876 306.988999 
L 928.013445 302.168232 
L 928.987799 294.137132 
L 929.637368 290.645621 
L 930.286937 288.638301 
L 930.936506 287.385525 
L 931.26129 287.072222 
L 931.586074 286.944811 
L 931.910859 286.971288 
L 932.560428 287.333802 
L 933.859566 288.381576 
L 934.509135 289.404987 
L 936.133057 292.875804 
L 936.782626 293.559523 
L 937.432195 293.729236 
L 938.081764 293.544685 
L 939.056117 293.056692 
L 939.380901 295.801265 
L 940.03047 298.286455 
L 940.680039 299.200947 
L 945.876591 304.965871 
L 947.825297 307.357908 
L 948.150082 306.167661 
L 948.799651 301.64604 
L 949.774004 294.08316 
L 950.423573 290.764643 
L 951.073142 288.702238 
L 951.722711 287.407046 
L 952.047495 287.079808 
L 952.37228 286.943839 
L 952.697064 286.966882 
L 953.346633 287.334994 
L 954.970555 288.549561 
L 955.620124 288.884499 
L 955.944909 289.145188 
L 956.594478 290.137414 
L 957.893616 292.641105 
L 958.543185 293.37392 
L 959.192753 293.637147 
L 959.842322 293.54455 
L 961.14146 292.978542 
L 961.466245 295.260676 
L 962.440598 297.775518 
L 966.662796 302.79826 
L 969.585856 306.490375 
L 969.910641 305.380792 
L 970.56021 301.132449 
L 971.534563 293.992405 
L 972.184132 290.811562 
L 972.833701 288.693061 
L 973.48327 287.350423 
L 973.808054 287.006919 
L 974.132839 286.861974 
L 974.457623 286.882906 
L 975.107192 287.260112 
L 976.731114 288.512786 
L 977.380683 288.985165 
L 978.030252 289.974508 
L 979.32939 292.55633 
L 979.978959 293.334738 
L 980.628528 293.628527 
L 981.278097 293.548907 
L 982.577235 292.983216 
L 982.902019 295.583368 
L 983.551588 297.889327 
L 984.201157 298.710178 
L 988.09857 302.751931 
L 991.346415 306.41743 
L 991.671199 305.263174 
L 992.320768 300.980198 
L 993.295122 293.908756 
L 993.944691 290.859637 
L 994.59426 288.819974 
L 995.243828 287.5024 
L 995.568613 287.154829 
L 995.893397 286.996343 
L 996.218182 286.997476 
L 996.218182 286.997476 
" clip-path="url(#p0880aca31a)" style="fill: none; stroke-dasharray: 7.4,3.2; stroke-dashoffset: 0; stroke: #008000; stroke-width: 2"/>
   </g>
   <g id="line2d_16">
    <path d="M 184.581818 290.699613 
L 191.727076 290.806363 
L 197.573197 290.989614 
L 206.342377 290.324266 
L 211.863713 289.886399 
L 212.838066 289.841791 
L 214.786773 289.606265 
L 218.359402 289.466359 
L 220.957678 289.265494 
L 222.256815 289.254089 
L 222.906384 288.879223 
L 223.880738 288.7282 
L 228.752505 288.440203 
L 232.974703 288.341619 
L 234.923409 288.201604 
L 238.496038 287.679092 
L 243.367805 286.975088 
L 244.342159 286.888072 
L 244.666943 286.422709 
L 245.316512 286.14959 
L 246.940434 286.028485 
L 251.812201 285.898492 
L 258.632675 284.597787 
L 264.154011 283.576511 
L 267.077071 283.109711 
L 267.401855 282.813287 
L 271.299269 281.667008 
L 276.49582 280.377661 
L 277.470174 280.209639 
L 286.564138 277.665897 
L 287.213707 277.526023 
L 287.863276 277.128914 
L 290.136767 276.579417 
L 300.205086 274.279272 
L 308.649482 271.735518 
L 309.623835 271.523585 
L 309.948619 270.950352 
L 310.598188 270.534492 
L 311.897326 270.162222 
L 316.119524 269.355285 
L 318.068231 268.950034 
L 320.016938 268.096429 
L 322.290429 267.110878 
L 332.358747 263.436754 
L 334.632238 262.454092 
L 342.102281 259.562102 
L 343.401419 259.341472 
L 345.350126 258.602661 
L 348.922755 257.091969 
L 352.170599 255.686742 
L 353.469737 255.200118 
L 354.119306 254.577434 
L 355.418444 253.903728 
L 362.888486 250.632596 
L 365.161978 249.978117 
L 368.409822 248.445867 
L 373.281589 246.132397 
L 375.230296 245.409267 
L 375.55508 244.830253 
L 376.204649 244.31373 
L 377.503787 243.698326 
L 384.324261 240.985669 
L 385.623398 240.425594 
L 394.717363 235.717598 
L 397.640423 234.472481 
L 397.965208 233.850101 
L 398.939561 233.091362 
L 400.888268 232.104838 
L 408.033526 228.671255 
L 410.956586 226.806905 
L 415.828353 223.865958 
L 417.77706 222.782963 
L 419.400982 222.00267 
L 420.050551 221.340068 
L 421.349689 220.489019 
L 428.494947 216.335751 
L 429.794085 215.973055 
L 431.093223 215.254545 
L 437.913696 211.143109 
L 440.511972 209.742681 
L 441.161541 209.415137 
L 441.486325 208.841541 
L 442.460679 208.020539 
L 445.058954 206.472226 
L 450.255506 203.544736 
L 451.554644 202.961264 
L 454.802488 200.819408 
L 463.246884 195.455171 
L 463.571669 194.795363 
L 464.546022 193.882184 
L 466.819513 192.383464 
L 474.61434 187.3558 
L 476.887831 185.608524 
L 480.785245 182.66587 
L 482.733952 181.249832 
L 485.007443 179.746221 
L 485.332227 179.180164 
L 486.631365 177.973671 
L 492.152701 173.704739 
L 494.426192 171.984195 
L 495.72533 171.373773 
L 497.024468 170.34735 
L 499.297959 168.566793 
L 501.896235 166.489901 
L 503.844942 164.957383 
L 506.118433 163.390517 
L 506.768002 162.450978 
L 508.06714 161.306568 
L 515.537182 155.452023 
L 517.161104 154.526133 
L 522.032871 150.460593 
L 525.930285 147.297004 
L 527.878992 145.947379 
L 528.203776 145.199922 
L 528.853345 144.439082 
L 530.152483 143.363268 
L 536.972956 138.324997 
L 538.272094 137.342695 
L 542.819077 133.258413 
L 548.340413 128.561577 
L 549.63955 127.580185 
L 549.964335 126.872561 
L 550.938688 125.762075 
L 553.212179 123.718276 
L 559.0583 118.688973 
L 560.032653 118.014439 
L 561.656575 116.373637 
L 563.605282 114.50718 
L 566.528342 111.71657 
L 569.451402 108.85009 
L 571.075325 107.360209 
L 571.724894 106.251244 
L 573.024031 104.804794 
L 580.818858 96.904624 
L 582.442781 95.574008 
L 588.288901 89.28 
L 588.613685 492.48 
L 591.211961 489.754564 
L 593.160668 487.878422 
L 593.485452 487.115805 
L 594.459806 485.799476 
L 597.382866 482.582923 
L 603.228986 476.416623 
L 604.20334 475.438302 
L 608.100753 470.864901 
L 614.596442 463.600938 
L 615.246011 462.315481 
L 616.545149 460.684887 
L 623.690407 452.592626 
L 625.314329 450.977927 
L 633.433941 441.081247 
L 636.357001 437.806797 
L 636.681785 436.940553 
L 637.656139 435.468205 
L 640.254414 432.284504 
L 648.049242 422.792586 
L 649.997948 420.288553 
L 653.570577 415.740023 
L 655.844069 412.92997 
L 658.11756 410.328029 
L 658.442344 409.489444 
L 659.741482 407.564805 
L 663.96368 402.225016 
L 667.536309 397.807449 
L 668.510662 396.734999 
L 679.22855 382.505979 
L 679.878119 381.176446 
L 681.502041 378.832593 
L 688.647299 369.161516 
L 689.946437 367.59547 
L 699.365186 354.498114 
L 701.313893 352.054106 
L 701.638677 351.086204 
L 702.613031 349.434571 
L 705.211306 345.872019 
L 711.706996 337.056062 
L 713.980487 333.580181 
L 722.749667 321.596356 
L 723.074452 321.188947 
L 723.724021 319.793863 
L 725.023158 317.837289 
L 732.168416 307.994016 
L 733.467554 306.442409 
L 738.98889 298.692917 
L 742.886304 293.422709 
L 744.185441 291.799598 
L 744.83501 290.529904 
L 746.458933 288.216848 
L 753.928975 278.197352 
L 754.903329 277.114459 
L 756.852035 274.3905 
L 762.048587 267.379114 
L 764.646862 264.086149 
L 765.946 262.549807 
L 766.595569 261.074499 
L 767.894707 259.201657 
L 774.715181 250.408395 
L 776.339103 248.428707 
L 779.586948 243.837762 
L 787.706559 233.294855 
L 788.031343 232.397868 
L 789.330481 230.363249 
L 793.227895 225.177374 
L 797.125308 220.156965 
L 798.099662 218.876748 
L 801.022722 214.578508 
L 804.920135 209.176196 
L 807.193627 206.092074 
L 809.467118 203.208791 
L 810.116687 201.784372 
L 811.415825 199.850365 
L 818.561083 190.153399 
L 819.86022 188.590897 
L 830.902892 172.907185 
L 831.552461 171.511006 
L 833.176383 168.97334 
L 840.646426 158.021891 
L 841.620779 156.803078 
L 847.142115 148.561449 
L 850.714744 143.254686 
L 852.338666 141.011736 
L 852.988235 139.478641 
L 854.287373 137.376877 
L 861.757416 126.321811 
L 863.056554 124.50161 
L 867.278752 117.869515 
L 872.475303 110.043868 
L 874.748794 106.966104 
L 875.073579 105.926424 
L 876.047932 104.148464 
L 878.321423 100.766021 
L 885.141897 90.697718 
L 885.791466 89.499141 
L 886.11625 492.462707 
L 887.740172 489.753366 
L 896.509353 476.295369 
L 898.133275 473.703194 
L 905.928102 462.104717 
L 907.22724 460.434608 
L 914.372498 449.904061 
L 917.295558 445.977734 
L 917.945127 444.534254 
L 919.244265 442.49619 
L 927.688661 430.285932 
L 928.663014 429.045613 
L 939.056117 413.366644 
L 939.705686 411.782553 
L 941.004824 409.653453 
L 948.799651 397.983987 
L 950.098789 395.949137 
L 953.021849 391.170686 
L 959.842322 380.709325 
L 961.14146 378.907627 
L 961.466245 377.863881 
L 962.765383 375.510041 
L 966.338012 370.026689 
L 971.859347 361.446046 
L 973.808054 357.97934 
L 982.902019 343.435425 
L 984.201157 341.161691 
L 991.346415 329.828713 
L 994.269475 325.462892 
L 996.218182 322.307187 
L 996.218182 322.307187 
" clip-path="url(#p0880aca31a)" style="fill: none; stroke-dasharray: 2,3.3; stroke-dashoffset: 0; stroke: #0000ff; stroke-width: 2"/>
   </g>
   <g id="patch_3">
    <path d="M 144 512.64 
L 144 69.12 
" style="fill: none; stroke: #000000; stroke-width: 0.8; stroke-linejoin: miter; stroke-linecap: square"/>
   </g>
   <g id="patch_4">
    <path d="M 1036.8 512.64 
L 1036.8 69.12 
" style="fill: none; stroke: #000000; stroke-width: 0.8; stroke-linejoin: miter; stroke-linecap: square"/>
   </g>
   <g id="patch_5">
    <path d="M 144 512.64 
L 1036.8 512.64 
" style="fill: none; stroke: #000000; stroke-width: 0.8; stroke-linejoin: miter; stroke-linecap: square"/>
   </g>
   <g id="patch_6">
    <path d="M 144 69.12 
L 1036.8 69.12 
" style="fill: none; stroke: #000000; stroke-width: 0.8; stroke-linejoin: miter; stroke-linecap: square"/>
   </g>
   <g id="text_16">
    <!-- 躯干姿态曲线 -->
    <g transform="translate(518.4 63.12)scale(0.24 -0.24)">
     <defs>
      <path id="FangSong-8eaf" d="M 1775 275 
L 2525 -100 
Q 2600 25 2575 425 
L 2600 1825 
Q 1525 500 500 -100 
L 450 0 
Q 1275 550 2250 1800 
Q 1075 1525 925 1450 
L 650 1725 
Q 950 1750 1350 1825 
L 1350 3575 
Q 1325 3975 1275 4275 
L 1350 4300 
L 1550 3975 
L 1800 4000 
Q 1925 4400 1987 4687 
Q 2050 4975 1975 5175 
L 2050 5225 
L 2375 4825 
Q 2325 4825 2212 4625 
Q 2100 4425 1950 4025 
L 2600 4125 
L 2750 4375 
L 3050 4125 
L 2850 3875 
L 2825 550 
Q 2875 -200 2625 -625 
Q 2300 -200 1725 175 
L 1775 275 
z
M 5700 4225 
Q 5500 4275 3650 4000 
L 3625 75 
Q 5475 200 5650 300 
L 5925 25 
Q 5775 50 3625 -150 
L 3450 -300 
L 3225 25 
L 3400 100 
L 3425 3850 
Q 3425 4275 3325 4675 
L 3425 4700 
L 3625 4225 
Q 5375 4425 5375 4500 
L 5700 4225 
z
M 1575 3225 
Q 2175 3300 2300 3375 
L 2500 3150 
Q 2200 3125 1575 3025 
L 1575 2600 
Q 2175 2675 2325 2725 
L 2525 2500 
Q 2350 2475 1575 2375 
L 1575 1875 
L 2600 2050 
L 2625 3900 
L 1575 3750 
L 1575 3225 
z
M 4825 2200 
Q 5200 1475 5450 1125 
Q 5375 850 5275 650 
Q 5150 1000 4700 2000 
Q 4350 1275 3750 550 
L 3675 625 
Q 4200 1400 4550 2225 
L 3925 3575 
L 4000 3625 
L 4675 2450 
Q 4850 2800 5012 3250 
Q 5175 3700 5075 3875 
L 5125 3900 
L 5425 3450 
Q 5350 3450 5187 3087 
Q 5025 2725 4825 2200 
z
" transform="scale(0.015625)"/>
      <path id="FangSong-5e72" d="M 2875 -175 
Q 3050 -50 3025 450 
L 3050 2575 
Q 1125 2400 950 2375 
L 625 2650 
Q 1025 2625 3050 2800 
L 3075 4425 
Q 1800 4300 1650 4275 
L 1350 4550 
Q 1825 4550 3150 4675 
Q 4475 4800 4725 4875 
L 5025 4600 
Q 4575 4600 3300 4450 
L 3275 2825 
Q 5550 3050 5600 3100 
L 5925 2800 
Q 5425 2800 3275 2600 
L 3250 -225 
Q 3275 -625 3175 -675 
L 2875 -175 
z
" transform="scale(0.015625)"/>
      <path id="FangSong-66f2" d="M 5250 3550 
L 5550 3275 
L 5350 3100 
Q 5050 450 4950 25 
Q 4850 -400 4812 -312 
Q 4775 -225 4725 150 
L 1625 -75 
Q 1650 -425 1575 -375 
L 1275 0 
Q 1400 200 1375 400 
L 1250 2575 
Q 1250 3025 1125 3400 
L 1225 3425 
L 1450 3000 
L 2575 3100 
L 2575 4250 
Q 2600 4700 2425 4925 
L 2500 4975 
L 2900 4575 
Q 2775 4525 2800 4225 
L 2800 3125 
L 3675 3200 
L 3675 4525 
Q 3675 5050 3500 5175 
L 3550 5250 
L 4050 4875 
Q 3875 4825 3900 4450 
L 3900 3225 
L 5075 3350 
L 5250 3550 
z
M 3900 1925 
Q 4500 2000 4475 2050 
L 4700 1750 
Q 4400 1750 3900 1700 
L 3900 325 
Q 4550 375 4550 425 
L 4725 175 
Q 4850 475 5075 3075 
L 3900 3000 
L 3900 1925 
z
M 2575 1550 
Q 2075 1500 2000 1450 
L 1700 1725 
Q 1975 1725 2575 1775 
L 2575 2875 
L 1500 2775 
L 1625 175 
L 2575 225 
L 2575 1550 
z
M 2800 250 
L 3675 300 
L 3675 1675 
L 2800 1575 
L 2800 250 
z
M 3675 1900 
L 3675 2975 
L 2800 2900 
L 2800 1800 
L 3675 1900 
z
" transform="scale(0.015625)"/>
      <path id="FangSong-7ebf" d="M 4100 1125 
Q 4450 1450 4637 1700 
Q 4825 1950 4800 2150 
L 4875 2175 
L 5050 1625 
Q 4950 1650 4775 1475 
Q 4600 1300 4200 875 
Q 4800 0 5425 -200 
L 5475 800 
L 5575 800 
Q 5650 -350 5725 -625 
Q 4700 -350 4025 725 
Q 3425 150 2325 -350 
L 2275 -250 
Q 3150 175 3925 950 
Q 3750 1350 3575 2050 
Q 2975 1875 2900 1825 
L 2550 1975 
Q 2875 2050 3550 2250 
Q 3500 2575 3425 3025 
Q 3075 2950 2950 2875 
L 2650 3025 
Q 2850 3075 3425 3225 
Q 3325 4025 3300 4462 
Q 3275 4900 3125 5125 
L 3200 5200 
L 3650 4825 
Q 3550 4650 3562 4325 
Q 3575 4000 3625 3325 
Q 4550 3600 4600 3675 
L 4950 3475 
Q 4600 3400 3650 3100 
Q 3700 2600 3775 2300 
Q 5000 2725 5050 2800 
L 5400 2600 
Q 5225 2575 3800 2125 
Q 3925 1500 4100 1125 
z
M 2525 1725 
Q 1375 1350 1175 1225 
L 950 1500 
L 1225 1575 
L 1950 2725 
Q 1175 2575 975 2450 
L 775 2750 
L 1050 2875 
Q 1550 3800 1737 4250 
Q 1925 4700 1850 4900 
L 1925 4950 
L 2225 4475 
Q 2125 4525 1812 3937 
Q 1500 3350 1225 2800 
L 2075 2925 
Q 2450 3500 2375 3750 
L 2450 3800 
L 2700 3325 
Q 2600 3325 2337 2925 
Q 2075 2525 1475 1625 
L 2500 1825 
L 2525 1725 
z
M 2825 825 
Q 1100 50 1000 -25 
L 625 200 
Q 1000 250 2775 950 
L 2825 825 
z
M 4700 3900 
Q 4450 4175 3925 4650 
L 3975 4750 
Q 4525 4475 4700 4400 
L 4700 3900 
z
" transform="scale(0.015625)"/>
     </defs>
     <use xlink:href="#FangSong-8eaf"/>
     <use xlink:href="#FangSong-5e72" x="100"/>
     <use xlink:href="#FangSong-59ff" x="200"/>
     <use xlink:href="#FangSong-6001" x="300"/>
     <use xlink:href="#FangSong-66f2" x="400"/>
     <use xlink:href="#FangSong-7ebf" x="500"/>
    </g>
   </g>
   <g id="legend_1">
    <g id="patch_7">
     <path d="M 918.809375 169.991875 
L 1022.8 169.991875 
Q 1026.8 169.991875 1026.8 165.991875 
L 1026.8 83.12 
Q 1026.8 79.12 1022.8 79.12 
L 918.809375 79.12 
Q 914.809375 79.12 914.809375 83.12 
L 914.809375 165.991875 
Q 914.809375 169.991875 918.809375 169.991875 
z
" style="fill: #ffffff; opacity: 0.8; stroke: #cccccc; stroke-linejoin: miter"/>
    </g>
    <g id="line2d_17">
     <path d="M 922.809375 94.12 
L 942.809375 94.12 
L 962.809375 94.12 
" style="fill: none; stroke: #ff0000; stroke-width: 2; stroke-linecap: square"/>
    </g>
    <g id="text_17">
     <!-- roll -->
     <g transform="translate(978.809375 101.12)scale(0.2 -0.2)">
      <defs>
       <path id="TimesNewRomanPSMT-72" d="M 1038 2947 
L 1038 2303 
Q 1397 2947 1775 2947 
Q 1947 2947 2059 2842 
Q 2172 2738 2172 2600 
Q 2172 2478 2090 2393 
Q 2009 2309 1897 2309 
Q 1788 2309 1652 2417 
Q 1516 2525 1450 2525 
Q 1394 2525 1328 2463 
Q 1188 2334 1038 2041 
L 1038 669 
Q 1038 431 1097 309 
Q 1138 225 1241 169 
Q 1344 113 1538 113 
L 1538 0 
L 72 0 
L 72 113 
Q 291 113 397 181 
Q 475 231 506 341 
Q 522 394 522 644 
L 522 1753 
Q 522 2253 501 2348 
Q 481 2444 426 2487 
Q 372 2531 291 2531 
Q 194 2531 72 2484 
L 41 2597 
L 906 2947 
L 1038 2947 
z
" transform="scale(0.015625)"/>
       <path id="TimesNewRomanPSMT-6f" d="M 1600 2947 
Q 2250 2947 2644 2453 
Q 2978 2031 2978 1484 
Q 2978 1100 2793 706 
Q 2609 313 2286 112 
Q 1963 -88 1566 -88 
Q 919 -88 538 428 
Q 216 863 216 1403 
Q 216 1797 411 2186 
Q 606 2575 925 2761 
Q 1244 2947 1600 2947 
z
M 1503 2744 
Q 1338 2744 1170 2645 
Q 1003 2547 900 2300 
Q 797 2053 797 1666 
Q 797 1041 1045 587 
Q 1294 134 1700 134 
Q 2003 134 2200 384 
Q 2397 634 2397 1244 
Q 2397 2006 2069 2444 
Q 1847 2744 1503 2744 
z
" transform="scale(0.015625)"/>
       <path id="TimesNewRomanPSMT-6c" d="M 1184 4444 
L 1184 647 
Q 1184 378 1223 290 
Q 1263 203 1344 158 
Q 1425 113 1647 113 
L 1647 0 
L 244 0 
L 244 113 
Q 441 113 512 153 
Q 584 194 625 287 
Q 666 381 666 647 
L 666 3247 
Q 666 3731 644 3842 
Q 622 3953 573 3993 
Q 525 4034 450 4034 
Q 369 4034 244 3984 
L 191 4094 
L 1044 4444 
L 1184 4444 
z
" transform="scale(0.015625)"/>
      </defs>
      <use xlink:href="#TimesNewRomanPSMT-72"/>
      <use xlink:href="#TimesNewRomanPSMT-6f" x="33.300781"/>
      <use xlink:href="#TimesNewRomanPSMT-6c" x="83.300781"/>
      <use xlink:href="#TimesNewRomanPSMT-6c" x="111.083984"/>
     </g>
    </g>
    <g id="line2d_18">
     <path d="M 922.809375 122.398125 
L 942.809375 122.398125 
L 962.809375 122.398125 
" style="fill: none; stroke-dasharray: 7.4,3.2; stroke-dashoffset: 0; stroke: #008000; stroke-width: 2"/>
    </g>
    <g id="text_18">
     <!-- pitch -->
     <g transform="translate(978.809375 129.398125)scale(0.2 -0.2)">
      <defs>
       <path id="TimesNewRomanPSMT-70" d="M -6 2578 
L 875 2934 
L 994 2934 
L 994 2266 
Q 1216 2644 1439 2795 
Q 1663 2947 1909 2947 
Q 2341 2947 2628 2609 
Q 2981 2197 2981 1534 
Q 2981 794 2556 309 
Q 2206 -88 1675 -88 
Q 1444 -88 1275 -22 
Q 1150 25 994 166 
L 994 -706 
Q 994 -1000 1030 -1079 
Q 1066 -1159 1155 -1206 
Q 1244 -1253 1478 -1253 
L 1478 -1369 
L -22 -1369 
L -22 -1253 
L 56 -1253 
Q 228 -1256 350 -1188 
Q 409 -1153 442 -1076 
Q 475 -1000 475 -688 
L 475 2019 
Q 475 2297 450 2372 
Q 425 2447 370 2484 
Q 316 2522 222 2522 
Q 147 2522 31 2478 
L -6 2578 
z
M 994 2081 
L 994 1013 
Q 994 666 1022 556 
Q 1066 375 1236 237 
Q 1406 100 1666 100 
Q 1978 100 2172 344 
Q 2425 663 2425 1241 
Q 2425 1897 2138 2250 
Q 1938 2494 1663 2494 
Q 1513 2494 1366 2419 
Q 1253 2363 994 2081 
z
" transform="scale(0.015625)"/>
       <path id="TimesNewRomanPSMT-69" d="M 928 4444 
Q 1059 4444 1151 4351 
Q 1244 4259 1244 4128 
Q 1244 3997 1151 3903 
Q 1059 3809 928 3809 
Q 797 3809 703 3903 
Q 609 3997 609 4128 
Q 609 4259 701 4351 
Q 794 4444 928 4444 
z
M 1188 2947 
L 1188 647 
Q 1188 378 1227 289 
Q 1266 200 1342 156 
Q 1419 113 1622 113 
L 1622 0 
L 231 0 
L 231 113 
Q 441 113 512 153 
Q 584 194 626 287 
Q 669 381 669 647 
L 669 1750 
Q 669 2216 641 2353 
Q 619 2453 572 2492 
Q 525 2531 444 2531 
Q 356 2531 231 2484 
L 188 2597 
L 1050 2947 
L 1188 2947 
z
" transform="scale(0.015625)"/>
       <path id="TimesNewRomanPSMT-74" d="M 1031 3803 
L 1031 2863 
L 1700 2863 
L 1700 2644 
L 1031 2644 
L 1031 788 
Q 1031 509 1111 412 
Q 1191 316 1316 316 
Q 1419 316 1516 380 
Q 1613 444 1666 569 
L 1788 569 
Q 1678 263 1478 108 
Q 1278 -47 1066 -47 
Q 922 -47 784 33 
Q 647 113 581 261 
Q 516 409 516 719 
L 516 2644 
L 63 2644 
L 63 2747 
Q 234 2816 414 2980 
Q 594 3144 734 3369 
Q 806 3488 934 3803 
L 1031 3803 
z
" transform="scale(0.015625)"/>
       <path id="TimesNewRomanPSMT-63" d="M 2631 1088 
Q 2516 522 2178 217 
Q 1841 -88 1431 -88 
Q 944 -88 581 321 
Q 219 731 219 1428 
Q 219 2103 620 2525 
Q 1022 2947 1584 2947 
Q 2006 2947 2278 2723 
Q 2550 2500 2550 2259 
Q 2550 2141 2473 2067 
Q 2397 1994 2259 1994 
Q 2075 1994 1981 2113 
Q 1928 2178 1911 2362 
Q 1894 2547 1784 2644 
Q 1675 2738 1481 2738 
Q 1169 2738 978 2506 
Q 725 2200 725 1697 
Q 725 1184 976 792 
Q 1228 400 1656 400 
Q 1963 400 2206 609 
Q 2378 753 2541 1131 
L 2631 1088 
z
" transform="scale(0.015625)"/>
       <path id="TimesNewRomanPSMT-68" d="M 1041 4444 
L 1041 2350 
Q 1388 2731 1591 2839 
Q 1794 2947 1997 2947 
Q 2241 2947 2416 2812 
Q 2591 2678 2675 2391 
Q 2734 2191 2734 1659 
L 2734 647 
Q 2734 375 2778 275 
Q 2809 200 2884 156 
Q 2959 113 3159 113 
L 3159 0 
L 1753 0 
L 1753 113 
L 1819 113 
Q 2019 113 2097 173 
Q 2175 234 2206 353 
Q 2216 403 2216 647 
L 2216 1659 
Q 2216 2128 2167 2275 
Q 2119 2422 2012 2495 
Q 1906 2569 1756 2569 
Q 1603 2569 1437 2487 
Q 1272 2406 1041 2159 
L 1041 647 
Q 1041 353 1073 281 
Q 1106 209 1195 161 
Q 1284 113 1503 113 
L 1503 0 
L 84 0 
L 84 113 
Q 275 113 384 172 
Q 447 203 484 290 
Q 522 378 522 647 
L 522 3238 
Q 522 3728 498 3840 
Q 475 3953 426 3993 
Q 378 4034 297 4034 
Q 231 4034 84 3984 
L 41 4094 
L 897 4444 
L 1041 4444 
z
" transform="scale(0.015625)"/>
      </defs>
      <use xlink:href="#TimesNewRomanPSMT-70"/>
      <use xlink:href="#TimesNewRomanPSMT-69" x="50"/>
      <use xlink:href="#TimesNewRomanPSMT-74" x="77.783203"/>
      <use xlink:href="#TimesNewRomanPSMT-63" x="105.566406"/>
      <use xlink:href="#TimesNewRomanPSMT-68" x="149.951172"/>
     </g>
    </g>
    <g id="line2d_19">
     <path d="M 922.809375 150.67625 
L 942.809375 150.67625 
L 962.809375 150.67625 
" style="fill: none; stroke-dasharray: 2,3.3; stroke-dashoffset: 0; stroke: #0000ff; stroke-width: 2"/>
    </g>
    <g id="text_19">
     <!-- yaw -->
     <g transform="translate(978.809375 157.67625)scale(0.2 -0.2)">
      <defs>
       <path id="TimesNewRomanPSMT-79" d="M 38 2863 
L 1372 2863 
L 1372 2747 
L 1306 2747 
Q 1166 2747 1095 2686 
Q 1025 2625 1025 2534 
Q 1025 2413 1128 2197 
L 1825 753 
L 2466 2334 
Q 2519 2463 2519 2588 
Q 2519 2644 2497 2672 
Q 2472 2706 2419 2726 
Q 2366 2747 2231 2747 
L 2231 2863 
L 3163 2863 
L 3163 2747 
Q 3047 2734 2984 2696 
Q 2922 2659 2847 2556 
Q 2819 2513 2741 2316 
L 1575 -541 
Q 1406 -956 1132 -1168 
Q 859 -1381 606 -1381 
Q 422 -1381 303 -1275 
Q 184 -1169 184 -1031 
Q 184 -900 270 -820 
Q 356 -741 506 -741 
Q 609 -741 788 -809 
Q 913 -856 944 -856 
Q 1038 -856 1148 -759 
Q 1259 -663 1372 -384 
L 1575 113 
L 547 2272 
Q 500 2369 397 2513 
Q 319 2622 269 2659 
Q 197 2709 38 2747 
L 38 2863 
z
" transform="scale(0.015625)"/>
       <path id="TimesNewRomanPSMT-61" d="M 1822 413 
Q 1381 72 1269 19 
Q 1100 -59 909 -59 
Q 613 -59 420 144 
Q 228 347 228 678 
Q 228 888 322 1041 
Q 450 1253 767 1440 
Q 1084 1628 1822 1897 
L 1822 2009 
Q 1822 2438 1686 2597 
Q 1550 2756 1291 2756 
Q 1094 2756 978 2650 
Q 859 2544 859 2406 
L 866 2225 
Q 866 2081 792 2003 
Q 719 1925 600 1925 
Q 484 1925 411 2006 
Q 338 2088 338 2228 
Q 338 2497 613 2722 
Q 888 2947 1384 2947 
Q 1766 2947 2009 2819 
Q 2194 2722 2281 2516 
Q 2338 2381 2338 1966 
L 2338 994 
Q 2338 584 2353 492 
Q 2369 400 2405 369 
Q 2441 338 2488 338 
Q 2538 338 2575 359 
Q 2641 400 2828 588 
L 2828 413 
Q 2478 -56 2159 -56 
Q 2006 -56 1915 50 
Q 1825 156 1822 413 
z
M 1822 616 
L 1822 1706 
Q 1350 1519 1213 1441 
Q 966 1303 859 1153 
Q 753 1003 753 825 
Q 753 600 887 451 
Q 1022 303 1197 303 
Q 1434 303 1822 616 
z
" transform="scale(0.015625)"/>
       <path id="TimesNewRomanPSMT-77" d="M 41 2863 
L 1241 2863 
L 1241 2747 
Q 1075 2734 1023 2687 
Q 972 2641 972 2553 
Q 972 2456 1025 2319 
L 1638 672 
L 2253 2013 
L 2091 2434 
Q 2016 2622 1894 2694 
Q 1825 2738 1638 2747 
L 1638 2863 
L 3000 2863 
L 3000 2747 
Q 2775 2738 2681 2666 
Q 2619 2616 2619 2506 
Q 2619 2444 2644 2378 
L 3294 734 
L 3897 2319 
Q 3959 2488 3959 2588 
Q 3959 2647 3898 2694 
Q 3838 2741 3659 2747 
L 3659 2863 
L 4563 2863 
L 4563 2747 
Q 4291 2706 4163 2378 
L 3206 -88 
L 3078 -88 
L 2363 1741 
L 1528 -88 
L 1413 -88 
L 494 2319 
Q 403 2547 315 2626 
Q 228 2706 41 2747 
L 41 2863 
z
" transform="scale(0.015625)"/>
      </defs>
      <use xlink:href="#TimesNewRomanPSMT-79"/>
      <use xlink:href="#TimesNewRomanPSMT-61" x="50"/>
      <use xlink:href="#TimesNewRomanPSMT-77" x="94.384766"/>
     </g>
    </g>
   </g>
  </g>
 </g>
 <defs>
  <clipPath id="p0880aca31a">
   <rect x="144" y="69.12" width="892.8" height="443.52"/>
  </clipPath>
 </defs>
</svg>
