<?xml version="1.0" encoding="utf-8" standalone="no"?>
<!DOCTYPE svg PUBLIC "-//W3C//DTD SVG 1.1//EN"
  "http://www.w3.org/Graphics/SVG/1.1/DTD/svg11.dtd">
<svg xmlns:xlink="http://www.w3.org/1999/xlink" width="987.99375pt" height="419.7525pt" viewBox="0 0 987.99375 419.7525" xmlns="http://www.w3.org/2000/svg" version="1.1">
 <metadata>
  <rdf:RDF xmlns:dc="http://purl.org/dc/elements/1.1/" xmlns:cc="http://creativecommons.org/ns#" xmlns:rdf="http://www.w3.org/1999/02/22-rdf-syntax-ns#">
   <cc:Work>
    <dc:type rdf:resource="http://purl.org/dc/dcmitype/StillImage"/>
    <dc:date>2022-10-12T09:48:35.191487</dc:date>
    <dc:format>image/svg+xml</dc:format>
    <dc:creator>
     <cc:Agent>
      <dc:title>Matplotlib v3.5.1, https://matplotlib.org/</dc:title>
     </cc:Agent>
    </dc:creator>
   </cc:Work>
  </rdf:RDF>
 </metadata>
 <defs>
  <style type="text/css">*{stroke-linejoin: round; stroke-linecap: butt}</style>
 </defs>
 <g id="figure_1">
  <g id="patch_1">
   <path d="M 0 419.7525 
L 987.99375 419.7525 
L 987.99375 0 
L 0 0 
z
" style="fill: #ffffff"/>
  </g>
  <g id="axes_1">
   <g id="patch_2">
    <path d="M 87.99375 364.87125 
L 980.79375 364.87125 
L 980.79375 32.23125 
L 87.99375 32.23125 
z
" style="fill: #ffffff"/>
   </g>
   <g id="matplotlib.axis_1">
    <g id="xtick_1">
     <g id="line2d_1">
      <defs>
       <path id="m916a381a90" d="M 0 0 
L 0 3.5 
" style="stroke: #000000; stroke-width: 0.8"/>
      </defs>
      <g>
       <use xlink:href="#m916a381a90" x="127.763119" y="364.87125" style="stroke: #000000; stroke-width: 0.8"/>
      </g>
     </g>
     <g id="text_1">
      <!-- 0 -->
      <g transform="translate(122.763119 385.75875)scale(0.2 -0.2)">
       <defs>
        <path id="TimesNewRomanPSMT-30" d="M 231 2094 
Q 231 2819 450 3342 
Q 669 3866 1031 4122 
Q 1313 4325 1613 4325 
Q 2100 4325 2488 3828 
Q 2972 3213 2972 2159 
Q 2972 1422 2759 906 
Q 2547 391 2217 158 
Q 1888 -75 1581 -75 
Q 975 -75 572 641 
Q 231 1244 231 2094 
z
M 844 2016 
Q 844 1141 1059 588 
Q 1238 122 1591 122 
Q 1759 122 1940 273 
Q 2122 425 2216 781 
Q 2359 1319 2359 2297 
Q 2359 3022 2209 3506 
Q 2097 3866 1919 4016 
Q 1791 4119 1609 4119 
Q 1397 4119 1231 3928 
Q 1006 3669 925 3112 
Q 844 2556 844 2016 
z
" transform="scale(0.015625)"/>
       </defs>
       <use xlink:href="#TimesNewRomanPSMT-30"/>
      </g>
     </g>
    </g>
    <g id="xtick_2">
     <g id="line2d_2">
      <g>
       <use xlink:href="#m916a381a90" x="290.252882" y="364.87125" style="stroke: #000000; stroke-width: 0.8"/>
      </g>
     </g>
     <g id="text_2">
      <!-- 2 -->
      <g transform="translate(285.252882 385.75875)scale(0.2 -0.2)">
       <defs>
        <path id="TimesNewRomanPSMT-32" d="M 2934 816 
L 2638 0 
L 138 0 
L 138 116 
Q 1241 1122 1691 1759 
Q 2141 2397 2141 2925 
Q 2141 3328 1894 3587 
Q 1647 3847 1303 3847 
Q 991 3847 742 3664 
Q 494 3481 375 3128 
L 259 3128 
Q 338 3706 661 4015 
Q 984 4325 1469 4325 
Q 1984 4325 2329 3994 
Q 2675 3663 2675 3213 
Q 2675 2891 2525 2569 
Q 2294 2063 1775 1497 
Q 997 647 803 472 
L 1909 472 
Q 2247 472 2383 497 
Q 2519 522 2628 598 
Q 2738 675 2819 816 
L 2934 816 
z
" transform="scale(0.015625)"/>
       </defs>
       <use xlink:href="#TimesNewRomanPSMT-32"/>
      </g>
     </g>
    </g>
    <g id="xtick_3">
     <g id="line2d_3">
      <g>
       <use xlink:href="#m916a381a90" x="452.742644" y="364.87125" style="stroke: #000000; stroke-width: 0.8"/>
      </g>
     </g>
     <g id="text_3">
      <!-- 4 -->
      <g transform="translate(447.742644 385.75875)scale(0.2 -0.2)">
       <defs>
        <path id="TimesNewRomanPSMT-34" d="M 2978 1563 
L 2978 1119 
L 2409 1119 
L 2409 0 
L 1894 0 
L 1894 1119 
L 100 1119 
L 100 1519 
L 2066 4325 
L 2409 4325 
L 2409 1563 
L 2978 1563 
z
M 1894 1563 
L 1894 3666 
L 406 1563 
L 1894 1563 
z
" transform="scale(0.015625)"/>
       </defs>
       <use xlink:href="#TimesNewRomanPSMT-34"/>
      </g>
     </g>
    </g>
    <g id="xtick_4">
     <g id="line2d_4">
      <g>
       <use xlink:href="#m916a381a90" x="615.232407" y="364.87125" style="stroke: #000000; stroke-width: 0.8"/>
      </g>
     </g>
     <g id="text_4">
      <!-- 6 -->
      <g transform="translate(610.232407 385.75875)scale(0.2 -0.2)">
       <defs>
        <path id="TimesNewRomanPSMT-36" d="M 2869 4325 
L 2869 4209 
Q 2456 4169 2195 4045 
Q 1934 3922 1679 3669 
Q 1425 3416 1258 3105 
Q 1091 2794 978 2366 
Q 1428 2675 1881 2675 
Q 2316 2675 2634 2325 
Q 2953 1975 2953 1425 
Q 2953 894 2631 456 
Q 2244 -75 1606 -75 
Q 1172 -75 869 213 
Q 275 772 275 1663 
Q 275 2231 503 2743 
Q 731 3256 1154 3653 
Q 1578 4050 1965 4187 
Q 2353 4325 2688 4325 
L 2869 4325 
z
M 925 2138 
Q 869 1716 869 1456 
Q 869 1156 980 804 
Q 1091 453 1309 247 
Q 1469 100 1697 100 
Q 1969 100 2183 356 
Q 2397 613 2397 1088 
Q 2397 1622 2184 2012 
Q 1972 2403 1581 2403 
Q 1463 2403 1327 2353 
Q 1191 2303 925 2138 
z
" transform="scale(0.015625)"/>
       </defs>
       <use xlink:href="#TimesNewRomanPSMT-36"/>
      </g>
     </g>
    </g>
    <g id="xtick_5">
     <g id="line2d_5">
      <g>
       <use xlink:href="#m916a381a90" x="777.722169" y="364.87125" style="stroke: #000000; stroke-width: 0.8"/>
      </g>
     </g>
     <g id="text_5">
      <!-- 8 -->
      <g transform="translate(772.722169 385.75875)scale(0.2 -0.2)">
       <defs>
        <path id="TimesNewRomanPSMT-38" d="M 1228 2134 
Q 725 2547 579 2797 
Q 434 3047 434 3316 
Q 434 3728 753 4026 
Q 1072 4325 1600 4325 
Q 2113 4325 2425 4047 
Q 2738 3769 2738 3413 
Q 2738 3175 2569 2928 
Q 2400 2681 1866 2347 
Q 2416 1922 2594 1678 
Q 2831 1359 2831 1006 
Q 2831 559 2490 242 
Q 2150 -75 1597 -75 
Q 994 -75 656 303 
Q 388 606 388 966 
Q 388 1247 577 1523 
Q 766 1800 1228 2134 
z
M 1719 2469 
Q 2094 2806 2194 3001 
Q 2294 3197 2294 3444 
Q 2294 3772 2109 3958 
Q 1925 4144 1606 4144 
Q 1288 4144 1088 3959 
Q 888 3775 888 3528 
Q 888 3366 970 3203 
Q 1053 3041 1206 2894 
L 1719 2469 
z
M 1375 2016 
Q 1116 1797 991 1539 
Q 866 1281 866 981 
Q 866 578 1086 336 
Q 1306 94 1647 94 
Q 1984 94 2187 284 
Q 2391 475 2391 747 
Q 2391 972 2272 1150 
Q 2050 1481 1375 2016 
z
" transform="scale(0.015625)"/>
       </defs>
       <use xlink:href="#TimesNewRomanPSMT-38"/>
      </g>
     </g>
    </g>
    <g id="xtick_6">
     <g id="line2d_6">
      <g>
       <use xlink:href="#m916a381a90" x="940.211932" y="364.87125" style="stroke: #000000; stroke-width: 0.8"/>
      </g>
     </g>
     <g id="text_6">
      <!-- 10 -->
      <g transform="translate(930.211932 385.75875)scale(0.2 -0.2)">
       <defs>
        <path id="TimesNewRomanPSMT-31" d="M 750 3822 
L 1781 4325 
L 1884 4325 
L 1884 747 
Q 1884 391 1914 303 
Q 1944 216 2037 169 
Q 2131 122 2419 116 
L 2419 0 
L 825 0 
L 825 116 
Q 1125 122 1212 167 
Q 1300 213 1334 289 
Q 1369 366 1369 747 
L 1369 3034 
Q 1369 3497 1338 3628 
Q 1316 3728 1258 3775 
Q 1200 3822 1119 3822 
Q 1003 3822 797 3725 
L 750 3822 
z
" transform="scale(0.015625)"/>
       </defs>
       <use xlink:href="#TimesNewRomanPSMT-31"/>
       <use xlink:href="#TimesNewRomanPSMT-30" x="50"/>
      </g>
     </g>
    </g>
    <g id="text_7">
     <!-- 时间 [s] -->
     <g transform="translate(494.39375 409.661875)scale(0.2 -0.2)">
      <defs>
       <path id="FangSong-65f6" d="M 1200 725 
Q 1225 -50 1100 125 
L 875 550 
Q 1000 725 975 1125 
L 975 3350 
Q 975 3850 900 4375 
L 975 4400 
L 1150 3925 
L 2275 4100 
L 2400 4325 
L 2700 4100 
L 2525 3875 
Q 2525 1425 2462 837 
Q 2400 250 2325 337 
Q 2250 425 2200 850 
L 1200 725 
z
M 1200 975 
Q 1925 1050 1975 1100 
L 2225 850 
Q 2275 1625 2275 2175 
L 2275 3825 
L 1200 3675 
L 1200 2525 
Q 1875 2600 2025 2700 
L 2250 2400 
Q 1900 2375 1200 2275 
L 1200 975 
z
M 4325 5250 
L 4775 4875 
Q 4625 4775 4650 4300 
L 4650 3100 
Q 5650 3225 5650 3325 
L 6000 3025 
Q 5625 3000 4650 2875 
L 4650 425 
Q 4675 -350 4475 -675 
Q 4225 -325 3400 275 
L 3450 375 
L 4375 -150 
Q 4425 150 4425 425 
L 4425 2850 
Q 3100 2675 2900 2600 
L 2550 2900 
Q 3000 2900 4425 3075 
L 4425 4400 
Q 4450 4925 4250 5175 
L 4325 5250 
z
M 3525 1275 
Q 3325 1850 3050 2450 
L 3125 2500 
Q 3425 2100 3725 1675 
Q 3650 1500 3525 1275 
z
" transform="scale(0.015625)"/>
       <path id="FangSong-95f4" d="M 4150 1450 
L 2525 1300 
Q 2550 800 2450 900 
L 2225 1275 
Q 2300 1400 2300 1650 
L 2300 2875 
Q 2325 3225 2200 3525 
L 2275 3575 
L 2500 3225 
L 3750 3400 
L 3900 3600 
L 4200 3325 
L 4025 3150 
L 3975 1650 
L 4150 1450 
z
M 5000 4925 
L 5325 4675 
L 5175 4475 
L 5175 450 
Q 5175 -325 4975 -650 
Q 4700 -225 3975 500 
L 4050 575 
L 4875 -75 
Q 4925 -75 4950 425 
L 4950 4475 
Q 3075 4275 2925 4250 
L 2550 4475 
Q 2925 4450 4875 4700 
L 5000 4925 
z
M 3775 3150 
L 2525 3000 
L 2525 2375 
Q 3225 2475 3300 2550 
L 3550 2300 
Q 3300 2300 2525 2175 
L 2525 1525 
L 3725 1650 
L 3775 3150 
z
M 1400 -225 
Q 1425 -675 1325 -550 
L 1075 -175 
Q 1175 -25 1175 350 
L 1175 3475 
Q 1175 3900 1025 4225 
L 1100 4275 
L 1475 3875 
Q 1400 3725 1400 3375 
L 1400 -225 
z
M 1425 5175 
Q 1950 4725 2200 4525 
Q 2125 4275 2050 4075 
Q 1875 4425 1350 5100 
L 1425 5175 
z
" transform="scale(0.015625)"/>
       <path id="FangSong-20" transform="scale(0.015625)"/>
       <path id="FangSong-5b" d="M 2725 5100 
L 2725 4875 
L 1475 4875 
L 1475 -225 
L 2725 -225 
L 2725 -450 
L 1225 -450 
L 1225 5100 
L 2725 5100 
z
" transform="scale(0.015625)"/>
       <path id="FangSong-73" d="M 600 2075 
Q 600 2450 887 2650 
Q 1175 2850 1575 2850 
Q 1800 2850 2000 2787 
Q 2200 2725 2275 2725 
Q 2350 2725 2400 2750 
Q 2450 2775 2525 2850 
L 2625 2025 
L 2475 2000 
Q 2375 2325 2137 2512 
Q 1900 2700 1600 2700 
Q 1275 2700 1087 2575 
Q 900 2450 900 2225 
Q 900 2025 987 1912 
Q 1075 1800 1300 1750 
Q 1475 1675 1737 1587 
Q 2000 1500 2225 1400 
Q 2425 1300 2562 1137 
Q 2700 975 2700 775 
Q 2700 400 2437 187 
Q 2175 -25 1675 -25 
Q 1350 -25 1187 37 
Q 1025 100 925 100 
Q 850 100 762 62 
Q 675 25 575 -25 
L 500 900 
L 650 925 
Q 725 525 975 325 
Q 1225 125 1675 125 
Q 2025 125 2212 250 
Q 2400 375 2400 625 
Q 2400 800 2300 912 
Q 2200 1025 2100 1075 
Q 1850 1175 1550 1287 
Q 1250 1400 1025 1500 
Q 800 1600 700 1750 
Q 600 1900 600 2075 
z
" transform="scale(0.015625)"/>
       <path id="FangSong-5d" d="M 1900 -450 
L 400 -450 
L 400 -225 
L 1650 -225 
L 1650 4875 
L 400 4875 
L 400 5100 
L 1900 5100 
L 1900 -450 
z
" transform="scale(0.015625)"/>
      </defs>
      <use xlink:href="#FangSong-65f6"/>
      <use xlink:href="#FangSong-95f4" x="100"/>
      <use xlink:href="#FangSong-20" x="200"/>
      <use xlink:href="#FangSong-5b" x="250"/>
      <use xlink:href="#FangSong-73" x="300"/>
      <use xlink:href="#FangSong-5d" x="350"/>
     </g>
    </g>
   </g>
   <g id="matplotlib.axis_2">
    <g id="ytick_1">
     <g id="line2d_7">
      <defs>
       <path id="m1cc5e412dd" d="M 0 0 
L -3.5 0 
" style="stroke: #000000; stroke-width: 0.8"/>
      </defs>
      <g>
       <use xlink:href="#m1cc5e412dd" x="87.99375" y="334.564031" style="stroke: #000000; stroke-width: 0.8"/>
      </g>
     </g>
     <g id="text_8">
      <!-- −1000 -->
      <g transform="translate(29.715625 341.507781)scale(0.2 -0.2)">
       <defs>
        <path id="TimesNewRomanPSMT-2212" d="M 3484 2000 
L 116 2000 
L 116 2256 
L 3484 2256 
L 3484 2000 
z
" transform="scale(0.015625)"/>
       </defs>
       <use xlink:href="#TimesNewRomanPSMT-2212"/>
       <use xlink:href="#TimesNewRomanPSMT-31" x="56.396484"/>
       <use xlink:href="#TimesNewRomanPSMT-30" x="106.396484"/>
       <use xlink:href="#TimesNewRomanPSMT-30" x="156.396484"/>
       <use xlink:href="#TimesNewRomanPSMT-30" x="206.396484"/>
      </g>
     </g>
    </g>
    <g id="ytick_2">
     <g id="line2d_8">
      <g>
       <use xlink:href="#m1cc5e412dd" x="87.99375" y="294.2363" style="stroke: #000000; stroke-width: 0.8"/>
      </g>
     </g>
     <g id="text_9">
      <!-- −500 -->
      <g transform="translate(39.715625 301.18005)scale(0.2 -0.2)">
       <defs>
        <path id="TimesNewRomanPSMT-35" d="M 2778 4238 
L 2534 3706 
L 1259 3706 
L 981 3138 
Q 1809 3016 2294 2522 
Q 2709 2097 2709 1522 
Q 2709 1188 2573 903 
Q 2438 619 2231 419 
Q 2025 219 1772 97 
Q 1413 -75 1034 -75 
Q 653 -75 479 54 
Q 306 184 306 341 
Q 306 428 378 495 
Q 450 563 559 563 
Q 641 563 702 538 
Q 763 513 909 409 
Q 1144 247 1384 247 
Q 1750 247 2026 523 
Q 2303 800 2303 1197 
Q 2303 1581 2056 1914 
Q 1809 2247 1375 2428 
Q 1034 2569 447 2591 
L 1259 4238 
L 2778 4238 
z
" transform="scale(0.015625)"/>
       </defs>
       <use xlink:href="#TimesNewRomanPSMT-2212"/>
       <use xlink:href="#TimesNewRomanPSMT-35" x="56.396484"/>
       <use xlink:href="#TimesNewRomanPSMT-30" x="106.396484"/>
       <use xlink:href="#TimesNewRomanPSMT-30" x="156.396484"/>
      </g>
     </g>
    </g>
    <g id="ytick_3">
     <g id="line2d_9">
      <g>
       <use xlink:href="#m1cc5e412dd" x="87.99375" y="253.908569" style="stroke: #000000; stroke-width: 0.8"/>
      </g>
     </g>
     <g id="text_10">
      <!-- 0 -->
      <g transform="translate(70.99375 260.852319)scale(0.2 -0.2)">
       <use xlink:href="#TimesNewRomanPSMT-30"/>
      </g>
     </g>
    </g>
    <g id="ytick_4">
     <g id="line2d_10">
      <g>
       <use xlink:href="#m1cc5e412dd" x="87.99375" y="213.580838" style="stroke: #000000; stroke-width: 0.8"/>
      </g>
     </g>
     <g id="text_11">
      <!-- 500 -->
      <g transform="translate(50.99375 220.524588)scale(0.2 -0.2)">
       <use xlink:href="#TimesNewRomanPSMT-35"/>
       <use xlink:href="#TimesNewRomanPSMT-30" x="50"/>
       <use xlink:href="#TimesNewRomanPSMT-30" x="100"/>
      </g>
     </g>
    </g>
    <g id="ytick_5">
     <g id="line2d_11">
      <g>
       <use xlink:href="#m1cc5e412dd" x="87.99375" y="173.253107" style="stroke: #000000; stroke-width: 0.8"/>
      </g>
     </g>
     <g id="text_12">
      <!-- 1000 -->
      <g transform="translate(40.99375 180.196857)scale(0.2 -0.2)">
       <use xlink:href="#TimesNewRomanPSMT-31"/>
       <use xlink:href="#TimesNewRomanPSMT-30" x="50"/>
       <use xlink:href="#TimesNewRomanPSMT-30" x="100"/>
       <use xlink:href="#TimesNewRomanPSMT-30" x="150"/>
      </g>
     </g>
    </g>
    <g id="ytick_6">
     <g id="line2d_12">
      <g>
       <use xlink:href="#m1cc5e412dd" x="87.99375" y="132.925377" style="stroke: #000000; stroke-width: 0.8"/>
      </g>
     </g>
     <g id="text_13">
      <!-- 1500 -->
      <g transform="translate(40.99375 139.869127)scale(0.2 -0.2)">
       <use xlink:href="#TimesNewRomanPSMT-31"/>
       <use xlink:href="#TimesNewRomanPSMT-35" x="50"/>
       <use xlink:href="#TimesNewRomanPSMT-30" x="100"/>
       <use xlink:href="#TimesNewRomanPSMT-30" x="150"/>
      </g>
     </g>
    </g>
    <g id="ytick_7">
     <g id="line2d_13">
      <g>
       <use xlink:href="#m1cc5e412dd" x="87.99375" y="92.597646" style="stroke: #000000; stroke-width: 0.8"/>
      </g>
     </g>
     <g id="text_14">
      <!-- 2000 -->
      <g transform="translate(40.99375 99.541396)scale(0.2 -0.2)">
       <use xlink:href="#TimesNewRomanPSMT-32"/>
       <use xlink:href="#TimesNewRomanPSMT-30" x="50"/>
       <use xlink:href="#TimesNewRomanPSMT-30" x="100"/>
       <use xlink:href="#TimesNewRomanPSMT-30" x="150"/>
      </g>
     </g>
    </g>
    <g id="ytick_8">
     <g id="line2d_14">
      <g>
       <use xlink:href="#m1cc5e412dd" x="87.99375" y="52.269915" style="stroke: #000000; stroke-width: 0.8"/>
      </g>
     </g>
     <g id="text_15">
      <!-- 2500 -->
      <g transform="translate(40.99375 59.213665)scale(0.2 -0.2)">
       <use xlink:href="#TimesNewRomanPSMT-32"/>
       <use xlink:href="#TimesNewRomanPSMT-35" x="50"/>
       <use xlink:href="#TimesNewRomanPSMT-30" x="100"/>
       <use xlink:href="#TimesNewRomanPSMT-30" x="150"/>
      </g>
     </g>
    </g>
    <g id="text_16">
     <!-- 力矩 [Nm] -->
     <g transform="translate(22.825 243.55125)rotate(-90)scale(0.2 -0.2)">
      <defs>
       <path id="FangSong-529b" d="M 3100 5275 
L 3600 4875 
Q 3475 4875 3437 4587 
Q 3400 4300 3250 3350 
L 4875 3500 
L 5050 3750 
L 5350 3425 
L 5150 3275 
Q 4700 25 4175 -650 
Q 3800 -75 3175 625 
L 3250 700 
L 4150 -150 
Q 4500 525 4875 3250 
L 3225 3100 
Q 2500 550 600 -575 
L 525 -475 
Q 2350 775 2950 3075 
Q 1700 2950 1475 2875 
L 1125 3200 
Q 1625 3175 2975 3325 
Q 3125 4150 3162 4562 
Q 3200 4975 3025 5225 
L 3100 5275 
z
" transform="scale(0.015625)"/>
       <path id="FangSong-77e9" d="M 3475 4300 
Q 5050 4475 5200 4550 
L 5600 4300 
Q 5150 4275 3475 4050 
L 3475 2900 
L 4800 3125 
L 4950 3400 
L 5300 3075 
L 5100 2875 
L 4950 1775 
L 5175 1525 
L 3475 1300 
L 3475 25 
Q 5425 175 5625 250 
L 5975 0 
Q 5500 -50 3525 -225 
L 3300 -425 
L 3050 -150 
L 3250 25 
L 3250 3925 
Q 3250 4400 3150 4725 
L 3225 4775 
L 3475 4300 
z
M 1475 3550 
Q 2525 3700 2650 3800 
L 3000 3525 
Q 2700 3500 2125 3400 
Q 2100 2775 2050 2300 
Q 2675 2400 2850 2475 
L 3150 2250 
Q 2875 2225 2025 2050 
Q 1950 1725 1875 1475 
Q 2575 975 2925 775 
Q 2950 500 2900 275 
Q 2575 625 1850 1300 
Q 1525 175 525 -650 
L 425 -575 
Q 1550 350 1775 2025 
Q 1025 1900 825 1825 
L 500 2050 
Q 850 2075 1800 2275 
Q 1850 2750 1875 3375 
L 1375 3275 
Q 1200 2850 775 2325 
L 700 2400 
Q 1100 3000 1350 3887 
Q 1600 4775 1575 5200 
L 1650 5250 
L 1975 4775 
Q 1825 4700 1737 4387 
Q 1650 4075 1475 3550 
z
M 4850 2875 
L 3475 2675 
L 3475 1550 
L 4700 1725 
L 4850 2875 
z
" transform="scale(0.015625)"/>
       <path id="FangSong-4e" d="M 2500 1000 
L 2550 1000 
L 2550 3925 
Q 2550 4025 2500 4075 
Q 2450 4125 2325 4125 
L 2125 4125 
L 2125 4275 
L 3125 4275 
L 3125 4125 
L 2925 4125 
Q 2825 4125 2762 4075 
Q 2700 4025 2700 3925 
L 2700 0 
L 2550 0 
L 650 3725 
L 600 3725 
L 600 350 
Q 600 250 662 200 
Q 725 150 825 150 
L 1025 150 
L 1025 0 
L 25 0 
L 25 150 
L 225 150 
Q 350 150 400 200 
Q 450 250 450 350 
L 450 3925 
Q 450 4025 400 4075 
Q 350 4125 225 4125 
L 75 4125 
L 75 4275 
L 800 4275 
L 2500 1000 
z
" transform="scale(0.015625)"/>
       <path id="FangSong-6d" d="M 150 2800 
Q 275 2800 400 2825 
Q 525 2850 600 2900 
L 650 2900 
L 650 2475 
Q 775 2675 925 2762 
Q 1075 2850 1250 2850 
Q 1475 2850 1600 2762 
Q 1725 2675 1750 2475 
Q 1875 2675 2037 2762 
Q 2200 2850 2375 2850 
Q 2675 2850 2787 2675 
Q 2900 2500 2900 2225 
L 2900 325 
Q 2900 225 2950 187 
Q 3000 150 3100 150 
L 3150 150 
L 3150 0 
L 2300 0 
L 2300 150 
L 2350 150 
Q 2450 150 2500 187 
Q 2550 225 2550 325 
L 2550 2200 
Q 2550 2475 2487 2562 
Q 2425 2650 2300 2650 
Q 2125 2650 1987 2525 
Q 1850 2400 1775 2175 
L 1775 325 
Q 1775 225 1825 187 
Q 1875 150 1975 150 
L 2025 150 
L 2025 0 
L 1175 0 
L 1175 150 
L 1225 150 
Q 1325 150 1375 187 
Q 1425 225 1425 325 
L 1425 2200 
Q 1425 2425 1375 2537 
Q 1325 2650 1175 2650 
Q 1000 2650 862 2525 
Q 725 2400 650 2150 
L 650 325 
Q 650 225 700 187 
Q 750 150 850 150 
L 900 150 
L 900 0 
L 50 0 
L 50 150 
L 100 150 
Q 200 150 250 187 
Q 300 225 300 325 
L 300 2500 
Q 300 2575 275 2612 
Q 250 2650 175 2650 
L 75 2650 
L 75 2800 
L 150 2800 
z
" transform="scale(0.015625)"/>
      </defs>
      <use xlink:href="#FangSong-529b"/>
      <use xlink:href="#FangSong-77e9" x="100"/>
      <use xlink:href="#FangSong-20" x="200"/>
      <use xlink:href="#FangSong-5b" x="250"/>
      <use xlink:href="#FangSong-4e" x="300"/>
      <use xlink:href="#FangSong-6d" x="350"/>
      <use xlink:href="#FangSong-5d" x="400"/>
     </g>
    </g>
   </g>
   <g id="line2d_15">
    <path d="M 128.575568 253.908569 
L 147.261891 253.849439 
L 149.699237 253.621793 
L 151.324135 253.694737 
L 152.949033 253.92783 
L 153.761481 254.114358 
L 156.198828 255.322054 
L 159.448623 257.404267 
L 164.323316 260.790563 
L 166.760662 261.917534 
L 168.38556 262.575424 
L 169.198009 262.786662 
L 170.010458 215.840665 
L 170.822906 270.232716 
L 171.635355 242.983013 
L 172.447804 249.620496 
L 173.260253 246.906163 
L 174.072702 246.647866 
L 174.88515 246.266213 
L 176.510048 245.977269 
L 178.947395 245.861094 
L 188.69678 245.845623 
L 193.571473 245.84485 
L 194.383922 279.508057 
L 196.00882 271.187845 
L 197.633717 262.774069 
L 198.446166 259.371534 
L 199.258615 256.764316 
L 200.071064 255.032664 
L 200.883512 254.1797 
L 201.695961 254.135513 
L 202.50841 254.762272 
L 203.320859 255.890846 
L 204.945757 258.970029 
L 207.383103 261.329006 
L 209.820449 263.300975 
L 210.632898 263.698739 
L 211.445347 263.896136 
L 212.257796 263.911805 
L 213.070245 263.774973 
L 214.695142 263.187237 
L 217.944938 261.764136 
L 219.569835 261.349768 
L 221.194733 261.242622 
L 222.007182 261.301215 
L 222.81963 192.153152 
L 223.632079 282.158555 
L 224.444528 255.800473 
L 225.256977 250.562658 
L 226.069426 248.793108 
L 226.881874 246.134747 
L 227.694323 246.805478 
L 228.506772 246.006676 
L 229.319221 246.121605 
L 236.63126 248.764226 
L 243.9433 251.278167 
L 244.755748 265.589968 
L 245.568197 265.261033 
L 247.193095 264.058414 
L 249.630441 262.12897 
L 251.255339 261.251509 
L 252.067788 261.002776 
L 252.880236 260.888911 
L 254.505134 260.990578 
L 256.942481 261.598633 
L 259.379827 262.17005 
L 261.004725 262.330867 
L 262.629622 262.328312 
L 267.504315 262.031737 
L 271.566559 262.029843 
L 277.253701 261.872644 
L 278.06615 154.456963 
L 278.878598 310.398084 
L 279.691047 263.547239 
L 280.503496 253.449645 
L 281.315945 251.133776 
L 282.128394 244.006092 
L 282.940843 249.101408 
L 283.753291 246.566158 
L 286.190638 248.73921 
L 294.315126 256.318927 
L 295.127575 265.287842 
L 295.940024 264.881815 
L 300.002268 261.532939 
L 300.814716 261.110617 
L 301.627165 260.850556 
L 302.439614 260.740725 
L 304.064512 260.900561 
L 305.689409 261.384223 
L 308.939205 262.452217 
L 310.564102 262.740425 
L 312.189 262.802757 
L 314.626346 262.579054 
L 319.501039 261.94147 
L 321.938386 261.819475 
L 326.813078 261.876284 
L 328.437976 262.004051 
L 330.875322 262.209276 
L 333.312669 262.172604 
L 334.125118 262.126883 
L 334.937567 167.159872 
L 335.750015 312.615474 
L 336.562464 232.163735 
L 337.374913 262.830357 
L 338.187362 244.230031 
L 338.999811 250.360548 
L 339.812259 245.981833 
L 340.624708 247.11552 
L 341.437157 246.037782 
L 342.249606 246.222447 
L 343.062055 245.94079 
L 344.686952 245.882968 
L 356.061236 245.846383 
L 356.873684 281.014092 
L 358.498582 272.303859 
L 360.12348 263.342965 
L 360.935929 259.687372 
L 361.748377 256.875321 
L 362.560826 254.994483 
L 363.373275 254.043146 
L 364.185724 253.942647 
L 364.998173 254.556685 
L 365.810621 255.711873 
L 367.435519 258.592503 
L 369.060417 260.310063 
L 371.497763 263.21855 
L 372.310212 263.853646 
L 373.122661 264.239002 
L 373.93511 264.380702 
L 374.747558 264.308159 
L 375.560007 264.061358 
L 377.184905 263.231821 
L 379.622251 261.840949 
L 381.247149 261.249807 
L 382.059598 261.107726 
L 383.684495 261.156042 
L 384.496944 261.265898 
L 385.309393 203.847342 
L 386.121842 271.082479 
L 387.746739 247.548586 
L 388.559188 249.505767 
L 389.371637 245.719272 
L 390.184086 245.997043 
L 403.995716 248.541464 
L 406.433062 248.940008 
L 407.245511 265.298686 
L 408.05796 265.248671 
L 408.870408 264.907688 
L 410.495306 263.813932 
L 412.932653 262.054037 
L 414.55755 261.273931 
L 415.369999 261.068647 
L 416.994897 261.00176 
L 418.619794 261.270256 
L 422.682038 262.182307 
L 424.306936 262.30736 
L 427.556731 262.243265 
L 432.431424 262.088333 
L 438.931015 261.642568 
L 440.555912 261.763871 
L 441.368361 130.253347 
L 442.18081 329.276713 
L 442.993259 261.202304 
L 443.805707 257.7214 
L 444.618156 251.068979 
L 445.430605 246.064457 
L 446.243054 248.423013 
L 447.055503 245.631469 
L 447.867951 246.812578 
L 448.6804 246.424027 
L 454.367542 249.87453 
L 460.054684 253.010727 
L 460.867132 253.45901 
L 461.679581 270.291569 
L 462.49203 269.109473 
L 466.554274 260.90554 
L 467.366723 259.893511 
L 468.179172 259.249804 
L 468.991621 258.965265 
L 469.804069 259.006657 
L 470.616518 259.323382 
L 472.241416 260.48206 
L 474.678762 262.466584 
L 476.30366 263.349459 
L 477.116109 263.587918 
L 477.928558 263.690363 
L 479.553455 263.547959 
L 481.990802 262.849784 
L 484.428148 262.107171 
L 486.053046 261.857124 
L 488.490392 261.796108 
L 496.61488 262.039192 
L 497.427329 205.068455 
L 498.239778 275.715837 
L 499.052227 245.564994 
L 499.864675 250.907912 
L 500.677124 246.804809 
L 501.489573 247.130964 
L 502.302022 246.247703 
L 503.114471 246.233174 
L 503.92692 245.988608 
L 512.051408 245.844517 
L 520.175896 245.845342 
L 520.988345 275.294978 
L 522.613242 269.302273 
L 524.23814 263.192842 
L 525.050589 260.693399 
L 525.863037 258.743325 
L 526.675486 257.404556 
L 527.487935 256.683988 
L 528.300384 256.539021 
L 529.112833 256.883844 
L 529.925282 257.606159 
L 531.550179 259.677507 
L 533.175077 261.803911 
L 533.987526 262.662998 
L 534.799974 263.31496 
L 535.612423 263.739061 
L 536.424872 263.934844 
L 537.237321 263.923771 
L 539.674667 263.371449 
L 544.54936 261.804069 
L 546.174258 261.571025 
L 547.799155 261.529076 
L 550.236502 261.712191 
L 551.048951 184.563866 
L 551.861399 287.808913 
L 552.673848 254.613027 
L 553.486297 251.872774 
L 554.298746 248.740109 
L 555.111195 246.320794 
L 555.923644 246.847787 
L 556.736092 246.042003 
L 557.548541 246.117012 
L 558.36099 245.907548 
L 570.547722 245.844399 
L 572.985069 245.844602 
L 573.797517 271.967745 
L 574.609966 270.12655 
L 577.047313 263.554014 
L 577.859761 261.688647 
L 578.67221 260.181135 
L 579.484659 259.088178 
L 580.297108 258.428105 
L 581.109557 258.184338 
L 581.922006 258.307339 
L 582.734454 258.724016 
L 584.359352 260.088505 
L 585.98425 261.595543 
L 587.609147 262.730112 
L 588.421596 263.070321 
L 589.234045 263.261235 
L 590.046494 263.304296 
L 592.48384 262.970566 
L 598.983431 261.566307 
L 601.420777 261.457385 
L 603.858123 261.633491 
L 604.670572 261.759853 
L 605.483021 137.637446 
L 606.29547 321.94142 
L 607.107919 261.481834 
L 608.732816 251.006 
L 609.545265 246.294673 
L 610.357714 247.951815 
L 611.170163 245.869931 
L 611.982612 246.521632 
L 612.79506 245.908145 
L 616.857304 246.615786 
L 620.919549 247.322522 
L 624.981793 247.930873 
L 625.794241 275.439919 
L 626.60669 273.314239 
L 629.856485 262.16589 
L 630.668934 260.018477 
L 631.481383 258.414031 
L 632.293832 257.393415 
L 633.106281 256.941131 
L 633.91873 257.012971 
L 634.731178 257.510966 
L 635.543627 258.320262 
L 638.793422 262.368076 
L 639.605871 263.125498 
L 640.41832 263.674335 
L 641.230769 264.002352 
L 642.043218 264.117065 
L 642.855666 264.04217 
L 644.480564 263.470412 
L 647.730359 261.866422 
L 649.355257 261.362726 
L 650.167706 261.221903 
L 651.792603 261.342898 
L 656.667296 262.043027 
L 659.917092 262.074163 
L 660.72954 262.078119 
L 661.541989 120.151391 
L 662.354438 338.538275 
L 663.166887 253.970549 
L 663.979336 260.876812 
L 664.791784 250.515152 
L 665.604233 247.648754 
L 666.416682 247.938786 
L 667.229131 246.450735 
L 668.04158 246.524781 
L 668.854028 246.036316 
L 669.666477 246.054319 
L 670.478926 245.894197 
L 681.040761 245.846154 
L 681.853209 279.835956 
L 682.665658 276.6844 
L 685.915454 261.466665 
L 686.727902 258.691801 
L 687.540351 256.68045 
L 688.3528 255.475137 
L 689.165249 255.038351 
L 689.977698 255.293858 
L 690.790146 256.099304 
L 691.602595 257.294129 
L 694.039942 261.423535 
L 695.664839 263.452465 
L 696.477288 264.172935 
L 697.289737 264.618489 
L 698.102186 264.797179 
L 698.914635 264.737396 
L 699.727083 264.486165 
L 701.351981 263.606027 
L 703.789327 262.092323 
L 705.414225 261.440619 
L 707.039123 261.152286 
L 708.66402 261.168057 
L 711.101367 261.556983 
L 715.163611 262.31273 
L 715.97606 172.35514 
L 716.788508 299.875694 
L 717.600957 247.263246 
L 718.413406 254.463037 
L 719.225855 247.819275 
L 720.038304 248.040553 
L 720.850752 246.59914 
L 721.663201 246.511921 
L 722.47565 246.112906 
L 726.537894 245.86257 
L 736.28728 245.846085 
L 737.099729 245.846159 
L 737.912178 283.317707 
L 739.537075 273.700979 
L 741.161973 263.813726 
L 741.974422 259.757177 
L 742.78687 256.595371 
L 743.599319 254.432979 
L 744.411768 253.28173 
L 745.224217 253.070909 
L 746.036666 253.657574 
L 746.849114 254.857694 
L 749.286461 259.79848 
L 751.723807 263.397828 
L 752.536256 264.202982 
L 753.348705 264.684422 
L 754.161154 264.854399 
L 754.973603 264.748796 
L 755.786051 264.41993 
L 757.410949 263.396677 
L 759.035847 262.253572 
L 760.660744 261.555002 
L 762.285642 261.218939 
L 763.91054 261.196575 
L 766.347886 261.504233 
L 769.597681 262.040952 
L 770.41013 142.190964 
L 771.222579 318.967997 
L 772.035028 257.454269 
L 772.847476 256.452862 
L 773.659925 250.500733 
L 774.472374 246.85303 
L 775.284823 247.613554 
L 776.097272 246.227061 
L 776.909721 246.362203 
L 777.722169 245.970047 
L 778.534618 245.985553 
L 780.159516 245.871297 
L 783.409311 245.825396 
L 790.72135 245.84573 
L 791.533799 280.023104 
L 792.346248 276.596134 
L 794.783594 264.415889 
L 795.596043 260.984849 
L 796.408492 258.236946 
L 797.220941 256.279265 
L 798.03339 255.144441 
L 798.845838 254.794043 
L 799.658287 255.127546 
L 800.470736 255.999538 
L 801.283185 257.24538 
L 803.720531 261.599958 
L 804.53298 262.813424 
L 805.345429 263.762285 
L 806.157878 264.41 
L 806.970327 264.751245 
L 807.782775 264.806753 
L 808.595224 264.617216 
L 809.407673 264.236374 
L 811.032571 263.146728 
L 812.657468 262.048099 
L 813.469917 261.594137 
L 815.094815 261.207474 
L 816.719712 261.185794 
L 819.157059 261.514956 
L 822.406854 261.950914 
L 824.8442 262.133146 
L 825.656649 121.736087 
L 826.469098 335.080864 
L 827.281547 257.069671 
L 828.093996 259.193419 
L 828.906445 251.299575 
L 829.718893 247.223945 
L 830.531342 248.025731 
L 831.343791 246.343933 
L 832.15624 246.510824 
L 832.968689 246.007217 
L 833.781137 246.035322 
L 834.593586 245.883835 
L 845.96787 245.846066 
L 846.780318 281.407216 
L 847.592767 277.82517 
L 850.842562 261.121258 
L 851.655011 258.140423 
L 852.46746 256.002649 
L 853.279909 254.748898 
L 854.092358 254.333709 
L 854.904807 254.664455 
L 855.717255 255.582791 
L 856.529704 256.912852 
L 858.967051 261.59423 
L 859.779499 262.864023 
L 860.591948 263.906307 
L 861.404397 264.634649 
L 862.216846 265.043109 
L 863.029295 265.147625 
L 863.841743 264.988341 
L 864.654192 264.620103 
L 866.27909 263.507033 
L 867.903988 262.298763 
L 869.528885 261.374372 
L 870.341334 261.06399 
L 871.153783 260.873839 
L 872.77868 260.82697 
L 874.403578 261.273973 
L 876.840924 262.019323 
L 878.465822 262.325978 
L 879.278271 262.402581 
L 880.09072 149.618068 
L 880.903169 314.988448 
L 881.715617 251.440187 
L 882.528066 256.469313 
L 883.340515 249.212628 
L 884.152964 247.889011 
L 884.965413 247.077759 
L 885.777861 246.500108 
L 886.59031 246.21982 
L 888.215208 245.968026 
L 891.465003 245.855186 
L 902.026838 245.846248 
L 902.839286 285.989635 
L 904.464184 275.173264 
L 906.089082 264.092816 
L 906.901531 259.552009 
L 907.713979 256.008812 
L 908.526428 253.581678 
L 909.338877 252.287171 
L 910.151326 252.046681 
L 910.963775 252.702065 
L 911.776223 254.048421 
L 914.21357 259.530975 
L 916.650916 263.528709 
L 917.463365 264.450315 
L 918.275814 265.036121 
L 919.088263 265.259606 
L 919.900712 265.167707 
L 920.71316 264.8321 
L 922.338058 263.674142 
L 924.775404 261.744525 
L 925.587853 261.260677 
L 926.400302 260.995823 
L 927.212751 260.857219 
L 928.837648 260.899253 
L 930.462546 261.224063 
L 932.087444 261.683001 
L 932.899893 150.810856 
L 933.712341 310.994119 
L 934.52479 257.920151 
L 935.337239 254.532917 
L 936.149688 250.32746 
L 936.962137 247.055971 
L 937.774585 247.273225 
L 938.587034 246.292928 
L 939.399483 246.231379 
L 940.211932 245.981721 
L 940.211932 245.981721 
" clip-path="url(#p25681fe7df)" style="fill: none; stroke: #ff0000; stroke-width: 2; stroke-linecap: square"/>
   </g>
   <g id="line2d_16">
    <path d="M 128.575568 283.3293 
L 129.388017 256.821932 
L 130.200466 253.164317 
L 131.825363 259.839226 
L 132.637812 261.277596 
L 139.949852 261.283025 
L 140.7623 245.311829 
L 141.574749 244.200725 
L 142.387198 243.472298 
L 143.199647 243.099618 
L 144.012096 243.037185 
L 144.824544 243.219859 
L 146.449442 244.033428 
L 148.886788 245.473999 
L 150.511686 246.165209 
L 152.136584 246.504764 
L 153.761481 246.548517 
L 155.386379 246.496275 
L 156.198828 246.413689 
L 157.011277 246.877495 
L 157.823725 249.055426 
L 158.636174 251.906505 
L 159.448623 255.338826 
L 160.261072 259.401175 
L 161.073521 262.823129 
L 161.885969 265.465557 
L 162.698418 267.289188 
L 163.510867 268.329616 
L 164.323316 268.672862 
L 165.135765 268.433799 
L 165.948214 267.762871 
L 167.573111 265.689678 
L 169.198009 263.119362 
L 170.010458 320.45232 
L 170.822906 219.722093 
L 171.635355 255.834739 
L 172.447804 245.842397 
L 173.260253 253.96842 
L 174.072702 257.848964 
L 174.88515 259.827144 
L 175.697599 259.894077 
L 183.822087 245.35358 
L 184.634536 244.646061 
L 185.446985 245.244999 
L 186.259434 245.525941 
L 187.884331 245.752827 
L 191.134127 245.832644 
L 193.571473 245.838185 
L 194.383922 281.688814 
L 196.821268 252.709198 
L 197.633717 245.05087 
L 198.446166 239.139648 
L 199.258615 235.076643 
L 200.071064 232.782338 
L 200.883512 232.049575 
L 201.695961 232.573901 
L 202.50841 234.019646 
L 204.133308 238.367369 
L 205.758205 242.837765 
L 206.570654 244.650242 
L 207.383103 245.71781 
L 208.195552 246.556213 
L 209.008001 247.121546 
L 209.820449 247.409377 
L 210.632898 248.976256 
L 211.445347 252.30885 
L 213.070245 259.997242 
L 213.882693 262.985318 
L 214.695142 265.154001 
L 215.507591 266.514667 
L 216.32004 267.139161 
L 217.132489 267.148769 
L 217.944938 266.684616 
L 218.757386 265.895052 
L 221.194733 263.009266 
L 222.007182 262.246558 
L 222.81963 105.224672 
L 223.632079 312.016127 
L 224.444528 254.463136 
L 225.256977 281.419396 
L 226.069426 269.107064 
L 227.694323 259.251163 
L 228.506772 259.186901 
L 235.006363 244.175803 
L 236.63126 245.276587 
L 237.443709 245.561581 
L 239.068607 245.7741 
L 243.130851 245.842265 
L 243.9433 245.8434 
L 244.755748 321.667917 
L 245.568197 300.670524 
L 247.193095 270.244789 
L 248.005544 258.399363 
L 248.817992 249.513382 
L 249.630441 243.675 
L 250.44289 240.695087 
L 251.255339 240.180997 
L 252.067788 239.902498 
L 252.880236 237.791622 
L 253.692685 236.81922 
L 254.505134 236.805271 
L 255.317583 237.529734 
L 256.130032 238.760559 
L 259.379827 244.759125 
L 260.192276 245.845562 
L 261.004725 246.636844 
L 261.817173 247.132814 
L 262.629622 247.780322 
L 265.066969 254.48417 
L 265.879417 258.298109 
L 266.691866 261.510282 
L 267.504315 263.986038 
L 268.316764 265.686669 
L 269.129213 266.646748 
L 269.941662 266.950807 
L 270.75411 266.724537 
L 271.566559 266.106451 
L 273.191457 264.24481 
L 274.816354 262.317209 
L 275.628803 261.532937 
L 276.441252 261.059924 
L 277.253701 260.788403 
L 278.06615 47.35125 
L 278.878598 349.75125 
L 279.691047 257.126421 
L 280.503496 301.149009 
L 281.315945 296.288904 
L 282.128394 279.669276 
L 282.940843 247.328717 
L 284.56574 256.946939 
L 285.378189 259.509179 
L 286.190638 258.755451 
L 292.690228 244.793797 
L 293.502677 244.531645 
L 294.315126 245.115568 
L 295.127575 312.659263 
L 295.940024 294.685823 
L 297.564921 269.29526 
L 298.37737 259.299522 
L 299.189819 251.730467 
L 300.002268 246.714374 
L 300.814716 243.812218 
L 301.627165 239.544841 
L 302.439614 235.984963 
L 303.252063 234.012325 
L 304.064512 233.487514 
L 304.87696 234.126463 
L 305.689409 235.612355 
L 307.314307 239.923605 
L 308.939205 244.323043 
L 309.751653 246.108413 
L 310.564102 247.496623 
L 311.376551 248.461163 
L 312.189 249.017034 
L 313.001449 249.209479 
L 313.813897 249.103328 
L 314.626346 248.773696 
L 316.251244 247.742694 
L 317.063693 247.195184 
L 317.876141 247.424361 
L 318.68859 248.550762 
L 321.125937 252.708548 
L 321.938386 255.606905 
L 323.563283 262.133937 
L 324.375732 264.529169 
L 325.188181 266.216817 
L 326.00063 267.218454 
L 326.813078 267.602903 
L 327.625527 267.470745 
L 328.437976 266.95742 
L 330.062874 265.247045 
L 332.50022 262.421542 
L 333.312669 261.661183 
L 334.125118 261.090105 
L 334.937567 229.240105 
L 335.750015 246.518688 
L 336.562464 245.293571 
L 337.374913 244.795348 
L 338.187362 245.019175 
L 338.999811 245.647179 
L 339.812259 245.628989 
L 340.624708 245.769637 
L 350.374094 245.84323 
L 356.061236 245.843306 
L 356.873684 292.776999 
L 358.498582 266.574691 
L 359.311031 259.516377 
L 360.12348 254.314227 
L 362.560826 243.043475 
L 363.373275 240.009397 
L 364.185724 237.609774 
L 364.998173 236.391142 
L 365.810621 236.186227 
L 366.62307 236.777905 
L 367.435519 237.936102 
L 371.497763 245.316637 
L 372.310212 248.584315 
L 373.122661 252.478282 
L 374.747558 261.10806 
L 375.560007 264.336504 
L 376.372456 266.584084 
L 377.184905 267.890217 
L 377.997354 268.362656 
L 378.809802 268.152962 
L 379.622251 267.434445 
L 381.247149 265.160578 
L 382.872046 262.750933 
L 383.684495 261.869598 
L 384.496944 261.214707 
L 385.309393 79.495559 
L 386.121842 322.956513 
L 386.934291 257.48471 
L 387.746739 291.130498 
L 388.559188 286.339799 
L 389.371637 276.751479 
L 390.184086 258.629788 
L 390.996535 253.749977 
L 391.808983 257.338817 
L 392.621432 259.722429 
L 393.433881 258.374702 
L 399.933472 244.122272 
L 401.558369 245.310488 
L 402.370818 245.585418 
L 403.995716 245.784771 
L 406.433062 245.838793 
L 407.245511 321.377418 
L 408.05796 300.601521 
L 409.682857 270.378213 
L 410.495306 258.567227 
L 411.307755 249.683573 
L 412.120204 243.831676 
L 412.932653 240.84024 
L 413.745101 238.818337 
L 414.55755 237.397687 
L 415.369999 235.491806 
L 416.182448 234.883429 
L 416.994897 235.326683 
L 417.807345 236.543505 
L 419.432243 240.197205 
L 421.057141 243.959657 
L 421.869589 245.487882 
L 422.682038 246.67266 
L 423.494487 247.489446 
L 424.306936 247.969974 
L 425.119385 248.133337 
L 425.931834 248.674034 
L 428.36918 256.258289 
L 429.181629 259.74614 
L 429.994078 262.603778 
L 430.806526 264.731515 
L 431.618975 266.120823 
L 432.431424 266.822987 
L 433.243873 266.934274 
L 434.056322 266.577771 
L 434.86877 265.88719 
L 438.931015 261.472567 
L 439.743463 261.025074 
L 440.555912 260.770082 
L 441.368361 74.232884 
L 442.18081 334.747206 
L 442.993259 248.220582 
L 443.805707 294.156855 
L 444.618156 287.636365 
L 445.430605 273.132507 
L 446.243054 252.963789 
L 447.055503 256.576439 
L 447.867951 259.262154 
L 448.6804 258.711328 
L 454.367542 245.24288 
L 455.179991 244.187189 
L 455.99244 244.941691 
L 456.804888 245.374447 
L 458.429786 245.716225 
L 460.867132 245.825191 
L 461.679581 322.135716 
L 462.49203 301.547985 
L 464.116928 271.168587 
L 464.929377 259.172045 
L 465.741825 250.071531 
L 466.554274 244.001588 
L 468.991621 234.94354 
L 469.804069 233.355874 
L 470.616518 233.028089 
L 471.428967 233.853101 
L 472.241416 235.500954 
L 473.866313 240.00268 
L 475.491211 244.411938 
L 476.30366 246.154368 
L 477.116109 247.496277 
L 477.928558 248.402791 
L 478.741006 248.895784 
L 479.553455 249.025186 
L 480.365904 248.860431 
L 481.178353 248.479224 
L 481.990802 249.728417 
L 483.615699 253.369417 
L 486.053046 262.789503 
L 486.865494 264.920589 
L 487.677943 266.339781 
L 488.490392 267.089508 
L 489.302841 267.257144 
L 490.11529 266.957553 
L 490.927739 266.318104 
L 492.552636 264.513808 
L 494.177534 262.68883 
L 494.989983 261.944575 
L 495.802431 261.354689 
L 496.61488 260.9499 
L 497.427329 168.826462 
L 498.239778 281.618147 
L 499.052227 250.552198 
L 499.864675 258.817135 
L 500.677124 245.540276 
L 501.489573 246.704953 
L 502.302022 246.187638 
L 503.92692 245.956796 
L 507.176715 245.852673 
L 520.175896 245.845485 
L 520.988345 313.08229 
L 521.800793 294.29701 
L 523.425691 268.296284 
L 524.23814 258.288848 
L 525.050589 250.851753 
L 525.863037 246.032808 
L 526.675486 243.646102 
L 527.487935 243.339069 
L 528.300384 241.390152 
L 529.112833 238.97141 
L 529.925282 237.651833 
L 530.73773 237.289223 
L 531.550179 237.693288 
L 532.362628 238.652401 
L 533.987526 241.41618 
L 535.612423 244.09715 
L 536.424872 245.182946 
L 537.237321 246.55347 
L 538.04977 248.485574 
L 538.862218 251.963861 
L 540.487116 260.158915 
L 541.299565 263.483327 
L 542.112014 265.901501 
L 542.924463 267.420519 
L 543.736911 268.119478 
L 544.54936 268.126634 
L 545.361809 267.596889 
L 546.174258 266.695307 
L 549.424053 262.286165 
L 550.236502 261.52453 
L 551.048951 116.278631 
L 551.861399 306.147049 
L 552.673848 253.162844 
L 553.486297 277.975199 
L 554.298746 264.247297 
L 555.111195 259.632442 
L 562.423234 244.487636 
L 563.235683 244.80842 
L 564.048132 245.312757 
L 564.86058 245.573703 
L 566.485478 245.774618 
L 570.547722 245.843727 
L 572.985069 245.846089 
L 573.797517 318.422705 
L 574.609966 298.240842 
L 576.234864 269.4341 
L 577.047313 258.272714 
L 577.859761 249.934364 
L 578.67221 244.493241 
L 579.484659 241.754108 
L 580.297108 241.337707 
L 581.109557 240.11925 
L 581.922006 237.916431 
L 582.734454 236.87954 
L 583.546903 236.812289 
L 584.359352 237.496888 
L 585.171801 238.7016 
L 588.421596 244.708911 
L 589.234045 245.815025 
L 590.046494 246.63055 
L 590.858942 247.15005 
L 592.48384 251.585607 
L 594.921187 262.609414 
L 595.733635 265.07066 
L 596.546084 266.686248 
L 597.358533 267.514763 
L 598.170982 267.665982 
L 598.983431 267.28019 
L 599.795879 266.50986 
L 601.420777 264.402772 
L 603.045675 262.333297 
L 603.858123 261.59914 
L 604.670572 261.069502 
L 605.483021 91.648139 
L 606.29547 322.042871 
L 607.107919 250.640657 
L 607.920368 287.681852 
L 608.732816 278.814887 
L 609.545265 272.053126 
L 610.357714 255.498442 
L 611.170163 258.06247 
L 611.982612 260.024126 
L 613.607509 256.748899 
L 619.294651 244.584544 
L 620.1071 244.67778 
L 620.919549 245.231742 
L 621.731997 245.532597 
L 623.356895 245.764129 
L 624.981793 245.824295 
L 625.794241 317.814293 
L 626.60669 298.117475 
L 628.231588 269.783867 
L 629.044037 258.709765 
L 629.856485 250.382899 
L 630.668934 244.900728 
L 631.481383 242.112236 
L 633.91873 236.711489 
L 634.731178 235.857833 
L 635.543627 236.028862 
L 636.356076 236.984747 
L 637.168525 238.460775 
L 640.41832 245.23169 
L 641.230769 246.416458 
L 642.043218 247.265734 
L 642.855666 247.781949 
L 643.668115 247.99452 
L 644.480564 247.953353 
L 645.293013 248.884565 
L 648.542808 256.401893 
L 649.355257 259.604083 
L 650.167706 262.264901 
L 650.980155 264.283514 
L 651.792603 265.638018 
L 652.605052 266.365679 
L 653.417501 266.54696 
L 654.22995 266.288521 
L 655.042399 265.70996 
L 656.667296 264.056507 
L 658.292194 262.381779 
L 659.104643 261.692812 
L 659.917092 261.233868 
L 660.72954 260.951097 
L 661.541989 104.968347 
L 662.354438 319.466646 
L 663.166887 241.517514 
L 663.979336 285.654538 
L 664.791784 266.880915 
L 665.604233 261.369821 
L 672.916273 245.046526 
L 673.728721 244.426378 
L 674.54117 245.116743 
L 675.353619 245.454471 
L 676.978517 245.73324 
L 680.228312 245.837163 
L 681.040761 245.841617 
L 681.853209 319.453266 
L 682.665658 299.365352 
L 684.290556 270.17396 
L 685.103005 258.746125 
L 685.915454 250.141416 
L 686.727902 244.463643 
L 687.540351 241.556945 
L 689.165249 238.657302 
L 689.977698 236.586612 
L 690.790146 235.756352 
L 691.602595 235.950218 
L 692.415044 236.920554 
L 693.227493 238.409979 
L 696.477288 245.225905 
L 697.289737 246.418812 
L 698.102186 247.27581 
L 698.914635 247.799226 
L 699.727083 248.040754 
L 700.539532 248.025842 
L 701.351981 248.985659 
L 702.976879 252.045381 
L 703.789327 255.198971 
L 704.601776 258.886754 
L 705.414225 261.990826 
L 706.226674 264.386406 
L 707.039123 266.036148 
L 707.851571 266.972661 
L 708.66402 267.279288 
L 709.476469 267.069436 
L 710.288918 266.478624 
L 711.913816 264.672972 
L 713.538713 262.764694 
L 714.351162 261.990462 
L 715.163611 261.390304 
L 715.97606 154.697057 
L 716.788508 291.338236 
L 717.600957 249.161828 
L 718.413406 264.607901 
L 719.225855 245.951772 
L 720.038304 245.447133 
L 720.850752 245.665455 
L 722.47565 245.79495 
L 727.350343 245.842627 
L 737.099729 245.846899 
L 737.912178 309.820619 
L 738.724626 291.944421 
L 740.349524 267.559693 
L 741.161973 258.208395 
L 741.974422 251.285227 
L 742.78687 246.833898 
L 743.599319 244.666695 
L 744.411768 244.446175 
L 746.036666 239.6242 
L 746.849114 238.181354 
L 747.661563 237.682317 
L 748.474012 237.952673 
L 749.286461 238.795318 
L 750.911359 241.409123 
L 752.536256 244.145168 
L 753.348705 245.265225 
L 754.161154 246.138797 
L 754.973603 246.7468 
L 755.786051 247.909884 
L 756.5985 249.360047 
L 757.410949 251.136287 
L 758.223398 254.568764 
L 759.035847 258.558256 
L 759.848295 261.895966 
L 760.660744 264.454117 
L 761.473193 266.198734 
L 762.285642 267.170885 
L 763.098091 267.465722 
L 763.91054 267.211988 
L 764.722988 266.554576 
L 766.347886 264.598096 
L 767.972784 262.577356 
L 768.785232 261.822587 
L 769.597681 261.258712 
L 770.41013 109.646632 
L 771.222579 313.245157 
L 772.035028 247.725094 
L 772.847476 282.07842 
L 773.659925 266.725312 
L 774.472374 261.819576 
L 782.596862 245.212376 
L 783.409311 244.491541 
L 784.22176 245.143109 
L 785.034209 245.480953 
L 786.659106 245.747422 
L 789.908902 245.839686 
L 790.72135 245.843272 
L 791.533799 317.187397 
L 792.346248 297.476069 
L 793.971146 269.312476 
L 794.783594 258.376058 
L 795.596043 250.195306 
L 796.408492 244.847913 
L 797.220941 242.153991 
L 798.03339 241.643236 
L 798.845838 239.841776 
L 799.658287 237.6473 
L 800.470736 236.623774 
L 801.283185 236.590424 
L 802.095634 237.324118 
L 802.908083 238.587764 
L 806.157878 244.830518 
L 806.970327 245.976727 
L 807.782775 246.81865 
L 808.595224 247.352432 
L 809.407673 247.60107 
L 810.220122 248.932421 
L 812.657468 254.189758 
L 814.282366 260.987528 
L 815.094815 263.527775 
L 815.907264 265.341396 
L 816.719712 266.442896 
L 817.532161 266.902408 
L 818.34461 266.826786 
L 819.157059 266.34205 
L 819.969508 265.580243 
L 823.219303 261.999992 
L 824.031752 261.424944 
L 824.8442 261.036176 
L 825.656649 107.914117 
L 826.469098 315.925109 
L 827.281547 243.314998 
L 828.093996 283.962402 
L 828.906445 266.092896 
L 829.718893 260.983145 
L 837.030933 245.301405 
L 837.843381 244.369239 
L 838.65583 245.085889 
L 839.468279 245.444937 
L 841.093177 245.734249 
L 844.342972 245.838252 
L 845.96787 245.844794 
L 846.780318 320.066168 
L 847.592767 299.71166 
L 849.217665 270.104157 
L 850.030114 258.538922 
L 850.842562 249.847307 
L 851.655011 244.125315 
L 852.46746 241.205391 
L 854.092358 239.001063 
L 854.904807 236.940692 
L 855.717255 236.078299 
L 856.529704 236.214729 
L 857.342153 237.112128 
L 858.154602 238.521768 
L 861.404397 245.076309 
L 862.216846 246.254145 
L 863.029295 247.108422 
L 863.841743 247.638754 
L 864.654192 247.871711 
L 865.466641 248.44987 
L 867.091539 251.912393 
L 869.528885 262.123599 
L 870.341334 264.522571 
L 871.153783 266.150789 
L 871.966232 267.053135 
L 872.77868 267.318941 
L 873.591129 267.076067 
L 874.403578 266.450262 
L 876.028476 264.586085 
L 877.653373 262.65057 
L 878.465822 261.891559 
L 879.278271 261.315521 
L 880.09072 136.700976 
L 880.903169 300.031795 
L 881.715617 246.937263 
L 882.528066 271.949138 
L 883.340515 250.003719 
L 884.152964 247.249463 
L 885.777861 244.299069 
L 886.59031 245.101516 
L 887.402759 245.447198 
L 889.027657 245.732445 
L 892.277452 245.836253 
L 902.026838 245.848198 
L 902.839286 316.1057 
L 903.651735 296.542644 
L 905.276633 268.797572 
L 906.089082 258.084781 
L 906.901531 250.112246 
L 907.713979 244.939298 
L 908.526428 242.369966 
L 909.338877 242.031836 
L 910.151326 240.139805 
L 910.963775 237.882979 
L 911.776223 236.776211 
L 912.588672 236.654971 
L 913.401121 237.32753 
L 914.21357 238.538599 
L 917.463365 244.645402 
L 918.275814 245.712485 
L 919.088263 246.542473 
L 919.900712 248.274012 
L 920.71316 251.630969 
L 923.150507 263.13528 
L 923.962956 265.635692 
L 924.775404 267.244117 
L 925.587853 268.032788 
L 926.400302 268.126252 
L 927.212751 267.667705 
L 928.0252 266.818835 
L 931.274995 262.43453 
L 932.087444 261.636356 
L 932.899893 128.535097 
L 933.712341 301.28097 
L 934.52479 249.306893 
L 935.337239 273.520118 
L 936.149688 254.497054 
L 936.962137 251.334457 
L 940.211932 244.996037 
L 940.211932 244.996037 
" clip-path="url(#p25681fe7df)" style="fill: none; stroke-dasharray: 7.4,3.2; stroke-dashoffset: 0; stroke: #008000; stroke-width: 2"/>
   </g>
   <g id="line2d_17">
    <path d="M 128.575568 252.30401 
L 129.388017 256.196356 
L 139.949852 256.196004 
L 140.7623 253.444797 
L 141.574749 251.185016 
L 143.199647 245.693132 
L 144.824544 238.949505 
L 147.261891 227.392608 
L 150.511686 211.799305 
L 152.136584 204.981059 
L 153.761481 199.395389 
L 154.57393 198.414813 
L 155.386379 198.192253 
L 156.198828 163.051565 
L 157.011277 164.1354 
L 157.823725 165.760351 
L 158.636174 168.002312 
L 159.448623 170.809329 
L 160.261072 174.15845 
L 161.885969 182.334634 
L 163.510867 192.229273 
L 165.948214 208.993253 
L 166.760662 214.764994 
L 167.573111 245.631131 
L 168.38556 249.08469 
L 169.198009 249.930794 
L 170.010458 249.138269 
L 170.822906 254.906123 
L 171.635355 253.064738 
L 193.571473 253.08731 
L 194.383922 249.217753 
L 196.00882 243.569527 
L 197.633717 237.231824 
L 200.071064 226.707261 
L 203.320859 212.364941 
L 204.945757 206.018742 
L 206.570654 200.770828 
L 207.383103 199.922298 
L 208.195552 199.523912 
L 209.008001 199.543971 
L 209.820449 164.66525 
L 210.632898 165.772216 
L 211.445347 167.490779 
L 212.257796 169.800064 
L 213.070245 172.693517 
L 213.882693 176.158976 
L 215.507591 184.657034 
L 217.132489 194.911618 
L 219.569835 211.988967 
L 220.382284 243.707128 
L 221.194733 247.341835 
L 222.007182 249.531176 
L 222.81963 248.995802 
L 223.632079 234.948878 
L 224.444528 250.746006 
L 225.256977 254.147897 
L 226.069426 256.074838 
L 226.881874 254.713687 
L 243.9433 254.716017 
L 244.755748 251.765501 
L 246.380646 248.123109 
L 248.005544 244.038072 
L 249.630441 239.396766 
L 251.255339 234.020129 
L 256.130032 216.931349 
L 257.754929 212.010499 
L 259.379827 208.016061 
L 260.192276 206.451904 
L 261.004725 205.182614 
L 261.817173 204.163745 
L 262.629622 203.550235 
L 263.442071 203.255793 
L 264.25452 203.196107 
L 265.066969 168.525515 
L 265.879417 169.368505 
L 266.691866 170.864881 
L 267.504315 173.005238 
L 268.316764 175.768292 
L 269.129213 179.118195 
L 270.75411 187.425867 
L 272.379008 197.373609 
L 274.816354 213.757629 
L 275.628803 244.71056 
L 276.441252 248.092266 
L 277.253701 249.21625 
L 278.06615 248.367319 
L 278.878598 218.597272 
L 279.691047 253.376351 
L 280.503496 259.050414 
L 281.315945 259.866568 
L 282.128394 258.091763 
L 286.190638 258.033554 
L 294.315126 258.037899 
L 295.127575 257.017436 
L 296.752472 255.91394 
L 298.37737 254.383712 
L 300.814716 251.420327 
L 301.627165 250.040264 
L 303.252063 246.603059 
L 304.87696 242.513356 
L 305.689409 240.124126 
L 313.001449 215.285148 
L 314.626346 211.08201 
L 315.438795 209.367761 
L 316.251244 207.935693 
L 317.063693 206.815258 
L 317.876141 205.970386 
L 318.68859 205.427026 
L 319.501039 205.189403 
L 320.313488 205.136618 
L 321.125937 170.89432 
L 321.938386 171.648223 
L 322.750834 172.979993 
L 323.563283 174.895718 
L 324.375732 177.375426 
L 325.188181 180.256445 
L 326.813078 187.569245 
L 328.437976 196.568325 
L 330.875322 211.779687 
L 331.687771 243.140935 
L 332.50022 246.436648 
L 333.312669 249.016829 
L 334.125118 248.88317 
L 334.937567 248.517216 
L 337.374913 248.780787 
L 342.249606 248.912285 
L 356.061236 248.929627 
L 356.873684 244.635593 
L 359.311031 235.58804 
L 364.998173 212.002418 
L 366.62307 206.555548 
L 368.247968 202.208427 
L 369.060417 200.492875 
L 369.872865 199.964961 
L 370.685314 199.819961 
L 371.497763 165.231929 
L 372.310212 166.080346 
L 373.122661 167.531655 
L 373.93511 169.540043 
L 374.747558 172.110008 
L 375.560007 175.242138 
L 376.372456 178.923312 
L 377.997354 187.788515 
L 379.622251 198.292578 
L 382.059598 215.407046 
L 382.872046 246.21053 
L 383.684495 249.620396 
L 384.496944 249.726757 
L 385.309393 249.166162 
L 386.121842 227.469646 
L 386.934291 249.558392 
L 387.746739 255.619189 
L 388.559188 258.012173 
L 389.371637 257.31378 
L 390.184086 256.841919 
L 406.433062 256.844457 
L 407.245511 254.484433 
L 408.870408 251.430898 
L 410.495306 247.778966 
L 412.120204 243.326399 
L 413.745101 238.194218 
L 416.994897 225.960141 
L 419.432243 216.736013 
L 421.057141 211.235733 
L 422.682038 206.737167 
L 424.306936 203.417047 
L 425.119385 202.260219 
L 425.931834 201.51034 
L 426.744282 201.275584 
L 427.556731 201.295528 
L 428.36918 166.523834 
L 429.181629 167.574772 
L 429.994078 169.308738 
L 430.806526 171.703919 
L 431.618975 174.737164 
L 432.431424 178.36697 
L 434.056322 187.19103 
L 435.681219 197.550303 
L 438.118566 214.451462 
L 438.931015 245.19394 
L 439.743463 248.541972 
L 440.555912 249.313091 
L 441.368361 248.579473 
L 442.18081 226.448608 
L 442.993259 253.214423 
L 443.805707 256.844526 
L 444.618156 258.324316 
L 445.430605 256.783119 
L 451.117747 256.753699 
L 460.867132 256.785379 
L 461.679581 254.60505 
L 463.304479 251.962789 
L 464.929377 248.874573 
L 466.554274 245.131354 
L 468.179172 240.985312 
L 469.804069 235.810111 
L 472.241416 227.164745 
L 475.491211 215.692304 
L 477.116109 210.809914 
L 478.741006 206.846218 
L 479.553455 205.311638 
L 480.365904 204.090833 
L 481.178353 203.209144 
L 481.990802 202.813627 
L 482.80325 202.680097 
L 483.615699 168.451056 
L 484.428148 169.103894 
L 485.240597 170.356093 
L 486.053046 172.213573 
L 486.865494 174.675603 
L 487.677943 177.720099 
L 489.302841 185.399458 
L 490.927739 194.793014 
L 494.177534 216.083553 
L 494.989983 246.349378 
L 495.802431 249.29493 
L 496.61488 249.231844 
L 497.427329 248.780356 
L 498.239778 247.585808 
L 499.052227 251.611972 
L 499.864675 250.479959 
L 512.051408 250.502868 
L 520.175896 250.499911 
L 520.988345 246.466471 
L 523.425691 238.589072 
L 525.863037 229.725263 
L 529.112833 217.063891 
L 530.73773 211.42724 
L 532.362628 206.594692 
L 533.175077 204.520983 
L 533.987526 202.767672 
L 534.799974 201.336234 
L 535.612423 200.824771 
L 536.424872 200.643818 
L 537.237321 200.750306 
L 538.04977 165.925336 
L 538.862218 166.920396 
L 539.674667 168.541258 
L 540.487116 170.775631 
L 541.299565 173.629845 
L 542.112014 177.089452 
L 543.736911 185.657044 
L 545.361809 195.87607 
L 547.799155 212.919901 
L 548.611604 244.3512 
L 549.424053 247.900659 
L 550.236502 249.474309 
L 551.048951 248.488144 
L 551.861399 237.078045 
L 552.673848 250.781047 
L 553.486297 253.447383 
L 554.298746 255.150158 
L 555.111195 253.984213 
L 572.985069 253.984492 
L 573.797517 250.658555 
L 575.422415 246.402175 
L 577.047313 241.622873 
L 578.67221 236.223055 
L 581.109557 227.037787 
L 583.546903 217.938628 
L 585.171801 212.413494 
L 586.796698 207.722417 
L 587.609147 205.785019 
L 589.234045 202.723335 
L 590.046494 201.697652 
L 590.858942 201.363099 
L 591.671391 201.275249 
L 592.48384 166.411386 
L 593.296289 167.331855 
L 594.108738 168.901122 
L 594.921187 171.123706 
L 595.733635 173.981233 
L 596.546084 177.440771 
L 598.170982 186.018297 
L 599.795879 196.238811 
L 602.233226 213.134736 
L 603.045675 244.305309 
L 603.858123 247.751732 
L 604.670572 249.295871 
L 605.483021 248.365096 
L 606.29547 231.21444 
L 607.107919 252.611689 
L 607.920368 255.81776 
L 608.732816 257.254795 
L 609.545265 255.905481 
L 619.294651 255.891252 
L 624.981793 255.906841 
L 625.794241 253.626025 
L 627.419139 250.952832 
L 629.044037 247.837792 
L 629.856485 246.043408 
L 632.293832 239.537759 
L 634.731178 231.436146 
L 638.793422 217.623151 
L 640.41832 212.826477 
L 642.043218 208.946698 
L 642.855666 207.413633 
L 643.668115 206.18938 
L 644.480564 205.295054 
L 645.293013 204.723335 
L 646.105462 204.442987 
L 647.730359 204.276273 
L 648.542808 169.866217 
L 649.355257 170.808848 
L 650.167706 172.414545 
L 650.980155 174.673621 
L 651.792603 177.549077 
L 652.605052 180.99777 
L 654.22995 189.337309 
L 655.854847 199.192303 
L 658.292194 215.242375 
L 659.104643 245.563365 
L 659.917092 248.764635 
L 660.72954 249.246889 
L 661.541989 248.630157 
L 662.354438 234.567622 
L 663.166887 253.331444 
L 663.979336 254.470453 
L 664.791784 256.030989 
L 665.604233 254.92001 
L 681.040761 254.931283 
L 681.853209 252.306217 
L 683.478107 249.095867 
L 685.103005 245.453271 
L 686.727902 241.177217 
L 688.3528 236.297517 
L 694.85239 214.471299 
L 696.477288 210.121002 
L 698.102186 206.710186 
L 698.914635 205.420596 
L 699.727083 204.449121 
L 700.539532 203.801409 
L 701.351981 203.465867 
L 702.16443 203.293896 
L 702.976879 168.913449 
L 703.789327 169.544594 
L 704.601776 170.79064 
L 705.414225 172.665427 
L 706.226674 175.161039 
L 707.039123 178.243893 
L 708.66402 186.046081 
L 710.288918 195.350032 
L 712.726264 211.240612 
L 713.538713 242.972326 
L 714.351162 246.411672 
L 715.163611 249.083997 
L 715.97606 248.956752 
L 716.788508 246.083267 
L 717.600957 252.793432 
L 718.413406 251.733878 
L 719.225855 251.504226 
L 728.975241 251.531779 
L 737.099729 251.52952 
L 737.912178 248.171197 
L 739.537075 243.766373 
L 741.161973 238.811538 
L 742.78687 233.364117 
L 747.661563 216.227566 
L 749.286461 211.472527 
L 750.911359 207.589263 
L 751.723807 206.048724 
L 752.536256 204.770123 
L 753.348705 203.835284 
L 754.161154 203.240318 
L 754.973603 202.996056 
L 756.5985 202.84555 
L 757.410949 168.229817 
L 758.223398 169.13163 
L 759.035847 170.667932 
L 759.848295 172.846892 
L 760.660744 175.658151 
L 761.473193 179.064613 
L 763.098091 187.455858 
L 764.722988 197.410284 
L 767.160335 213.876269 
L 767.972784 244.75474 
L 768.785232 248.127026 
L 769.597681 249.319085 
L 770.41013 248.453968 
L 771.222579 235.599745 
L 772.035028 252.34167 
L 772.847476 254.265921 
L 773.659925 255.75168 
L 774.472374 254.641004 
L 790.72135 254.643319 
L 791.533799 251.812714 
L 793.158697 248.233055 
L 794.783594 244.142521 
L 796.408492 239.323824 
L 798.845838 230.763834 
L 802.095634 219.203159 
L 803.720531 213.974164 
L 805.345429 209.55769 
L 806.157878 207.720491 
L 806.970327 206.161132 
L 807.782775 204.905795 
L 808.595224 203.948604 
L 809.407673 203.360244 
L 810.220122 203.118303 
L 811.845019 202.974728 
L 812.657468 168.393408 
L 813.469917 169.360242 
L 814.282366 170.9995 
L 815.094815 173.298253 
L 815.907264 176.241532 
L 816.719712 179.768183 
L 818.34461 188.351272 
L 819.969508 198.40262 
L 822.406854 214.87435 
L 823.219303 245.361153 
L 824.031752 248.661272 
L 824.8442 249.329273 
L 825.656649 248.642544 
L 826.469098 235.213908 
L 827.281547 253.064885 
L 828.906445 255.841371 
L 829.718893 254.764861 
L 845.96787 254.772598 
L 846.780318 251.945636 
L 848.405216 248.425562 
L 850.030114 244.421159 
L 851.655011 239.651529 
L 853.279909 234.172458 
L 857.342153 219.377737 
L 858.967051 214.0552 
L 860.591948 209.479298 
L 862.216846 205.870271 
L 863.029295 204.49614 
L 863.841743 203.4404 
L 864.654192 202.694286 
L 865.466641 202.373616 
L 866.27909 202.241709 
L 867.091539 167.631658 
L 867.903988 168.349243 
L 868.716436 169.710141 
L 869.528885 171.727957 
L 870.341334 174.396598 
L 871.153783 177.476212 
L 872.77868 185.403604 
L 874.403578 195.219082 
L 876.840924 211.759396 
L 877.653373 243.389543 
L 878.465822 246.927626 
L 879.278271 249.219136 
L 880.09072 248.799986 
L 880.903169 242.362546 
L 881.715617 252.701204 
L 882.528066 252.577375 
L 883.340515 253.066293 
L 884.152964 252.656409 
L 902.026838 252.657954 
L 902.839286 249.033754 
L 904.464184 244.293666 
L 906.089082 238.933116 
L 907.713979 232.843878 
L 911.776223 216.570197 
L 913.401121 210.927834 
L 915.026019 206.207402 
L 915.838467 204.265056 
L 916.650916 202.612038 
L 917.463365 201.308649 
L 918.275814 200.868332 
L 919.088263 200.746882 
L 919.900712 166.05363 
L 920.71316 166.856814 
L 921.525609 168.271723 
L 922.338058 170.300195 
L 923.150507 172.782105 
L 923.962956 175.947825 
L 924.775404 179.717314 
L 926.400302 188.811259 
L 928.0252 199.572874 
L 929.650097 211.128137 
L 930.462546 243.066438 
L 931.274995 246.740898 
L 932.087444 249.379611 
L 932.899893 249.129745 
L 933.712341 240.869664 
L 934.52479 252.185722 
L 936.149688 253.779894 
L 936.962137 253.134719 
L 940.211932 253.140889 
L 940.211932 253.140889 
" clip-path="url(#p25681fe7df)" style="fill: none; stroke-dasharray: 2,3.3; stroke-dashoffset: 0; stroke: #0000ff; stroke-width: 2"/>
   </g>
   <g id="patch_3">
    <path d="M 87.99375 364.87125 
L 87.99375 32.23125 
" style="fill: none; stroke: #000000; stroke-width: 0.8; stroke-linejoin: miter; stroke-linecap: square"/>
   </g>
   <g id="patch_4">
    <path d="M 980.79375 364.87125 
L 980.79375 32.23125 
" style="fill: none; stroke: #000000; stroke-width: 0.8; stroke-linejoin: miter; stroke-linecap: square"/>
   </g>
   <g id="patch_5">
    <path d="M 87.99375 364.87125 
L 980.79375 364.87125 
" style="fill: none; stroke: #000000; stroke-width: 0.8; stroke-linejoin: miter; stroke-linecap: square"/>
   </g>
   <g id="patch_6">
    <path d="M 87.99375 32.23125 
L 980.79375 32.23125 
" style="fill: none; stroke: #000000; stroke-width: 0.8; stroke-linejoin: miter; stroke-linecap: square"/>
   </g>
   <g id="text_17">
    <!-- 关节力矩曲线 -->
    <g transform="translate(462.39375 26.23125)scale(0.24 -0.24)">
     <defs>
      <path id="FangSong-5173" d="M 3650 3475 
Q 4900 3625 4950 3675 
L 5300 3400 
Q 5050 3400 3350 3200 
Q 3300 2650 3225 2100 
Q 5200 2225 5375 2300 
L 5700 2050 
Q 5300 2050 3575 1900 
Q 4075 1025 4362 637 
Q 4650 250 4875 0 
Q 5100 -250 5900 -275 
L 5900 -400 
L 4750 -500 
Q 4800 -400 4412 200 
Q 4025 800 3400 1900 
L 3175 1900 
Q 2925 1075 2287 412 
Q 1650 -250 650 -625 
L 600 -525 
Q 1575 -75 2150 575 
Q 2725 1225 2900 1825 
Q 1250 1700 1075 1675 
L 750 1950 
Q 1075 1900 2975 2075 
Q 3075 2650 3100 3175 
Q 1800 3075 1725 3000 
L 1350 3325 
Q 1825 3275 3475 3475 
Q 3825 4050 4050 4525 
Q 4275 5000 4175 5175 
L 4250 5225 
L 4550 4725 
Q 4475 4775 4275 4475 
Q 4075 4150 3650 3475 
z
M 2750 3925 
Q 2650 3700 2550 3525 
Q 2250 4125 1775 4800 
L 1875 4850 
Q 2400 4300 2750 3925 
z
" transform="scale(0.015625)"/>
      <path id="FangSong-8282" d="M 2700 -175 
Q 2850 -75 2825 350 
L 2850 2550 
Q 1400 2400 1275 2350 
L 950 2625 
Q 1775 2625 4725 3000 
L 4850 3225 
L 5175 2950 
L 4950 2775 
Q 4900 2275 4762 1575 
Q 4625 875 4475 500 
Q 4075 950 3550 1375 
L 3575 1450 
L 4400 1000 
Q 4525 1500 4700 2750 
L 3075 2575 
L 3050 -350 
Q 3050 -725 2975 -625 
L 2700 -175 
z
M 2325 3350 
Q 2425 3400 2375 3775 
Q 1050 3650 925 3600 
L 575 3875 
Q 1000 3850 2375 4000 
L 2350 4325 
Q 2325 4850 2175 5025 
L 2200 5100 
L 2650 4800 
Q 2550 4750 2575 4325 
L 2600 4025 
L 3825 4125 
Q 3950 4525 4000 4787 
Q 4050 5050 3950 5200 
L 4025 5250 
L 4400 4850 
Q 4300 4875 4225 4662 
Q 4150 4450 4075 4150 
Q 5150 4250 5425 4325 
L 5775 4050 
Q 5550 4075 4000 3925 
L 3675 3100 
L 3575 3125 
L 3775 3900 
L 2600 3800 
L 2625 3225 
Q 2650 2925 2525 3000 
L 2325 3350 
z
" transform="scale(0.015625)"/>
      <path id="FangSong-66f2" d="M 5250 3550 
L 5550 3275 
L 5350 3100 
Q 5050 450 4950 25 
Q 4850 -400 4812 -312 
Q 4775 -225 4725 150 
L 1625 -75 
Q 1650 -425 1575 -375 
L 1275 0 
Q 1400 200 1375 400 
L 1250 2575 
Q 1250 3025 1125 3400 
L 1225 3425 
L 1450 3000 
L 2575 3100 
L 2575 4250 
Q 2600 4700 2425 4925 
L 2500 4975 
L 2900 4575 
Q 2775 4525 2800 4225 
L 2800 3125 
L 3675 3200 
L 3675 4525 
Q 3675 5050 3500 5175 
L 3550 5250 
L 4050 4875 
Q 3875 4825 3900 4450 
L 3900 3225 
L 5075 3350 
L 5250 3550 
z
M 3900 1925 
Q 4500 2000 4475 2050 
L 4700 1750 
Q 4400 1750 3900 1700 
L 3900 325 
Q 4550 375 4550 425 
L 4725 175 
Q 4850 475 5075 3075 
L 3900 3000 
L 3900 1925 
z
M 2575 1550 
Q 2075 1500 2000 1450 
L 1700 1725 
Q 1975 1725 2575 1775 
L 2575 2875 
L 1500 2775 
L 1625 175 
L 2575 225 
L 2575 1550 
z
M 2800 250 
L 3675 300 
L 3675 1675 
L 2800 1575 
L 2800 250 
z
M 3675 1900 
L 3675 2975 
L 2800 2900 
L 2800 1800 
L 3675 1900 
z
" transform="scale(0.015625)"/>
      <path id="FangSong-7ebf" d="M 4100 1125 
Q 4450 1450 4637 1700 
Q 4825 1950 4800 2150 
L 4875 2175 
L 5050 1625 
Q 4950 1650 4775 1475 
Q 4600 1300 4200 875 
Q 4800 0 5425 -200 
L 5475 800 
L 5575 800 
Q 5650 -350 5725 -625 
Q 4700 -350 4025 725 
Q 3425 150 2325 -350 
L 2275 -250 
Q 3150 175 3925 950 
Q 3750 1350 3575 2050 
Q 2975 1875 2900 1825 
L 2550 1975 
Q 2875 2050 3550 2250 
Q 3500 2575 3425 3025 
Q 3075 2950 2950 2875 
L 2650 3025 
Q 2850 3075 3425 3225 
Q 3325 4025 3300 4462 
Q 3275 4900 3125 5125 
L 3200 5200 
L 3650 4825 
Q 3550 4650 3562 4325 
Q 3575 4000 3625 3325 
Q 4550 3600 4600 3675 
L 4950 3475 
Q 4600 3400 3650 3100 
Q 3700 2600 3775 2300 
Q 5000 2725 5050 2800 
L 5400 2600 
Q 5225 2575 3800 2125 
Q 3925 1500 4100 1125 
z
M 2525 1725 
Q 1375 1350 1175 1225 
L 950 1500 
L 1225 1575 
L 1950 2725 
Q 1175 2575 975 2450 
L 775 2750 
L 1050 2875 
Q 1550 3800 1737 4250 
Q 1925 4700 1850 4900 
L 1925 4950 
L 2225 4475 
Q 2125 4525 1812 3937 
Q 1500 3350 1225 2800 
L 2075 2925 
Q 2450 3500 2375 3750 
L 2450 3800 
L 2700 3325 
Q 2600 3325 2337 2925 
Q 2075 2525 1475 1625 
L 2500 1825 
L 2525 1725 
z
M 2825 825 
Q 1100 50 1000 -25 
L 625 200 
Q 1000 250 2775 950 
L 2825 825 
z
M 4700 3900 
Q 4450 4175 3925 4650 
L 3975 4750 
Q 4525 4475 4700 4400 
L 4700 3900 
z
" transform="scale(0.015625)"/>
     </defs>
     <use xlink:href="#FangSong-5173"/>
     <use xlink:href="#FangSong-8282" x="100"/>
     <use xlink:href="#FangSong-529b" x="200"/>
     <use xlink:href="#FangSong-77e9" x="300"/>
     <use xlink:href="#FangSong-66f2" x="400"/>
     <use xlink:href="#FangSong-7ebf" x="500"/>
    </g>
   </g>
   <g id="legend_1">
    <g id="patch_7">
     <path d="M 862.803125 133.065625 
L 966.79375 133.065625 
Q 970.79375 133.065625 970.79375 129.065625 
L 970.79375 46.23125 
Q 970.79375 42.23125 966.79375 42.23125 
L 862.803125 42.23125 
Q 858.803125 42.23125 858.803125 46.23125 
L 858.803125 129.065625 
Q 858.803125 133.065625 862.803125 133.065625 
z
" style="fill: #ffffff; opacity: 0.8; stroke: #cccccc; stroke-linejoin: miter"/>
    </g>
    <g id="line2d_18">
     <path d="M 866.803125 57.23125 
L 886.803125 57.23125 
L 906.803125 57.23125 
" style="fill: none; stroke: #ff0000; stroke-width: 2; stroke-linecap: square"/>
    </g>
    <g id="text_18">
     <!-- roll -->
     <g transform="translate(922.803125 64.23125)scale(0.2 -0.2)">
      <defs>
       <path id="TimesNewRomanPSMT-72" d="M 1038 2947 
L 1038 2303 
Q 1397 2947 1775 2947 
Q 1947 2947 2059 2842 
Q 2172 2738 2172 2600 
Q 2172 2478 2090 2393 
Q 2009 2309 1897 2309 
Q 1788 2309 1652 2417 
Q 1516 2525 1450 2525 
Q 1394 2525 1328 2463 
Q 1188 2334 1038 2041 
L 1038 669 
Q 1038 431 1097 309 
Q 1138 225 1241 169 
Q 1344 113 1538 113 
L 1538 0 
L 72 0 
L 72 113 
Q 291 113 397 181 
Q 475 231 506 341 
Q 522 394 522 644 
L 522 1753 
Q 522 2253 501 2348 
Q 481 2444 426 2487 
Q 372 2531 291 2531 
Q 194 2531 72 2484 
L 41 2597 
L 906 2947 
L 1038 2947 
z
" transform="scale(0.015625)"/>
       <path id="TimesNewRomanPSMT-6f" d="M 1600 2947 
Q 2250 2947 2644 2453 
Q 2978 2031 2978 1484 
Q 2978 1100 2793 706 
Q 2609 313 2286 112 
Q 1963 -88 1566 -88 
Q 919 -88 538 428 
Q 216 863 216 1403 
Q 216 1797 411 2186 
Q 606 2575 925 2761 
Q 1244 2947 1600 2947 
z
M 1503 2744 
Q 1338 2744 1170 2645 
Q 1003 2547 900 2300 
Q 797 2053 797 1666 
Q 797 1041 1045 587 
Q 1294 134 1700 134 
Q 2003 134 2200 384 
Q 2397 634 2397 1244 
Q 2397 2006 2069 2444 
Q 1847 2744 1503 2744 
z
" transform="scale(0.015625)"/>
       <path id="TimesNewRomanPSMT-6c" d="M 1184 4444 
L 1184 647 
Q 1184 378 1223 290 
Q 1263 203 1344 158 
Q 1425 113 1647 113 
L 1647 0 
L 244 0 
L 244 113 
Q 441 113 512 153 
Q 584 194 625 287 
Q 666 381 666 647 
L 666 3247 
Q 666 3731 644 3842 
Q 622 3953 573 3993 
Q 525 4034 450 4034 
Q 369 4034 244 3984 
L 191 4094 
L 1044 4444 
L 1184 4444 
z
" transform="scale(0.015625)"/>
      </defs>
      <use xlink:href="#TimesNewRomanPSMT-72"/>
      <use xlink:href="#TimesNewRomanPSMT-6f" x="33.300781"/>
      <use xlink:href="#TimesNewRomanPSMT-6c" x="83.300781"/>
      <use xlink:href="#TimesNewRomanPSMT-6c" x="111.083984"/>
     </g>
    </g>
    <g id="line2d_19">
     <path d="M 866.803125 85.509375 
L 886.803125 85.509375 
L 906.803125 85.509375 
" style="fill: none; stroke-dasharray: 7.4,3.2; stroke-dashoffset: 0; stroke: #008000; stroke-width: 2"/>
    </g>
    <g id="text_19">
     <!-- pitch -->
     <g transform="translate(922.803125 92.509375)scale(0.2 -0.2)">
      <defs>
       <path id="TimesNewRomanPSMT-70" d="M -6 2578 
L 875 2934 
L 994 2934 
L 994 2266 
Q 1216 2644 1439 2795 
Q 1663 2947 1909 2947 
Q 2341 2947 2628 2609 
Q 2981 2197 2981 1534 
Q 2981 794 2556 309 
Q 2206 -88 1675 -88 
Q 1444 -88 1275 -22 
Q 1150 25 994 166 
L 994 -706 
Q 994 -1000 1030 -1079 
Q 1066 -1159 1155 -1206 
Q 1244 -1253 1478 -1253 
L 1478 -1369 
L -22 -1369 
L -22 -1253 
L 56 -1253 
Q 228 -1256 350 -1188 
Q 409 -1153 442 -1076 
Q 475 -1000 475 -688 
L 475 2019 
Q 475 2297 450 2372 
Q 425 2447 370 2484 
Q 316 2522 222 2522 
Q 147 2522 31 2478 
L -6 2578 
z
M 994 2081 
L 994 1013 
Q 994 666 1022 556 
Q 1066 375 1236 237 
Q 1406 100 1666 100 
Q 1978 100 2172 344 
Q 2425 663 2425 1241 
Q 2425 1897 2138 2250 
Q 1938 2494 1663 2494 
Q 1513 2494 1366 2419 
Q 1253 2363 994 2081 
z
" transform="scale(0.015625)"/>
       <path id="TimesNewRomanPSMT-69" d="M 928 4444 
Q 1059 4444 1151 4351 
Q 1244 4259 1244 4128 
Q 1244 3997 1151 3903 
Q 1059 3809 928 3809 
Q 797 3809 703 3903 
Q 609 3997 609 4128 
Q 609 4259 701 4351 
Q 794 4444 928 4444 
z
M 1188 2947 
L 1188 647 
Q 1188 378 1227 289 
Q 1266 200 1342 156 
Q 1419 113 1622 113 
L 1622 0 
L 231 0 
L 231 113 
Q 441 113 512 153 
Q 584 194 626 287 
Q 669 381 669 647 
L 669 1750 
Q 669 2216 641 2353 
Q 619 2453 572 2492 
Q 525 2531 444 2531 
Q 356 2531 231 2484 
L 188 2597 
L 1050 2947 
L 1188 2947 
z
" transform="scale(0.015625)"/>
       <path id="TimesNewRomanPSMT-74" d="M 1031 3803 
L 1031 2863 
L 1700 2863 
L 1700 2644 
L 1031 2644 
L 1031 788 
Q 1031 509 1111 412 
Q 1191 316 1316 316 
Q 1419 316 1516 380 
Q 1613 444 1666 569 
L 1788 569 
Q 1678 263 1478 108 
Q 1278 -47 1066 -47 
Q 922 -47 784 33 
Q 647 113 581 261 
Q 516 409 516 719 
L 516 2644 
L 63 2644 
L 63 2747 
Q 234 2816 414 2980 
Q 594 3144 734 3369 
Q 806 3488 934 3803 
L 1031 3803 
z
" transform="scale(0.015625)"/>
       <path id="TimesNewRomanPSMT-63" d="M 2631 1088 
Q 2516 522 2178 217 
Q 1841 -88 1431 -88 
Q 944 -88 581 321 
Q 219 731 219 1428 
Q 219 2103 620 2525 
Q 1022 2947 1584 2947 
Q 2006 2947 2278 2723 
Q 2550 2500 2550 2259 
Q 2550 2141 2473 2067 
Q 2397 1994 2259 1994 
Q 2075 1994 1981 2113 
Q 1928 2178 1911 2362 
Q 1894 2547 1784 2644 
Q 1675 2738 1481 2738 
Q 1169 2738 978 2506 
Q 725 2200 725 1697 
Q 725 1184 976 792 
Q 1228 400 1656 400 
Q 1963 400 2206 609 
Q 2378 753 2541 1131 
L 2631 1088 
z
" transform="scale(0.015625)"/>
       <path id="TimesNewRomanPSMT-68" d="M 1041 4444 
L 1041 2350 
Q 1388 2731 1591 2839 
Q 1794 2947 1997 2947 
Q 2241 2947 2416 2812 
Q 2591 2678 2675 2391 
Q 2734 2191 2734 1659 
L 2734 647 
Q 2734 375 2778 275 
Q 2809 200 2884 156 
Q 2959 113 3159 113 
L 3159 0 
L 1753 0 
L 1753 113 
L 1819 113 
Q 2019 113 2097 173 
Q 2175 234 2206 353 
Q 2216 403 2216 647 
L 2216 1659 
Q 2216 2128 2167 2275 
Q 2119 2422 2012 2495 
Q 1906 2569 1756 2569 
Q 1603 2569 1437 2487 
Q 1272 2406 1041 2159 
L 1041 647 
Q 1041 353 1073 281 
Q 1106 209 1195 161 
Q 1284 113 1503 113 
L 1503 0 
L 84 0 
L 84 113 
Q 275 113 384 172 
Q 447 203 484 290 
Q 522 378 522 647 
L 522 3238 
Q 522 3728 498 3840 
Q 475 3953 426 3993 
Q 378 4034 297 4034 
Q 231 4034 84 3984 
L 41 4094 
L 897 4444 
L 1041 4444 
z
" transform="scale(0.015625)"/>
      </defs>
      <use xlink:href="#TimesNewRomanPSMT-70"/>
      <use xlink:href="#TimesNewRomanPSMT-69" x="50"/>
      <use xlink:href="#TimesNewRomanPSMT-74" x="77.783203"/>
      <use xlink:href="#TimesNewRomanPSMT-63" x="105.566406"/>
      <use xlink:href="#TimesNewRomanPSMT-68" x="149.951172"/>
     </g>
    </g>
    <g id="line2d_20">
     <path d="M 866.803125 113.7875 
L 886.803125 113.7875 
L 906.803125 113.7875 
" style="fill: none; stroke-dasharray: 2,3.3; stroke-dashoffset: 0; stroke: #0000ff; stroke-width: 2"/>
    </g>
    <g id="text_20">
     <!-- knee -->
     <g transform="translate(922.803125 120.7875)scale(0.2 -0.2)">
      <defs>
       <path id="TimesNewRomanPSMT-6b" d="M 1047 4444 
L 1047 1597 
L 1775 2259 
Q 2006 2472 2044 2528 
Q 2069 2566 2069 2603 
Q 2069 2666 2017 2711 
Q 1966 2756 1847 2763 
L 1847 2863 
L 3091 2863 
L 3091 2763 
Q 2834 2756 2664 2684 
Q 2494 2613 2291 2428 
L 1556 1750 
L 2291 822 
Q 2597 438 2703 334 
Q 2853 188 2966 144 
Q 3044 113 3238 113 
L 3238 0 
L 1847 0 
L 1847 113 
Q 1966 116 2008 148 
Q 2050 181 2050 241 
Q 2050 313 1925 472 
L 1047 1594 
L 1047 644 
Q 1047 366 1086 278 
Q 1125 191 1197 153 
Q 1269 116 1509 113 
L 1509 0 
L 53 0 
L 53 113 
Q 272 113 381 166 
Q 447 200 481 272 
Q 528 375 528 628 
L 528 3234 
Q 528 3731 506 3842 
Q 484 3953 434 3995 
Q 384 4038 303 4038 
Q 238 4038 106 3984 
L 53 4094 
L 903 4444 
L 1047 4444 
z
" transform="scale(0.015625)"/>
       <path id="TimesNewRomanPSMT-6e" d="M 1034 2341 
Q 1538 2947 1994 2947 
Q 2228 2947 2397 2830 
Q 2566 2713 2666 2444 
Q 2734 2256 2734 1869 
L 2734 647 
Q 2734 375 2778 278 
Q 2813 200 2889 156 
Q 2966 113 3172 113 
L 3172 0 
L 1756 0 
L 1756 113 
L 1816 113 
Q 2016 113 2095 173 
Q 2175 234 2206 353 
Q 2219 400 2219 647 
L 2219 1819 
Q 2219 2209 2117 2386 
Q 2016 2563 1775 2563 
Q 1403 2563 1034 2156 
L 1034 647 
Q 1034 356 1069 288 
Q 1113 197 1189 155 
Q 1266 113 1500 113 
L 1500 0 
L 84 0 
L 84 113 
L 147 113 
Q 366 113 442 223 
Q 519 334 519 647 
L 519 1709 
Q 519 2225 495 2337 
Q 472 2450 423 2490 
Q 375 2531 294 2531 
Q 206 2531 84 2484 
L 38 2597 
L 900 2947 
L 1034 2947 
L 1034 2341 
z
" transform="scale(0.015625)"/>
       <path id="TimesNewRomanPSMT-65" d="M 681 1784 
Q 678 1147 991 784 
Q 1303 422 1725 422 
Q 2006 422 2214 576 
Q 2422 731 2563 1106 
L 2659 1044 
Q 2594 616 2278 264 
Q 1963 -88 1488 -88 
Q 972 -88 605 314 
Q 238 716 238 1394 
Q 238 2128 614 2539 
Q 991 2950 1559 2950 
Q 2041 2950 2350 2633 
Q 2659 2316 2659 1784 
L 681 1784 
z
M 681 1966 
L 2006 1966 
Q 1991 2241 1941 2353 
Q 1863 2528 1708 2628 
Q 1553 2728 1384 2728 
Q 1125 2728 920 2526 
Q 716 2325 681 1966 
z
" transform="scale(0.015625)"/>
      </defs>
      <use xlink:href="#TimesNewRomanPSMT-6b"/>
      <use xlink:href="#TimesNewRomanPSMT-6e" x="50"/>
      <use xlink:href="#TimesNewRomanPSMT-65" x="100"/>
      <use xlink:href="#TimesNewRomanPSMT-65" x="144.384766"/>
     </g>
    </g>
   </g>
  </g>
 </g>
 <defs>
  <clipPath id="p25681fe7df">
   <rect x="87.99375" y="32.23125" width="892.8" height="332.64"/>
  </clipPath>
 </defs>
</svg>
