<?xml version="1.0" encoding="utf-8" standalone="no"?>
<!DOCTYPE svg PUBLIC "-//W3C//DTD SVG 1.1//EN"
  "http://www.w3.org/Graphics/SVG/1.1/DTD/svg11.dtd">
<svg xmlns:xlink="http://www.w3.org/1999/xlink" width="977.99375pt" height="419.65875pt" viewBox="0 0 977.99375 419.65875" xmlns="http://www.w3.org/2000/svg" version="1.1">
 <metadata>
  <rdf:RDF xmlns:dc="http://purl.org/dc/elements/1.1/" xmlns:cc="http://creativecommons.org/ns#" xmlns:rdf="http://www.w3.org/1999/02/22-rdf-syntax-ns#">
   <cc:Work>
    <dc:type rdf:resource="http://purl.org/dc/dcmitype/StillImage"/>
    <dc:date>2022-10-12T09:48:35.307858</dc:date>
    <dc:format>image/svg+xml</dc:format>
    <dc:creator>
     <cc:Agent>
      <dc:title>Matplotlib v3.5.1, https://matplotlib.org/</dc:title>
     </cc:Agent>
    </dc:creator>
   </cc:Work>
  </rdf:RDF>
 </metadata>
 <defs>
  <style type="text/css">*{stroke-linejoin: round; stroke-linecap: butt}</style>
 </defs>
 <g id="figure_1">
  <g id="patch_1">
   <path d="M 0 419.65875 
L 977.99375 419.65875 
L 977.99375 0 
L 0 0 
z
" style="fill: #ffffff"/>
  </g>
  <g id="axes_1">
   <g id="patch_2">
    <path d="M 77.99375 364.7775 
L 970.79375 364.7775 
L 970.79375 32.1375 
L 77.99375 32.1375 
z
" style="fill: #ffffff"/>
   </g>
   <g id="matplotlib.axis_1">
    <g id="xtick_1">
     <g id="line2d_1">
      <defs>
       <path id="m46deb52afa" d="M 0 0 
L 0 3.5 
" style="stroke: #000000; stroke-width: 0.8"/>
      </defs>
      <g>
       <use xlink:href="#m46deb52afa" x="117.763119" y="364.7775" style="stroke: #000000; stroke-width: 0.8"/>
      </g>
     </g>
     <g id="text_1">
      <!-- 0 -->
      <g transform="translate(112.763119 385.665)scale(0.2 -0.2)">
       <defs>
        <path id="TimesNewRomanPSMT-30" d="M 231 2094 
Q 231 2819 450 3342 
Q 669 3866 1031 4122 
Q 1313 4325 1613 4325 
Q 2100 4325 2488 3828 
Q 2972 3213 2972 2159 
Q 2972 1422 2759 906 
Q 2547 391 2217 158 
Q 1888 -75 1581 -75 
Q 975 -75 572 641 
Q 231 1244 231 2094 
z
M 844 2016 
Q 844 1141 1059 588 
Q 1238 122 1591 122 
Q 1759 122 1940 273 
Q 2122 425 2216 781 
Q 2359 1319 2359 2297 
Q 2359 3022 2209 3506 
Q 2097 3866 1919 4016 
Q 1791 4119 1609 4119 
Q 1397 4119 1231 3928 
Q 1006 3669 925 3112 
Q 844 2556 844 2016 
z
" transform="scale(0.015625)"/>
       </defs>
       <use xlink:href="#TimesNewRomanPSMT-30"/>
      </g>
     </g>
    </g>
    <g id="xtick_2">
     <g id="line2d_2">
      <g>
       <use xlink:href="#m46deb52afa" x="280.252882" y="364.7775" style="stroke: #000000; stroke-width: 0.8"/>
      </g>
     </g>
     <g id="text_2">
      <!-- 2 -->
      <g transform="translate(275.252882 385.665)scale(0.2 -0.2)">
       <defs>
        <path id="TimesNewRomanPSMT-32" d="M 2934 816 
L 2638 0 
L 138 0 
L 138 116 
Q 1241 1122 1691 1759 
Q 2141 2397 2141 2925 
Q 2141 3328 1894 3587 
Q 1647 3847 1303 3847 
Q 991 3847 742 3664 
Q 494 3481 375 3128 
L 259 3128 
Q 338 3706 661 4015 
Q 984 4325 1469 4325 
Q 1984 4325 2329 3994 
Q 2675 3663 2675 3213 
Q 2675 2891 2525 2569 
Q 2294 2063 1775 1497 
Q 997 647 803 472 
L 1909 472 
Q 2247 472 2383 497 
Q 2519 522 2628 598 
Q 2738 675 2819 816 
L 2934 816 
z
" transform="scale(0.015625)"/>
       </defs>
       <use xlink:href="#TimesNewRomanPSMT-32"/>
      </g>
     </g>
    </g>
    <g id="xtick_3">
     <g id="line2d_3">
      <g>
       <use xlink:href="#m46deb52afa" x="442.742644" y="364.7775" style="stroke: #000000; stroke-width: 0.8"/>
      </g>
     </g>
     <g id="text_3">
      <!-- 4 -->
      <g transform="translate(437.742644 385.665)scale(0.2 -0.2)">
       <defs>
        <path id="TimesNewRomanPSMT-34" d="M 2978 1563 
L 2978 1119 
L 2409 1119 
L 2409 0 
L 1894 0 
L 1894 1119 
L 100 1119 
L 100 1519 
L 2066 4325 
L 2409 4325 
L 2409 1563 
L 2978 1563 
z
M 1894 1563 
L 1894 3666 
L 406 1563 
L 1894 1563 
z
" transform="scale(0.015625)"/>
       </defs>
       <use xlink:href="#TimesNewRomanPSMT-34"/>
      </g>
     </g>
    </g>
    <g id="xtick_4">
     <g id="line2d_4">
      <g>
       <use xlink:href="#m46deb52afa" x="605.232407" y="364.7775" style="stroke: #000000; stroke-width: 0.8"/>
      </g>
     </g>
     <g id="text_4">
      <!-- 6 -->
      <g transform="translate(600.232407 385.665)scale(0.2 -0.2)">
       <defs>
        <path id="TimesNewRomanPSMT-36" d="M 2869 4325 
L 2869 4209 
Q 2456 4169 2195 4045 
Q 1934 3922 1679 3669 
Q 1425 3416 1258 3105 
Q 1091 2794 978 2366 
Q 1428 2675 1881 2675 
Q 2316 2675 2634 2325 
Q 2953 1975 2953 1425 
Q 2953 894 2631 456 
Q 2244 -75 1606 -75 
Q 1172 -75 869 213 
Q 275 772 275 1663 
Q 275 2231 503 2743 
Q 731 3256 1154 3653 
Q 1578 4050 1965 4187 
Q 2353 4325 2688 4325 
L 2869 4325 
z
M 925 2138 
Q 869 1716 869 1456 
Q 869 1156 980 804 
Q 1091 453 1309 247 
Q 1469 100 1697 100 
Q 1969 100 2183 356 
Q 2397 613 2397 1088 
Q 2397 1622 2184 2012 
Q 1972 2403 1581 2403 
Q 1463 2403 1327 2353 
Q 1191 2303 925 2138 
z
" transform="scale(0.015625)"/>
       </defs>
       <use xlink:href="#TimesNewRomanPSMT-36"/>
      </g>
     </g>
    </g>
    <g id="xtick_5">
     <g id="line2d_5">
      <g>
       <use xlink:href="#m46deb52afa" x="767.722169" y="364.7775" style="stroke: #000000; stroke-width: 0.8"/>
      </g>
     </g>
     <g id="text_5">
      <!-- 8 -->
      <g transform="translate(762.722169 385.665)scale(0.2 -0.2)">
       <defs>
        <path id="TimesNewRomanPSMT-38" d="M 1228 2134 
Q 725 2547 579 2797 
Q 434 3047 434 3316 
Q 434 3728 753 4026 
Q 1072 4325 1600 4325 
Q 2113 4325 2425 4047 
Q 2738 3769 2738 3413 
Q 2738 3175 2569 2928 
Q 2400 2681 1866 2347 
Q 2416 1922 2594 1678 
Q 2831 1359 2831 1006 
Q 2831 559 2490 242 
Q 2150 -75 1597 -75 
Q 994 -75 656 303 
Q 388 606 388 966 
Q 388 1247 577 1523 
Q 766 1800 1228 2134 
z
M 1719 2469 
Q 2094 2806 2194 3001 
Q 2294 3197 2294 3444 
Q 2294 3772 2109 3958 
Q 1925 4144 1606 4144 
Q 1288 4144 1088 3959 
Q 888 3775 888 3528 
Q 888 3366 970 3203 
Q 1053 3041 1206 2894 
L 1719 2469 
z
M 1375 2016 
Q 1116 1797 991 1539 
Q 866 1281 866 981 
Q 866 578 1086 336 
Q 1306 94 1647 94 
Q 1984 94 2187 284 
Q 2391 475 2391 747 
Q 2391 972 2272 1150 
Q 2050 1481 1375 2016 
z
" transform="scale(0.015625)"/>
       </defs>
       <use xlink:href="#TimesNewRomanPSMT-38"/>
      </g>
     </g>
    </g>
    <g id="xtick_6">
     <g id="line2d_6">
      <g>
       <use xlink:href="#m46deb52afa" x="930.211932" y="364.7775" style="stroke: #000000; stroke-width: 0.8"/>
      </g>
     </g>
     <g id="text_6">
      <!-- 10 -->
      <g transform="translate(920.211932 385.665)scale(0.2 -0.2)">
       <defs>
        <path id="TimesNewRomanPSMT-31" d="M 750 3822 
L 1781 4325 
L 1884 4325 
L 1884 747 
Q 1884 391 1914 303 
Q 1944 216 2037 169 
Q 2131 122 2419 116 
L 2419 0 
L 825 0 
L 825 116 
Q 1125 122 1212 167 
Q 1300 213 1334 289 
Q 1369 366 1369 747 
L 1369 3034 
Q 1369 3497 1338 3628 
Q 1316 3728 1258 3775 
Q 1200 3822 1119 3822 
Q 1003 3822 797 3725 
L 750 3822 
z
" transform="scale(0.015625)"/>
       </defs>
       <use xlink:href="#TimesNewRomanPSMT-31"/>
       <use xlink:href="#TimesNewRomanPSMT-30" x="50"/>
      </g>
     </g>
    </g>
    <g id="text_7">
     <!-- 时间 [s] -->
     <g transform="translate(484.39375 409.568125)scale(0.2 -0.2)">
      <defs>
       <path id="FangSong-65f6" d="M 1200 725 
Q 1225 -50 1100 125 
L 875 550 
Q 1000 725 975 1125 
L 975 3350 
Q 975 3850 900 4375 
L 975 4400 
L 1150 3925 
L 2275 4100 
L 2400 4325 
L 2700 4100 
L 2525 3875 
Q 2525 1425 2462 837 
Q 2400 250 2325 337 
Q 2250 425 2200 850 
L 1200 725 
z
M 1200 975 
Q 1925 1050 1975 1100 
L 2225 850 
Q 2275 1625 2275 2175 
L 2275 3825 
L 1200 3675 
L 1200 2525 
Q 1875 2600 2025 2700 
L 2250 2400 
Q 1900 2375 1200 2275 
L 1200 975 
z
M 4325 5250 
L 4775 4875 
Q 4625 4775 4650 4300 
L 4650 3100 
Q 5650 3225 5650 3325 
L 6000 3025 
Q 5625 3000 4650 2875 
L 4650 425 
Q 4675 -350 4475 -675 
Q 4225 -325 3400 275 
L 3450 375 
L 4375 -150 
Q 4425 150 4425 425 
L 4425 2850 
Q 3100 2675 2900 2600 
L 2550 2900 
Q 3000 2900 4425 3075 
L 4425 4400 
Q 4450 4925 4250 5175 
L 4325 5250 
z
M 3525 1275 
Q 3325 1850 3050 2450 
L 3125 2500 
Q 3425 2100 3725 1675 
Q 3650 1500 3525 1275 
z
" transform="scale(0.015625)"/>
       <path id="FangSong-95f4" d="M 4150 1450 
L 2525 1300 
Q 2550 800 2450 900 
L 2225 1275 
Q 2300 1400 2300 1650 
L 2300 2875 
Q 2325 3225 2200 3525 
L 2275 3575 
L 2500 3225 
L 3750 3400 
L 3900 3600 
L 4200 3325 
L 4025 3150 
L 3975 1650 
L 4150 1450 
z
M 5000 4925 
L 5325 4675 
L 5175 4475 
L 5175 450 
Q 5175 -325 4975 -650 
Q 4700 -225 3975 500 
L 4050 575 
L 4875 -75 
Q 4925 -75 4950 425 
L 4950 4475 
Q 3075 4275 2925 4250 
L 2550 4475 
Q 2925 4450 4875 4700 
L 5000 4925 
z
M 3775 3150 
L 2525 3000 
L 2525 2375 
Q 3225 2475 3300 2550 
L 3550 2300 
Q 3300 2300 2525 2175 
L 2525 1525 
L 3725 1650 
L 3775 3150 
z
M 1400 -225 
Q 1425 -675 1325 -550 
L 1075 -175 
Q 1175 -25 1175 350 
L 1175 3475 
Q 1175 3900 1025 4225 
L 1100 4275 
L 1475 3875 
Q 1400 3725 1400 3375 
L 1400 -225 
z
M 1425 5175 
Q 1950 4725 2200 4525 
Q 2125 4275 2050 4075 
Q 1875 4425 1350 5100 
L 1425 5175 
z
" transform="scale(0.015625)"/>
       <path id="FangSong-20" transform="scale(0.015625)"/>
       <path id="FangSong-5b" d="M 2725 5100 
L 2725 4875 
L 1475 4875 
L 1475 -225 
L 2725 -225 
L 2725 -450 
L 1225 -450 
L 1225 5100 
L 2725 5100 
z
" transform="scale(0.015625)"/>
       <path id="FangSong-73" d="M 600 2075 
Q 600 2450 887 2650 
Q 1175 2850 1575 2850 
Q 1800 2850 2000 2787 
Q 2200 2725 2275 2725 
Q 2350 2725 2400 2750 
Q 2450 2775 2525 2850 
L 2625 2025 
L 2475 2000 
Q 2375 2325 2137 2512 
Q 1900 2700 1600 2700 
Q 1275 2700 1087 2575 
Q 900 2450 900 2225 
Q 900 2025 987 1912 
Q 1075 1800 1300 1750 
Q 1475 1675 1737 1587 
Q 2000 1500 2225 1400 
Q 2425 1300 2562 1137 
Q 2700 975 2700 775 
Q 2700 400 2437 187 
Q 2175 -25 1675 -25 
Q 1350 -25 1187 37 
Q 1025 100 925 100 
Q 850 100 762 62 
Q 675 25 575 -25 
L 500 900 
L 650 925 
Q 725 525 975 325 
Q 1225 125 1675 125 
Q 2025 125 2212 250 
Q 2400 375 2400 625 
Q 2400 800 2300 912 
Q 2200 1025 2100 1075 
Q 1850 1175 1550 1287 
Q 1250 1400 1025 1500 
Q 800 1600 700 1750 
Q 600 1900 600 2075 
z
" transform="scale(0.015625)"/>
       <path id="FangSong-5d" d="M 1900 -450 
L 400 -450 
L 400 -225 
L 1650 -225 
L 1650 4875 
L 400 4875 
L 400 5100 
L 1900 5100 
L 1900 -450 
z
" transform="scale(0.015625)"/>
      </defs>
      <use xlink:href="#FangSong-65f6"/>
      <use xlink:href="#FangSong-95f4" x="100"/>
      <use xlink:href="#FangSong-20" x="200"/>
      <use xlink:href="#FangSong-5b" x="250"/>
      <use xlink:href="#FangSong-73" x="300"/>
      <use xlink:href="#FangSong-5d" x="350"/>
     </g>
    </g>
   </g>
   <g id="matplotlib.axis_2">
    <g id="ytick_1">
     <g id="line2d_7">
      <defs>
       <path id="m7fb714bf7e" d="M 0 0 
L -3.5 0 
" style="stroke: #000000; stroke-width: 0.8"/>
      </defs>
      <g>
       <use xlink:href="#m7fb714bf7e" x="77.99375" y="344.050644" style="stroke: #000000; stroke-width: 0.8"/>
      </g>
     </g>
     <g id="text_8">
      <!-- −100 -->
      <g transform="translate(29.715625 350.994394)scale(0.2 -0.2)">
       <defs>
        <path id="TimesNewRomanPSMT-2212" d="M 3484 2000 
L 116 2000 
L 116 2256 
L 3484 2256 
L 3484 2000 
z
" transform="scale(0.015625)"/>
       </defs>
       <use xlink:href="#TimesNewRomanPSMT-2212"/>
       <use xlink:href="#TimesNewRomanPSMT-31" x="56.396484"/>
       <use xlink:href="#TimesNewRomanPSMT-30" x="106.396484"/>
       <use xlink:href="#TimesNewRomanPSMT-30" x="156.396484"/>
      </g>
     </g>
    </g>
    <g id="ytick_2">
     <g id="line2d_8">
      <g>
       <use xlink:href="#m7fb714bf7e" x="77.99375" y="282.754192" style="stroke: #000000; stroke-width: 0.8"/>
      </g>
     </g>
     <g id="text_9">
      <!-- −50 -->
      <g transform="translate(39.715625 289.697942)scale(0.2 -0.2)">
       <defs>
        <path id="TimesNewRomanPSMT-35" d="M 2778 4238 
L 2534 3706 
L 1259 3706 
L 981 3138 
Q 1809 3016 2294 2522 
Q 2709 2097 2709 1522 
Q 2709 1188 2573 903 
Q 2438 619 2231 419 
Q 2025 219 1772 97 
Q 1413 -75 1034 -75 
Q 653 -75 479 54 
Q 306 184 306 341 
Q 306 428 378 495 
Q 450 563 559 563 
Q 641 563 702 538 
Q 763 513 909 409 
Q 1144 247 1384 247 
Q 1750 247 2026 523 
Q 2303 800 2303 1197 
Q 2303 1581 2056 1914 
Q 1809 2247 1375 2428 
Q 1034 2569 447 2591 
L 1259 4238 
L 2778 4238 
z
" transform="scale(0.015625)"/>
       </defs>
       <use xlink:href="#TimesNewRomanPSMT-2212"/>
       <use xlink:href="#TimesNewRomanPSMT-35" x="56.396484"/>
       <use xlink:href="#TimesNewRomanPSMT-30" x="106.396484"/>
      </g>
     </g>
    </g>
    <g id="ytick_3">
     <g id="line2d_9">
      <g>
       <use xlink:href="#m7fb714bf7e" x="77.99375" y="221.457739" style="stroke: #000000; stroke-width: 0.8"/>
      </g>
     </g>
     <g id="text_10">
      <!-- 0 -->
      <g transform="translate(60.99375 228.401489)scale(0.2 -0.2)">
       <use xlink:href="#TimesNewRomanPSMT-30"/>
      </g>
     </g>
    </g>
    <g id="ytick_4">
     <g id="line2d_10">
      <g>
       <use xlink:href="#m7fb714bf7e" x="77.99375" y="160.161286" style="stroke: #000000; stroke-width: 0.8"/>
      </g>
     </g>
     <g id="text_11">
      <!-- 50 -->
      <g transform="translate(50.99375 167.105036)scale(0.2 -0.2)">
       <use xlink:href="#TimesNewRomanPSMT-35"/>
       <use xlink:href="#TimesNewRomanPSMT-30" x="50"/>
      </g>
     </g>
    </g>
    <g id="ytick_5">
     <g id="line2d_11">
      <g>
       <use xlink:href="#m7fb714bf7e" x="77.99375" y="98.864833" style="stroke: #000000; stroke-width: 0.8"/>
      </g>
     </g>
     <g id="text_12">
      <!-- 100 -->
      <g transform="translate(40.99375 105.808583)scale(0.2 -0.2)">
       <use xlink:href="#TimesNewRomanPSMT-31"/>
       <use xlink:href="#TimesNewRomanPSMT-30" x="50"/>
       <use xlink:href="#TimesNewRomanPSMT-30" x="100"/>
      </g>
     </g>
    </g>
    <g id="ytick_6">
     <g id="line2d_12">
      <g>
       <use xlink:href="#m7fb714bf7e" x="77.99375" y="37.56838" style="stroke: #000000; stroke-width: 0.8"/>
      </g>
     </g>
     <g id="text_13">
      <!-- 150 -->
      <g transform="translate(40.99375 44.51213)scale(0.2 -0.2)">
       <use xlink:href="#TimesNewRomanPSMT-31"/>
       <use xlink:href="#TimesNewRomanPSMT-35" x="50"/>
       <use xlink:href="#TimesNewRomanPSMT-30" x="100"/>
      </g>
     </g>
    </g>
    <g id="text_14">
     <!-- 位置 [°] -->
     <g transform="translate(22.825 243.4575)rotate(-90)scale(0.2 -0.2)">
      <defs>
       <path id="FangSong-4f4d" d="M 1625 3325 
Q 1250 2725 500 2000 
L 450 2125 
Q 1225 2975 1737 3900 
Q 2250 4825 2200 5100 
L 2300 5125 
L 2550 4625 
Q 2450 4625 2300 4387 
Q 2150 4150 1850 3650 
L 1825 -350 
Q 1825 -725 1725 -550 
L 1475 -100 
Q 1600 0 1600 325 
L 1625 3325 
z
M 4925 2725 
Q 4775 2700 4600 1962 
Q 4425 1225 4175 375 
Q 5500 475 5675 550 
L 6000 250 
Q 5475 250 4062 150 
Q 2650 50 2450 0 
L 2150 250 
Q 2650 250 4000 350 
Q 4275 1350 4425 2112 
Q 4575 2875 4425 3125 
L 4500 3175 
L 4925 2725 
z
M 2375 3350 
Q 2900 3375 4050 3500 
Q 5200 3625 5300 3700 
L 5625 3425 
Q 5250 3400 4062 3287 
Q 2875 3175 2675 3100 
L 2375 3350 
z
M 3575 1375 
Q 3500 1125 3325 925 
Q 3200 1625 2825 2750 
L 2925 2800 
Q 3400 1750 3575 1375 
z
M 3950 3800 
Q 3825 4250 3400 5100 
L 3500 5150 
Q 3950 4575 4150 4275 
Q 4075 4050 3950 3800 
z
" transform="scale(0.015625)"/>
       <path id="FangSong-7f6e" d="M 1575 3650 
Q 1600 3350 1500 3400 
L 1275 3700 
Q 1375 3800 1375 4300 
Q 1375 4825 1300 5050 
L 1375 5100 
L 1575 4775 
L 4800 4975 
L 4950 5200 
L 5225 4950 
L 5050 4750 
L 4975 4075 
L 5150 3875 
L 3025 3725 
L 3350 3525 
Q 3275 3525 3250 3225 
L 3250 3150 
Q 4975 3300 5150 3375 
L 5450 3100 
Q 5000 3100 3250 2925 
L 3225 2425 
L 4200 2525 
L 4350 2700 
L 4625 2425 
L 4450 2275 
L 4325 0 
Q 5475 75 5650 100 
L 5950 -150 
Q 5300 -175 3137 -300 
Q 975 -425 725 -500 
L 450 -200 
Q 750 -225 1975 -150 
L 1875 2050 
Q 1850 2350 1775 2550 
L 1850 2575 
L 2075 2325 
L 3000 2400 
L 3025 2900 
Q 1600 2775 1225 2700 
L 925 2975 
Q 1400 2975 3025 3125 
L 3025 3250 
Q 3050 3600 2950 3700 
L 3000 3725 
L 1575 3650 
z
M 2150 1700 
Q 3475 1825 3775 1875 
L 4050 1675 
Q 3350 1600 2150 1475 
L 2150 1075 
Q 3600 1250 3775 1300 
L 3975 1075 
Q 3600 1050 2175 875 
L 2175 475 
Q 3600 625 3775 675 
L 3975 450 
Q 3600 425 2200 250 
L 2200 -125 
L 4100 0 
L 4225 2300 
L 2150 2100 
L 2150 1700 
z
M 2700 3950 
L 3650 4000 
L 3675 4650 
L 2725 4600 
L 2700 3950 
z
M 4750 4075 
L 4825 4750 
L 3900 4675 
L 3875 4025 
L 4750 4075 
z
M 2500 4575 
L 1600 4525 
L 1600 3875 
L 2475 3925 
L 2500 4575 
z
" transform="scale(0.015625)"/>
       <path id="FangSong-b0" d="M 1025 4300 
Q 1250 4525 1575 4525 
Q 1900 4525 2125 4300 
Q 2300 4100 2300 3825 
Q 2300 3550 2125 3325 
Q 1900 3100 1575 3100 
Q 1250 3100 1025 3325 
Q 850 3550 850 3825 
Q 850 4100 1025 4300 
z
M 1200 4150 
Q 1075 4000 1075 3825 
Q 1075 3625 1200 3475 
Q 1350 3325 1575 3325 
Q 1800 3325 1950 3475 
Q 2075 3625 2075 3825 
Q 2075 4000 1950 4150 
Q 1800 4300 1575 4300 
Q 1350 4300 1200 4150 
z
" transform="scale(0.015625)"/>
      </defs>
      <use xlink:href="#FangSong-4f4d"/>
      <use xlink:href="#FangSong-7f6e" x="100"/>
      <use xlink:href="#FangSong-20" x="200"/>
      <use xlink:href="#FangSong-5b" x="250"/>
      <use xlink:href="#FangSong-b0" x="300"/>
      <use xlink:href="#FangSong-5d" x="400"/>
     </g>
    </g>
   </g>
   <g id="line2d_13">
    <path d="M 118.575568 221.457739 
L 159.198009 221.539941 
L 160.010458 221.729311 
L 160.822906 217.86505 
L 161.635355 217.294948 
L 162.447804 216.393189 
L 163.260253 215.946582 
L 164.88515 215.403144 
L 167.322497 214.95407 
L 178.69678 213.366849 
L 184.383922 212.692139 
L 185.196371 213.164911 
L 186.00882 213.998933 
L 187.633717 216.314968 
L 189.258615 218.781795 
L 190.883512 220.76819 
L 191.695961 221.471434 
L 192.50841 221.967993 
L 193.320859 222.273409 
L 194.133308 222.400926 
L 201.445347 222.502009 
L 203.070245 222.748318 
L 205.507591 223.358477 
L 209.569835 224.471463 
L 211.194733 224.802156 
L 212.81963 224.861464 
L 213.632079 218.38773 
L 214.444528 215.816305 
L 215.256977 214.572137 
L 216.069426 213.953653 
L 217.694323 213.601096 
L 222.569016 213.579703 
L 234.755748 213.579862 
L 236.380646 213.96714 
L 238.817992 215.010448 
L 242.067788 216.405889 
L 244.505134 217.242665 
L 251.004725 219.255965 
L 253.442071 220.359808 
L 259.941662 223.626858 
L 263.191457 224.893257 
L 267.253701 226.214526 
L 268.06615 226.434982 
L 268.878598 215.639702 
L 269.691047 211.102299 
L 270.503496 209.075603 
L 271.315945 208.109485 
L 272.128394 208.008969 
L 272.940843 207.656469 
L 284.315126 207.656468 
L 285.127575 207.937709 
L 286.752472 208.860831 
L 290.002268 210.948008 
L 292.439614 211.878799 
L 294.064512 212.319627 
L 301.376551 213.761052 
L 303.813897 214.507647 
L 306.251244 215.465438 
L 310.313488 217.345724 
L 316.00063 220.209914 
L 318.437976 221.378035 
L 321.687771 222.600377 
L 324.937567 223.817205 
L 325.750015 214.033087 
L 326.562464 212.85872 
L 327.374913 209.927343 
L 328.187362 209.183092 
L 328.999811 208.231042 
L 330.624708 207.507576 
L 333.062055 207.039498 
L 337.124299 206.612455 
L 346.873684 205.811484 
L 347.686133 206.327529 
L 348.498582 207.244518 
L 350.12348 209.746264 
L 351.748377 212.362533 
L 352.560826 213.487697 
L 353.373275 214.41562 
L 354.185724 215.12074 
L 354.998173 215.600947 
L 355.810621 215.873242 
L 357.435519 215.971078 
L 362.310212 216.056027 
L 363.93511 216.381977 
L 365.560007 216.992075 
L 367.997354 218.298845 
L 371.247149 220.18534 
L 372.872046 220.95292 
L 374.496944 221.328058 
L 375.309393 221.380927 
L 376.121842 216.410639 
L 376.934291 213.818138 
L 377.746739 213.139308 
L 378.559188 212.664257 
L 397.245511 212.659948 
L 398.870408 213.0476 
L 401.307755 214.134641 
L 403.745101 215.234928 
L 406.994897 216.660464 
L 413.494487 219.251975 
L 415.931834 220.589621 
L 421.618975 223.975728 
L 424.86877 225.64567 
L 428.118566 227.06714 
L 430.555912 227.955401 
L 431.368361 228.19159 
L 432.18081 214.446286 
L 432.993259 209.376998 
L 433.805707 206.453172 
L 434.618156 205.152817 
L 436.243054 204.212127 
L 439.492849 204.054958 
L 450.867132 204.05496 
L 451.679581 204.211182 
L 452.49203 204.67148 
L 454.116928 206.143726 
L 456.554274 208.595916 
L 457.366723 209.11386 
L 460.616518 210.609291 
L 462.241416 211.012843 
L 465.491211 211.373476 
L 467.928558 211.789145 
L 469.553455 212.27493 
L 471.990802 213.298077 
L 481.740187 217.957232 
L 486.61488 219.799209 
L 487.427329 220.107815 
L 488.239778 215.356181 
L 489.864675 213.037008 
L 491.489573 212.096671 
L 493.114471 211.676044 
L 496.364266 211.24548 
L 510.175896 209.833481 
L 510.988345 209.833657 
L 511.800793 210.235851 
L 512.613242 210.93815 
L 514.23814 212.821465 
L 515.863037 214.769662 
L 517.487935 216.340159 
L 518.300384 216.91897 
L 519.112833 217.352378 
L 520.73773 217.841063 
L 522.362628 218.0012 
L 524.799974 218.172817 
L 526.424872 218.552312 
L 528.04977 219.222309 
L 536.174258 223.051569 
L 538.611604 223.802281 
L 540.236502 224.178891 
L 541.048951 224.314876 
L 541.861399 216.99541 
L 542.673848 214.310373 
L 543.486297 212.776548 
L 544.298746 212.039087 
L 545.923644 211.456735 
L 548.36099 211.210706 
L 554.86058 211.035075 
L 563.797517 210.813155 
L 564.609966 211.139703 
L 565.422415 211.707676 
L 567.047313 213.238896 
L 569.484659 215.592156 
L 571.109557 216.801967 
L 572.734454 217.63706 
L 574.359352 218.169803 
L 578.421596 219.283716 
L 580.046494 220.012621 
L 582.48384 221.456494 
L 588.170982 224.949195 
L 590.608328 226.160986 
L 593.858123 227.46053 
L 595.483021 227.935842 
L 596.29547 215.016947 
L 597.107919 210.232476 
L 597.920368 207.591157 
L 598.732816 206.325304 
L 600.357714 205.39026 
L 602.79506 205.13014 
L 612.544446 205.12059 
L 615.794241 205.120968 
L 616.60669 205.556684 
L 617.419139 206.323816 
L 619.044037 208.40106 
L 620.668934 210.604631 
L 621.481383 211.489951 
L 623.91873 213.468899 
L 625.543627 214.262372 
L 627.168525 214.665582 
L 630.41832 215.237571 
L 632.043218 215.791165 
L 633.668115 216.63918 
L 635.293013 217.758217 
L 638.542808 220.411946 
L 640.980155 222.38297 
L 643.417501 223.988293 
L 645.854847 225.305354 
L 650.72954 227.58709 
L 651.541989 227.972811 
L 652.354438 213.065192 
L 653.166887 208.441977 
L 653.979336 204.942436 
L 654.791784 203.439502 
L 655.604233 202.61297 
L 656.416682 202.044241 
L 658.04158 201.591887 
L 660.478926 201.431254 
L 670.228312 201.379708 
L 671.853209 201.374745 
L 672.665658 201.937087 
L 673.478107 202.919883 
L 675.103005 205.556572 
L 676.727902 208.295346 
L 677.540351 209.394991 
L 679.165249 210.991544 
L 679.977698 211.61773 
L 680.790146 212.049598 
L 681.602595 212.312019 
L 683.227493 212.469445 
L 686.477288 212.536311 
L 688.102186 212.844401 
L 689.727083 213.472521 
L 691.351981 214.389884 
L 693.789327 216.082473 
L 697.851571 218.943459 
L 700.288918 220.379297 
L 702.726264 221.543818 
L 705.97606 222.908549 
L 706.788508 214.175044 
L 708.413406 209.83018 
L 709.225855 208.864363 
L 710.038304 208.162626 
L 711.663201 207.45037 
L 714.100548 206.903845 
L 720.600138 205.884587 
L 727.099729 204.890799 
L 727.912178 204.890979 
L 728.724626 205.515243 
L 729.537075 206.60841 
L 731.161973 209.555251 
L 732.78687 212.608571 
L 733.599319 213.929471 
L 734.411768 215.035857 
L 735.224217 215.902699 
L 736.036666 216.526186 
L 736.849114 216.922864 
L 737.661563 217.128295 
L 739.286461 217.188359 
L 742.536256 217.29182 
L 744.161154 217.707135 
L 745.786051 218.514066 
L 747.410949 219.64431 
L 752.285642 223.406209 
L 754.722988 224.783045 
L 757.160335 225.838626 
L 760.41013 227.018141 
L 761.222579 214.700082 
L 762.035028 210.45616 
L 762.847476 207.772299 
L 763.659925 206.488278 
L 764.472374 205.86788 
L 765.284823 205.391291 
L 766.909721 204.994156 
L 770.159516 204.720874 
L 781.533799 204.161865 
L 782.346248 204.719497 
L 783.158697 205.694367 
L 784.783594 208.317304 
L 786.408492 211.048978 
L 787.220941 212.24569 
L 788.845838 214.076631 
L 789.658287 214.720205 
L 790.470736 215.176403 
L 791.283185 215.471856 
L 792.908083 215.729292 
L 795.345429 215.909262 
L 796.970327 216.294327 
L 798.595224 217.052284 
L 800.220122 218.177582 
L 802.657468 220.303511 
L 805.094815 222.45516 
L 806.719712 223.662698 
L 809.157059 225.142792 
L 811.594405 226.348347 
L 815.656649 228.170509 
L 816.469098 213.466709 
L 817.281547 208.630169 
L 818.093996 205.324374 
L 818.906445 203.7728 
L 819.718893 202.999684 
L 820.531342 202.423021 
L 822.15624 201.959512 
L 824.593586 201.742278 
L 835.96787 201.333232 
L 836.780318 201.333392 
L 837.592767 201.938536 
L 838.405216 202.996266 
L 840.030114 205.83233 
L 841.655011 208.769078 
L 842.46746 210.008448 
L 844.092358 211.884694 
L 844.904807 212.55519 
L 845.717255 213.019116 
L 846.529704 213.304296 
L 848.154602 213.499875 
L 850.591948 213.529103 
L 852.216846 213.790668 
L 853.841743 214.421109 
L 855.466641 215.417598 
L 857.903988 217.381879 
L 861.966232 220.8561 
L 863.591129 222.002524 
L 865.216027 222.906696 
L 867.653373 223.995804 
L 869.278271 224.705595 
L 870.09072 225.131755 
L 870.903169 213.729533 
L 871.715617 210.36342 
L 872.528066 207.73246 
L 873.340515 206.484258 
L 874.152964 205.701474 
L 874.965413 205.200007 
L 876.59031 204.628892 
L 879.027657 204.140367 
L 889.589491 202.533865 
L 892.026838 202.165322 
L 892.839286 202.165479 
L 893.651735 202.884316 
L 894.464184 204.138266 
L 896.089082 207.49032 
L 897.713979 210.925774 
L 898.526428 212.405047 
L 899.338877 213.639068 
L 900.151326 214.607066 
L 900.963775 215.302062 
L 901.776223 215.741351 
L 902.588672 215.96513 
L 904.21357 216.025093 
L 907.463365 216.124853 
L 909.088263 216.571767 
L 910.71316 217.446529 
L 912.338058 218.701869 
L 917.212751 222.962886 
L 918.837648 224.018958 
L 921.274995 225.232143 
L 922.899893 225.785839 
L 923.712341 214.435472 
L 924.52479 210.463898 
L 925.337239 208.08203 
L 926.149688 206.828322 
L 926.962137 206.197253 
L 927.774585 205.735299 
L 929.399483 205.273144 
L 930.211932 205.130125 
L 930.211932 205.130125 
" clip-path="url(#pe2c3239a99)" style="fill: none; stroke: #ff0000; stroke-width: 2; stroke-linecap: square"/>
   </g>
   <g id="line2d_14">
    <path d="M 118.575568 80.475897 
L 119.388017 82.758193 
L 120.200466 84.48798 
L 121.012915 85.274584 
L 121.825363 85.474087 
L 129.949852 85.474087 
L 131.574749 79.785689 
L 134.012096 72.286087 
L 137.261891 62.855968 
L 139.699237 56.55485 
L 141.324135 52.956193 
L 142.949033 49.949525 
L 143.761481 48.681343 
L 144.57393 47.896921 
L 145.386379 47.458617 
L 146.198828 47.2575 
L 150.261072 47.262159 
L 151.073521 47.388478 
L 151.885969 47.720605 
L 152.698418 48.361386 
L 153.510867 49.348539 
L 154.323316 50.715677 
L 155.135765 52.476139 
L 155.948214 54.608398 
L 157.573111 59.934304 
L 159.198009 65.643378 
L 160.010458 67.880116 
L 160.822906 78.451799 
L 161.635355 82.414703 
L 162.447804 85.697101 
L 163.260253 87.200508 
L 164.072702 87.821362 
L 164.88515 87.98772 
L 174.634536 87.933845 
L 176.259434 87.497157 
L 180.321678 85.952694 
L 183.571473 84.655586 
L 184.383922 80.943329 
L 185.196371 78.661391 
L 186.00882 77.319015 
L 186.821268 76.63512 
L 188.446166 76.097664 
L 189.258615 75.8205 
L 190.071064 75.363634 
L 190.883512 74.642907 
L 191.695961 73.652825 
L 193.320859 71.040444 
L 196.570654 64.945003 
L 197.383103 63.996681 
L 198.195552 63.363099 
L 199.008001 62.986079 
L 199.820449 62.831492 
L 203.070245 62.914074 
L 203.882693 63.195456 
L 204.695142 63.76187 
L 205.507591 64.67461 
L 206.32004 65.971883 
L 207.132489 67.67776 
L 207.944938 69.774661 
L 208.757386 72.241301 
L 210.382284 78.215127 
L 212.007182 84.618166 
L 212.81963 87.063831 
L 213.632079 70.580769 
L 214.444528 66.271326 
L 215.256977 63.029661 
L 216.881874 63.029661 
L 217.694323 63.231126 
L 225.006363 63.231126 
L 225.818811 63.051056 
L 227.443709 62.389424 
L 232.318402 59.926823 
L 233.9433 59.091002 
L 234.755748 56.003247 
L 235.568197 55.447513 
L 236.380646 56.185319 
L 237.193095 57.667773 
L 238.817992 61.251456 
L 239.630441 62.722522 
L 240.44289 63.654726 
L 241.255339 63.836889 
L 242.880236 63.773018 
L 243.692685 63.56958 
L 244.505134 63.215637 
L 246.130032 62.087128 
L 249.379827 59.341963 
L 250.192276 58.852818 
L 251.004725 58.518556 
L 251.817173 58.352175 
L 255.879417 58.359861 
L 256.691866 58.493664 
L 257.504315 58.849446 
L 258.316764 59.499364 
L 259.129213 60.490556 
L 259.941662 61.852405 
L 260.75411 63.589186 
L 261.566559 65.686722 
L 263.191457 70.870327 
L 264.816354 77.140985 
L 266.441252 84.126926 
L 267.253701 87.067398 
L 268.06615 89.21884 
L 268.878598 63.694019 
L 269.691047 58.044918 
L 270.503496 55.072085 
L 272.128394 57.777895 
L 272.940843 60.932336 
L 273.753291 62.581486 
L 274.56574 63.206635 
L 276.190638 63.313905 
L 283.502677 63.205955 
L 284.315126 62.96321 
L 285.127575 60.305894 
L 285.940024 60.047924 
L 286.752472 60.896745 
L 288.37737 64.009845 
L 289.189819 65.558483 
L 290.002268 66.554742 
L 292.439614 66.554757 
L 293.252063 66.25802 
L 294.064512 65.528978 
L 294.87696 64.396729 
L 297.314307 60.181018 
L 300.564102 53.738574 
L 302.189 51.120594 
L 303.001449 50.094329 
L 303.813897 49.264178 
L 304.626346 48.640472 
L 305.438795 48.214335 
L 306.251244 47.973552 
L 307.876141 47.902224 
L 313.563283 48.00446 
L 314.375732 48.284971 
L 315.188181 48.785182 
L 316.00063 49.586308 
L 316.813078 50.708972 
L 317.625527 52.179962 
L 318.437976 53.982289 
L 320.062874 58.494769 
L 321.687771 64.058934 
L 323.312669 69.901329 
L 324.125118 72.140032 
L 324.937567 73.991794 
L 327.374913 73.913117 
L 328.999811 73.534685 
L 332.249606 72.445329 
L 346.061236 67.526045 
L 346.873684 64.46831 
L 347.686133 63.024713 
L 348.498582 62.743087 
L 354.998173 62.656774 
L 355.810621 62.413184 
L 357.435519 61.575768 
L 359.060417 60.493627 
L 359.872865 60.222248 
L 360.685314 60.10879 
L 364.747558 60.202497 
L 365.560007 60.507916 
L 366.372456 61.124271 
L 367.184905 62.115503 
L 367.997354 63.516026 
L 368.809802 65.335033 
L 369.622251 67.574435 
L 370.4347 70.169978 
L 372.059598 76.450154 
L 373.684495 83.741779 
L 374.496944 86.671641 
L 375.309393 89.062318 
L 376.121842 68.472196 
L 376.934291 62.532564 
L 377.746739 58.791815 
L 378.559188 58.791815 
L 379.371637 59.780235 
L 380.184086 61.539888 
L 380.996535 62.945903 
L 381.808983 63.483733 
L 384.24633 63.532318 
L 389.933472 63.532318 
L 391.558369 63.0578 
L 394.808164 61.550663 
L 396.433062 60.756692 
L 397.245511 57.29505 
L 398.05796 56.495965 
L 398.870408 57.026856 
L 399.682857 58.357904 
L 401.307755 61.634556 
L 402.120204 62.930671 
L 402.932653 63.395602 
L 404.55755 63.395604 
L 405.369999 63.279961 
L 406.182448 62.962223 
L 406.994897 62.421468 
L 407.807345 61.67422 
L 409.432243 59.780597 
L 411.869589 56.836306 
L 412.682038 56.071744 
L 413.494487 55.493265 
L 414.306936 55.101596 
L 415.119385 54.927397 
L 419.181629 54.99098 
L 419.994078 55.209537 
L 420.806526 55.675686 
L 421.618975 56.451166 
L 422.431424 57.573781 
L 423.243873 59.060313 
L 424.056322 60.90948 
L 425.681219 65.612407 
L 427.306117 71.492448 
L 430.555912 84.699807 
L 431.368361 86.833658 
L 432.18081 65.396216 
L 432.993259 61.383434 
L 433.805707 57.970594 
L 434.618156 57.970594 
L 435.430605 58.451681 
L 436.243054 60.106536 
L 437.055503 60.820362 
L 437.867951 60.967319 
L 445.179991 60.904509 
L 446.804888 60.337709 
L 450.054684 58.713793 
L 450.867132 58.287281 
L 451.679581 55.066802 
L 452.49203 54.427995 
L 453.304479 55.113855 
L 454.116928 56.587681 
L 455.741825 60.104103 
L 456.554274 61.483695 
L 457.366723 61.857028 
L 459.804069 61.857089 
L 460.616518 61.570039 
L 461.428967 60.938455 
L 462.241416 60.055011 
L 463.866313 57.69306 
L 466.30366 53.77922 
L 467.928558 51.694171 
L 468.741006 50.940433 
L 469.553455 50.408242 
L 470.365904 50.101937 
L 471.990802 50.025339 
L 475.240597 50.064648 
L 476.053046 50.237299 
L 476.865494 50.633086 
L 477.677943 51.31456 
L 478.490392 52.321666 
L 479.302841 53.673609 
L 480.11529 55.368608 
L 480.927739 57.399661 
L 482.552636 62.354598 
L 484.177534 68.341345 
L 485.802431 74.928339 
L 486.61488 77.4152 
L 487.427329 79.430713 
L 488.239778 72.39337 
L 489.052227 70.746536 
L 489.864675 68.743508 
L 492.302022 67.166416 
L 495.551817 65.553841 
L 508.550998 59.580616 
L 510.175896 58.845131 
L 510.988345 55.790187 
L 511.800793 54.94264 
L 512.613242 55.228126 
L 513.425691 56.138694 
L 515.050589 58.528099 
L 515.863037 59.478572 
L 516.675486 60.03663 
L 517.487935 60.156811 
L 519.112833 60.131669 
L 520.73773 59.845205 
L 522.362628 59.124801 
L 524.799974 57.669425 
L 525.612423 57.433665 
L 527.237321 57.352816 
L 530.487116 57.40163 
L 531.299565 57.624575 
L 532.112014 58.12354 
L 532.924463 58.970833 
L 533.736911 60.205471 
L 534.54936 61.844468 
L 535.361809 63.863396 
L 536.174258 66.273252 
L 537.799155 72.124959 
L 540.236502 82.028633 
L 541.048951 84.321357 
L 541.861399 69.527667 
L 542.673848 65.801243 
L 543.486297 62.80434 
L 552.423234 62.80434 
L 554.048132 62.397696 
L 556.485478 61.374967 
L 562.985069 58.4071 
L 563.797517 55.234246 
L 564.609966 54.484377 
L 565.422415 54.964088 
L 566.234864 56.154431 
L 567.859761 59.159056 
L 568.67221 60.358707 
L 569.484659 61.131077 
L 570.297108 61.387899 
L 571.922006 61.32802 
L 572.734454 61.15893 
L 573.546903 60.850864 
L 575.171801 59.82822 
L 578.421596 57.368091 
L 579.234045 56.934389 
L 580.046494 56.664831 
L 584.108738 56.698744 
L 584.921187 56.877143 
L 585.733635 57.303606 
L 586.546084 58.049286 
L 587.358533 59.162431 
L 588.170982 60.666805 
L 588.983431 62.557329 
L 589.795879 64.8048 
L 591.420777 70.309029 
L 593.045675 76.949692 
L 594.670572 83.446986 
L 595.483021 85.652235 
L 596.29547 67.031564 
L 597.107919 63.298698 
L 597.920368 60.210583 
L 599.545265 60.257201 
L 600.357714 61.377594 
L 601.170163 61.81454 
L 606.044856 61.836579 
L 609.294651 61.836579 
L 610.1071 61.703104 
L 611.731997 61.124688 
L 614.981793 59.639905 
L 615.794241 56.75876 
L 616.60669 56.288793 
L 617.419139 57.037407 
L 618.231588 58.459685 
L 619.856485 61.807223 
L 620.668934 63.108927 
L 621.481383 63.639554 
L 623.91873 63.555589 
L 624.731178 63.299067 
L 625.543627 62.821522 
L 626.356076 62.147304 
L 627.980974 60.334761 
L 630.41832 57.345312 
L 632.043218 55.81492 
L 632.855666 55.308729 
L 633.668115 55.004123 
L 635.293013 54.907889 
L 639.355257 54.956175 
L 640.167706 55.150248 
L 640.980155 55.568332 
L 641.792603 56.271161 
L 642.605052 57.295836 
L 643.417501 58.660258 
L 644.22995 60.352706 
L 645.042399 62.378471 
L 646.667296 67.329227 
L 648.292194 73.300483 
L 649.917092 79.912125 
L 650.72954 82.543369 
L 651.541989 84.561979 
L 652.354438 67.738409 
L 653.166887 65.372658 
L 653.979336 61.827327 
L 663.728721 61.742195 
L 665.353619 61.19184 
L 668.603414 59.677164 
L 671.040761 58.483623 
L 671.853209 55.491723 
L 672.665658 54.880332 
L 673.478107 55.490659 
L 674.290556 56.834968 
L 675.915454 60.083401 
L 676.727902 61.435348 
L 677.540351 62.076624 
L 679.977698 62.018107 
L 680.790146 61.762266 
L 681.602595 61.299106 
L 682.415044 60.621931 
L 684.039942 58.847426 
L 686.477288 55.904934 
L 688.102186 54.408956 
L 688.914635 53.918894 
L 689.727083 53.626851 
L 691.351981 53.539331 
L 694.601776 53.545502 
L 695.414225 53.668151 
L 696.226674 54.000839 
L 697.039123 54.611352 
L 697.851571 55.549781 
L 698.66402 56.84102 
L 699.476469 58.46043 
L 700.288918 60.438706 
L 701.913816 65.349839 
L 703.538713 71.330309 
L 705.163611 77.523403 
L 705.97606 79.85154 
L 706.788508 70.910031 
L 707.600957 69.517911 
L 708.413406 67.336914 
L 712.47565 65.830045 
L 727.099729 59.830837 
L 727.912178 57.058205 
L 728.724626 56.329551 
L 729.537075 56.599586 
L 730.349524 57.47019 
L 731.974422 59.684008 
L 732.78687 60.557392 
L 733.599319 61.063053 
L 735.224217 61.128239 
L 736.849114 61.044292 
L 737.661563 60.856579 
L 739.286461 60.13774 
L 743.348705 57.798309 
L 744.161154 57.577538 
L 746.5985 57.522433 
L 749.035847 57.524146 
L 749.848295 57.647871 
L 750.660744 57.9962 
L 751.473193 58.643963 
L 752.285642 59.640476 
L 753.098091 61.010802 
L 753.91054 62.749131 
L 754.722988 64.853653 
L 756.347886 70.065167 
L 757.972784 76.40979 
L 759.597681 82.622672 
L 760.41013 84.755227 
L 761.222579 68.802368 
L 762.847476 62.628316 
L 773.409311 62.560555 
L 775.034209 62.059715 
L 778.284004 60.669876 
L 780.72135 59.579406 
L 781.533799 56.547536 
L 782.346248 55.852645 
L 783.158697 56.344925 
L 783.971146 57.548382 
L 785.596043 60.477572 
L 786.408492 61.65374 
L 787.220941 62.327246 
L 789.658287 62.254302 
L 790.470736 62.033808 
L 791.283185 61.6505 
L 792.095634 61.107866 
L 793.720531 59.648282 
L 796.157878 57.332316 
L 796.970327 56.729093 
L 797.782775 56.278781 
L 798.595224 56.001704 
L 800.220122 55.927466 
L 804.282366 56.024638 
L 805.094815 56.315082 
L 805.907264 56.87751 
L 806.719712 57.760229 
L 807.532161 58.992298 
L 808.34461 60.583532 
L 809.157059 62.511343 
L 810.781956 67.356845 
L 812.406854 73.329412 
L 814.031752 79.998211 
L 814.8442 82.724219 
L 815.656649 84.792292 
L 816.469098 68.468674 
L 817.281547 65.95563 
L 818.093996 62.555121 
L 827.843381 62.497169 
L 829.468279 61.984987 
L 832.718074 60.535612 
L 835.96787 59.011904 
L 836.780318 55.874922 
L 837.592767 55.159202 
L 838.405216 55.696539 
L 839.217665 56.990292 
L 840.842562 60.160407 
L 841.655011 61.455801 
L 842.46746 62.102309 
L 844.904807 61.996062 
L 845.717255 61.719526 
L 846.529704 61.261967 
L 848.154602 59.884705 
L 851.404397 56.396383 
L 852.216846 55.696426 
L 853.029295 55.151308 
L 853.841743 54.79018 
L 854.654192 54.62298 
L 858.716436 54.643367 
L 859.528885 54.787838 
L 860.341334 55.156864 
L 861.153783 55.791592 
L 861.966232 56.763678 
L 862.77868 58.087981 
L 863.591129 59.790768 
L 864.403578 61.849557 
L 866.028476 66.943977 
L 867.653373 73.144204 
L 869.278271 79.476599 
L 870.09072 81.768995 
L 870.903169 70.059309 
L 871.715617 68.207611 
L 872.528066 65.504625 
L 875.777861 65.480988 
L 877.402759 65.040915 
L 880.652554 63.736593 
L 892.026838 58.940889 
L 892.839286 55.706171 
L 893.651735 54.771555 
L 894.464184 55.019354 
L 895.276633 55.989644 
L 896.901531 58.537131 
L 897.713979 59.576203 
L 898.526428 60.211003 
L 899.338877 60.362575 
L 900.963775 60.326799 
L 901.776223 60.17762 
L 902.588672 59.896189 
L 904.21357 58.95806 
L 907.463365 56.649577 
L 908.275814 56.408783 
L 910.71316 56.357311 
L 912.338058 56.388726 
L 913.150507 56.555129 
L 913.962956 56.989019 
L 914.775404 57.759144 
L 915.587853 58.906392 
L 916.400302 60.437287 
L 917.212751 62.371581 
L 918.0252 64.700562 
L 919.650097 70.394644 
L 922.087444 80.334888 
L 922.899893 82.868149 
L 923.712341 70.062323 
L 925.337239 64.756416 
L 930.211932 64.756416 
L 930.211932 64.756416 
" clip-path="url(#pe2c3239a99)" style="fill: none; stroke-dasharray: 7.4,3.2; stroke-dashoffset: 0; stroke: #008000; stroke-width: 2"/>
   </g>
   <g id="line2d_15">
    <path d="M 118.575568 276.624546 
L 129.949852 276.62608 
L 131.574749 289.20058 
L 133.199647 300.212957 
L 135.636993 314.915432 
L 137.261891 323.622869 
L 138.886788 331.38762 
L 140.511686 338.084065 
L 142.136584 343.690842 
L 143.761481 348.103496 
L 144.57393 349.213792 
L 145.386379 349.6575 
L 146.198828 349.647472 
L 147.011277 349.142238 
L 147.823725 348.245331 
L 148.636174 346.941974 
L 149.448623 345.241438 
L 150.261072 343.142668 
L 151.073521 340.631838 
L 151.885969 337.738905 
L 153.510867 330.667229 
L 155.135765 321.887565 
L 156.760662 311.378131 
L 158.38556 299.546088 
L 159.198009 296.378368 
L 160.010458 296.378368 
L 160.822906 287.413965 
L 183.571473 287.414289 
L 185.196371 299.160174 
L 186.821268 308.670459 
L 189.258615 320.863889 
L 191.695961 331.566604 
L 193.320859 337.728048 
L 194.945757 342.974941 
L 196.570654 347.153331 
L 197.383103 348.17105 
L 198.195552 348.678584 
L 199.008001 348.81991 
L 199.820449 348.685475 
L 200.632898 348.131888 
L 201.445347 347.172682 
L 202.257796 345.813189 
L 203.070245 344.046187 
L 203.882693 341.859253 
L 204.695142 339.243936 
L 205.507591 336.194421 
L 207.132489 328.745967 
L 208.757386 319.528358 
L 210.382284 308.517672 
L 211.194733 302.700774 
L 212.007182 298.025013 
L 212.81963 297.142068 
L 213.632079 311.656934 
L 214.444528 299.746071 
L 215.256977 290.120551 
L 216.069426 282.40174 
L 233.9433 282.401623 
L 234.755748 288.046296 
L 236.380646 296.605731 
L 238.005544 303.828439 
L 242.067788 320.416951 
L 243.692685 326.445453 
L 245.317583 331.835234 
L 246.942481 336.524434 
L 248.567378 340.357649 
L 249.379827 341.915921 
L 250.192276 343.220626 
L 251.004725 344.279292 
L 251.817173 345.124644 
L 252.629622 345.688609 
L 253.442071 346.001074 
L 254.25452 346.117636 
L 255.066969 346.113918 
L 255.879417 345.709279 
L 256.691866 344.884844 
L 257.504315 343.630131 
L 258.316764 341.938514 
L 259.129213 339.807192 
L 259.941662 337.225881 
L 260.75411 334.195683 
L 262.379008 326.818636 
L 264.003906 317.756751 
L 265.628803 306.976521 
L 266.441252 301.323745 
L 267.253701 297.993496 
L 268.06615 297.993496 
L 268.878598 324.604172 
L 270.503496 280.714872 
L 271.315945 263.489561 
L 284.315126 263.489583 
L 285.127575 268.734186 
L 285.940024 272.563473 
L 287.564921 278.854047 
L 290.002268 287.755052 
L 291.627165 293.366304 
L 295.689409 309.833361 
L 298.126756 320.122769 
L 299.751653 326.296328 
L 301.376551 331.697063 
L 303.001449 336.24262 
L 304.626346 339.859344 
L 305.438795 341.299199 
L 306.251244 342.491334 
L 307.063693 343.427117 
L 307.876141 344.130172 
L 308.68859 344.597872 
L 309.501039 344.830654 
L 311.125937 344.849795 
L 311.938386 344.427907 
L 312.750834 343.62381 
L 313.563283 342.426342 
L 314.375732 340.831852 
L 315.188181 338.908184 
L 316.00063 336.579037 
L 316.813078 333.855193 
L 318.437976 327.149089 
L 320.062874 318.851649 
L 321.687771 308.985343 
L 323.312669 299.051784 
L 324.125118 297.601007 
L 346.061236 297.600759 
L 347.686133 307.871763 
L 349.311031 316.20026 
L 350.935929 323.683389 
L 352.560826 330.359338 
L 354.185724 336.139178 
L 355.810621 341.048635 
L 357.435519 345.062843 
L 358.247968 346.70366 
L 359.060417 348.089714 
L 359.872865 348.775575 
L 360.685314 349.055083 
L 361.497763 349.000548 
L 362.310212 348.572381 
L 363.122661 347.741582 
L 363.93511 346.514921 
L 364.747558 344.884715 
L 365.560007 342.838945 
L 366.372456 340.36676 
L 367.184905 337.461117 
L 368.809802 330.336035 
L 370.4347 321.473212 
L 372.059598 310.764955 
L 373.684495 298.578491 
L 374.496944 296.323172 
L 375.309393 296.323172 
L 376.121842 317.725937 
L 378.559188 276.914657 
L 379.371637 273.261832 
L 396.433062 273.261596 
L 397.245511 279.793671 
L 398.870408 289.399324 
L 401.307755 301.100922 
L 404.55755 315.669559 
L 406.994897 325.726017 
L 408.619794 331.677787 
L 410.244692 336.845434 
L 411.869589 341.087339 
L 412.682038 342.821883 
L 414.306936 345.517408 
L 415.119385 346.479952 
L 415.931834 347.146645 
L 416.744282 347.460676 
L 417.556731 347.54291 
L 418.36918 347.456337 
L 419.181629 346.950008 
L 419.994078 346.006933 
L 420.806526 344.621742 
L 421.618975 342.788475 
L 422.431424 340.5052 
L 423.243873 337.771755 
L 424.86877 330.974672 
L 426.493668 322.455369 
L 428.118566 312.204286 
L 429.743463 300.639402 
L 430.555912 297.689034 
L 431.368361 297.689034 
L 432.18081 319.017687 
L 432.993259 299.505544 
L 433.805707 284.765804 
L 434.618156 273.666676 
L 450.867132 273.666674 
L 451.679581 279.636071 
L 453.304479 288.389421 
L 455.741825 299.191334 
L 458.179172 309.08617 
L 462.241416 325.468597 
L 463.866313 331.305629 
L 465.491211 336.456142 
L 467.116109 340.712352 
L 467.928558 342.49656 
L 468.741006 344.009599 
L 469.553455 345.256095 
L 470.365904 346.235196 
L 471.178353 346.940693 
L 471.990802 347.297566 
L 472.80325 347.408279 
L 473.615699 347.363414 
L 474.428148 346.938514 
L 475.240597 346.123632 
L 476.053046 344.909458 
L 476.865494 343.285046 
L 477.677943 341.244276 
L 478.490392 338.78397 
L 479.302841 335.903382 
L 480.927739 328.898509 
L 482.552636 320.280125 
L 484.177534 310.048749 
L 485.802431 298.867126 
L 486.61488 297.083393 
L 487.427329 297.083393 
L 488.239778 298.706326 
L 489.052227 293.783148 
L 510.175896 293.783148 
L 510.988345 299.226386 
L 512.613242 307.885811 
L 514.23814 315.281465 
L 516.675486 325.267091 
L 518.300384 331.307298 
L 519.925282 336.602782 
L 521.550179 341.054844 
L 523.175077 344.630362 
L 523.987526 346.058343 
L 524.799974 347.226893 
L 525.612423 347.829269 
L 526.424872 348.087114 
L 527.237321 348.090121 
L 528.04977 347.966587 
L 528.862218 347.43608 
L 529.674667 346.498889 
L 530.487116 345.15351 
L 531.299565 343.384448 
L 532.112014 341.176775 
L 532.924463 338.518494 
L 533.736911 335.411526 
L 535.361809 327.8912 
L 536.986707 318.589181 
L 538.611604 307.515256 
L 539.424053 301.688985 
L 540.236502 297.736884 
L 541.048951 297.694171 
L 541.861399 309.955606 
L 542.673848 299.079552 
L 543.486297 291.039465 
L 544.298746 284.757692 
L 562.985069 284.757225 
L 563.797517 290.615395 
L 565.422415 299.712457 
L 567.047313 307.432915 
L 570.297108 321.376412 
L 571.922006 327.698278 
L 573.546903 333.274521 
L 575.171801 338.091824 
L 576.796698 342.017234 
L 577.609147 343.609634 
L 579.234045 346.082943 
L 580.046494 346.945985 
L 580.858942 347.364842 
L 581.671391 347.52747 
L 582.48384 347.498485 
L 583.296289 347.060227 
L 584.108738 346.207887 
L 584.921187 344.928607 
L 585.733635 343.213428 
L 586.546084 341.05653 
L 587.358533 338.446858 
L 588.170982 335.376152 
L 589.795879 327.921242 
L 591.420777 318.716017 
L 593.045675 307.747205 
L 593.858123 302.041552 
L 594.670572 298.178739 
L 595.483021 298.112033 
L 596.29547 315.291009 
L 597.107919 298.780084 
L 597.920368 286.57759 
L 598.732816 277.770835 
L 614.981793 277.770461 
L 615.794241 283.129911 
L 617.419139 291.066647 
L 620.668934 304.401467 
L 626.356076 326.314143 
L 627.980974 331.660627 
L 629.605871 336.258865 
L 631.230769 340.028743 
L 632.043218 341.54452 
L 632.855666 342.804219 
L 633.668115 343.801873 
L 634.480564 344.533368 
L 635.293013 345.009183 
L 636.105462 345.25542 
L 637.730359 345.37294 
L 638.542808 345.286367 
L 639.355257 344.792407 
L 640.167706 343.877163 
L 640.980155 342.529468 
L 641.792603 340.746721 
L 642.605052 338.527748 
L 643.417501 335.873247 
L 644.22995 332.813953 
L 645.854847 325.401483 
L 647.479745 316.324871 
L 649.104643 305.647477 
L 649.917092 300.07783 
L 650.72954 297.569185 
L 651.541989 297.569185 
L 652.354438 312.507213 
L 653.166887 296.623464 
L 653.979336 288.261284 
L 654.791784 281.545941 
L 671.040761 281.546185 
L 671.853209 286.943304 
L 673.478107 295.269209 
L 675.915454 305.7057 
L 679.977698 321.588362 
L 682.415044 330.182692 
L 684.039942 335.152012 
L 685.664839 339.389549 
L 687.289737 342.727332 
L 688.102186 344.030281 
L 688.914635 345.077489 
L 689.727083 345.855495 
L 690.539532 346.365078 
L 691.351981 346.619224 
L 692.16443 346.707437 
L 692.976879 346.672308 
L 693.789327 346.24721 
L 694.601776 345.428075 
L 695.414225 344.203516 
L 696.226674 342.564714 
L 697.039123 340.510462 
L 697.851571 338.030252 
L 699.476469 331.885408 
L 701.101367 324.101717 
L 702.726264 314.676361 
L 705.163611 299.013255 
L 705.97606 297.489171 
L 706.788508 300.714205 
L 707.600957 292.738189 
L 708.413406 291.577429 
L 727.099729 291.577429 
L 727.912178 296.597503 
L 729.537075 304.801945 
L 731.974422 315.182972 
L 734.411768 324.525404 
L 736.036666 330.095592 
L 737.661563 334.988161 
L 739.286461 339.125939 
L 740.911359 342.419419 
L 741.723807 343.716303 
L 742.536256 344.785731 
L 743.348705 345.589599 
L 744.161154 346.123002 
L 744.973603 346.382927 
L 746.5985 346.501981 
L 747.410949 346.413982 
L 748.223398 345.926438 
L 749.035847 345.036169 
L 749.848295 343.7312 
L 750.660744 341.997699 
L 751.473193 339.828894 
L 752.285642 337.220407 
L 753.91054 330.704336 
L 755.535437 322.467598 
L 757.160335 312.51087 
L 758.785232 301.271471 
L 759.597681 297.851755 
L 760.41013 297.851755 
L 761.222579 311.500439 
L 762.035028 297.628387 
L 762.847476 289.053223 
L 763.659925 282.577815 
L 780.72135 282.578044 
L 781.533799 288.137225 
L 783.158697 296.80425 
L 785.596043 307.667912 
L 788.845838 321.060067 
L 790.470736 327.085195 
L 792.095634 332.46445 
L 793.720531 337.138046 
L 795.345429 340.935635 
L 796.157878 342.473069 
L 796.970327 343.760218 
L 797.782775 344.787636 
L 798.595224 345.563705 
L 799.407673 346.060699 
L 800.220122 346.289521 
L 801.845019 346.373409 
L 802.657468 346.26755 
L 803.469917 345.756914 
L 804.282366 344.82757 
L 805.094815 343.468675 
L 805.907264 341.666121 
L 806.719712 339.423187 
L 807.532161 336.739299 
L 809.157059 330.088859 
L 810.781956 321.721573 
L 812.406854 311.65708 
L 814.031752 300.346999 
L 814.8442 297.558753 
L 815.656649 297.558753 
L 816.469098 311.890214 
L 817.281547 296.764754 
L 818.093996 288.537181 
L 818.906445 282.101746 
L 835.96787 282.102185 
L 836.780318 287.788714 
L 838.405216 296.581758 
L 840.842562 307.535775 
L 844.092358 320.980645 
L 846.529704 330.005803 
L 848.154602 335.144217 
L 849.779499 339.556276 
L 851.404397 343.062187 
L 852.216846 344.437913 
L 853.029295 345.550629 
L 853.841743 346.391443 
L 854.654192 346.970831 
L 855.466641 347.237846 
L 856.27909 347.309454 
L 857.091539 347.242913 
L 857.903988 346.778475 
L 858.716436 345.910484 
L 859.528885 344.626805 
L 860.341334 342.916012 
L 861.153783 340.877833 
L 861.966232 338.404641 
L 862.77868 335.51083 
L 864.403578 328.347204 
L 866.028476 319.440891 
L 867.653373 308.83941 
L 868.465822 303.269872 
L 869.278271 298.618388 
L 870.09072 297.595476 
L 870.903169 304.943248 
L 871.715617 294.523852 
L 872.528066 290.845 
L 873.340515 288.687088 
L 892.026838 288.686483 
L 892.839286 294.580138 
L 894.464184 303.971104 
L 896.089082 311.901191 
L 898.526428 322.531572 
L 900.151326 329.012991 
L 901.776223 334.707412 
L 903.401121 339.584741 
L 905.026019 343.535948 
L 905.838467 345.138399 
L 906.650916 346.492816 
L 907.463365 347.571395 
L 908.275814 348.10159 
L 909.088263 348.291326 
L 909.900712 348.223187 
L 910.71316 347.752303 
L 911.525609 346.876162 
L 912.338058 345.594438 
L 913.150507 343.982038 
L 913.962956 341.937536 
L 914.775404 339.452609 
L 915.587853 336.52247 
L 917.212751 329.335268 
L 918.837648 320.272476 
L 920.462546 309.422288 
L 922.087444 298.578913 
L 922.899893 297.168111 
L 923.712341 306.322046 
L 924.52479 295.82726 
L 925.337239 290.746981 
L 926.149688 287.320996 
L 930.211932 287.319997 
L 930.211932 287.319997 
" clip-path="url(#pe2c3239a99)" style="fill: none; stroke-dasharray: 2,3.3; stroke-dashoffset: 0; stroke: #0000ff; stroke-width: 2"/>
   </g>
   <g id="patch_3">
    <path d="M 77.99375 364.7775 
L 77.99375 32.1375 
" style="fill: none; stroke: #000000; stroke-width: 0.8; stroke-linejoin: miter; stroke-linecap: square"/>
   </g>
   <g id="patch_4">
    <path d="M 970.79375 364.7775 
L 970.79375 32.1375 
" style="fill: none; stroke: #000000; stroke-width: 0.8; stroke-linejoin: miter; stroke-linecap: square"/>
   </g>
   <g id="patch_5">
    <path d="M 77.99375 364.7775 
L 970.79375 364.7775 
" style="fill: none; stroke: #000000; stroke-width: 0.8; stroke-linejoin: miter; stroke-linecap: square"/>
   </g>
   <g id="patch_6">
    <path d="M 77.99375 32.1375 
L 970.79375 32.1375 
" style="fill: none; stroke: #000000; stroke-width: 0.8; stroke-linejoin: miter; stroke-linecap: square"/>
   </g>
   <g id="text_15">
    <!-- 关节位置曲线 -->
    <g transform="translate(452.39375 26.1375)scale(0.24 -0.24)">
     <defs>
      <path id="FangSong-5173" d="M 3650 3475 
Q 4900 3625 4950 3675 
L 5300 3400 
Q 5050 3400 3350 3200 
Q 3300 2650 3225 2100 
Q 5200 2225 5375 2300 
L 5700 2050 
Q 5300 2050 3575 1900 
Q 4075 1025 4362 637 
Q 4650 250 4875 0 
Q 5100 -250 5900 -275 
L 5900 -400 
L 4750 -500 
Q 4800 -400 4412 200 
Q 4025 800 3400 1900 
L 3175 1900 
Q 2925 1075 2287 412 
Q 1650 -250 650 -625 
L 600 -525 
Q 1575 -75 2150 575 
Q 2725 1225 2900 1825 
Q 1250 1700 1075 1675 
L 750 1950 
Q 1075 1900 2975 2075 
Q 3075 2650 3100 3175 
Q 1800 3075 1725 3000 
L 1350 3325 
Q 1825 3275 3475 3475 
Q 3825 4050 4050 4525 
Q 4275 5000 4175 5175 
L 4250 5225 
L 4550 4725 
Q 4475 4775 4275 4475 
Q 4075 4150 3650 3475 
z
M 2750 3925 
Q 2650 3700 2550 3525 
Q 2250 4125 1775 4800 
L 1875 4850 
Q 2400 4300 2750 3925 
z
" transform="scale(0.015625)"/>
      <path id="FangSong-8282" d="M 2700 -175 
Q 2850 -75 2825 350 
L 2850 2550 
Q 1400 2400 1275 2350 
L 950 2625 
Q 1775 2625 4725 3000 
L 4850 3225 
L 5175 2950 
L 4950 2775 
Q 4900 2275 4762 1575 
Q 4625 875 4475 500 
Q 4075 950 3550 1375 
L 3575 1450 
L 4400 1000 
Q 4525 1500 4700 2750 
L 3075 2575 
L 3050 -350 
Q 3050 -725 2975 -625 
L 2700 -175 
z
M 2325 3350 
Q 2425 3400 2375 3775 
Q 1050 3650 925 3600 
L 575 3875 
Q 1000 3850 2375 4000 
L 2350 4325 
Q 2325 4850 2175 5025 
L 2200 5100 
L 2650 4800 
Q 2550 4750 2575 4325 
L 2600 4025 
L 3825 4125 
Q 3950 4525 4000 4787 
Q 4050 5050 3950 5200 
L 4025 5250 
L 4400 4850 
Q 4300 4875 4225 4662 
Q 4150 4450 4075 4150 
Q 5150 4250 5425 4325 
L 5775 4050 
Q 5550 4075 4000 3925 
L 3675 3100 
L 3575 3125 
L 3775 3900 
L 2600 3800 
L 2625 3225 
Q 2650 2925 2525 3000 
L 2325 3350 
z
" transform="scale(0.015625)"/>
      <path id="FangSong-66f2" d="M 5250 3550 
L 5550 3275 
L 5350 3100 
Q 5050 450 4950 25 
Q 4850 -400 4812 -312 
Q 4775 -225 4725 150 
L 1625 -75 
Q 1650 -425 1575 -375 
L 1275 0 
Q 1400 200 1375 400 
L 1250 2575 
Q 1250 3025 1125 3400 
L 1225 3425 
L 1450 3000 
L 2575 3100 
L 2575 4250 
Q 2600 4700 2425 4925 
L 2500 4975 
L 2900 4575 
Q 2775 4525 2800 4225 
L 2800 3125 
L 3675 3200 
L 3675 4525 
Q 3675 5050 3500 5175 
L 3550 5250 
L 4050 4875 
Q 3875 4825 3900 4450 
L 3900 3225 
L 5075 3350 
L 5250 3550 
z
M 3900 1925 
Q 4500 2000 4475 2050 
L 4700 1750 
Q 4400 1750 3900 1700 
L 3900 325 
Q 4550 375 4550 425 
L 4725 175 
Q 4850 475 5075 3075 
L 3900 3000 
L 3900 1925 
z
M 2575 1550 
Q 2075 1500 2000 1450 
L 1700 1725 
Q 1975 1725 2575 1775 
L 2575 2875 
L 1500 2775 
L 1625 175 
L 2575 225 
L 2575 1550 
z
M 2800 250 
L 3675 300 
L 3675 1675 
L 2800 1575 
L 2800 250 
z
M 3675 1900 
L 3675 2975 
L 2800 2900 
L 2800 1800 
L 3675 1900 
z
" transform="scale(0.015625)"/>
      <path id="FangSong-7ebf" d="M 4100 1125 
Q 4450 1450 4637 1700 
Q 4825 1950 4800 2150 
L 4875 2175 
L 5050 1625 
Q 4950 1650 4775 1475 
Q 4600 1300 4200 875 
Q 4800 0 5425 -200 
L 5475 800 
L 5575 800 
Q 5650 -350 5725 -625 
Q 4700 -350 4025 725 
Q 3425 150 2325 -350 
L 2275 -250 
Q 3150 175 3925 950 
Q 3750 1350 3575 2050 
Q 2975 1875 2900 1825 
L 2550 1975 
Q 2875 2050 3550 2250 
Q 3500 2575 3425 3025 
Q 3075 2950 2950 2875 
L 2650 3025 
Q 2850 3075 3425 3225 
Q 3325 4025 3300 4462 
Q 3275 4900 3125 5125 
L 3200 5200 
L 3650 4825 
Q 3550 4650 3562 4325 
Q 3575 4000 3625 3325 
Q 4550 3600 4600 3675 
L 4950 3475 
Q 4600 3400 3650 3100 
Q 3700 2600 3775 2300 
Q 5000 2725 5050 2800 
L 5400 2600 
Q 5225 2575 3800 2125 
Q 3925 1500 4100 1125 
z
M 2525 1725 
Q 1375 1350 1175 1225 
L 950 1500 
L 1225 1575 
L 1950 2725 
Q 1175 2575 975 2450 
L 775 2750 
L 1050 2875 
Q 1550 3800 1737 4250 
Q 1925 4700 1850 4900 
L 1925 4950 
L 2225 4475 
Q 2125 4525 1812 3937 
Q 1500 3350 1225 2800 
L 2075 2925 
Q 2450 3500 2375 3750 
L 2450 3800 
L 2700 3325 
Q 2600 3325 2337 2925 
Q 2075 2525 1475 1625 
L 2500 1825 
L 2525 1725 
z
M 2825 825 
Q 1100 50 1000 -25 
L 625 200 
Q 1000 250 2775 950 
L 2825 825 
z
M 4700 3900 
Q 4450 4175 3925 4650 
L 3975 4750 
Q 4525 4475 4700 4400 
L 4700 3900 
z
" transform="scale(0.015625)"/>
     </defs>
     <use xlink:href="#FangSong-5173"/>
     <use xlink:href="#FangSong-8282" x="100"/>
     <use xlink:href="#FangSong-4f4d" x="200"/>
     <use xlink:href="#FangSong-7f6e" x="300"/>
     <use xlink:href="#FangSong-66f2" x="400"/>
     <use xlink:href="#FangSong-7ebf" x="500"/>
    </g>
   </g>
   <g id="legend_1">
    <g id="patch_7">
     <path d="M 852.803125 132.971875 
L 956.79375 132.971875 
Q 960.79375 132.971875 960.79375 128.971875 
L 960.79375 46.1375 
Q 960.79375 42.1375 956.79375 42.1375 
L 852.803125 42.1375 
Q 848.803125 42.1375 848.803125 46.1375 
L 848.803125 128.971875 
Q 848.803125 132.971875 852.803125 132.971875 
z
" style="fill: #ffffff; opacity: 0.8; stroke: #cccccc; stroke-linejoin: miter"/>
    </g>
    <g id="line2d_16">
     <path d="M 856.803125 57.1375 
L 876.803125 57.1375 
L 896.803125 57.1375 
" style="fill: none; stroke: #ff0000; stroke-width: 2; stroke-linecap: square"/>
    </g>
    <g id="text_16">
     <!-- roll -->
     <g transform="translate(912.803125 64.1375)scale(0.2 -0.2)">
      <defs>
       <path id="TimesNewRomanPSMT-72" d="M 1038 2947 
L 1038 2303 
Q 1397 2947 1775 2947 
Q 1947 2947 2059 2842 
Q 2172 2738 2172 2600 
Q 2172 2478 2090 2393 
Q 2009 2309 1897 2309 
Q 1788 2309 1652 2417 
Q 1516 2525 1450 2525 
Q 1394 2525 1328 2463 
Q 1188 2334 1038 2041 
L 1038 669 
Q 1038 431 1097 309 
Q 1138 225 1241 169 
Q 1344 113 1538 113 
L 1538 0 
L 72 0 
L 72 113 
Q 291 113 397 181 
Q 475 231 506 341 
Q 522 394 522 644 
L 522 1753 
Q 522 2253 501 2348 
Q 481 2444 426 2487 
Q 372 2531 291 2531 
Q 194 2531 72 2484 
L 41 2597 
L 906 2947 
L 1038 2947 
z
" transform="scale(0.015625)"/>
       <path id="TimesNewRomanPSMT-6f" d="M 1600 2947 
Q 2250 2947 2644 2453 
Q 2978 2031 2978 1484 
Q 2978 1100 2793 706 
Q 2609 313 2286 112 
Q 1963 -88 1566 -88 
Q 919 -88 538 428 
Q 216 863 216 1403 
Q 216 1797 411 2186 
Q 606 2575 925 2761 
Q 1244 2947 1600 2947 
z
M 1503 2744 
Q 1338 2744 1170 2645 
Q 1003 2547 900 2300 
Q 797 2053 797 1666 
Q 797 1041 1045 587 
Q 1294 134 1700 134 
Q 2003 134 2200 384 
Q 2397 634 2397 1244 
Q 2397 2006 2069 2444 
Q 1847 2744 1503 2744 
z
" transform="scale(0.015625)"/>
       <path id="TimesNewRomanPSMT-6c" d="M 1184 4444 
L 1184 647 
Q 1184 378 1223 290 
Q 1263 203 1344 158 
Q 1425 113 1647 113 
L 1647 0 
L 244 0 
L 244 113 
Q 441 113 512 153 
Q 584 194 625 287 
Q 666 381 666 647 
L 666 3247 
Q 666 3731 644 3842 
Q 622 3953 573 3993 
Q 525 4034 450 4034 
Q 369 4034 244 3984 
L 191 4094 
L 1044 4444 
L 1184 4444 
z
" transform="scale(0.015625)"/>
      </defs>
      <use xlink:href="#TimesNewRomanPSMT-72"/>
      <use xlink:href="#TimesNewRomanPSMT-6f" x="33.300781"/>
      <use xlink:href="#TimesNewRomanPSMT-6c" x="83.300781"/>
      <use xlink:href="#TimesNewRomanPSMT-6c" x="111.083984"/>
     </g>
    </g>
    <g id="line2d_17">
     <path d="M 856.803125 85.415625 
L 876.803125 85.415625 
L 896.803125 85.415625 
" style="fill: none; stroke-dasharray: 7.4,3.2; stroke-dashoffset: 0; stroke: #008000; stroke-width: 2"/>
    </g>
    <g id="text_17">
     <!-- pitch -->
     <g transform="translate(912.803125 92.415625)scale(0.2 -0.2)">
      <defs>
       <path id="TimesNewRomanPSMT-70" d="M -6 2578 
L 875 2934 
L 994 2934 
L 994 2266 
Q 1216 2644 1439 2795 
Q 1663 2947 1909 2947 
Q 2341 2947 2628 2609 
Q 2981 2197 2981 1534 
Q 2981 794 2556 309 
Q 2206 -88 1675 -88 
Q 1444 -88 1275 -22 
Q 1150 25 994 166 
L 994 -706 
Q 994 -1000 1030 -1079 
Q 1066 -1159 1155 -1206 
Q 1244 -1253 1478 -1253 
L 1478 -1369 
L -22 -1369 
L -22 -1253 
L 56 -1253 
Q 228 -1256 350 -1188 
Q 409 -1153 442 -1076 
Q 475 -1000 475 -688 
L 475 2019 
Q 475 2297 450 2372 
Q 425 2447 370 2484 
Q 316 2522 222 2522 
Q 147 2522 31 2478 
L -6 2578 
z
M 994 2081 
L 994 1013 
Q 994 666 1022 556 
Q 1066 375 1236 237 
Q 1406 100 1666 100 
Q 1978 100 2172 344 
Q 2425 663 2425 1241 
Q 2425 1897 2138 2250 
Q 1938 2494 1663 2494 
Q 1513 2494 1366 2419 
Q 1253 2363 994 2081 
z
" transform="scale(0.015625)"/>
       <path id="TimesNewRomanPSMT-69" d="M 928 4444 
Q 1059 4444 1151 4351 
Q 1244 4259 1244 4128 
Q 1244 3997 1151 3903 
Q 1059 3809 928 3809 
Q 797 3809 703 3903 
Q 609 3997 609 4128 
Q 609 4259 701 4351 
Q 794 4444 928 4444 
z
M 1188 2947 
L 1188 647 
Q 1188 378 1227 289 
Q 1266 200 1342 156 
Q 1419 113 1622 113 
L 1622 0 
L 231 0 
L 231 113 
Q 441 113 512 153 
Q 584 194 626 287 
Q 669 381 669 647 
L 669 1750 
Q 669 2216 641 2353 
Q 619 2453 572 2492 
Q 525 2531 444 2531 
Q 356 2531 231 2484 
L 188 2597 
L 1050 2947 
L 1188 2947 
z
" transform="scale(0.015625)"/>
       <path id="TimesNewRomanPSMT-74" d="M 1031 3803 
L 1031 2863 
L 1700 2863 
L 1700 2644 
L 1031 2644 
L 1031 788 
Q 1031 509 1111 412 
Q 1191 316 1316 316 
Q 1419 316 1516 380 
Q 1613 444 1666 569 
L 1788 569 
Q 1678 263 1478 108 
Q 1278 -47 1066 -47 
Q 922 -47 784 33 
Q 647 113 581 261 
Q 516 409 516 719 
L 516 2644 
L 63 2644 
L 63 2747 
Q 234 2816 414 2980 
Q 594 3144 734 3369 
Q 806 3488 934 3803 
L 1031 3803 
z
" transform="scale(0.015625)"/>
       <path id="TimesNewRomanPSMT-63" d="M 2631 1088 
Q 2516 522 2178 217 
Q 1841 -88 1431 -88 
Q 944 -88 581 321 
Q 219 731 219 1428 
Q 219 2103 620 2525 
Q 1022 2947 1584 2947 
Q 2006 2947 2278 2723 
Q 2550 2500 2550 2259 
Q 2550 2141 2473 2067 
Q 2397 1994 2259 1994 
Q 2075 1994 1981 2113 
Q 1928 2178 1911 2362 
Q 1894 2547 1784 2644 
Q 1675 2738 1481 2738 
Q 1169 2738 978 2506 
Q 725 2200 725 1697 
Q 725 1184 976 792 
Q 1228 400 1656 400 
Q 1963 400 2206 609 
Q 2378 753 2541 1131 
L 2631 1088 
z
" transform="scale(0.015625)"/>
       <path id="TimesNewRomanPSMT-68" d="M 1041 4444 
L 1041 2350 
Q 1388 2731 1591 2839 
Q 1794 2947 1997 2947 
Q 2241 2947 2416 2812 
Q 2591 2678 2675 2391 
Q 2734 2191 2734 1659 
L 2734 647 
Q 2734 375 2778 275 
Q 2809 200 2884 156 
Q 2959 113 3159 113 
L 3159 0 
L 1753 0 
L 1753 113 
L 1819 113 
Q 2019 113 2097 173 
Q 2175 234 2206 353 
Q 2216 403 2216 647 
L 2216 1659 
Q 2216 2128 2167 2275 
Q 2119 2422 2012 2495 
Q 1906 2569 1756 2569 
Q 1603 2569 1437 2487 
Q 1272 2406 1041 2159 
L 1041 647 
Q 1041 353 1073 281 
Q 1106 209 1195 161 
Q 1284 113 1503 113 
L 1503 0 
L 84 0 
L 84 113 
Q 275 113 384 172 
Q 447 203 484 290 
Q 522 378 522 647 
L 522 3238 
Q 522 3728 498 3840 
Q 475 3953 426 3993 
Q 378 4034 297 4034 
Q 231 4034 84 3984 
L 41 4094 
L 897 4444 
L 1041 4444 
z
" transform="scale(0.015625)"/>
      </defs>
      <use xlink:href="#TimesNewRomanPSMT-70"/>
      <use xlink:href="#TimesNewRomanPSMT-69" x="50"/>
      <use xlink:href="#TimesNewRomanPSMT-74" x="77.783203"/>
      <use xlink:href="#TimesNewRomanPSMT-63" x="105.566406"/>
      <use xlink:href="#TimesNewRomanPSMT-68" x="149.951172"/>
     </g>
    </g>
    <g id="line2d_18">
     <path d="M 856.803125 113.69375 
L 876.803125 113.69375 
L 896.803125 113.69375 
" style="fill: none; stroke-dasharray: 2,3.3; stroke-dashoffset: 0; stroke: #0000ff; stroke-width: 2"/>
    </g>
    <g id="text_18">
     <!-- knee -->
     <g transform="translate(912.803125 120.69375)scale(0.2 -0.2)">
      <defs>
       <path id="TimesNewRomanPSMT-6b" d="M 1047 4444 
L 1047 1597 
L 1775 2259 
Q 2006 2472 2044 2528 
Q 2069 2566 2069 2603 
Q 2069 2666 2017 2711 
Q 1966 2756 1847 2763 
L 1847 2863 
L 3091 2863 
L 3091 2763 
Q 2834 2756 2664 2684 
Q 2494 2613 2291 2428 
L 1556 1750 
L 2291 822 
Q 2597 438 2703 334 
Q 2853 188 2966 144 
Q 3044 113 3238 113 
L 3238 0 
L 1847 0 
L 1847 113 
Q 1966 116 2008 148 
Q 2050 181 2050 241 
Q 2050 313 1925 472 
L 1047 1594 
L 1047 644 
Q 1047 366 1086 278 
Q 1125 191 1197 153 
Q 1269 116 1509 113 
L 1509 0 
L 53 0 
L 53 113 
Q 272 113 381 166 
Q 447 200 481 272 
Q 528 375 528 628 
L 528 3234 
Q 528 3731 506 3842 
Q 484 3953 434 3995 
Q 384 4038 303 4038 
Q 238 4038 106 3984 
L 53 4094 
L 903 4444 
L 1047 4444 
z
" transform="scale(0.015625)"/>
       <path id="TimesNewRomanPSMT-6e" d="M 1034 2341 
Q 1538 2947 1994 2947 
Q 2228 2947 2397 2830 
Q 2566 2713 2666 2444 
Q 2734 2256 2734 1869 
L 2734 647 
Q 2734 375 2778 278 
Q 2813 200 2889 156 
Q 2966 113 3172 113 
L 3172 0 
L 1756 0 
L 1756 113 
L 1816 113 
Q 2016 113 2095 173 
Q 2175 234 2206 353 
Q 2219 400 2219 647 
L 2219 1819 
Q 2219 2209 2117 2386 
Q 2016 2563 1775 2563 
Q 1403 2563 1034 2156 
L 1034 647 
Q 1034 356 1069 288 
Q 1113 197 1189 155 
Q 1266 113 1500 113 
L 1500 0 
L 84 0 
L 84 113 
L 147 113 
Q 366 113 442 223 
Q 519 334 519 647 
L 519 1709 
Q 519 2225 495 2337 
Q 472 2450 423 2490 
Q 375 2531 294 2531 
Q 206 2531 84 2484 
L 38 2597 
L 900 2947 
L 1034 2947 
L 1034 2341 
z
" transform="scale(0.015625)"/>
       <path id="TimesNewRomanPSMT-65" d="M 681 1784 
Q 678 1147 991 784 
Q 1303 422 1725 422 
Q 2006 422 2214 576 
Q 2422 731 2563 1106 
L 2659 1044 
Q 2594 616 2278 264 
Q 1963 -88 1488 -88 
Q 972 -88 605 314 
Q 238 716 238 1394 
Q 238 2128 614 2539 
Q 991 2950 1559 2950 
Q 2041 2950 2350 2633 
Q 2659 2316 2659 1784 
L 681 1784 
z
M 681 1966 
L 2006 1966 
Q 1991 2241 1941 2353 
Q 1863 2528 1708 2628 
Q 1553 2728 1384 2728 
Q 1125 2728 920 2526 
Q 716 2325 681 1966 
z
" transform="scale(0.015625)"/>
      </defs>
      <use xlink:href="#TimesNewRomanPSMT-6b"/>
      <use xlink:href="#TimesNewRomanPSMT-6e" x="50"/>
      <use xlink:href="#TimesNewRomanPSMT-65" x="100"/>
      <use xlink:href="#TimesNewRomanPSMT-65" x="144.384766"/>
     </g>
    </g>
   </g>
  </g>
 </g>
 <defs>
  <clipPath id="pe2c3239a99">
   <rect x="77.99375" y="32.1375" width="892.8" height="332.64"/>
  </clipPath>
 </defs>
</svg>
