<?xml version="1.0" encoding="utf-8" standalone="no"?>
<!DOCTYPE svg PUBLIC "-//W3C//DTD SVG 1.1//EN"
  "http://www.w3.org/Graphics/SVG/1.1/DTD/svg11.dtd">
<svg xmlns:xlink="http://www.w3.org/1999/xlink" width="1147.3375pt" height="709.375pt" viewBox="0 0 1147.3375 709.375" xmlns="http://www.w3.org/2000/svg" version="1.1">
 <metadata>
  <rdf:RDF xmlns:dc="http://purl.org/dc/elements/1.1/" xmlns:cc="http://creativecommons.org/ns#" xmlns:rdf="http://www.w3.org/1999/02/22-rdf-syntax-ns#">
   <cc:Work>
    <dc:type rdf:resource="http://purl.org/dc/dcmitype/StillImage"/>
    <dc:date>2022-10-12T09:48:35.586519</dc:date>
    <dc:format>image/svg+xml</dc:format>
    <dc:creator>
     <cc:Agent>
      <dc:title>Matplotlib v3.5.1, https://matplotlib.org/</dc:title>
     </cc:Agent>
    </dc:creator>
   </cc:Work>
  </rdf:RDF>
 </metadata>
 <defs>
  <style type="text/css">*{stroke-linejoin: round; stroke-linecap: butt}</style>
 </defs>
 <g id="figure_1">
  <g id="patch_1">
   <path d="M 0 709.375 
L 1147.3375 709.375 
L 1147.3375 0 
L 0 0 
z
" style="fill: #ffffff"/>
  </g>
  <g id="axes_1">
   <g id="patch_2">
    <path d="M 60.478125 223.461038 
L 1140.1375 223.461038 
L 1140.1375 37.609409 
L 60.478125 37.609409 
z
" style="fill: #ffffff"/>
   </g>
   <g id="matplotlib.axis_1">
    <g id="xtick_1">
     <g id="line2d_1">
      <defs>
       <path id="mf4054b445a" d="M 0 0 
L 0 3.5 
" style="stroke: #000000; stroke-width: 0.8"/>
      </defs>
      <g>
       <use xlink:href="#mf4054b445a" x="107.5866" y="223.461038" style="stroke: #000000; stroke-width: 0.8"/>
      </g>
     </g>
     <g id="text_1">
      <!-- 0 -->
      <g transform="translate(104.40535 238.059476)scale(0.1 -0.1)">
       <defs>
        <path id="DejaVuSans-30" d="M 2034 4250 
Q 1547 4250 1301 3770 
Q 1056 3291 1056 2328 
Q 1056 1369 1301 889 
Q 1547 409 2034 409 
Q 2525 409 2770 889 
Q 3016 1369 3016 2328 
Q 3016 3291 2770 3770 
Q 2525 4250 2034 4250 
z
M 2034 4750 
Q 2819 4750 3233 4129 
Q 3647 3509 3647 2328 
Q 3647 1150 3233 529 
Q 2819 -91 2034 -91 
Q 1250 -91 836 529 
Q 422 1150 422 2328 
Q 422 3509 836 4129 
Q 1250 4750 2034 4750 
z
" transform="scale(0.015625)"/>
       </defs>
       <use xlink:href="#DejaVuSans-30"/>
      </g>
     </g>
    </g>
    <g id="xtick_2">
     <g id="line2d_2">
      <g>
       <use xlink:href="#mf4054b445a" x="304.281695" y="223.461038" style="stroke: #000000; stroke-width: 0.8"/>
      </g>
     </g>
     <g id="text_2">
      <!-- 1 -->
      <g transform="translate(301.100445 238.059476)scale(0.1 -0.1)">
       <defs>
        <path id="DejaVuSans-31" d="M 794 531 
L 1825 531 
L 1825 4091 
L 703 3866 
L 703 4441 
L 1819 4666 
L 2450 4666 
L 2450 531 
L 3481 531 
L 3481 0 
L 794 0 
L 794 531 
z
" transform="scale(0.015625)"/>
       </defs>
       <use xlink:href="#DejaVuSans-31"/>
      </g>
     </g>
    </g>
    <g id="xtick_3">
     <g id="line2d_3">
      <g>
       <use xlink:href="#mf4054b445a" x="500.97679" y="223.461038" style="stroke: #000000; stroke-width: 0.8"/>
      </g>
     </g>
     <g id="text_3">
      <!-- 2 -->
      <g transform="translate(497.79554 238.059476)scale(0.1 -0.1)">
       <defs>
        <path id="DejaVuSans-32" d="M 1228 531 
L 3431 531 
L 3431 0 
L 469 0 
L 469 531 
Q 828 903 1448 1529 
Q 2069 2156 2228 2338 
Q 2531 2678 2651 2914 
Q 2772 3150 2772 3378 
Q 2772 3750 2511 3984 
Q 2250 4219 1831 4219 
Q 1534 4219 1204 4116 
Q 875 4013 500 3803 
L 500 4441 
Q 881 4594 1212 4672 
Q 1544 4750 1819 4750 
Q 2544 4750 2975 4387 
Q 3406 4025 3406 3419 
Q 3406 3131 3298 2873 
Q 3191 2616 2906 2266 
Q 2828 2175 2409 1742 
Q 1991 1309 1228 531 
z
" transform="scale(0.015625)"/>
       </defs>
       <use xlink:href="#DejaVuSans-32"/>
      </g>
     </g>
    </g>
    <g id="xtick_4">
     <g id="line2d_4">
      <g>
       <use xlink:href="#mf4054b445a" x="697.671884" y="223.461038" style="stroke: #000000; stroke-width: 0.8"/>
      </g>
     </g>
     <g id="text_4">
      <!-- 3 -->
      <g transform="translate(694.490634 238.059476)scale(0.1 -0.1)">
       <defs>
        <path id="DejaVuSans-33" d="M 2597 2516 
Q 3050 2419 3304 2112 
Q 3559 1806 3559 1356 
Q 3559 666 3084 287 
Q 2609 -91 1734 -91 
Q 1441 -91 1130 -33 
Q 819 25 488 141 
L 488 750 
Q 750 597 1062 519 
Q 1375 441 1716 441 
Q 2309 441 2620 675 
Q 2931 909 2931 1356 
Q 2931 1769 2642 2001 
Q 2353 2234 1838 2234 
L 1294 2234 
L 1294 2753 
L 1863 2753 
Q 2328 2753 2575 2939 
Q 2822 3125 2822 3475 
Q 2822 3834 2567 4026 
Q 2313 4219 1838 4219 
Q 1578 4219 1281 4162 
Q 984 4106 628 3988 
L 628 4550 
Q 988 4650 1302 4700 
Q 1616 4750 1894 4750 
Q 2613 4750 3031 4423 
Q 3450 4097 3450 3541 
Q 3450 3153 3228 2886 
Q 3006 2619 2597 2516 
z
" transform="scale(0.015625)"/>
       </defs>
       <use xlink:href="#DejaVuSans-33"/>
      </g>
     </g>
    </g>
    <g id="xtick_5">
     <g id="line2d_5">
      <g>
       <use xlink:href="#mf4054b445a" x="894.366979" y="223.461038" style="stroke: #000000; stroke-width: 0.8"/>
      </g>
     </g>
     <g id="text_5">
      <!-- 4 -->
      <g transform="translate(891.185729 238.059476)scale(0.1 -0.1)">
       <defs>
        <path id="DejaVuSans-34" d="M 2419 4116 
L 825 1625 
L 2419 1625 
L 2419 4116 
z
M 2253 4666 
L 3047 4666 
L 3047 1625 
L 3713 1625 
L 3713 1100 
L 3047 1100 
L 3047 0 
L 2419 0 
L 2419 1100 
L 313 1100 
L 313 1709 
L 2253 4666 
z
" transform="scale(0.015625)"/>
       </defs>
       <use xlink:href="#DejaVuSans-34"/>
      </g>
     </g>
    </g>
    <g id="xtick_6">
     <g id="line2d_6">
      <g>
       <use xlink:href="#mf4054b445a" x="1091.062074" y="223.461038" style="stroke: #000000; stroke-width: 0.8"/>
      </g>
     </g>
     <g id="text_6">
      <!-- 5 -->
      <g transform="translate(1087.880824 238.059476)scale(0.1 -0.1)">
       <defs>
        <path id="DejaVuSans-35" d="M 691 4666 
L 3169 4666 
L 3169 4134 
L 1269 4134 
L 1269 2991 
Q 1406 3038 1543 3061 
Q 1681 3084 1819 3084 
Q 2600 3084 3056 2656 
Q 3513 2228 3513 1497 
Q 3513 744 3044 326 
Q 2575 -91 1722 -91 
Q 1428 -91 1123 -41 
Q 819 9 494 109 
L 494 744 
Q 775 591 1075 516 
Q 1375 441 1709 441 
Q 2250 441 2565 725 
Q 2881 1009 2881 1497 
Q 2881 1984 2565 2268 
Q 2250 2553 1709 2553 
Q 1456 2553 1204 2497 
Q 953 2441 691 2322 
L 691 4666 
z
" transform="scale(0.015625)"/>
       </defs>
       <use xlink:href="#DejaVuSans-35"/>
      </g>
     </g>
    </g>
   </g>
   <g id="matplotlib.axis_2">
    <g id="ytick_1">
     <g id="line2d_7">
      <defs>
       <path id="md6b29170d7" d="M 0 0 
L -3.5 0 
" style="stroke: #000000; stroke-width: 0.8"/>
      </defs>
      <g>
       <use xlink:href="#md6b29170d7" x="60.478125" y="204.117156" style="stroke: #000000; stroke-width: 0.8"/>
      </g>
     </g>
     <g id="text_7">
      <!-- −12.5 -->
      <g transform="translate(22.832813 207.916375)scale(0.1 -0.1)">
       <defs>
        <path id="DejaVuSans-2212" d="M 678 2272 
L 4684 2272 
L 4684 1741 
L 678 1741 
L 678 2272 
z
" transform="scale(0.015625)"/>
        <path id="DejaVuSans-2e" d="M 684 794 
L 1344 794 
L 1344 0 
L 684 0 
L 684 794 
z
" transform="scale(0.015625)"/>
       </defs>
       <use xlink:href="#DejaVuSans-2212"/>
       <use xlink:href="#DejaVuSans-31" x="83.789062"/>
       <use xlink:href="#DejaVuSans-32" x="147.412109"/>
       <use xlink:href="#DejaVuSans-2e" x="211.035156"/>
       <use xlink:href="#DejaVuSans-35" x="242.822266"/>
      </g>
     </g>
    </g>
    <g id="ytick_2">
     <g id="line2d_8">
      <g>
       <use xlink:href="#md6b29170d7" x="60.478125" y="180.78726" style="stroke: #000000; stroke-width: 0.8"/>
      </g>
     </g>
     <g id="text_8">
      <!-- −10.0 -->
      <g transform="translate(22.832813 184.586479)scale(0.1 -0.1)">
       <use xlink:href="#DejaVuSans-2212"/>
       <use xlink:href="#DejaVuSans-31" x="83.789062"/>
       <use xlink:href="#DejaVuSans-30" x="147.412109"/>
       <use xlink:href="#DejaVuSans-2e" x="211.035156"/>
       <use xlink:href="#DejaVuSans-30" x="242.822266"/>
      </g>
     </g>
    </g>
    <g id="ytick_3">
     <g id="line2d_9">
      <g>
       <use xlink:href="#md6b29170d7" x="60.478125" y="157.457364" style="stroke: #000000; stroke-width: 0.8"/>
      </g>
     </g>
     <g id="text_9">
      <!-- −7.5 -->
      <g transform="translate(29.195313 161.256583)scale(0.1 -0.1)">
       <defs>
        <path id="DejaVuSans-37" d="M 525 4666 
L 3525 4666 
L 3525 4397 
L 1831 0 
L 1172 0 
L 2766 4134 
L 525 4134 
L 525 4666 
z
" transform="scale(0.015625)"/>
       </defs>
       <use xlink:href="#DejaVuSans-2212"/>
       <use xlink:href="#DejaVuSans-37" x="83.789062"/>
       <use xlink:href="#DejaVuSans-2e" x="147.412109"/>
       <use xlink:href="#DejaVuSans-35" x="179.199219"/>
      </g>
     </g>
    </g>
    <g id="ytick_4">
     <g id="line2d_10">
      <g>
       <use xlink:href="#md6b29170d7" x="60.478125" y="134.127469" style="stroke: #000000; stroke-width: 0.8"/>
      </g>
     </g>
     <g id="text_10">
      <!-- −5.0 -->
      <g transform="translate(29.195313 137.926687)scale(0.1 -0.1)">
       <use xlink:href="#DejaVuSans-2212"/>
       <use xlink:href="#DejaVuSans-35" x="83.789062"/>
       <use xlink:href="#DejaVuSans-2e" x="147.412109"/>
       <use xlink:href="#DejaVuSans-30" x="179.199219"/>
      </g>
     </g>
    </g>
    <g id="ytick_5">
     <g id="line2d_11">
      <g>
       <use xlink:href="#md6b29170d7" x="60.478125" y="110.797573" style="stroke: #000000; stroke-width: 0.8"/>
      </g>
     </g>
     <g id="text_11">
      <!-- −2.5 -->
      <g transform="translate(29.195313 114.596792)scale(0.1 -0.1)">
       <use xlink:href="#DejaVuSans-2212"/>
       <use xlink:href="#DejaVuSans-32" x="83.789062"/>
       <use xlink:href="#DejaVuSans-2e" x="147.412109"/>
       <use xlink:href="#DejaVuSans-35" x="179.199219"/>
      </g>
     </g>
    </g>
    <g id="ytick_6">
     <g id="line2d_12">
      <g>
       <use xlink:href="#md6b29170d7" x="60.478125" y="87.467677" style="stroke: #000000; stroke-width: 0.8"/>
      </g>
     </g>
     <g id="text_12">
      <!-- 0.0 -->
      <g transform="translate(37.575 91.266896)scale(0.1 -0.1)">
       <use xlink:href="#DejaVuSans-30"/>
       <use xlink:href="#DejaVuSans-2e" x="63.623047"/>
       <use xlink:href="#DejaVuSans-30" x="95.410156"/>
      </g>
     </g>
    </g>
    <g id="ytick_7">
     <g id="line2d_13">
      <g>
       <use xlink:href="#md6b29170d7" x="60.478125" y="64.137781" style="stroke: #000000; stroke-width: 0.8"/>
      </g>
     </g>
     <g id="text_13">
      <!-- 2.5 -->
      <g transform="translate(37.575 67.937)scale(0.1 -0.1)">
       <use xlink:href="#DejaVuSans-32"/>
       <use xlink:href="#DejaVuSans-2e" x="63.623047"/>
       <use xlink:href="#DejaVuSans-35" x="95.410156"/>
      </g>
     </g>
    </g>
    <g id="ytick_8">
     <g id="line2d_14">
      <g>
       <use xlink:href="#md6b29170d7" x="60.478125" y="40.807886" style="stroke: #000000; stroke-width: 0.8"/>
      </g>
     </g>
     <g id="text_14">
      <!-- 5.0 -->
      <g transform="translate(37.575 44.607104)scale(0.1 -0.1)">
       <use xlink:href="#DejaVuSans-35"/>
       <use xlink:href="#DejaVuSans-2e" x="63.623047"/>
       <use xlink:href="#DejaVuSans-30" x="95.410156"/>
      </g>
     </g>
    </g>
   </g>
   <g id="line2d_15">
    <path d="M 109.553551 132.316631 
L 111.520502 82.266706 
L 113.487453 68.76726 
L 115.454404 74.489314 
L 117.421355 81.935898 
L 119.388306 86.191378 
L 121.355257 87.482046 
L 137.090864 87.481983 
L 139.057815 84.173591 
L 141.024766 86.28138 
L 142.991717 86.672867 
L 152.826472 89.303757 
L 156.760374 89.761952 
L 160.694276 89.812842 
L 166.595129 89.469696 
L 170.529031 89.168797 
L 172.495981 89.124898 
L 176.429883 88.757134 
L 178.396834 89.011682 
L 182.330736 91.350026 
L 186.264638 93.996993 
L 188.231589 94.76323 
L 190.19854 95.004029 
L 192.165491 94.823329 
L 194.132442 94.312251 
L 196.099393 93.579003 
L 203.967197 90.023341 
L 205.934148 89.034783 
L 207.901099 88.306368 
L 209.868049 78.548665 
L 211.835 55.821726 
L 213.801951 46.05721 
L 215.768902 55.373081 
L 217.735853 63.592621 
L 219.702804 76.721134 
L 221.669755 83.242202 
L 223.636706 86.442228 
L 225.603657 87.475917 
L 243.306216 87.419605 
L 245.273167 87.527326 
L 247.240117 88.137465 
L 249.207068 89.09334 
L 251.174019 89.570428 
L 253.14097 89.819016 
L 257.074872 90.010971 
L 268.876578 90.20395 
L 270.843529 86.069488 
L 272.81048 80.061013 
L 274.777431 77.158761 
L 276.744382 76.053309 
L 278.711333 76.594168 
L 280.678284 78.299706 
L 282.645235 80.672286 
L 286.579136 85.852888 
L 288.546087 88.104859 
L 290.513038 89.871514 
L 292.479989 91.165047 
L 294.44694 91.94278 
L 296.413891 92.238189 
L 298.380842 92.1318 
L 304.281695 89.414724 
L 306.248646 88.665985 
L 308.215597 88.677795 
L 312.149499 90.429439 
L 314.11645 90.936858 
L 316.083401 90.878443 
L 318.050352 90.357987 
L 320.017303 89.48603 
L 321.984253 88.367204 
L 329.852057 83.395262 
L 331.819008 82.38911 
L 333.785959 81.760378 
L 335.75291 81.427528 
L 337.719861 78.396784 
L 339.686812 103.652947 
L 341.653763 149.910761 
L 343.620714 164.933217 
L 345.587665 147.871567 
L 347.554616 118.683106 
L 349.521567 86.943618 
L 351.488518 86.12357 
L 353.455469 87.35672 
L 367.224125 87.29968 
L 369.191076 87.669817 
L 371.158027 89.01848 
L 373.124978 89.872589 
L 375.091929 90.294539 
L 379.025831 90.582071 
L 384.926684 90.61352 
L 388.860586 90.58088 
L 390.827537 91.117603 
L 392.794488 71.348295 
L 394.761439 63.841536 
L 396.728389 59.707146 
L 398.69534 58.562952 
L 400.662291 59.945084 
L 402.629242 63.195051 
L 404.596193 67.609114 
L 408.530095 77.984432 
L 410.497046 77.704316 
L 416.397899 83.145182 
L 418.36485 84.650534 
L 420.331801 85.840311 
L 422.298752 86.662619 
L 424.265703 87.13976 
L 426.232654 87.302307 
L 428.199605 87.203411 
L 430.166556 86.901804 
L 432.133507 86.467064 
L 434.100457 86.188358 
L 436.067408 86.805025 
L 438.034359 87.244876 
L 440.00131 87.514054 
L 441.968261 88.513647 
L 443.935212 88.789971 
L 445.902163 88.547174 
L 447.869114 87.90058 
L 449.836065 86.965267 
L 453.769967 84.630537 
L 457.703869 82.259944 
L 459.67082 81.219876 
L 461.637771 80.329849 
L 463.604722 79.618439 
L 465.571673 79.074356 
L 467.538624 78.941717 
L 469.505575 79.076208 
L 471.472525 75.583066 
L 473.439476 116.31457 
L 477.373378 215.013237 
L 479.340329 196.175652 
L 481.30728 147.81412 
L 483.274231 72.762629 
L 485.241182 64.812556 
L 487.208133 75.930199 
L 489.175084 83.272885 
L 491.142035 86.674008 
L 493.108986 87.323611 
L 506.877643 87.270439 
L 508.844593 87.497112 
L 510.811544 88.44225 
L 512.778495 90.07926 
L 514.745446 72.152975 
L 516.712397 65.471237 
L 518.679348 61.537033 
L 520.646299 60.122803 
L 522.61325 60.907736 
L 524.580201 63.473528 
L 526.547152 70.116651 
L 528.514103 77.651507 
L 530.481054 76.500773 
L 532.448005 76.435661 
L 534.414956 79.15387 
L 536.381907 82.911967 
L 538.348858 85.957361 
L 540.315809 87.11119 
L 542.28276 85.835466 
L 544.249711 87.086104 
L 546.216661 87.846015 
L 548.183612 88.167165 
L 550.150563 88.163325 
L 552.117514 87.879599 
L 556.051416 86.954949 
L 559.985318 85.975963 
L 563.91922 85.265025 
L 565.886171 85.0811 
L 567.853122 85.392435 
L 571.787024 86.834215 
L 573.753975 87.322785 
L 575.720926 87.644997 
L 579.654828 90.02461 
L 581.621779 90.696305 
L 583.588729 90.879923 
L 585.55568 90.676332 
L 587.522631 90.162747 
L 591.456533 88.69397 
L 597.357386 86.386219 
L 599.324337 85.781118 
L 603.258239 84.802293 
L 605.22519 84.58017 
L 607.192141 83.291812 
L 609.159092 75.331435 
L 611.126043 76.169719 
L 613.092994 87.641602 
L 615.059945 87.617664 
L 617.026896 88.053302 
L 618.993846 88.800078 
L 620.960797 89.352333 
L 624.894699 89.646101 
L 632.762503 89.739485 
L 660.299816 89.606594 
L 662.266767 89.8697 
L 664.233718 79.677406 
L 666.200669 73.060063 
L 668.16762 72.543131 
L 670.134571 73.535651 
L 672.101522 75.178314 
L 679.969326 80.018121 
L 687.83713 86.020664 
L 689.804081 87.033638 
L 691.771032 87.719904 
L 693.737982 87.768464 
L 695.704933 87.630713 
L 697.671884 87.643401 
L 701.605786 89.381686 
L 703.572737 90.3032 
L 705.539688 90.79104 
L 707.506639 90.632798 
L 709.47359 89.959856 
L 711.440541 88.906422 
L 715.374443 86.169234 
L 719.308345 83.316598 
L 721.275296 82.029356 
L 723.242247 80.958113 
L 725.209198 80.11354 
L 729.1431 79.264318 
L 731.11005 71.89389 
L 733.077001 107.203992 
L 735.043952 154.834949 
L 737.010903 183.473568 
L 738.977854 172.34155 
L 740.944805 137.497188 
L 742.911756 92.750847 
L 744.878707 73.591386 
L 746.845658 77.54675 
L 748.812609 83.925285 
L 750.77956 87.040671 
L 752.746511 87.331534 
L 766.515168 87.276357 
L 768.482118 87.659628 
L 770.449069 89.009251 
L 772.41602 89.805022 
L 774.382971 90.191813 
L 778.316873 90.441189 
L 782.250775 90.464671 
L 784.217726 91.140752 
L 786.184677 70.49729 
L 788.151628 62.896994 
L 790.118579 58.635702 
L 792.08553 57.396188 
L 794.052481 58.70347 
L 796.019432 61.949201 
L 797.986383 66.430446 
L 799.953334 73.56405 
L 801.920285 77.156108 
L 803.887236 76.233456 
L 805.854186 78.358643 
L 807.821137 80.752686 
L 809.788088 82.925146 
L 811.755039 84.733541 
L 813.72199 86.097718 
L 815.688941 87.014783 
L 817.655892 87.524721 
L 819.622843 87.664684 
L 821.589794 87.516704 
L 825.523696 86.686216 
L 827.490647 86.086477 
L 829.457598 85.869011 
L 831.424549 86.766729 
L 833.3915 87.320691 
L 835.358451 87.733654 
L 837.325402 88.542597 
L 839.292353 88.702942 
L 841.259304 88.398072 
L 843.226254 87.747975 
L 845.193205 86.856212 
L 855.02796 81.710391 
L 856.994911 80.947113 
L 858.961862 80.343231 
L 860.928813 79.903373 
L 862.895764 79.78544 
L 864.862715 79.943846 
L 866.829666 75.202035 
L 868.796617 110.088738 
L 870.763568 156.391771 
L 872.730519 193.21226 
L 874.69747 172.523548 
L 876.664421 132.551641 
L 878.631372 80.995966 
L 880.598322 75.774442 
L 882.565273 82.685091 
L 884.532224 86.440676 
L 886.499175 87.338171 
L 898.300881 87.286335 
L 900.267832 87.407969 
L 902.234783 88.144747 
L 904.201734 89.391378 
L 906.168685 90.053438 
L 908.135636 90.385553 
L 912.069538 90.617592 
L 914.036489 90.642993 
L 916.00344 91.331428 
L 917.97039 71.1332 
L 919.937341 63.490024 
L 921.904292 59.046164 
L 923.871243 57.525667 
L 925.838194 58.54056 
L 927.805145 61.574538 
L 929.772096 66.509664 
L 931.739047 74.687448 
L 933.705998 77.38532 
L 935.672949 77.46983 
L 937.6399 77.776559 
L 941.573802 83.13704 
L 943.540753 85.225182 
L 945.507704 86.815611 
L 947.474655 87.87562 
L 949.441606 88.466139 
L 951.408557 88.635385 
L 953.375508 88.519587 
L 955.342458 88.172777 
L 959.27636 87.137834 
L 963.210262 86.043924 
L 965.177213 86.551366 
L 967.144164 87.228272 
L 969.111115 87.637182 
L 971.078066 88.76058 
L 973.045017 89.663797 
L 975.011968 90.020757 
L 976.978919 89.931942 
L 978.94587 89.49715 
L 980.912821 88.815631 
L 984.846723 87.06877 
L 988.780625 85.293662 
L 990.747576 84.531797 
L 992.714526 83.897431 
L 994.681477 83.399884 
L 996.648428 83.051432 
L 998.615379 82.825696 
L 1000.58233 82.186052 
L 1002.549281 74.34028 
L 1004.516232 89.066268 
L 1006.483183 129.754257 
L 1008.450134 119.704638 
L 1010.417085 100.821076 
L 1012.384036 91.88773 
L 1014.350987 91.856667 
L 1016.317938 91.159242 
L 1018.284889 90.852226 
L 1022.218791 90.552595 
L 1030.086594 90.386067 
L 1057.623908 90.134072 
L 1059.590859 90.56975 
L 1061.55781 74.16122 
L 1063.524761 68.128656 
L 1065.491712 65.045915 
L 1067.458662 64.454602 
L 1069.425613 65.897994 
L 1071.392564 68.771914 
L 1073.359515 72.486023 
L 1075.326466 76.494119 
L 1077.293417 78.35255 
L 1079.260368 79.412976 
L 1083.19427 82.387836 
L 1085.161221 83.889628 
L 1087.128172 85.210207 
L 1089.095123 86.276396 
L 1091.062074 87.059837 
L 1091.062074 87.059837 
" clip-path="url(#p12de49c413)" style="fill: none; stroke: #ff0000; stroke-width: 2; stroke-linecap: square"/>
   </g>
   <g id="line2d_16">
    <path d="M 109.553551 87.467677 
L 111.520502 72.482295 
L 113.487453 76.096996 
L 115.454404 82.272683 
L 117.421355 86.104138 
L 119.388306 87.393322 
L 137.090864 87.258369 
L 139.057815 88.604107 
L 170.529031 87.763427 
L 174.462932 87.469616 
L 205.934148 86.191984 
L 209.868049 66.691257 
L 211.835 46.973077 
L 213.801951 55.360442 
L 215.768902 59.961461 
L 217.735853 71.625394 
L 219.702804 77.361364 
L 221.669755 80.289082 
L 223.636706 81.349623 
L 235.438412 81.413669 
L 243.306216 81.58381 
L 245.273167 81.983448 
L 247.240117 82.881821 
L 249.207068 83.370236 
L 253.14097 83.877223 
L 264.942676 84.727195 
L 266.909627 84.878565 
L 268.876578 88.467344 
L 270.843529 88.113188 
L 272.81048 88.405932 
L 282.645235 88.356539 
L 298.380842 87.872188 
L 300.347793 87.650289 
L 316.083401 86.999383 
L 331.819008 86.392786 
L 333.785959 86.405645 
L 335.75291 83.3743 
L 337.719861 75.18909 
L 339.686812 133.751272 
L 341.653763 155.855717 
L 343.620714 146.36142 
L 345.587665 119.436233 
L 347.554616 86.788003 
L 349.521567 85.614461 
L 351.488518 86.999727 
L 361.323272 87.655802 
L 367.224125 88.149817 
L 369.191076 89.45627 
L 371.158027 90.397526 
L 373.124978 90.976432 
L 377.05888 91.683569 
L 388.860586 93.289802 
L 390.827537 88.035447 
L 400.662291 88.384949 
L 402.629242 88.421071 
L 404.596193 88.755299 
L 406.563144 90.213571 
L 408.530095 88.43268 
L 420.331801 88.231438 
L 440.00131 87.660229 
L 457.703869 86.701339 
L 465.571673 86.413679 
L 467.538624 86.441743 
L 469.505575 82.465821 
L 471.472525 76.575628 
L 475.406427 200.354589 
L 477.373378 196.230171 
L 479.340329 155.292979 
L 481.30728 81.495818 
L 483.274231 70.41644 
L 485.241182 79.594191 
L 487.208133 86.062675 
L 489.175084 89.437518 
L 491.142035 90.24844 
L 500.97679 91.064756 
L 506.877643 91.648254 
L 508.844593 92.527502 
L 510.811544 93.582845 
L 512.778495 88.20439 
L 518.679348 88.201818 
L 522.61325 88.273818 
L 524.580201 91.462242 
L 526.547152 97.411534 
L 528.514103 94.402072 
L 530.481054 91.76464 
L 532.448005 91.548883 
L 534.414956 92.352297 
L 536.381907 92.675102 
L 538.348858 91.507134 
L 540.315809 88.373137 
L 569.820073 87.720305 
L 583.588729 87.186598 
L 593.423484 86.71453 
L 601.291288 86.38777 
L 603.258239 86.398359 
L 605.22519 85.129605 
L 607.192141 76.590543 
L 609.159092 73.47772 
L 611.126043 85.411646 
L 613.092994 85.190299 
L 615.059945 85.542467 
L 618.993846 86.719586 
L 626.86165 87.212798 
L 640.630307 87.789692 
L 650.465062 88.406352 
L 660.299816 89.213776 
L 662.266767 88.211256 
L 676.035424 88.346549 
L 685.870179 88.142464 
L 691.771032 87.952129 
L 695.704933 87.680335 
L 707.506639 87.112467 
L 725.209198 86.316807 
L 727.176149 85.963609 
L 729.1431 77.922834 
L 731.11005 73.781399 
L 733.077001 131.094308 
L 735.043952 172.998724 
L 737.010903 170.617952 
L 738.977854 140.651005 
L 740.944805 97.776205 
L 742.911756 77.195921 
L 744.878707 79.469409 
L 746.845658 85.045713 
L 748.812609 88.265094 
L 750.77956 88.702976 
L 760.614315 89.483878 
L 766.515168 90.048922 
L 768.482118 91.387781 
L 770.449069 92.299265 
L 772.41602 92.87146 
L 776.349922 93.594133 
L 782.250775 94.440538 
L 784.217726 88.056688 
L 792.08553 88.39158 
L 796.019432 88.477326 
L 797.986383 91.643394 
L 799.953334 91.901076 
L 801.920285 88.81821 
L 803.887236 88.520795 
L 815.688941 88.297494 
L 829.457598 87.83696 
L 856.994911 86.467997 
L 860.928813 86.333873 
L 862.895764 86.379138 
L 866.829666 75.63041 
L 868.796617 135.03829 
L 870.763568 180.719605 
L 872.730519 171.470494 
L 874.69747 136.362736 
L 876.664421 85.242532 
L 878.631372 78.051998 
L 880.598322 84.020464 
L 882.565273 87.682718 
L 884.532224 88.735599 
L 894.366979 89.494408 
L 898.300881 89.860524 
L 900.267832 90.446449 
L 902.234783 91.728993 
L 904.201734 92.529177 
L 906.168685 93.057643 
L 910.102587 93.778366 
L 914.036489 94.367919 
L 916.00344 88.129746 
L 925.838194 88.391238 
L 927.805145 88.99618 
L 929.772096 93.899297 
L 931.739047 93.89334 
L 935.672949 88.494293 
L 939.606851 88.390996 
L 963.210262 87.818048 
L 996.648428 86.343072 
L 998.615379 85.664317 
L 1000.58233 77.13505 
L 1002.549281 73.552759 
L 1004.516232 124.302396 
L 1006.483183 115.440235 
L 1008.450134 98.662005 
L 1010.417085 89.37157 
L 1012.384036 89.596319 
L 1014.350987 89.015899 
L 1018.284889 88.727488 
L 1022.218791 88.753531 
L 1030.086594 89.132271 
L 1039.921349 89.884352 
L 1049.756104 90.878453 
L 1057.623908 91.843337 
L 1059.590859 88.245549 
L 1067.458662 88.431955 
L 1077.293417 88.340278 
L 1087.128172 88.100621 
L 1091.062074 87.979332 
L 1091.062074 87.979332 
" clip-path="url(#p12de49c413)" style="fill: none; stroke-dasharray: 2,3.3; stroke-dashoffset: 0; stroke: #008000; stroke-width: 2"/>
   </g>
   <g id="patch_3">
    <path d="M 60.478125 223.461038 
L 60.478125 37.609409 
" style="fill: none; stroke: #000000; stroke-width: 0.8; stroke-linejoin: miter; stroke-linecap: square"/>
   </g>
   <g id="patch_4">
    <path d="M 1140.1375 223.461038 
L 1140.1375 37.609409 
" style="fill: none; stroke: #000000; stroke-width: 0.8; stroke-linejoin: miter; stroke-linecap: square"/>
   </g>
   <g id="patch_5">
    <path d="M 60.478125 223.461038 
L 1140.1375 223.461038 
" style="fill: none; stroke: #000000; stroke-width: 0.8; stroke-linejoin: miter; stroke-linecap: square"/>
   </g>
   <g id="patch_6">
    <path d="M 60.478125 37.609409 
L 1140.1375 37.609409 
" style="fill: none; stroke: #000000; stroke-width: 0.8; stroke-linejoin: miter; stroke-linecap: square"/>
   </g>
   <g id="legend_1">
    <g id="patch_7">
     <path d="M 1034.1375 110.165659 
L 1126.1375 110.165659 
Q 1130.1375 110.165659 1130.1375 106.165659 
L 1130.1375 51.609409 
Q 1130.1375 47.609409 1126.1375 47.609409 
L 1034.1375 47.609409 
Q 1030.1375 47.609409 1030.1375 51.609409 
L 1030.1375 106.165659 
Q 1030.1375 110.165659 1034.1375 110.165659 
z
" style="fill: #ffffff; opacity: 0.8; stroke: #cccccc; stroke-linejoin: miter"/>
    </g>
    <g id="line2d_17">
     <path d="M 1038.1375 62.609409 
L 1058.1375 62.609409 
L 1078.1375 62.609409 
" style="fill: none; stroke: #ff0000; stroke-width: 2; stroke-linecap: square"/>
    </g>
    <g id="text_15">
     <!-- $v_x$ -->
     <g transform="translate(1094.1375 69.609409)scale(0.2 -0.2)">
      <defs>
       <path id="DejaVuSans-Oblique-76" d="M 459 3500 
L 1069 3500 
L 1581 525 
L 3256 3500 
L 3866 3500 
L 1875 0 
L 1100 0 
L 459 3500 
z
" transform="scale(0.015625)"/>
       <path id="DejaVuSans-Oblique-78" d="M 3841 3500 
L 2234 1784 
L 3219 0 
L 2559 0 
L 1819 1388 
L 531 0 
L -166 0 
L 1556 1844 
L 641 3500 
L 1300 3500 
L 1972 2234 
L 3144 3500 
L 3841 3500 
z
" transform="scale(0.015625)"/>
      </defs>
      <use xlink:href="#DejaVuSans-Oblique-76" transform="translate(0 0.3125)"/>
      <use xlink:href="#DejaVuSans-Oblique-78" transform="translate(59.179688 -16.09375)scale(0.7)"/>
     </g>
    </g>
    <g id="line2d_18">
     <path d="M 1038.1375 90.887534 
L 1058.1375 90.887534 
L 1078.1375 90.887534 
" style="fill: none; stroke-dasharray: 2,3.3; stroke-dashoffset: 0; stroke: #008000; stroke-width: 2"/>
    </g>
    <g id="text_16">
     <!-- $v_{xs}$ -->
     <g transform="translate(1094.1375 97.887534)scale(0.2 -0.2)">
      <defs>
       <path id="DejaVuSans-Oblique-73" d="M 3200 3397 
L 3091 2853 
Q 2863 2978 2609 3040 
Q 2356 3103 2088 3103 
Q 1634 3103 1373 2948 
Q 1113 2794 1113 2528 
Q 1113 2219 1719 2053 
Q 1766 2041 1788 2034 
L 1972 1978 
Q 2547 1819 2739 1644 
Q 2931 1469 2931 1166 
Q 2931 609 2489 259 
Q 2047 -91 1331 -91 
Q 1053 -91 747 -37 
Q 441 16 72 128 
L 184 722 
Q 500 559 806 475 
Q 1113 391 1394 391 
Q 1816 391 2080 572 
Q 2344 753 2344 1031 
Q 2344 1331 1650 1516 
L 1591 1531 
L 1394 1581 
Q 956 1697 753 1886 
Q 550 2075 550 2369 
Q 550 2928 970 3256 
Q 1391 3584 2113 3584 
Q 2397 3584 2667 3537 
Q 2938 3491 3200 3397 
z
" transform="scale(0.015625)"/>
      </defs>
      <use xlink:href="#DejaVuSans-Oblique-76" transform="translate(0 0.3125)"/>
      <use xlink:href="#DejaVuSans-Oblique-78" transform="translate(59.179688 -16.09375)scale(0.7)"/>
      <use xlink:href="#DejaVuSans-Oblique-73" transform="translate(100.605469 -16.09375)scale(0.7)"/>
     </g>
    </g>
   </g>
  </g>
  <g id="axes_2">
   <g id="patch_8">
    <path d="M 60.478125 438.977394 
L 1140.1375 438.977394 
L 1140.1375 253.125765 
L 60.478125 253.125765 
z
" style="fill: #ffffff"/>
   </g>
   <g id="matplotlib.axis_3">
    <g id="xtick_7">
     <g id="line2d_19">
      <g>
       <use xlink:href="#mf4054b445a" x="107.5866" y="438.977394" style="stroke: #000000; stroke-width: 0.8"/>
      </g>
     </g>
     <g id="text_17">
      <!-- 0 -->
      <g transform="translate(104.40535 453.575832)scale(0.1 -0.1)">
       <use xlink:href="#DejaVuSans-30"/>
      </g>
     </g>
    </g>
    <g id="xtick_8">
     <g id="line2d_20">
      <g>
       <use xlink:href="#mf4054b445a" x="304.281695" y="438.977394" style="stroke: #000000; stroke-width: 0.8"/>
      </g>
     </g>
     <g id="text_18">
      <!-- 1 -->
      <g transform="translate(301.100445 453.575832)scale(0.1 -0.1)">
       <use xlink:href="#DejaVuSans-31"/>
      </g>
     </g>
    </g>
    <g id="xtick_9">
     <g id="line2d_21">
      <g>
       <use xlink:href="#mf4054b445a" x="500.97679" y="438.977394" style="stroke: #000000; stroke-width: 0.8"/>
      </g>
     </g>
     <g id="text_19">
      <!-- 2 -->
      <g transform="translate(497.79554 453.575832)scale(0.1 -0.1)">
       <use xlink:href="#DejaVuSans-32"/>
      </g>
     </g>
    </g>
    <g id="xtick_10">
     <g id="line2d_22">
      <g>
       <use xlink:href="#mf4054b445a" x="697.671884" y="438.977394" style="stroke: #000000; stroke-width: 0.8"/>
      </g>
     </g>
     <g id="text_20">
      <!-- 3 -->
      <g transform="translate(694.490634 453.575832)scale(0.1 -0.1)">
       <use xlink:href="#DejaVuSans-33"/>
      </g>
     </g>
    </g>
    <g id="xtick_11">
     <g id="line2d_23">
      <g>
       <use xlink:href="#mf4054b445a" x="894.366979" y="438.977394" style="stroke: #000000; stroke-width: 0.8"/>
      </g>
     </g>
     <g id="text_21">
      <!-- 4 -->
      <g transform="translate(891.185729 453.575832)scale(0.1 -0.1)">
       <use xlink:href="#DejaVuSans-34"/>
      </g>
     </g>
    </g>
    <g id="xtick_12">
     <g id="line2d_24">
      <g>
       <use xlink:href="#mf4054b445a" x="1091.062074" y="438.977394" style="stroke: #000000; stroke-width: 0.8"/>
      </g>
     </g>
     <g id="text_22">
      <!-- 5 -->
      <g transform="translate(1087.880824 453.575832)scale(0.1 -0.1)">
       <use xlink:href="#DejaVuSans-35"/>
      </g>
     </g>
    </g>
   </g>
   <g id="matplotlib.axis_4">
    <g id="ytick_9">
     <g id="line2d_25">
      <g>
       <use xlink:href="#md6b29170d7" x="60.478125" y="413.774928" style="stroke: #000000; stroke-width: 0.8"/>
      </g>
     </g>
     <g id="text_23">
      <!-- −10 -->
      <g transform="translate(32.373438 417.574147)scale(0.1 -0.1)">
       <use xlink:href="#DejaVuSans-2212"/>
       <use xlink:href="#DejaVuSans-31" x="83.789062"/>
       <use xlink:href="#DejaVuSans-30" x="147.412109"/>
      </g>
     </g>
    </g>
    <g id="ytick_10">
     <g id="line2d_26">
      <g>
       <use xlink:href="#md6b29170d7" x="60.478125" y="373.82215" style="stroke: #000000; stroke-width: 0.8"/>
      </g>
     </g>
     <g id="text_24">
      <!-- −5 -->
      <g transform="translate(38.735938 377.621369)scale(0.1 -0.1)">
       <use xlink:href="#DejaVuSans-2212"/>
       <use xlink:href="#DejaVuSans-35" x="83.789062"/>
      </g>
     </g>
    </g>
    <g id="ytick_11">
     <g id="line2d_27">
      <g>
       <use xlink:href="#md6b29170d7" x="60.478125" y="333.869373" style="stroke: #000000; stroke-width: 0.8"/>
      </g>
     </g>
     <g id="text_25">
      <!-- 0 -->
      <g transform="translate(47.115625 337.668591)scale(0.1 -0.1)">
       <use xlink:href="#DejaVuSans-30"/>
      </g>
     </g>
    </g>
    <g id="ytick_12">
     <g id="line2d_28">
      <g>
       <use xlink:href="#md6b29170d7" x="60.478125" y="293.916595" style="stroke: #000000; stroke-width: 0.8"/>
      </g>
     </g>
     <g id="text_26">
      <!-- 5 -->
      <g transform="translate(47.115625 297.715813)scale(0.1 -0.1)">
       <use xlink:href="#DejaVuSans-35"/>
      </g>
     </g>
    </g>
    <g id="ytick_13">
     <g id="line2d_29">
      <g>
       <use xlink:href="#md6b29170d7" x="60.478125" y="253.963817" style="stroke: #000000; stroke-width: 0.8"/>
      </g>
     </g>
     <g id="text_27">
      <!-- 10 -->
      <g transform="translate(40.753125 257.763035)scale(0.1 -0.1)">
       <use xlink:href="#DejaVuSans-31"/>
       <use xlink:href="#DejaVuSans-30" x="63.623047"/>
      </g>
     </g>
    </g>
    <g id="text_28">
     <!-- 速度 [m/s] -->
     <g transform="translate(25.482813 396.051579)rotate(-90)scale(0.2 -0.2)">
      <defs>
       <path id="FangSong-901f" d="M 3925 375 
Q 3900 125 3825 250 
L 3550 600 
Q 3650 775 3700 1025 
L 3700 2025 
Q 3050 1175 2125 575 
L 2050 675 
Q 2900 1300 3525 2225 
L 2925 2150 
Q 2925 1925 2875 1925 
Q 2850 1925 2625 2225 
Q 2700 2350 2700 2775 
Q 2700 3200 2600 3400 
L 2700 3475 
L 2925 3200 
L 3700 3275 
L 3700 3850 
Q 2825 3750 2675 3700 
L 2400 3925 
Q 2800 3950 3700 4050 
L 3700 4525 
Q 3675 4900 3550 5200 
L 3625 5275 
L 4025 4900 
Q 3925 4725 3925 4500 
L 3925 4075 
Q 4975 4175 5125 4275 
L 5425 4050 
Q 5000 4000 3925 3875 
L 3925 3300 
L 4750 3425 
L 4925 3600 
L 5175 3325 
L 5000 3175 
L 4900 2625 
L 5075 2350 
L 3925 2250 
L 3925 375 
z
M 1925 3050 
L 2225 2775 
L 2050 2600 
Q 1700 1950 1600 1725 
Q 1825 1375 1812 1187 
Q 1800 1000 1600 500 
Q 3025 200 3825 -12 
Q 4625 -225 4850 -225 
Q 5100 -225 5950 -125 
L 5975 -250 
Q 5225 -475 4875 -600 
Q 3800 -225 3100 -25 
Q 2400 175 1937 250 
Q 1475 325 1175 312 
Q 875 300 700 200 
L 400 475 
Q 700 575 1425 525 
Q 1600 1000 1600 1175 
Q 1600 1375 1425 1725 
Q 1500 2000 1775 2575 
Q 850 2425 725 2375 
L 400 2600 
Q 750 2625 1775 2775 
L 1925 3050 
z
M 3700 2425 
L 3700 3075 
L 2925 3000 
L 2925 2350 
L 3700 2425 
z
M 4650 2550 
L 4750 3200 
L 3925 3100 
L 3925 2450 
L 4650 2550 
z
M 5300 1275 
Q 5325 1025 5300 775 
Q 5075 1025 4050 1800 
L 4100 1900 
Q 4950 1450 5300 1275 
z
M 1850 3475 
Q 1675 3800 1025 4550 
L 1100 4650 
Q 1700 4225 1975 3950 
Q 1925 3700 1850 3475 
z
" transform="scale(0.015625)"/>
       <path id="FangSong-5ea6" d="M 3975 3250 
Q 4050 3725 4000 3950 
L 4050 4000 
L 4375 3750 
Q 4275 3650 4225 3275 
Q 4975 3350 5175 3400 
L 5450 3150 
Q 5175 3150 4175 3025 
L 4100 2450 
L 4250 2225 
L 2950 2100 
Q 2950 1850 2850 1900 
L 2625 2175 
Q 2700 2275 2725 2425 
L 2725 2875 
Q 2250 2825 2025 2750 
L 1800 2925 
Q 1750 1825 1400 937 
Q 1050 50 525 -550 
L 425 -475 
Q 900 225 1137 825 
Q 1375 1425 1462 1962 
Q 1550 2500 1575 3337 
Q 1600 4175 1525 4600 
L 1625 4600 
L 1800 4075 
Q 5100 4350 5175 4450 
L 5475 4150 
Q 5225 4200 2775 3925 
L 3025 3675 
Q 2975 3550 2950 3400 
L 2950 3150 
L 3975 3250 
z
M 4750 -675 
Q 4600 -525 4350 -300 
Q 4100 -75 3475 400 
Q 2500 -375 1300 -600 
L 1275 -500 
Q 2650 -25 3275 550 
Q 3025 800 2812 950 
Q 2600 1100 2475 1075 
L 2450 1150 
L 2825 1275 
Q 2825 1175 3025 1012 
Q 3225 850 3450 675 
Q 3925 1175 4100 1500 
Q 2675 1375 2475 1300 
L 2225 1575 
Q 2675 1575 4225 1750 
L 4350 1900 
L 4675 1650 
L 4475 1500 
Q 4100 1025 3650 525 
Q 4200 75 4450 -100 
Q 4700 -275 4925 -325 
Q 5150 -375 5850 -350 
L 5850 -450 
L 4750 -675 
z
M 1800 3025 
Q 2125 3050 2725 3100 
L 2725 3475 
Q 2700 3725 2650 3925 
L 1825 3850 
L 1800 3025 
z
M 3850 2450 
L 3925 3000 
L 2950 2900 
L 2950 2350 
L 3850 2450 
z
M 3525 4350 
Q 3275 4750 2950 5200 
L 3025 5275 
Q 3375 5000 3700 4750 
Q 3650 4550 3525 4350 
z
" transform="scale(0.015625)"/>
       <path id="FangSong-20" transform="scale(0.015625)"/>
       <path id="FangSong-5b" d="M 2725 5100 
L 2725 4875 
L 1475 4875 
L 1475 -225 
L 2725 -225 
L 2725 -450 
L 1225 -450 
L 1225 5100 
L 2725 5100 
z
" transform="scale(0.015625)"/>
       <path id="FangSong-6d" d="M 150 2800 
Q 275 2800 400 2825 
Q 525 2850 600 2900 
L 650 2900 
L 650 2475 
Q 775 2675 925 2762 
Q 1075 2850 1250 2850 
Q 1475 2850 1600 2762 
Q 1725 2675 1750 2475 
Q 1875 2675 2037 2762 
Q 2200 2850 2375 2850 
Q 2675 2850 2787 2675 
Q 2900 2500 2900 2225 
L 2900 325 
Q 2900 225 2950 187 
Q 3000 150 3100 150 
L 3150 150 
L 3150 0 
L 2300 0 
L 2300 150 
L 2350 150 
Q 2450 150 2500 187 
Q 2550 225 2550 325 
L 2550 2200 
Q 2550 2475 2487 2562 
Q 2425 2650 2300 2650 
Q 2125 2650 1987 2525 
Q 1850 2400 1775 2175 
L 1775 325 
Q 1775 225 1825 187 
Q 1875 150 1975 150 
L 2025 150 
L 2025 0 
L 1175 0 
L 1175 150 
L 1225 150 
Q 1325 150 1375 187 
Q 1425 225 1425 325 
L 1425 2200 
Q 1425 2425 1375 2537 
Q 1325 2650 1175 2650 
Q 1000 2650 862 2525 
Q 725 2400 650 2150 
L 650 325 
Q 650 225 700 187 
Q 750 150 850 150 
L 900 150 
L 900 0 
L 50 0 
L 50 150 
L 100 150 
Q 200 150 250 187 
Q 300 225 300 325 
L 300 2500 
Q 300 2575 275 2612 
Q 250 2650 175 2650 
L 75 2650 
L 75 2800 
L 150 2800 
z
" transform="scale(0.015625)"/>
       <path id="FangSong-2f" d="M 375 -575 
L 200 -475 
L 2750 4875 
L 2925 4775 
L 375 -575 
z
" transform="scale(0.015625)"/>
       <path id="FangSong-73" d="M 600 2075 
Q 600 2450 887 2650 
Q 1175 2850 1575 2850 
Q 1800 2850 2000 2787 
Q 2200 2725 2275 2725 
Q 2350 2725 2400 2750 
Q 2450 2775 2525 2850 
L 2625 2025 
L 2475 2000 
Q 2375 2325 2137 2512 
Q 1900 2700 1600 2700 
Q 1275 2700 1087 2575 
Q 900 2450 900 2225 
Q 900 2025 987 1912 
Q 1075 1800 1300 1750 
Q 1475 1675 1737 1587 
Q 2000 1500 2225 1400 
Q 2425 1300 2562 1137 
Q 2700 975 2700 775 
Q 2700 400 2437 187 
Q 2175 -25 1675 -25 
Q 1350 -25 1187 37 
Q 1025 100 925 100 
Q 850 100 762 62 
Q 675 25 575 -25 
L 500 900 
L 650 925 
Q 725 525 975 325 
Q 1225 125 1675 125 
Q 2025 125 2212 250 
Q 2400 375 2400 625 
Q 2400 800 2300 912 
Q 2200 1025 2100 1075 
Q 1850 1175 1550 1287 
Q 1250 1400 1025 1500 
Q 800 1600 700 1750 
Q 600 1900 600 2075 
z
" transform="scale(0.015625)"/>
       <path id="FangSong-5d" d="M 1900 -450 
L 400 -450 
L 400 -225 
L 1650 -225 
L 1650 4875 
L 400 4875 
L 400 5100 
L 1900 5100 
L 1900 -450 
z
" transform="scale(0.015625)"/>
      </defs>
      <use xlink:href="#FangSong-901f"/>
      <use xlink:href="#FangSong-5ea6" x="100"/>
      <use xlink:href="#FangSong-20" x="200"/>
      <use xlink:href="#FangSong-5b" x="250"/>
      <use xlink:href="#FangSong-6d" x="300"/>
      <use xlink:href="#FangSong-2f" x="350"/>
      <use xlink:href="#FangSong-73" x="400"/>
      <use xlink:href="#FangSong-5d" x="450"/>
     </g>
    </g>
   </g>
   <g id="line2d_30">
    <path d="M 109.553551 334.274367 
L 111.520502 333.872076 
L 170.529031 333.875781 
L 178.396834 333.873284 
L 205.934148 333.893649 
L 207.901099 333.996082 
L 209.868049 334.614443 
L 211.835 328.987134 
L 213.801951 310.935177 
L 215.768902 329.190251 
L 217.735853 328.265378 
L 219.702804 330.979738 
L 221.669755 331.813033 
L 223.636706 332.397137 
L 225.603657 332.711303 
L 229.537559 333.002131 
L 237.405363 333.117656 
L 266.909627 333.146239 
L 268.876578 333.065041 
L 270.843529 338.578286 
L 272.81048 340.904977 
L 274.777431 342.236304 
L 276.744382 342.766899 
L 278.711333 342.567935 
L 280.678284 341.80624 
L 282.645235 340.655885 
L 288.546087 336.554705 
L 290.513038 335.414869 
L 292.479989 334.422654 
L 294.44694 333.76079 
L 306.248646 333.919098 
L 310.182548 334.233014 
L 321.984253 335.478104 
L 325.918155 335.651112 
L 331.819008 335.612376 
L 335.75291 335.409684 
L 337.719861 334.656466 
L 339.686812 323.140055 
L 341.653763 298.057843 
L 343.620714 317.149762 
L 345.587665 325.310612 
L 347.554616 329.450829 
L 349.521567 332.585646 
L 351.488518 332.995848 
L 353.455469 333.799847 
L 355.42242 333.91605 
L 388.860586 334.003693 
L 390.827537 332.490106 
L 392.794488 335.376281 
L 398.69534 336.523441 
L 400.662291 336.734326 
L 402.629242 336.825416 
L 406.563144 336.688866 
L 414.430948 335.870401 
L 418.36485 335.552709 
L 422.298752 335.413817 
L 428.199605 335.510797 
L 441.968261 336.150015 
L 447.869114 335.98403 
L 455.736918 336.05967 
L 469.505575 336.353227 
L 471.472525 335.854582 
L 473.439476 317.086495 
L 475.406427 278.702902 
L 477.373378 303.295376 
L 479.340329 320.000716 
L 481.30728 328.328565 
L 483.274231 331.723841 
L 485.241182 330.14322 
L 487.208133 333.021606 
L 489.175084 333.609521 
L 491.142035 333.872905 
L 497.042888 333.915134 
L 510.811544 333.972462 
L 512.778495 332.861369 
L 514.745446 336.864897 
L 518.679348 337.229565 
L 522.61325 337.610469 
L 524.580201 337.639626 
L 526.547152 337.294928 
L 528.514103 336.55606 
L 530.481054 336.307655 
L 532.448005 336.321775 
L 534.414956 336.131052 
L 538.348858 335.61629 
L 540.315809 335.628277 
L 542.28276 335.908722 
L 548.183612 335.809778 
L 565.886171 335.935933 
L 583.588729 335.890583 
L 591.456533 336.010782 
L 595.390435 335.854408 
L 601.291288 335.858993 
L 605.22519 335.997549 
L 607.192141 336.202015 
L 609.159092 336.196312 
L 611.126043 320.216753 
L 613.092994 279.582476 
L 615.059945 323.066246 
L 617.026896 317.187965 
L 618.993846 328.518729 
L 620.960797 328.335182 
L 622.927748 331.445461 
L 624.894699 331.795447 
L 626.86165 332.704054 
L 632.762503 333.286956 
L 636.696405 333.414426 
L 648.498111 333.494007 
L 660.299816 333.523077 
L 662.266767 332.917363 
L 664.233718 339.597525 
L 666.200669 341.698649 
L 668.16762 343.122972 
L 670.134571 343.686934 
L 672.101522 343.512123 
L 674.068473 342.71502 
L 676.035424 341.520268 
L 681.936277 337.167676 
L 683.903228 335.92133 
L 685.870179 334.916631 
L 687.83713 334.348678 
L 691.771032 334.224124 
L 695.704933 333.944148 
L 697.671884 333.948255 
L 701.605786 334.2697 
L 715.374443 336.141035 
L 719.308345 336.326753 
L 723.242247 336.255274 
L 727.176149 335.971545 
L 731.11005 334.692515 
L 733.077001 325.842687 
L 735.043952 308.141594 
L 737.010903 317.04637 
L 738.977854 327.960702 
L 740.944805 330.420714 
L 742.911756 333.409396 
L 744.878707 333.313009 
L 750.77956 333.901715 
L 782.250775 334.029855 
L 784.217726 332.262127 
L 786.184677 335.374623 
L 794.052481 336.923998 
L 796.019432 337.126837 
L 797.986383 337.199128 
L 799.953334 336.874438 
L 801.920285 336.679156 
L 803.887236 336.849235 
L 815.688941 335.927019 
L 819.622843 335.902692 
L 827.490647 336.199743 
L 831.424549 336.379886 
L 839.292353 336.319874 
L 847.160156 336.514582 
L 860.928813 337.060534 
L 864.862715 336.986601 
L 866.829666 336.120304 
L 868.796617 312.249578 
L 870.763568 261.573566 
L 872.730519 298.760791 
L 874.69747 314.691777 
L 876.664421 325.39732 
L 878.631372 330.160785 
L 880.598322 330.474876 
L 882.565273 333.064229 
L 884.532224 333.359175 
L 886.499175 333.942608 
L 902.234783 333.986267 
L 906.168685 334.147653 
L 914.036489 334.210169 
L 916.00344 332.482826 
L 917.97039 337.668318 
L 921.904292 339.032333 
L 923.871243 339.543774 
L 925.838194 339.845013 
L 927.805145 339.826091 
L 929.772096 339.377949 
L 931.739047 337.75718 
L 933.705998 336.805298 
L 935.672949 336.842771 
L 937.6399 337.118668 
L 941.573802 336.146535 
L 943.540753 335.796831 
L 947.474655 335.436538 
L 951.408557 335.414903 
L 969.111115 335.876849 
L 986.813674 335.227518 
L 994.681477 335.302744 
L 998.615379 335.402849 
L 1000.58233 335.578007 
L 1002.549281 335.914845 
L 1004.516232 327.82532 
L 1006.483183 307.151493 
L 1008.450134 325.087219 
L 1010.417085 326.825692 
L 1012.384036 330.464313 
L 1016.317938 332.41898 
L 1020.25184 333.100298 
L 1024.185742 333.331391 
L 1032.053545 333.435931 
L 1057.623908 333.485896 
L 1059.590859 332.917893 
L 1061.55781 337.786419 
L 1063.524761 339.322591 
L 1065.491712 340.344492 
L 1067.458662 340.873986 
L 1069.425613 340.867654 
L 1071.392564 340.445214 
L 1073.359515 339.702041 
L 1081.227319 335.964403 
L 1083.19427 335.273289 
L 1085.161221 334.769894 
L 1087.128172 334.457517 
L 1089.095123 334.32466 
L 1091.062074 334.344368 
L 1091.062074 334.344368 
" clip-path="url(#p035540f95b)" style="fill: none; stroke: #ff0000; stroke-width: 2; stroke-linecap: square"/>
   </g>
   <g id="line2d_31">
    <path d="M 109.553551 333.869373 
L 111.520502 321.038032 
L 113.487453 324.133146 
L 115.454404 329.421122 
L 117.421355 332.701832 
L 119.388306 333.805705 
L 137.090864 333.690151 
L 139.057815 334.842449 
L 170.529031 334.122611 
L 174.462932 333.871033 
L 205.934148 332.777051 
L 209.868049 316.079416 
L 211.835 299.195584 
L 213.801951 306.377325 
L 215.768902 310.316979 
L 217.735853 320.304305 
L 219.702804 325.21577 
L 221.669755 327.72265 
L 223.636706 328.630745 
L 235.438412 328.685585 
L 243.306216 328.831269 
L 245.273167 329.173462 
L 247.240117 329.942701 
L 249.207068 330.360909 
L 253.14097 330.79502 
L 266.909627 331.652427 
L 268.876578 334.725344 
L 270.843529 334.422096 
L 272.81048 334.67276 
L 282.645235 334.630467 
L 298.380842 334.215738 
L 302.314744 333.945248 
L 320.017303 333.329298 
L 331.819008 332.948989 
L 333.785959 332.96 
L 335.75291 330.364389 
L 337.719861 323.355745 
L 339.686812 373.500029 
L 341.653763 392.427117 
L 343.620714 384.297558 
L 345.587665 361.242676 
L 347.554616 333.287397 
L 349.521567 332.282543 
L 351.488518 333.468686 
L 363.290223 334.164791 
L 367.224125 334.45346 
L 369.191076 335.572119 
L 371.158027 336.378077 
L 373.124978 336.873769 
L 377.05888 337.47926 
L 388.860586 338.854608 
L 390.827537 334.355529 
L 400.662291 334.654793 
L 402.629242 334.685723 
L 404.596193 334.971908 
L 406.563144 336.220563 
L 408.530095 334.695663 
L 422.298752 334.480139 
L 441.968261 333.934598 
L 461.637771 333.078779 
L 467.538624 332.990909 
L 469.505575 329.586497 
L 471.472525 324.542978 
L 475.406427 430.529593 
L 477.373378 426.998031 
L 479.340329 391.945269 
L 481.30728 328.755926 
L 483.274231 319.26913 
L 485.241182 327.127644 
L 487.208133 332.66633 
L 489.175084 335.556063 
L 491.142035 336.250421 
L 502.943741 337.109719 
L 506.877643 337.449021 
L 508.844593 338.201883 
L 510.811544 339.105529 
L 512.778495 334.500188 
L 518.679348 334.497986 
L 522.61325 334.559636 
L 524.580201 337.289747 
L 526.547152 342.383871 
L 528.514103 339.806998 
L 530.481054 337.548678 
L 532.448005 337.363934 
L 534.414956 338.051863 
L 536.381907 338.328267 
L 538.348858 337.328186 
L 540.315809 334.644679 
L 569.820073 334.085687 
L 583.588729 333.628696 
L 593.423484 333.224485 
L 603.258239 332.953761 
L 605.22519 331.867381 
L 607.192141 324.555749 
L 609.159092 321.890373 
L 611.126043 332.108881 
L 613.092994 331.919352 
L 615.059945 332.220898 
L 618.993846 333.228814 
L 626.86165 333.65113 
L 642.597258 334.237598 
L 654.398964 334.930215 
L 660.299816 335.364482 
L 662.266767 334.506067 
L 676.035424 334.621912 
L 687.83713 334.393417 
L 693.737982 334.131375 
L 725.209198 332.883932 
L 727.176149 332.581503 
L 729.1431 325.696532 
L 731.11005 322.150399 
L 733.077001 371.224985 
L 735.043952 407.105939 
L 737.010903 405.067386 
L 738.977854 379.407975 
L 740.944805 342.696123 
L 742.911756 325.074109 
L 744.878707 327.020799 
L 746.845658 331.795548 
L 748.812609 334.552166 
L 750.77956 334.927106 
L 762.581266 335.75065 
L 766.515168 336.079582 
L 768.482118 337.225989 
L 770.449069 338.006454 
L 772.41602 338.4964 
L 776.349922 339.115194 
L 782.250775 339.839934 
L 784.217726 334.373718 
L 792.08553 334.660471 
L 796.019432 334.733891 
L 797.986383 337.44486 
L 799.953334 337.665502 
L 801.920285 335.025776 
L 803.887236 334.771112 
L 817.655892 334.533791 
L 831.424549 334.096761 
L 841.259304 333.702185 
L 856.994911 333.013389 
L 862.895764 332.937303 
L 866.829666 323.733628 
L 868.796617 374.602048 
L 870.763568 413.716998 
L 872.730519 405.797381 
L 874.69747 375.736114 
L 876.664421 331.964076 
L 878.631372 325.80713 
L 880.598322 330.917672 
L 882.565273 334.053503 
L 884.532224 334.955039 
L 894.366979 335.604775 
L 898.300881 335.918264 
L 900.267832 336.419967 
L 902.234783 337.518155 
L 904.201734 338.203317 
L 906.168685 338.65582 
L 910.102587 339.272945 
L 914.036489 339.777753 
L 916.00344 334.436274 
L 925.838194 334.660178 
L 927.805145 335.178164 
L 929.772096 339.376493 
L 931.739047 339.371392 
L 935.672949 334.748419 
L 939.606851 334.659971 
L 965.177213 334.093355 
L 978.94587 333.568953 
L 996.648428 332.906421 
L 998.615379 332.325232 
L 1000.58233 325.021987 
L 1002.549281 321.954625 
L 1004.516232 365.409363 
L 1006.483183 357.821074 
L 1008.450134 343.454595 
L 1010.417085 335.499594 
L 1012.384036 335.692038 
L 1014.350987 335.195048 
L 1018.284889 334.948095 
L 1024.185742 335.027904 
L 1032.053545 335.405975 
L 1041.8883 336.092592 
L 1051.723055 336.984441 
L 1057.623908 337.616062 
L 1059.590859 334.535431 
L 1069.425613 334.695337 
L 1081.227319 334.553589 
L 1091.062074 334.307481 
L 1091.062074 334.307481 
" clip-path="url(#p035540f95b)" style="fill: none; stroke-dasharray: 2,3.3; stroke-dashoffset: 0; stroke: #008000; stroke-width: 2"/>
   </g>
   <g id="patch_9">
    <path d="M 60.478125 438.977394 
L 60.478125 253.125765 
" style="fill: none; stroke: #000000; stroke-width: 0.8; stroke-linejoin: miter; stroke-linecap: square"/>
   </g>
   <g id="patch_10">
    <path d="M 1140.1375 438.977394 
L 1140.1375 253.125765 
" style="fill: none; stroke: #000000; stroke-width: 0.8; stroke-linejoin: miter; stroke-linecap: square"/>
   </g>
   <g id="patch_11">
    <path d="M 60.478125 438.977394 
L 1140.1375 438.977394 
" style="fill: none; stroke: #000000; stroke-width: 0.8; stroke-linejoin: miter; stroke-linecap: square"/>
   </g>
   <g id="patch_12">
    <path d="M 60.478125 253.125765 
L 1140.1375 253.125765 
" style="fill: none; stroke: #000000; stroke-width: 0.8; stroke-linejoin: miter; stroke-linecap: square"/>
   </g>
   <g id="legend_2">
    <g id="patch_13">
     <path d="M 1034.1375 329.525765 
L 1126.1375 329.525765 
Q 1130.1375 329.525765 1130.1375 325.525765 
L 1130.1375 267.125765 
Q 1130.1375 263.125765 1126.1375 263.125765 
L 1034.1375 263.125765 
Q 1030.1375 263.125765 1030.1375 267.125765 
L 1030.1375 325.525765 
Q 1030.1375 329.525765 1034.1375 329.525765 
z
" style="fill: #ffffff; opacity: 0.8; stroke: #cccccc; stroke-linejoin: miter"/>
    </g>
    <g id="line2d_32">
     <path d="M 1038.1375 278.125765 
L 1058.1375 278.125765 
L 1078.1375 278.125765 
" style="fill: none; stroke: #ff0000; stroke-width: 2; stroke-linecap: square"/>
    </g>
    <g id="text_29">
     <!-- $v_y$ -->
     <g transform="translate(1094.1375 285.125765)scale(0.2 -0.2)">
      <defs>
       <path id="DejaVuSans-Oblique-79" d="M 1588 -325 
Q 1188 -997 936 -1164 
Q 684 -1331 294 -1331 
L -159 -1331 
L -63 -850 
L 269 -850 
Q 509 -850 678 -719 
Q 847 -588 1056 -206 
L 1234 128 
L 459 3500 
L 1069 3500 
L 1650 819 
L 3256 3500 
L 3859 3500 
L 1588 -325 
z
" transform="scale(0.015625)"/>
      </defs>
      <use xlink:href="#DejaVuSans-Oblique-76" transform="translate(0 0.3125)"/>
      <use xlink:href="#DejaVuSans-Oblique-79" transform="translate(59.179688 -16.09375)scale(0.7)"/>
     </g>
    </g>
    <g id="line2d_33">
     <path d="M 1038.1375 308.325765 
L 1058.1375 308.325765 
L 1078.1375 308.325765 
" style="fill: none; stroke-dasharray: 2,3.3; stroke-dashoffset: 0; stroke: #008000; stroke-width: 2"/>
    </g>
    <g id="text_30">
     <!-- $v_{ys}$ -->
     <g transform="translate(1094.1375 315.325765)scale(0.2 -0.2)">
      <use xlink:href="#DejaVuSans-Oblique-76" transform="translate(0 0.3125)"/>
      <use xlink:href="#DejaVuSans-Oblique-79" transform="translate(59.179688 -16.09375)scale(0.7)"/>
      <use xlink:href="#DejaVuSans-Oblique-73" transform="translate(100.605469 -16.09375)scale(0.7)"/>
     </g>
    </g>
   </g>
  </g>
  <g id="axes_3">
   <g id="patch_14">
    <path d="M 60.478125 654.49375 
L 1140.1375 654.49375 
L 1140.1375 468.64212 
L 60.478125 468.64212 
z
" style="fill: #ffffff"/>
   </g>
   <g id="matplotlib.axis_5">
    <g id="xtick_13">
     <g id="line2d_34">
      <g>
       <use xlink:href="#mf4054b445a" x="107.5866" y="654.49375" style="stroke: #000000; stroke-width: 0.8"/>
      </g>
     </g>
     <g id="text_31">
      <!-- 0 -->
      <g transform="translate(102.5866 675.38125)scale(0.2 -0.2)">
       <defs>
        <path id="TimesNewRomanPSMT-30" d="M 231 2094 
Q 231 2819 450 3342 
Q 669 3866 1031 4122 
Q 1313 4325 1613 4325 
Q 2100 4325 2488 3828 
Q 2972 3213 2972 2159 
Q 2972 1422 2759 906 
Q 2547 391 2217 158 
Q 1888 -75 1581 -75 
Q 975 -75 572 641 
Q 231 1244 231 2094 
z
M 844 2016 
Q 844 1141 1059 588 
Q 1238 122 1591 122 
Q 1759 122 1940 273 
Q 2122 425 2216 781 
Q 2359 1319 2359 2297 
Q 2359 3022 2209 3506 
Q 2097 3866 1919 4016 
Q 1791 4119 1609 4119 
Q 1397 4119 1231 3928 
Q 1006 3669 925 3112 
Q 844 2556 844 2016 
z
" transform="scale(0.015625)"/>
       </defs>
       <use xlink:href="#TimesNewRomanPSMT-30"/>
      </g>
     </g>
    </g>
    <g id="xtick_14">
     <g id="line2d_35">
      <g>
       <use xlink:href="#mf4054b445a" x="304.281695" y="654.49375" style="stroke: #000000; stroke-width: 0.8"/>
      </g>
     </g>
     <g id="text_32">
      <!-- 1 -->
      <g transform="translate(299.281695 675.38125)scale(0.2 -0.2)">
       <defs>
        <path id="TimesNewRomanPSMT-31" d="M 750 3822 
L 1781 4325 
L 1884 4325 
L 1884 747 
Q 1884 391 1914 303 
Q 1944 216 2037 169 
Q 2131 122 2419 116 
L 2419 0 
L 825 0 
L 825 116 
Q 1125 122 1212 167 
Q 1300 213 1334 289 
Q 1369 366 1369 747 
L 1369 3034 
Q 1369 3497 1338 3628 
Q 1316 3728 1258 3775 
Q 1200 3822 1119 3822 
Q 1003 3822 797 3725 
L 750 3822 
z
" transform="scale(0.015625)"/>
       </defs>
       <use xlink:href="#TimesNewRomanPSMT-31"/>
      </g>
     </g>
    </g>
    <g id="xtick_15">
     <g id="line2d_36">
      <g>
       <use xlink:href="#mf4054b445a" x="500.97679" y="654.49375" style="stroke: #000000; stroke-width: 0.8"/>
      </g>
     </g>
     <g id="text_33">
      <!-- 2 -->
      <g transform="translate(495.97679 675.38125)scale(0.2 -0.2)">
       <defs>
        <path id="TimesNewRomanPSMT-32" d="M 2934 816 
L 2638 0 
L 138 0 
L 138 116 
Q 1241 1122 1691 1759 
Q 2141 2397 2141 2925 
Q 2141 3328 1894 3587 
Q 1647 3847 1303 3847 
Q 991 3847 742 3664 
Q 494 3481 375 3128 
L 259 3128 
Q 338 3706 661 4015 
Q 984 4325 1469 4325 
Q 1984 4325 2329 3994 
Q 2675 3663 2675 3213 
Q 2675 2891 2525 2569 
Q 2294 2063 1775 1497 
Q 997 647 803 472 
L 1909 472 
Q 2247 472 2383 497 
Q 2519 522 2628 598 
Q 2738 675 2819 816 
L 2934 816 
z
" transform="scale(0.015625)"/>
       </defs>
       <use xlink:href="#TimesNewRomanPSMT-32"/>
      </g>
     </g>
    </g>
    <g id="xtick_16">
     <g id="line2d_37">
      <g>
       <use xlink:href="#mf4054b445a" x="697.671884" y="654.49375" style="stroke: #000000; stroke-width: 0.8"/>
      </g>
     </g>
     <g id="text_34">
      <!-- 3 -->
      <g transform="translate(692.671884 675.38125)scale(0.2 -0.2)">
       <defs>
        <path id="TimesNewRomanPSMT-33" d="M 325 3431 
Q 506 3859 782 4092 
Q 1059 4325 1472 4325 
Q 1981 4325 2253 3994 
Q 2459 3747 2459 3466 
Q 2459 3003 1878 2509 
Q 2269 2356 2469 2072 
Q 2669 1788 2669 1403 
Q 2669 853 2319 450 
Q 1863 -75 997 -75 
Q 569 -75 414 31 
Q 259 138 259 259 
Q 259 350 332 419 
Q 406 488 509 488 
Q 588 488 669 463 
Q 722 447 909 348 
Q 1097 250 1169 231 
Q 1284 197 1416 197 
Q 1734 197 1970 444 
Q 2206 691 2206 1028 
Q 2206 1275 2097 1509 
Q 2016 1684 1919 1775 
Q 1784 1900 1550 2001 
Q 1316 2103 1072 2103 
L 972 2103 
L 972 2197 
Q 1219 2228 1467 2375 
Q 1716 2522 1828 2728 
Q 1941 2934 1941 3181 
Q 1941 3503 1739 3701 
Q 1538 3900 1238 3900 
Q 753 3900 428 3381 
L 325 3431 
z
" transform="scale(0.015625)"/>
       </defs>
       <use xlink:href="#TimesNewRomanPSMT-33"/>
      </g>
     </g>
    </g>
    <g id="xtick_17">
     <g id="line2d_38">
      <g>
       <use xlink:href="#mf4054b445a" x="894.366979" y="654.49375" style="stroke: #000000; stroke-width: 0.8"/>
      </g>
     </g>
     <g id="text_35">
      <!-- 4 -->
      <g transform="translate(889.366979 675.38125)scale(0.2 -0.2)">
       <defs>
        <path id="TimesNewRomanPSMT-34" d="M 2978 1563 
L 2978 1119 
L 2409 1119 
L 2409 0 
L 1894 0 
L 1894 1119 
L 100 1119 
L 100 1519 
L 2066 4325 
L 2409 4325 
L 2409 1563 
L 2978 1563 
z
M 1894 1563 
L 1894 3666 
L 406 1563 
L 1894 1563 
z
" transform="scale(0.015625)"/>
       </defs>
       <use xlink:href="#TimesNewRomanPSMT-34"/>
      </g>
     </g>
    </g>
    <g id="xtick_18">
     <g id="line2d_39">
      <g>
       <use xlink:href="#mf4054b445a" x="1091.062074" y="654.49375" style="stroke: #000000; stroke-width: 0.8"/>
      </g>
     </g>
     <g id="text_36">
      <!-- 5 -->
      <g transform="translate(1086.062074 675.38125)scale(0.2 -0.2)">
       <defs>
        <path id="TimesNewRomanPSMT-35" d="M 2778 4238 
L 2534 3706 
L 1259 3706 
L 981 3138 
Q 1809 3016 2294 2522 
Q 2709 2097 2709 1522 
Q 2709 1188 2573 903 
Q 2438 619 2231 419 
Q 2025 219 1772 97 
Q 1413 -75 1034 -75 
Q 653 -75 479 54 
Q 306 184 306 341 
Q 306 428 378 495 
Q 450 563 559 563 
Q 641 563 702 538 
Q 763 513 909 409 
Q 1144 247 1384 247 
Q 1750 247 2026 523 
Q 2303 800 2303 1197 
Q 2303 1581 2056 1914 
Q 1809 2247 1375 2428 
Q 1034 2569 447 2591 
L 1259 4238 
L 2778 4238 
z
" transform="scale(0.015625)"/>
       </defs>
       <use xlink:href="#TimesNewRomanPSMT-35"/>
      </g>
     </g>
    </g>
    <g id="text_37">
     <!-- 时间 [s] -->
     <g transform="translate(560.307812 699.284375)scale(0.2 -0.2)">
      <defs>
       <path id="FangSong-65f6" d="M 1200 725 
Q 1225 -50 1100 125 
L 875 550 
Q 1000 725 975 1125 
L 975 3350 
Q 975 3850 900 4375 
L 975 4400 
L 1150 3925 
L 2275 4100 
L 2400 4325 
L 2700 4100 
L 2525 3875 
Q 2525 1425 2462 837 
Q 2400 250 2325 337 
Q 2250 425 2200 850 
L 1200 725 
z
M 1200 975 
Q 1925 1050 1975 1100 
L 2225 850 
Q 2275 1625 2275 2175 
L 2275 3825 
L 1200 3675 
L 1200 2525 
Q 1875 2600 2025 2700 
L 2250 2400 
Q 1900 2375 1200 2275 
L 1200 975 
z
M 4325 5250 
L 4775 4875 
Q 4625 4775 4650 4300 
L 4650 3100 
Q 5650 3225 5650 3325 
L 6000 3025 
Q 5625 3000 4650 2875 
L 4650 425 
Q 4675 -350 4475 -675 
Q 4225 -325 3400 275 
L 3450 375 
L 4375 -150 
Q 4425 150 4425 425 
L 4425 2850 
Q 3100 2675 2900 2600 
L 2550 2900 
Q 3000 2900 4425 3075 
L 4425 4400 
Q 4450 4925 4250 5175 
L 4325 5250 
z
M 3525 1275 
Q 3325 1850 3050 2450 
L 3125 2500 
Q 3425 2100 3725 1675 
Q 3650 1500 3525 1275 
z
" transform="scale(0.015625)"/>
       <path id="FangSong-95f4" d="M 4150 1450 
L 2525 1300 
Q 2550 800 2450 900 
L 2225 1275 
Q 2300 1400 2300 1650 
L 2300 2875 
Q 2325 3225 2200 3525 
L 2275 3575 
L 2500 3225 
L 3750 3400 
L 3900 3600 
L 4200 3325 
L 4025 3150 
L 3975 1650 
L 4150 1450 
z
M 5000 4925 
L 5325 4675 
L 5175 4475 
L 5175 450 
Q 5175 -325 4975 -650 
Q 4700 -225 3975 500 
L 4050 575 
L 4875 -75 
Q 4925 -75 4950 425 
L 4950 4475 
Q 3075 4275 2925 4250 
L 2550 4475 
Q 2925 4450 4875 4700 
L 5000 4925 
z
M 3775 3150 
L 2525 3000 
L 2525 2375 
Q 3225 2475 3300 2550 
L 3550 2300 
Q 3300 2300 2525 2175 
L 2525 1525 
L 3725 1650 
L 3775 3150 
z
M 1400 -225 
Q 1425 -675 1325 -550 
L 1075 -175 
Q 1175 -25 1175 350 
L 1175 3475 
Q 1175 3900 1025 4225 
L 1100 4275 
L 1475 3875 
Q 1400 3725 1400 3375 
L 1400 -225 
z
M 1425 5175 
Q 1950 4725 2200 4525 
Q 2125 4275 2050 4075 
Q 1875 4425 1350 5100 
L 1425 5175 
z
" transform="scale(0.015625)"/>
      </defs>
      <use xlink:href="#FangSong-65f6"/>
      <use xlink:href="#FangSong-95f4" x="100"/>
      <use xlink:href="#FangSong-20" x="200"/>
      <use xlink:href="#FangSong-5b" x="250"/>
      <use xlink:href="#FangSong-73" x="300"/>
      <use xlink:href="#FangSong-5d" x="350"/>
     </g>
    </g>
   </g>
   <g id="matplotlib.axis_6">
    <g id="ytick_14">
     <g id="line2d_40">
      <g>
       <use xlink:href="#md6b29170d7" x="60.478125" y="649.462444" style="stroke: #000000; stroke-width: 0.8"/>
      </g>
     </g>
     <g id="text_38">
      <!-- −12.5 -->
      <g transform="translate(7.2 656.406194)scale(0.2 -0.2)">
       <defs>
        <path id="TimesNewRomanPSMT-2212" d="M 3484 2000 
L 116 2000 
L 116 2256 
L 3484 2256 
L 3484 2000 
z
" transform="scale(0.015625)"/>
        <path id="TimesNewRomanPSMT-2e" d="M 800 606 
Q 947 606 1047 504 
Q 1147 403 1147 259 
Q 1147 116 1045 14 
Q 944 -88 800 -88 
Q 656 -88 554 14 
Q 453 116 453 259 
Q 453 406 554 506 
Q 656 606 800 606 
z
" transform="scale(0.015625)"/>
       </defs>
       <use xlink:href="#TimesNewRomanPSMT-2212"/>
       <use xlink:href="#TimesNewRomanPSMT-31" x="56.396484"/>
       <use xlink:href="#TimesNewRomanPSMT-32" x="106.396484"/>
       <use xlink:href="#TimesNewRomanPSMT-2e" x="156.396484"/>
       <use xlink:href="#TimesNewRomanPSMT-35" x="181.396484"/>
      </g>
     </g>
    </g>
    <g id="ytick_15">
     <g id="line2d_41">
      <g>
       <use xlink:href="#md6b29170d7" x="60.478125" y="628.278376" style="stroke: #000000; stroke-width: 0.8"/>
      </g>
     </g>
     <g id="text_39">
      <!-- −10.0 -->
      <g transform="translate(7.2 635.222126)scale(0.2 -0.2)">
       <use xlink:href="#TimesNewRomanPSMT-2212"/>
       <use xlink:href="#TimesNewRomanPSMT-31" x="56.396484"/>
       <use xlink:href="#TimesNewRomanPSMT-30" x="106.396484"/>
       <use xlink:href="#TimesNewRomanPSMT-2e" x="156.396484"/>
       <use xlink:href="#TimesNewRomanPSMT-30" x="181.396484"/>
      </g>
     </g>
    </g>
    <g id="ytick_16">
     <g id="line2d_42">
      <g>
       <use xlink:href="#md6b29170d7" x="60.478125" y="607.094309" style="stroke: #000000; stroke-width: 0.8"/>
      </g>
     </g>
     <g id="text_40">
      <!-- −7.5 -->
      <g transform="translate(17.2 614.038059)scale(0.2 -0.2)">
       <defs>
        <path id="TimesNewRomanPSMT-37" d="M 644 4238 
L 2916 4238 
L 2916 4119 
L 1503 -88 
L 1153 -88 
L 2419 3728 
L 1253 3728 
Q 900 3728 750 3644 
Q 488 3500 328 3200 
L 238 3234 
L 644 4238 
z
" transform="scale(0.015625)"/>
       </defs>
       <use xlink:href="#TimesNewRomanPSMT-2212"/>
       <use xlink:href="#TimesNewRomanPSMT-37" x="56.396484"/>
       <use xlink:href="#TimesNewRomanPSMT-2e" x="106.396484"/>
       <use xlink:href="#TimesNewRomanPSMT-35" x="131.396484"/>
      </g>
     </g>
    </g>
    <g id="ytick_17">
     <g id="line2d_43">
      <g>
       <use xlink:href="#md6b29170d7" x="60.478125" y="585.910241" style="stroke: #000000; stroke-width: 0.8"/>
      </g>
     </g>
     <g id="text_41">
      <!-- −5.0 -->
      <g transform="translate(17.2 592.853991)scale(0.2 -0.2)">
       <use xlink:href="#TimesNewRomanPSMT-2212"/>
       <use xlink:href="#TimesNewRomanPSMT-35" x="56.396484"/>
       <use xlink:href="#TimesNewRomanPSMT-2e" x="106.396484"/>
       <use xlink:href="#TimesNewRomanPSMT-30" x="131.396484"/>
      </g>
     </g>
    </g>
    <g id="ytick_18">
     <g id="line2d_44">
      <g>
       <use xlink:href="#md6b29170d7" x="60.478125" y="564.726174" style="stroke: #000000; stroke-width: 0.8"/>
      </g>
     </g>
     <g id="text_42">
      <!-- −2.5 -->
      <g transform="translate(17.2 571.669924)scale(0.2 -0.2)">
       <use xlink:href="#TimesNewRomanPSMT-2212"/>
       <use xlink:href="#TimesNewRomanPSMT-32" x="56.396484"/>
       <use xlink:href="#TimesNewRomanPSMT-2e" x="106.396484"/>
       <use xlink:href="#TimesNewRomanPSMT-35" x="131.396484"/>
      </g>
     </g>
    </g>
    <g id="ytick_19">
     <g id="line2d_45">
      <g>
       <use xlink:href="#md6b29170d7" x="60.478125" y="543.542106" style="stroke: #000000; stroke-width: 0.8"/>
      </g>
     </g>
     <g id="text_43">
      <!-- 0.0 -->
      <g transform="translate(28.478125 550.485856)scale(0.2 -0.2)">
       <use xlink:href="#TimesNewRomanPSMT-30"/>
       <use xlink:href="#TimesNewRomanPSMT-2e" x="50"/>
       <use xlink:href="#TimesNewRomanPSMT-30" x="75"/>
      </g>
     </g>
    </g>
    <g id="ytick_20">
     <g id="line2d_46">
      <g>
       <use xlink:href="#md6b29170d7" x="60.478125" y="522.358039" style="stroke: #000000; stroke-width: 0.8"/>
      </g>
     </g>
     <g id="text_44">
      <!-- 2.5 -->
      <g transform="translate(28.478125 529.301789)scale(0.2 -0.2)">
       <use xlink:href="#TimesNewRomanPSMT-32"/>
       <use xlink:href="#TimesNewRomanPSMT-2e" x="50"/>
       <use xlink:href="#TimesNewRomanPSMT-35" x="75"/>
      </g>
     </g>
    </g>
    <g id="ytick_21">
     <g id="line2d_47">
      <g>
       <use xlink:href="#md6b29170d7" x="60.478125" y="501.173971" style="stroke: #000000; stroke-width: 0.8"/>
      </g>
     </g>
     <g id="text_45">
      <!-- 5.0 -->
      <g transform="translate(28.478125 508.117721)scale(0.2 -0.2)">
       <use xlink:href="#TimesNewRomanPSMT-35"/>
       <use xlink:href="#TimesNewRomanPSMT-2e" x="50"/>
       <use xlink:href="#TimesNewRomanPSMT-30" x="75"/>
      </g>
     </g>
    </g>
    <g id="ytick_22">
     <g id="line2d_48">
      <g>
       <use xlink:href="#md6b29170d7" x="60.478125" y="479.989904" style="stroke: #000000; stroke-width: 0.8"/>
      </g>
     </g>
     <g id="text_46">
      <!-- 7.5 -->
      <g transform="translate(28.478125 486.933654)scale(0.2 -0.2)">
       <use xlink:href="#TimesNewRomanPSMT-37"/>
       <use xlink:href="#TimesNewRomanPSMT-2e" x="50"/>
       <use xlink:href="#TimesNewRomanPSMT-35" x="75"/>
      </g>
     </g>
    </g>
   </g>
   <g id="line2d_49">
    <path d="M 109.553551 493.344337 
L 111.520502 543.12168 
L 113.487453 543.53283 
L 115.454404 542.953285 
L 117.421355 542.731142 
L 127.25611 542.71614 
L 137.090864 542.721171 
L 139.057815 543.913747 
L 141.024766 531.202105 
L 142.991717 530.964671 
L 144.958668 530.861503 
L 146.925619 531.079844 
L 150.859521 530.890068 
L 154.793423 531.262528 
L 156.760374 531.525979 
L 160.694276 532.42004 
L 166.595129 534.560801 
L 170.529031 536.410291 
L 172.495981 539.793869 
L 174.462932 541.749522 
L 176.429883 543.541803 
L 178.396834 545.177411 
L 180.363785 546.587647 
L 184.297687 549.002298 
L 198.066344 556.55572 
L 200.033295 557.448028 
L 203.967197 558.738542 
L 205.934148 557.882519 
L 207.901099 557.243716 
L 209.868049 551.286343 
L 211.835 546.808375 
L 213.801951 562.827605 
L 215.768902 542.145854 
L 217.735853 540.981361 
L 221.669755 542.106372 
L 223.636706 542.450889 
L 225.603657 542.584247 
L 243.306216 542.617585 
L 247.240117 542.675575 
L 251.174019 542.804507 
L 262.975725 542.792308 
L 266.909627 542.77226 
L 268.876578 543.518286 
L 270.843529 531.198051 
L 272.81048 531.788479 
L 274.777431 531.840413 
L 280.678284 531.451308 
L 282.645235 531.615796 
L 286.579136 532.507303 
L 288.546087 533.201042 
L 292.479989 535.00709 
L 298.380842 537.587233 
L 300.347793 540.213155 
L 302.314744 542.314635 
L 304.281695 543.390411 
L 306.248646 544.232377 
L 314.11645 549.989043 
L 318.050352 552.506473 
L 321.984253 554.715751 
L 325.918155 556.634571 
L 327.885106 557.341449 
L 331.819008 558.296098 
L 335.75291 556.678385 
L 337.719861 552.694882 
L 339.686812 545.382527 
L 341.653763 510.796131 
L 343.620714 566.621962 
L 345.587665 553.427155 
L 347.554616 550.452147 
L 349.521567 542.690732 
L 351.488518 542.945059 
L 353.455469 542.713879 
L 367.224125 542.74047 
L 369.191076 542.639473 
L 371.158027 542.283188 
L 375.091929 541.92205 
L 380.992782 541.778369 
L 388.860586 541.709386 
L 390.827537 542.025405 
L 392.794488 538.256779 
L 394.761439 540.834623 
L 396.728389 541.460308 
L 398.69534 540.588323 
L 400.662291 539.143427 
L 402.629242 537.556548 
L 404.596193 536.206931 
L 406.563144 535.134798 
L 408.530095 534.7254 
L 410.497046 534.668357 
L 414.430948 534.963376 
L 418.36485 535.799055 
L 420.331801 536.29141 
L 424.265703 537.624891 
L 428.199605 539.186207 
L 432.133507 540.83472 
L 434.100457 541.549437 
L 436.067408 542.460632 
L 438.034359 543.137873 
L 440.00131 543.57709 
L 447.869114 549.200242 
L 451.803016 551.789359 
L 455.736918 554.082543 
L 457.703869 555.023491 
L 459.67082 555.82332 
L 461.637771 556.474333 
L 465.571673 557.218785 
L 469.505575 555.50077 
L 471.472525 548.676168 
L 473.439476 545.075165 
L 475.406427 477.089922 
L 477.373378 585.413595 
L 479.340329 553.383079 
L 481.30728 544.718604 
L 483.274231 549.420429 
L 485.241182 552.2128 
L 487.208133 547.366605 
L 489.175084 544.329486 
L 491.142035 542.993687 
L 493.108986 542.740257 
L 508.844593 542.664206 
L 510.811544 542.295709 
L 512.778495 542.138266 
L 514.745446 543.375224 
L 516.712397 546.005375 
L 518.679348 546.706803 
L 520.646299 545.939904 
L 522.61325 544.170994 
L 524.580201 542.200192 
L 526.547152 540.408769 
L 528.514103 539.208182 
L 534.414956 536.442766 
L 536.381907 535.797618 
L 542.28276 534.277491 
L 546.216661 534.492396 
L 550.150563 535.003492 
L 556.051416 536.818952 
L 563.91922 539.916413 
L 567.853122 541.525745 
L 571.787024 542.943094 
L 573.753975 543.448967 
L 575.720926 543.784507 
L 585.55568 549.917937 
L 587.522631 550.943557 
L 591.456533 553.311777 
L 593.423484 554.465389 
L 595.390435 555.442864 
L 597.357386 556.286415 
L 601.291288 557.427149 
L 605.22519 555.925891 
L 607.192141 554.366719 
L 609.159092 546.588791 
L 613.092994 539.667187 
L 615.059945 541.344466 
L 617.026896 540.020217 
L 618.993846 541.684492 
L 620.960797 541.552668 
L 622.927748 542.13554 
L 624.894699 542.182324 
L 626.86165 542.361232 
L 638.663356 542.463852 
L 660.299816 542.396405 
L 662.266767 542.982372 
L 664.233718 533.035267 
L 666.200669 534.83259 
L 668.16762 535.029957 
L 670.134571 534.855761 
L 672.101522 534.509989 
L 676.035424 534.219482 
L 678.002375 534.329237 
L 679.969326 534.574915 
L 681.936277 534.980175 
L 685.870179 536.146032 
L 689.804081 537.833362 
L 691.771032 538.75795 
L 693.737982 540.989579 
L 695.704933 542.627462 
L 697.671884 543.77089 
L 705.539688 549.502517 
L 709.47359 552.1006 
L 713.407492 554.432826 
L 717.341394 556.362954 
L 719.308345 557.203088 
L 721.275296 557.575037 
L 723.242247 558.203806 
L 725.209198 558.4852 
L 727.176149 557.613756 
L 729.1431 556.511883 
L 731.11005 545.874861 
L 733.077001 543.15236 
L 735.043952 492.561783 
L 737.010903 571.40655 
L 738.977854 557.047724 
L 740.944805 550.502054 
L 742.911756 547.2693 
L 744.878707 547.604307 
L 746.845658 545.999172 
L 748.812609 543.833826 
L 750.77956 542.83179 
L 754.713462 542.739971 
L 766.515168 542.751492 
L 768.482118 542.627326 
L 770.449069 542.193196 
L 772.41602 541.928333 
L 776.349922 541.713546 
L 782.250775 541.625066 
L 784.217726 541.886432 
L 786.184677 538.930056 
L 788.151628 541.786635 
L 790.118579 542.449344 
L 792.08553 541.653669 
L 796.019432 538.128839 
L 797.986383 536.369865 
L 799.953334 535.281161 
L 801.920285 534.694558 
L 803.887236 534.294423 
L 805.854186 534.161694 
L 807.821137 534.204925 
L 809.788088 534.36631 
L 811.755039 534.650086 
L 815.688941 535.688715 
L 817.655892 536.277146 
L 821.589794 537.820792 
L 829.457598 541.201178 
L 831.424549 542.468781 
L 833.3915 543.246059 
L 835.358451 543.813742 
L 843.226254 549.628886 
L 847.160156 552.324075 
L 851.094058 554.640855 
L 853.061009 555.572971 
L 856.994911 556.998358 
L 858.961862 557.491319 
L 860.928813 557.792521 
L 862.895764 556.979502 
L 864.862715 555.897591 
L 866.829666 548.000368 
L 868.796617 544.749417 
L 870.763568 490.065191 
L 872.730519 576.804523 
L 874.69747 549.570296 
L 876.664421 545.571094 
L 878.631372 544.348019 
L 880.598322 546.320551 
L 882.565273 544.244677 
L 884.532224 542.912697 
L 886.499175 542.737719 
L 900.267832 542.70465 
L 902.234783 542.445932 
L 904.201734 542.00805 
L 908.135636 541.629345 
L 914.036489 541.473079 
L 916.00344 541.466147 
L 917.97039 540.921468 
L 919.937341 544.177246 
L 921.904292 545.185609 
L 923.871243 544.463391 
L 925.838194 542.603015 
L 929.772096 538.550072 
L 931.739047 537.109693 
L 933.705998 536.328054 
L 935.672949 535.693155 
L 937.6399 535.229516 
L 941.573802 534.594469 
L 945.507704 534.946322 
L 949.441606 535.719224 
L 953.375508 537.054993 
L 959.27636 539.549859 
L 963.210262 541.410453 
L 965.177213 542.636474 
L 969.111115 543.921809 
L 978.94587 550.419238 
L 982.879772 552.986184 
L 986.813674 555.22262 
L 988.780625 556.17985 
L 990.747576 556.98561 
L 994.681477 558.035521 
L 996.648428 558.291776 
L 998.615379 557.434411 
L 1000.58233 555.759901 
L 1002.549281 546.655636 
L 1006.483183 537.147951 
L 1008.450134 550.635294 
L 1010.417085 540.479269 
L 1012.384036 541.712839 
L 1024.185742 542.142851 
L 1053.690006 541.987473 
L 1057.623908 541.967762 
L 1059.590859 542.485372 
L 1061.55781 535.610829 
L 1063.524761 537.664102 
L 1065.491712 538.456466 
L 1067.458662 537.88133 
L 1069.425613 537.026437 
L 1071.392564 535.995011 
L 1073.359515 535.237666 
L 1075.326466 534.685446 
L 1077.293417 534.752966 
L 1081.227319 535.258814 
L 1085.161221 536.379785 
L 1089.095123 537.863944 
L 1091.062074 538.632179 
L 1091.062074 538.632179 
" clip-path="url(#p2959e8adb4)" style="fill: none; stroke: #ff0000; stroke-width: 2; stroke-linecap: square"/>
   </g>
   <g id="line2d_50">
    <path d="M 109.553551 543.542106 
L 111.520502 529.935044 
L 113.487453 533.217273 
L 115.454404 538.824935 
L 117.421355 542.303982 
L 119.388306 543.47459 
L 137.090864 543.35205 
L 139.057815 544.57401 
L 170.529031 543.810654 
L 174.462932 543.543867 
L 205.934148 542.383748 
L 209.868049 524.676652 
L 211.835 506.772103 
L 213.801951 514.388019 
L 215.768902 518.565846 
L 217.735853 529.156959 
L 219.702804 534.365348 
L 221.669755 537.023782 
L 223.636706 537.986776 
L 235.438412 538.044932 
L 243.306216 538.199423 
L 245.273167 538.562303 
L 247.240117 539.378047 
L 249.207068 539.821538 
L 253.14097 540.281893 
L 266.909627 541.191135 
L 268.876578 544.449826 
L 270.843529 544.128245 
L 272.81048 544.394063 
L 282.645235 544.349213 
L 298.380842 543.909412 
L 300.347793 543.707922 
L 318.050352 543.042988 
L 331.819008 542.566081 
L 333.785959 542.577757 
L 335.75291 539.825228 
L 337.719861 532.392874 
L 339.686812 585.568646 
L 341.653763 605.639977 
L 343.620714 597.018943 
L 345.587665 572.57027 
L 347.554616 542.924947 
L 349.521567 541.859345 
L 351.488518 543.117197 
L 361.323272 543.712928 
L 367.224125 544.161504 
L 369.191076 545.347793 
L 371.158027 546.202475 
L 373.124978 546.728134 
L 377.05888 547.37023 
L 388.860586 548.828726 
L 390.827537 544.057654 
L 400.662291 544.37501 
L 402.629242 544.407809 
L 404.596193 544.711295 
L 406.563144 546.035439 
L 408.530095 544.41835 
L 420.331801 544.235618 
L 440.00131 543.716947 
L 459.67082 542.767792 
L 467.538624 542.610535 
L 469.505575 539.000309 
L 471.472525 533.651882 
L 475.406427 646.045949 
L 477.373378 642.300885 
L 479.340329 605.128998 
L 481.30728 538.119525 
L 483.274231 528.059202 
L 485.241182 536.392805 
L 487.208133 542.266333 
L 489.175084 545.330766 
L 491.142035 546.067101 
L 500.97679 546.808334 
L 506.877643 547.338163 
L 508.844593 548.13654 
L 510.811544 549.094816 
L 512.778495 544.211058 
L 518.679348 544.208722 
L 522.61325 544.2741 
L 524.580201 547.169261 
L 526.547152 552.571351 
L 528.514103 549.838692 
L 530.481054 547.443845 
L 532.448005 547.247933 
L 534.414956 547.97745 
L 536.381907 548.270565 
L 538.348858 547.210024 
L 540.315809 544.364285 
L 569.820073 543.771498 
L 583.588729 543.28688 
L 593.423484 542.858232 
L 601.291288 542.561527 
L 603.258239 542.571141 
L 605.22519 541.419084 
L 607.192141 533.665425 
L 609.159092 530.838913 
L 611.126043 541.675184 
L 613.092994 541.474196 
L 615.059945 541.793972 
L 618.993846 542.862823 
L 626.86165 543.31067 
L 642.597258 543.932593 
L 654.398964 544.667083 
L 660.299816 545.127603 
L 662.266767 544.217293 
L 676.035424 544.340141 
L 685.870179 544.154828 
L 693.737982 543.819949 
L 725.209198 542.49709 
L 727.176149 542.176379 
L 729.1431 534.875175 
L 731.11005 531.114659 
L 733.077001 583.156064 
L 735.043952 621.206211 
L 737.010903 619.044416 
L 738.977854 591.833758 
L 740.944805 552.90248 
L 742.911756 534.215122 
L 744.878707 536.2795 
L 746.845658 541.342908 
L 748.812609 544.266178 
L 750.77956 544.663786 
L 760.614315 545.372862 
L 766.515168 545.885935 
L 768.482118 547.101648 
L 770.449069 547.929296 
L 772.41602 548.448862 
L 776.349922 549.105065 
L 782.250775 549.87362 
L 784.217726 544.076942 
L 792.08553 544.381031 
L 796.019432 544.45889 
L 797.986383 547.333751 
L 799.953334 547.567732 
L 801.920285 544.76842 
L 803.887236 544.498361 
L 817.655892 544.246693 
L 829.457598 543.877423 
L 858.961862 542.570492 
L 862.895764 542.553688 
L 866.829666 532.793603 
L 868.796617 586.737287 
L 870.763568 628.216944 
L 872.730519 619.818544 
L 874.69747 587.939914 
L 876.664421 541.521625 
L 878.631372 534.992459 
L 880.598322 540.41196 
L 882.565273 543.737368 
L 884.532224 544.693407 
L 894.366979 545.382423 
L 898.300881 545.714864 
L 900.267832 546.246897 
L 902.234783 547.411477 
L 904.201734 548.138061 
L 906.168685 548.61792 
L 910.102587 549.272353 
L 914.036489 549.80768 
L 916.00344 544.14328 
L 925.838194 544.38072 
L 927.805145 544.930021 
L 929.772096 549.382161 
L 931.739047 549.376752 
L 935.672949 544.474296 
L 939.606851 544.3805 
L 965.177213 543.779629 
L 976.978919 543.312561 
L 996.648428 542.520939 
L 998.615379 541.904615 
L 1000.58233 534.15985 
L 1002.549281 530.907049 
L 1004.516232 576.988856 
L 1006.483183 568.941815 
L 1008.450134 553.706806 
L 1010.417085 545.270883 
L 1012.384036 545.474961 
L 1014.350987 544.947926 
L 1018.284889 544.686043 
L 1022.218791 544.70969 
L 1030.086594 545.053595 
L 1039.921349 545.736501 
L 1049.756104 546.639167 
L 1057.623908 547.515303 
L 1059.590859 544.248432 
L 1069.425613 544.418005 
L 1079.260368 544.310813 
L 1091.062074 544.006701 
L 1091.062074 544.006701 
" clip-path="url(#p2959e8adb4)" style="fill: none; stroke-dasharray: 2,3.3; stroke-dashoffset: 0; stroke: #008000; stroke-width: 2"/>
   </g>
   <g id="patch_15">
    <path d="M 60.478125 654.49375 
L 60.478125 468.64212 
" style="fill: none; stroke: #000000; stroke-width: 0.8; stroke-linejoin: miter; stroke-linecap: square"/>
   </g>
   <g id="patch_16">
    <path d="M 1140.1375 654.49375 
L 1140.1375 468.64212 
" style="fill: none; stroke: #000000; stroke-width: 0.8; stroke-linejoin: miter; stroke-linecap: square"/>
   </g>
   <g id="patch_17">
    <path d="M 60.478125 654.49375 
L 1140.1375 654.49375 
" style="fill: none; stroke: #000000; stroke-width: 0.8; stroke-linejoin: miter; stroke-linecap: square"/>
   </g>
   <g id="patch_18">
    <path d="M 60.478125 468.64212 
L 1140.1375 468.64212 
" style="fill: none; stroke: #000000; stroke-width: 0.8; stroke-linejoin: miter; stroke-linecap: square"/>
   </g>
   <g id="legend_3">
    <g id="patch_19">
     <path d="M 1034.9375 541.19837 
L 1126.1375 541.19837 
Q 1130.1375 541.19837 1130.1375 537.19837 
L 1130.1375 482.64212 
Q 1130.1375 478.64212 1126.1375 478.64212 
L 1034.9375 478.64212 
Q 1030.9375 478.64212 1030.9375 482.64212 
L 1030.9375 537.19837 
Q 1030.9375 541.19837 1034.9375 541.19837 
z
" style="fill: #ffffff; opacity: 0.8; stroke: #cccccc; stroke-linejoin: miter"/>
    </g>
    <g id="line2d_51">
     <path d="M 1038.9375 493.64212 
L 1058.9375 493.64212 
L 1078.9375 493.64212 
" style="fill: none; stroke: #ff0000; stroke-width: 2; stroke-linecap: square"/>
    </g>
    <g id="text_47">
     <!-- $v_z$ -->
     <g transform="translate(1094.9375 500.64212)scale(0.2 -0.2)">
      <defs>
       <path id="DejaVuSans-Oblique-7a" d="M 744 3500 
L 3475 3500 
L 3372 2975 
L 738 459 
L 2913 459 
L 2822 0 
L -19 0 
L 84 525 
L 2719 3041 
L 653 3041 
L 744 3500 
z
" transform="scale(0.015625)"/>
      </defs>
      <use xlink:href="#DejaVuSans-Oblique-76" transform="translate(0 0.3125)"/>
      <use xlink:href="#DejaVuSans-Oblique-7a" transform="translate(59.179688 -16.09375)scale(0.7)"/>
     </g>
    </g>
    <g id="line2d_52">
     <path d="M 1038.9375 521.920245 
L 1058.9375 521.920245 
L 1078.9375 521.920245 
" style="fill: none; stroke-dasharray: 2,3.3; stroke-dashoffset: 0; stroke: #008000; stroke-width: 2"/>
    </g>
    <g id="text_48">
     <!-- $v_{zs}$ -->
     <g transform="translate(1094.9375 528.920245)scale(0.2 -0.2)">
      <use xlink:href="#DejaVuSans-Oblique-76" transform="translate(0 0.3125)"/>
      <use xlink:href="#DejaVuSans-Oblique-7a" transform="translate(59.179688 -16.09375)scale(0.7)"/>
      <use xlink:href="#DejaVuSans-Oblique-73" transform="translate(95.922852 -16.09375)scale(0.7)"/>
     </g>
    </g>
   </g>
  </g>
  <g id="text_49">
   <!-- 足端速度曲线 -->
   <g transform="translate(502.9375 26.1375)scale(0.24 -0.24)">
    <defs>
     <path id="FangSong-8db3" d="M 2175 3000 
Q 2175 2775 2162 2700 
Q 2150 2625 1875 3050 
Q 1925 3200 1925 3425 
L 1900 4325 
Q 1875 4700 1775 4900 
L 1875 4975 
L 2125 4525 
L 4175 4800 
L 4375 5075 
L 4650 4775 
L 4475 4550 
L 4325 3525 
L 4575 3275 
L 3275 3125 
L 3275 2075 
Q 4375 2275 4650 2375 
L 4925 2125 
Q 4525 2075 3275 1875 
L 3275 700 
Q 3850 375 4200 212 
Q 4550 50 4750 -25 
Q 4950 -100 5950 -150 
L 5975 -275 
Q 5350 -300 4700 -425 
Q 4425 -175 1900 1275 
Q 1325 175 500 -600 
L 400 -500 
Q 1100 250 1487 1000 
Q 1875 1750 1937 2050 
Q 2000 2350 1900 2525 
L 1975 2575 
L 2325 2050 
Q 2250 2100 2162 1900 
Q 2075 1700 1975 1450 
Q 2550 1100 3050 850 
L 3050 3100 
L 2175 3000 
z
M 4250 4575 
L 2125 4325 
L 2150 3200 
L 4100 3450 
L 4250 4575 
z
" transform="scale(0.015625)"/>
     <path id="FangSong-7aef" d="M 4275 1575 
L 3750 1525 
L 3750 -75 
Q 3725 -450 3650 -375 
L 3400 -50 
Q 3525 75 3525 325 
L 3525 1500 
L 2975 1450 
L 2975 -375 
Q 2975 -625 2875 -550 
L 2625 -200 
Q 2725 -100 2750 175 
L 2750 1275 
Q 2725 1650 2600 1925 
L 2700 2000 
L 2975 1650 
L 3575 1700 
L 3825 2400 
Q 2925 2300 2800 2250 
L 2550 2500 
Q 2875 2500 4150 2637 
Q 5425 2775 5625 2850 
L 5925 2625 
Q 5525 2600 4100 2425 
L 3750 1725 
L 5125 1850 
L 5300 2100 
L 5575 1825 
L 5400 1650 
Q 5350 -375 5050 -700 
Q 4850 -400 4500 0 
L 4500 -100 
Q 4500 -425 4425 -375 
L 4200 -75 
Q 4275 25 4275 300 
L 4275 1575 
z
M 4000 4550 
Q 3975 5000 3825 5175 
L 3900 5250 
L 4350 4900 
Q 4225 4725 4225 4450 
L 4225 3475 
L 4950 3575 
Q 5150 4400 4975 4600 
L 5050 4675 
L 5450 4300 
Q 5325 4200 5275 3812 
Q 5225 3425 5150 3225 
Q 5075 3025 5037 3075 
Q 5000 3125 4925 3350 
L 3275 3150 
L 3150 3000 
L 2875 3225 
L 3050 3375 
L 3050 4100 
Q 3050 4400 2900 4625 
L 3000 4700 
L 3375 4400 
Q 3275 4250 3275 4000 
L 3275 3375 
L 4000 3450 
L 4000 4550 
z
M 4500 50 
L 4550 125 
L 5000 -225 
Q 5125 350 5150 1650 
L 4500 1600 
L 4500 50 
z
M 2600 1350 
Q 875 550 850 450 
L 475 675 
Q 700 700 1725 1175 
Q 1875 2000 1937 2387 
Q 2000 2775 1900 3025 
L 1975 3100 
L 2375 2700 
Q 2225 2650 2125 2237 
Q 2025 1825 1900 1225 
L 2575 1475 
L 2600 1350 
z
M 2675 3300 
Q 2375 3250 1737 3150 
Q 1100 3050 850 3000 
L 600 3250 
Q 975 3275 1625 3375 
Q 2275 3475 2475 3525 
L 2675 3300 
z
M 1250 1275 
Q 1175 1900 950 2725 
L 1050 2775 
Q 1350 2075 1475 1650 
Q 1375 1450 1250 1275 
z
M 1975 4075 
Q 1875 3850 1725 3650 
Q 1575 4225 1250 4800 
L 1325 4850 
Q 1750 4375 1975 4075 
z
" transform="scale(0.015625)"/>
     <path id="FangSong-66f2" d="M 5250 3550 
L 5550 3275 
L 5350 3100 
Q 5050 450 4950 25 
Q 4850 -400 4812 -312 
Q 4775 -225 4725 150 
L 1625 -75 
Q 1650 -425 1575 -375 
L 1275 0 
Q 1400 200 1375 400 
L 1250 2575 
Q 1250 3025 1125 3400 
L 1225 3425 
L 1450 3000 
L 2575 3100 
L 2575 4250 
Q 2600 4700 2425 4925 
L 2500 4975 
L 2900 4575 
Q 2775 4525 2800 4225 
L 2800 3125 
L 3675 3200 
L 3675 4525 
Q 3675 5050 3500 5175 
L 3550 5250 
L 4050 4875 
Q 3875 4825 3900 4450 
L 3900 3225 
L 5075 3350 
L 5250 3550 
z
M 3900 1925 
Q 4500 2000 4475 2050 
L 4700 1750 
Q 4400 1750 3900 1700 
L 3900 325 
Q 4550 375 4550 425 
L 4725 175 
Q 4850 475 5075 3075 
L 3900 3000 
L 3900 1925 
z
M 2575 1550 
Q 2075 1500 2000 1450 
L 1700 1725 
Q 1975 1725 2575 1775 
L 2575 2875 
L 1500 2775 
L 1625 175 
L 2575 225 
L 2575 1550 
z
M 2800 250 
L 3675 300 
L 3675 1675 
L 2800 1575 
L 2800 250 
z
M 3675 1900 
L 3675 2975 
L 2800 2900 
L 2800 1800 
L 3675 1900 
z
" transform="scale(0.015625)"/>
     <path id="FangSong-7ebf" d="M 4100 1125 
Q 4450 1450 4637 1700 
Q 4825 1950 4800 2150 
L 4875 2175 
L 5050 1625 
Q 4950 1650 4775 1475 
Q 4600 1300 4200 875 
Q 4800 0 5425 -200 
L 5475 800 
L 5575 800 
Q 5650 -350 5725 -625 
Q 4700 -350 4025 725 
Q 3425 150 2325 -350 
L 2275 -250 
Q 3150 175 3925 950 
Q 3750 1350 3575 2050 
Q 2975 1875 2900 1825 
L 2550 1975 
Q 2875 2050 3550 2250 
Q 3500 2575 3425 3025 
Q 3075 2950 2950 2875 
L 2650 3025 
Q 2850 3075 3425 3225 
Q 3325 4025 3300 4462 
Q 3275 4900 3125 5125 
L 3200 5200 
L 3650 4825 
Q 3550 4650 3562 4325 
Q 3575 4000 3625 3325 
Q 4550 3600 4600 3675 
L 4950 3475 
Q 4600 3400 3650 3100 
Q 3700 2600 3775 2300 
Q 5000 2725 5050 2800 
L 5400 2600 
Q 5225 2575 3800 2125 
Q 3925 1500 4100 1125 
z
M 2525 1725 
Q 1375 1350 1175 1225 
L 950 1500 
L 1225 1575 
L 1950 2725 
Q 1175 2575 975 2450 
L 775 2750 
L 1050 2875 
Q 1550 3800 1737 4250 
Q 1925 4700 1850 4900 
L 1925 4950 
L 2225 4475 
Q 2125 4525 1812 3937 
Q 1500 3350 1225 2800 
L 2075 2925 
Q 2450 3500 2375 3750 
L 2450 3800 
L 2700 3325 
Q 2600 3325 2337 2925 
Q 2075 2525 1475 1625 
L 2500 1825 
L 2525 1725 
z
M 2825 825 
Q 1100 50 1000 -25 
L 625 200 
Q 1000 250 2775 950 
L 2825 825 
z
M 4700 3900 
Q 4450 4175 3925 4650 
L 3975 4750 
Q 4525 4475 4700 4400 
L 4700 3900 
z
" transform="scale(0.015625)"/>
    </defs>
    <use xlink:href="#FangSong-8db3"/>
    <use xlink:href="#FangSong-7aef" x="100"/>
    <use xlink:href="#FangSong-901f" x="200"/>
    <use xlink:href="#FangSong-5ea6" x="300"/>
    <use xlink:href="#FangSong-66f2" x="400"/>
    <use xlink:href="#FangSong-7ebf" x="500"/>
   </g>
  </g>
 </g>
 <defs>
  <clipPath id="p12de49c413">
   <rect x="60.478125" y="37.609409" width="1079.659375" height="185.85163"/>
  </clipPath>
  <clipPath id="p035540f95b">
   <rect x="60.478125" y="253.125765" width="1079.659375" height="185.85163"/>
  </clipPath>
  <clipPath id="p2959e8adb4">
   <rect x="60.478125" y="468.64212" width="1079.659375" height="185.85163"/>
  </clipPath>
 </defs>
</svg>
