<?xml version="1.0" encoding="utf-8" standalone="no"?>
<!DOCTYPE svg PUBLIC "-//W3C//DTD SVG 1.1//EN"
  "http://www.w3.org/Graphics/SVG/1.1/DTD/svg11.dtd">
<svg xmlns:xlink="http://www.w3.org/1999/xlink" width="972.99375pt" height="641.325pt" viewBox="0 0 972.99375 641.325" xmlns="http://www.w3.org/2000/svg" version="1.1">
 <metadata>
  <rdf:RDF xmlns:dc="http://purl.org/dc/elements/1.1/" xmlns:cc="http://creativecommons.org/ns#" xmlns:rdf="http://www.w3.org/1999/02/22-rdf-syntax-ns#">
   <cc:Work>
    <dc:type rdf:resource="http://purl.org/dc/dcmitype/StillImage"/>
    <dc:date>2022-10-12T09:48:34.639329</dc:date>
    <dc:format>image/svg+xml</dc:format>
    <dc:creator>
     <cc:Agent>
      <dc:title>Matplotlib v3.5.1, https://matplotlib.org/</dc:title>
     </cc:Agent>
    </dc:creator>
   </cc:Work>
  </rdf:RDF>
 </metadata>
 <defs>
  <style type="text/css">*{stroke-linejoin: round; stroke-linecap: butt}</style>
 </defs>
 <g id="figure_1">
  <g id="patch_1">
   <path d="M 0 641.325 
L 972.99375 641.325 
L 972.99375 0 
L 0 0 
z
" style="fill: #ffffff"/>
  </g>
  <g id="axes_1">
   <g id="patch_2">
    <path d="M 72.99375 586.44375 
L 965.79375 586.44375 
L 965.79375 32.04375 
L 72.99375 32.04375 
z
" style="fill: #ffffff"/>
   </g>
   <g id="matplotlib.axis_1">
    <g id="xtick_1">
     <g id="line2d_1">
      <defs>
       <path id="m9a01d27fc1" d="M 0 0 
L 0 3.5 
" style="stroke: #000000; stroke-width: 0.8"/>
      </defs>
      <g>
       <use xlink:href="#m9a01d27fc1" x="101.985533" y="586.44375" style="stroke: #000000; stroke-width: 0.8"/>
      </g>
     </g>
     <g id="text_1">
      <!-- −4 -->
      <g transform="translate(91.34647 607.33125)scale(0.2 -0.2)">
       <defs>
        <path id="TimesNewRomanPSMT-2212" d="M 3484 2000 
L 116 2000 
L 116 2256 
L 3484 2256 
L 3484 2000 
z
" transform="scale(0.015625)"/>
        <path id="TimesNewRomanPSMT-34" d="M 2978 1563 
L 2978 1119 
L 2409 1119 
L 2409 0 
L 1894 0 
L 1894 1119 
L 100 1119 
L 100 1519 
L 2066 4325 
L 2409 4325 
L 2409 1563 
L 2978 1563 
z
M 1894 1563 
L 1894 3666 
L 406 1563 
L 1894 1563 
z
" transform="scale(0.015625)"/>
       </defs>
       <use xlink:href="#TimesNewRomanPSMT-2212"/>
       <use xlink:href="#TimesNewRomanPSMT-34" x="56.396484"/>
      </g>
     </g>
    </g>
    <g id="xtick_2">
     <g id="line2d_2">
      <g>
       <use xlink:href="#m9a01d27fc1" x="297.493628" y="586.44375" style="stroke: #000000; stroke-width: 0.8"/>
      </g>
     </g>
     <g id="text_2">
      <!-- −3 -->
      <g transform="translate(286.854566 607.33125)scale(0.2 -0.2)">
       <defs>
        <path id="TimesNewRomanPSMT-33" d="M 325 3431 
Q 506 3859 782 4092 
Q 1059 4325 1472 4325 
Q 1981 4325 2253 3994 
Q 2459 3747 2459 3466 
Q 2459 3003 1878 2509 
Q 2269 2356 2469 2072 
Q 2669 1788 2669 1403 
Q 2669 853 2319 450 
Q 1863 -75 997 -75 
Q 569 -75 414 31 
Q 259 138 259 259 
Q 259 350 332 419 
Q 406 488 509 488 
Q 588 488 669 463 
Q 722 447 909 348 
Q 1097 250 1169 231 
Q 1284 197 1416 197 
Q 1734 197 1970 444 
Q 2206 691 2206 1028 
Q 2206 1275 2097 1509 
Q 2016 1684 1919 1775 
Q 1784 1900 1550 2001 
Q 1316 2103 1072 2103 
L 972 2103 
L 972 2197 
Q 1219 2228 1467 2375 
Q 1716 2522 1828 2728 
Q 1941 2934 1941 3181 
Q 1941 3503 1739 3701 
Q 1538 3900 1238 3900 
Q 753 3900 428 3381 
L 325 3431 
z
" transform="scale(0.015625)"/>
       </defs>
       <use xlink:href="#TimesNewRomanPSMT-2212"/>
       <use xlink:href="#TimesNewRomanPSMT-33" x="56.396484"/>
      </g>
     </g>
    </g>
    <g id="xtick_3">
     <g id="line2d_3">
      <g>
       <use xlink:href="#m9a01d27fc1" x="493.001723" y="586.44375" style="stroke: #000000; stroke-width: 0.8"/>
      </g>
     </g>
     <g id="text_3">
      <!-- −2 -->
      <g transform="translate(482.362661 607.33125)scale(0.2 -0.2)">
       <defs>
        <path id="TimesNewRomanPSMT-32" d="M 2934 816 
L 2638 0 
L 138 0 
L 138 116 
Q 1241 1122 1691 1759 
Q 2141 2397 2141 2925 
Q 2141 3328 1894 3587 
Q 1647 3847 1303 3847 
Q 991 3847 742 3664 
Q 494 3481 375 3128 
L 259 3128 
Q 338 3706 661 4015 
Q 984 4325 1469 4325 
Q 1984 4325 2329 3994 
Q 2675 3663 2675 3213 
Q 2675 2891 2525 2569 
Q 2294 2063 1775 1497 
Q 997 647 803 472 
L 1909 472 
Q 2247 472 2383 497 
Q 2519 522 2628 598 
Q 2738 675 2819 816 
L 2934 816 
z
" transform="scale(0.015625)"/>
       </defs>
       <use xlink:href="#TimesNewRomanPSMT-2212"/>
       <use xlink:href="#TimesNewRomanPSMT-32" x="56.396484"/>
      </g>
     </g>
    </g>
    <g id="xtick_4">
     <g id="line2d_4">
      <g>
       <use xlink:href="#m9a01d27fc1" x="688.509819" y="586.44375" style="stroke: #000000; stroke-width: 0.8"/>
      </g>
     </g>
     <g id="text_4">
      <!-- −1 -->
      <g transform="translate(677.870756 607.33125)scale(0.2 -0.2)">
       <defs>
        <path id="TimesNewRomanPSMT-31" d="M 750 3822 
L 1781 4325 
L 1884 4325 
L 1884 747 
Q 1884 391 1914 303 
Q 1944 216 2037 169 
Q 2131 122 2419 116 
L 2419 0 
L 825 0 
L 825 116 
Q 1125 122 1212 167 
Q 1300 213 1334 289 
Q 1369 366 1369 747 
L 1369 3034 
Q 1369 3497 1338 3628 
Q 1316 3728 1258 3775 
Q 1200 3822 1119 3822 
Q 1003 3822 797 3725 
L 750 3822 
z
" transform="scale(0.015625)"/>
       </defs>
       <use xlink:href="#TimesNewRomanPSMT-2212"/>
       <use xlink:href="#TimesNewRomanPSMT-31" x="56.396484"/>
      </g>
     </g>
    </g>
    <g id="xtick_5">
     <g id="line2d_5">
      <g>
       <use xlink:href="#m9a01d27fc1" x="884.017914" y="586.44375" style="stroke: #000000; stroke-width: 0.8"/>
      </g>
     </g>
     <g id="text_5">
      <!-- 0 -->
      <g transform="translate(879.017914 607.33125)scale(0.2 -0.2)">
       <defs>
        <path id="TimesNewRomanPSMT-30" d="M 231 2094 
Q 231 2819 450 3342 
Q 669 3866 1031 4122 
Q 1313 4325 1613 4325 
Q 2100 4325 2488 3828 
Q 2972 3213 2972 2159 
Q 2972 1422 2759 906 
Q 2547 391 2217 158 
Q 1888 -75 1581 -75 
Q 975 -75 572 641 
Q 231 1244 231 2094 
z
M 844 2016 
Q 844 1141 1059 588 
Q 1238 122 1591 122 
Q 1759 122 1940 273 
Q 2122 425 2216 781 
Q 2359 1319 2359 2297 
Q 2359 3022 2209 3506 
Q 2097 3866 1919 4016 
Q 1791 4119 1609 4119 
Q 1397 4119 1231 3928 
Q 1006 3669 925 3112 
Q 844 2556 844 2016 
z
" transform="scale(0.015625)"/>
       </defs>
       <use xlink:href="#TimesNewRomanPSMT-30"/>
      </g>
     </g>
    </g>
    <g id="text_6">
     <!-- X 位置 [m] -->
     <g transform="translate(469.39375 631.234375)scale(0.2 -0.2)">
      <defs>
       <path id="FangSong-58" d="M 1725 2300 
L 2600 425 
Q 2675 275 2762 212 
Q 2850 150 2950 150 
L 3025 150 
L 3025 0 
L 1950 0 
L 1950 150 
L 2050 150 
Q 2175 150 2212 212 
Q 2250 275 2200 375 
L 1525 1850 
L 950 650 
Q 900 525 862 437 
Q 825 350 825 325 
Q 825 225 887 187 
Q 950 150 1050 150 
L 1100 150 
L 1100 0 
L 150 0 
L 150 150 
L 250 150 
Q 375 150 475 225 
Q 575 300 625 400 
L 1425 2100 
L 575 3950 
Q 550 4025 487 4075 
Q 425 4125 325 4125 
L 225 4125 
L 225 4275 
L 1250 4275 
L 1250 4125 
L 1175 4125 
Q 1025 4125 1000 4050 
Q 975 3975 1025 3825 
L 1625 2500 
L 2225 3775 
Q 2300 3950 2275 4037 
Q 2250 4125 2100 4125 
L 1950 4125 
L 1950 4275 
L 2925 4275 
L 2925 4125 
L 2775 4125 
Q 2725 4125 2650 4075 
Q 2575 4025 2500 3925 
L 1725 2300 
z
" transform="scale(0.015625)"/>
       <path id="FangSong-20" transform="scale(0.015625)"/>
       <path id="FangSong-4f4d" d="M 1625 3325 
Q 1250 2725 500 2000 
L 450 2125 
Q 1225 2975 1737 3900 
Q 2250 4825 2200 5100 
L 2300 5125 
L 2550 4625 
Q 2450 4625 2300 4387 
Q 2150 4150 1850 3650 
L 1825 -350 
Q 1825 -725 1725 -550 
L 1475 -100 
Q 1600 0 1600 325 
L 1625 3325 
z
M 4925 2725 
Q 4775 2700 4600 1962 
Q 4425 1225 4175 375 
Q 5500 475 5675 550 
L 6000 250 
Q 5475 250 4062 150 
Q 2650 50 2450 0 
L 2150 250 
Q 2650 250 4000 350 
Q 4275 1350 4425 2112 
Q 4575 2875 4425 3125 
L 4500 3175 
L 4925 2725 
z
M 2375 3350 
Q 2900 3375 4050 3500 
Q 5200 3625 5300 3700 
L 5625 3425 
Q 5250 3400 4062 3287 
Q 2875 3175 2675 3100 
L 2375 3350 
z
M 3575 1375 
Q 3500 1125 3325 925 
Q 3200 1625 2825 2750 
L 2925 2800 
Q 3400 1750 3575 1375 
z
M 3950 3800 
Q 3825 4250 3400 5100 
L 3500 5150 
Q 3950 4575 4150 4275 
Q 4075 4050 3950 3800 
z
" transform="scale(0.015625)"/>
       <path id="FangSong-7f6e" d="M 1575 3650 
Q 1600 3350 1500 3400 
L 1275 3700 
Q 1375 3800 1375 4300 
Q 1375 4825 1300 5050 
L 1375 5100 
L 1575 4775 
L 4800 4975 
L 4950 5200 
L 5225 4950 
L 5050 4750 
L 4975 4075 
L 5150 3875 
L 3025 3725 
L 3350 3525 
Q 3275 3525 3250 3225 
L 3250 3150 
Q 4975 3300 5150 3375 
L 5450 3100 
Q 5000 3100 3250 2925 
L 3225 2425 
L 4200 2525 
L 4350 2700 
L 4625 2425 
L 4450 2275 
L 4325 0 
Q 5475 75 5650 100 
L 5950 -150 
Q 5300 -175 3137 -300 
Q 975 -425 725 -500 
L 450 -200 
Q 750 -225 1975 -150 
L 1875 2050 
Q 1850 2350 1775 2550 
L 1850 2575 
L 2075 2325 
L 3000 2400 
L 3025 2900 
Q 1600 2775 1225 2700 
L 925 2975 
Q 1400 2975 3025 3125 
L 3025 3250 
Q 3050 3600 2950 3700 
L 3000 3725 
L 1575 3650 
z
M 2150 1700 
Q 3475 1825 3775 1875 
L 4050 1675 
Q 3350 1600 2150 1475 
L 2150 1075 
Q 3600 1250 3775 1300 
L 3975 1075 
Q 3600 1050 2175 875 
L 2175 475 
Q 3600 625 3775 675 
L 3975 450 
Q 3600 425 2200 250 
L 2200 -125 
L 4100 0 
L 4225 2300 
L 2150 2100 
L 2150 1700 
z
M 2700 3950 
L 3650 4000 
L 3675 4650 
L 2725 4600 
L 2700 3950 
z
M 4750 4075 
L 4825 4750 
L 3900 4675 
L 3875 4025 
L 4750 4075 
z
M 2500 4575 
L 1600 4525 
L 1600 3875 
L 2475 3925 
L 2500 4575 
z
" transform="scale(0.015625)"/>
       <path id="FangSong-5b" d="M 2725 5100 
L 2725 4875 
L 1475 4875 
L 1475 -225 
L 2725 -225 
L 2725 -450 
L 1225 -450 
L 1225 5100 
L 2725 5100 
z
" transform="scale(0.015625)"/>
       <path id="FangSong-6d" d="M 150 2800 
Q 275 2800 400 2825 
Q 525 2850 600 2900 
L 650 2900 
L 650 2475 
Q 775 2675 925 2762 
Q 1075 2850 1250 2850 
Q 1475 2850 1600 2762 
Q 1725 2675 1750 2475 
Q 1875 2675 2037 2762 
Q 2200 2850 2375 2850 
Q 2675 2850 2787 2675 
Q 2900 2500 2900 2225 
L 2900 325 
Q 2900 225 2950 187 
Q 3000 150 3100 150 
L 3150 150 
L 3150 0 
L 2300 0 
L 2300 150 
L 2350 150 
Q 2450 150 2500 187 
Q 2550 225 2550 325 
L 2550 2200 
Q 2550 2475 2487 2562 
Q 2425 2650 2300 2650 
Q 2125 2650 1987 2525 
Q 1850 2400 1775 2175 
L 1775 325 
Q 1775 225 1825 187 
Q 1875 150 1975 150 
L 2025 150 
L 2025 0 
L 1175 0 
L 1175 150 
L 1225 150 
Q 1325 150 1375 187 
Q 1425 225 1425 325 
L 1425 2200 
Q 1425 2425 1375 2537 
Q 1325 2650 1175 2650 
Q 1000 2650 862 2525 
Q 725 2400 650 2150 
L 650 325 
Q 650 225 700 187 
Q 750 150 850 150 
L 900 150 
L 900 0 
L 50 0 
L 50 150 
L 100 150 
Q 200 150 250 187 
Q 300 225 300 325 
L 300 2500 
Q 300 2575 275 2612 
Q 250 2650 175 2650 
L 75 2650 
L 75 2800 
L 150 2800 
z
" transform="scale(0.015625)"/>
       <path id="FangSong-5d" d="M 1900 -450 
L 400 -450 
L 400 -225 
L 1650 -225 
L 1650 4875 
L 400 4875 
L 400 5100 
L 1900 5100 
L 1900 -450 
z
" transform="scale(0.015625)"/>
      </defs>
      <use xlink:href="#FangSong-58"/>
      <use xlink:href="#FangSong-20" x="50"/>
      <use xlink:href="#FangSong-4f4d" x="100"/>
      <use xlink:href="#FangSong-7f6e" x="200"/>
      <use xlink:href="#FangSong-20" x="300"/>
      <use xlink:href="#FangSong-5b" x="350"/>
      <use xlink:href="#FangSong-6d" x="400"/>
      <use xlink:href="#FangSong-5d" x="450"/>
     </g>
    </g>
   </g>
   <g id="matplotlib.axis_2">
    <g id="ytick_1">
     <g id="line2d_6">
      <defs>
       <path id="m78b4e28ace" d="M 0 0 
L -3.5 0 
" style="stroke: #000000; stroke-width: 0.8"/>
      </defs>
      <g>
       <use xlink:href="#m78b4e28ace" x="72.99375" y="523.086941" style="stroke: #000000; stroke-width: 0.8"/>
      </g>
     </g>
     <g id="text_7">
      <!-- −1.5 -->
      <g transform="translate(29.715625 530.030691)scale(0.2 -0.2)">
       <defs>
        <path id="TimesNewRomanPSMT-2e" d="M 800 606 
Q 947 606 1047 504 
Q 1147 403 1147 259 
Q 1147 116 1045 14 
Q 944 -88 800 -88 
Q 656 -88 554 14 
Q 453 116 453 259 
Q 453 406 554 506 
Q 656 606 800 606 
z
" transform="scale(0.015625)"/>
        <path id="TimesNewRomanPSMT-35" d="M 2778 4238 
L 2534 3706 
L 1259 3706 
L 981 3138 
Q 1809 3016 2294 2522 
Q 2709 2097 2709 1522 
Q 2709 1188 2573 903 
Q 2438 619 2231 419 
Q 2025 219 1772 97 
Q 1413 -75 1034 -75 
Q 653 -75 479 54 
Q 306 184 306 341 
Q 306 428 378 495 
Q 450 563 559 563 
Q 641 563 702 538 
Q 763 513 909 409 
Q 1144 247 1384 247 
Q 1750 247 2026 523 
Q 2303 800 2303 1197 
Q 2303 1581 2056 1914 
Q 1809 2247 1375 2428 
Q 1034 2569 447 2591 
L 1259 4238 
L 2778 4238 
z
" transform="scale(0.015625)"/>
       </defs>
       <use xlink:href="#TimesNewRomanPSMT-2212"/>
       <use xlink:href="#TimesNewRomanPSMT-31" x="56.396484"/>
       <use xlink:href="#TimesNewRomanPSMT-2e" x="106.396484"/>
       <use xlink:href="#TimesNewRomanPSMT-35" x="131.396484"/>
      </g>
     </g>
    </g>
    <g id="ytick_2">
     <g id="line2d_7">
      <g>
       <use xlink:href="#m78b4e28ace" x="72.99375" y="430.57317" style="stroke: #000000; stroke-width: 0.8"/>
      </g>
     </g>
     <g id="text_8">
      <!-- −1.0 -->
      <g transform="translate(29.715625 437.51692)scale(0.2 -0.2)">
       <use xlink:href="#TimesNewRomanPSMT-2212"/>
       <use xlink:href="#TimesNewRomanPSMT-31" x="56.396484"/>
       <use xlink:href="#TimesNewRomanPSMT-2e" x="106.396484"/>
       <use xlink:href="#TimesNewRomanPSMT-30" x="131.396484"/>
      </g>
     </g>
    </g>
    <g id="ytick_3">
     <g id="line2d_8">
      <g>
       <use xlink:href="#m78b4e28ace" x="72.99375" y="338.059399" style="stroke: #000000; stroke-width: 0.8"/>
      </g>
     </g>
     <g id="text_9">
      <!-- −0.5 -->
      <g transform="translate(29.715625 345.003149)scale(0.2 -0.2)">
       <use xlink:href="#TimesNewRomanPSMT-2212"/>
       <use xlink:href="#TimesNewRomanPSMT-30" x="56.396484"/>
       <use xlink:href="#TimesNewRomanPSMT-2e" x="106.396484"/>
       <use xlink:href="#TimesNewRomanPSMT-35" x="131.396484"/>
      </g>
     </g>
    </g>
    <g id="ytick_4">
     <g id="line2d_9">
      <g>
       <use xlink:href="#m78b4e28ace" x="72.99375" y="245.545629" style="stroke: #000000; stroke-width: 0.8"/>
      </g>
     </g>
     <g id="text_10">
      <!-- 0.0 -->
      <g transform="translate(40.99375 252.489379)scale(0.2 -0.2)">
       <use xlink:href="#TimesNewRomanPSMT-30"/>
       <use xlink:href="#TimesNewRomanPSMT-2e" x="50"/>
       <use xlink:href="#TimesNewRomanPSMT-30" x="75"/>
      </g>
     </g>
    </g>
    <g id="ytick_5">
     <g id="line2d_10">
      <g>
       <use xlink:href="#m78b4e28ace" x="72.99375" y="153.031858" style="stroke: #000000; stroke-width: 0.8"/>
      </g>
     </g>
     <g id="text_11">
      <!-- 0.5 -->
      <g transform="translate(40.99375 159.975608)scale(0.2 -0.2)">
       <use xlink:href="#TimesNewRomanPSMT-30"/>
       <use xlink:href="#TimesNewRomanPSMT-2e" x="50"/>
       <use xlink:href="#TimesNewRomanPSMT-35" x="75"/>
      </g>
     </g>
    </g>
    <g id="ytick_6">
     <g id="line2d_11">
      <g>
       <use xlink:href="#m78b4e28ace" x="72.99375" y="60.518087" style="stroke: #000000; stroke-width: 0.8"/>
      </g>
     </g>
     <g id="text_12">
      <!-- 1.0 -->
      <g transform="translate(40.99375 67.461837)scale(0.2 -0.2)">
       <use xlink:href="#TimesNewRomanPSMT-31"/>
       <use xlink:href="#TimesNewRomanPSMT-2e" x="50"/>
       <use xlink:href="#TimesNewRomanPSMT-30" x="75"/>
      </g>
     </g>
    </g>
    <g id="text_13">
     <!-- Y 位置 [m] -->
     <g transform="translate(22.825 359.24375)rotate(-90)scale(0.2 -0.2)">
      <defs>
       <path id="FangSong-59" d="M 2350 3825 
Q 2375 3975 2312 4050 
Q 2250 4125 2075 4125 
L 2025 4125 
L 2025 4275 
L 3000 4275 
L 3000 4125 
L 2925 4125 
Q 2800 4125 2700 4037 
Q 2600 3950 2525 3775 
L 1750 1800 
L 1750 350 
Q 1750 250 1812 200 
Q 1875 150 1975 150 
L 2200 150 
L 2200 0 
L 900 0 
L 900 150 
L 1125 150 
Q 1250 150 1300 200 
Q 1350 250 1350 350 
L 1350 1650 
L 500 3850 
Q 450 3975 375 4050 
Q 300 4125 175 4125 
L 125 4125 
L 125 4275 
L 1225 4275 
L 1225 4125 
L 1075 4125 
Q 925 4125 900 4050 
Q 875 3975 925 3825 
L 1600 1975 
L 1650 1975 
L 2350 3825 
z
" transform="scale(0.015625)"/>
      </defs>
      <use xlink:href="#FangSong-59"/>
      <use xlink:href="#FangSong-20" x="50"/>
      <use xlink:href="#FangSong-4f4d" x="100"/>
      <use xlink:href="#FangSong-7f6e" x="200"/>
      <use xlink:href="#FangSong-20" x="300"/>
      <use xlink:href="#FangSong-5b" x="350"/>
      <use xlink:href="#FangSong-6d" x="400"/>
      <use xlink:href="#FangSong-5d" x="450"/>
     </g>
    </g>
   </g>
   <g id="line2d_12">
    <path d="M 884.017822 245.544363 
L 883.834451 245.514226 
L 884.984853 245.493658 
L 889.530703 243.622147 
L 896.110582 241.006461 
L 900.276191 239.470942 
L 919.988236 232.358715 
L 920.943493 231.585795 
L 925.135847 226.953047 
L 925.211932 226.40411 
L 925.049507 225.84707 
L 924.524514 224.942184 
L 923.913228 224.277397 
L 923.009375 223.562064 
L 921.093043 222.403703 
L 912.631872 217.831361 
L 896.887391 209.223625 
L 889.318695 206.246876 
L 886.402747 204.766952 
L 883.220688 202.849553 
L 878.415438 199.645614 
L 876.169065 198.079273 
L 873.47422 196.506691 
L 870.166921 194.869778 
L 863.511235 191.932901 
L 859.238472 189.98828 
L 856.888797 188.766146 
L 844.578606 183.02426 
L 832.628034 177.358765 
L 818.503695 171.822713 
L 814.612838 169.961793 
L 810.631308 167.774869 
L 807.293911 165.691523 
L 805.637188 164.429199 
L 804.324706 163.105618 
L 803.666749 162.156977 
L 802.951363 160.584408 
L 801.768812 157.085047 
L 800.337879 152.211722 
L 798.182836 141.224482 
L 797.635994 138.347858 
L 797.01272 137.225085 
L 794.302494 133.500506 
L 792.631823 131.682453 
L 791.924046 131.056386 
L 790.102971 129.88427 
L 787.795756 128.609272 
L 785.360296 127.597785 
L 782.260412 126.573889 
L 777.508578 125.294542 
L 776.320707 124.986546 
L 775.871212 124.717317 
L 771.95695 123.380933 
L 765.099304 121.414074 
L 746.239714 115.845612 
L 736.421173 113.870244 
L 732.475993 112.705595 
L 729.090467 111.415159 
L 724.953459 109.560823 
L 720.716341 107.438147 
L 717.097172 105.714602 
L 712.655489 103.95449 
L 704.633932 101.141373 
L 701.72375 100.043336 
L 699.403212 99.020342 
L 687.463974 94.35831 
L 670.587424 87.661134 
L 666.357401 86.647199 
L 662.311976 85.663037 
L 656.650114 84.008969 
L 653.126814 82.750516 
L 645.170948 79.579754 
L 641.014894 77.584047 
L 636.5394 75.904029 
L 635.574537 75.45201 
L 633.437736 74.416039 
L 619.066234 67.892321 
L 611.503183 66.194361 
L 608.696401 65.317308 
L 601.824896 62.865184 
L 599.410626 62.490969 
L 596.577333 62.31146 
L 591.318654 62.073866 
L 589.611251 61.90597 
L 576.343401 61.030537 
L 566.028227 60.35918 
L 557.394225 60.732889 
L 553.873325 60.609968 
L 550.689265 60.259748 
L 543.861055 59.099774 
L 541.087846 58.690333 
L 537.87896 58.458628 
L 532.839311 58.412566 
L 525.746882 58.438807 
L 523.356551 58.295071 
L 504.831341 57.828957 
L 494.432808 57.58372 
L 483.758702 58.478684 
L 478.38784 58.610485 
L 473.805583 58.454486 
L 467.272157 58.005739 
L 459.231346 57.261431 
L 455.773492 57.27047 
L 449.297512 57.578674 
L 446.139064 57.72449 
L 440.179617 57.696926 
L 422.187337 57.798367 
L 415.883049 57.787881 
L 413.295495 58.129676 
L 406.779978 59.257694 
L 400.529439 59.957462 
L 395.767272 60.246601 
L 388.427338 60.551395 
L 385.363041 60.629146 
L 382.781609 60.899155 
L 379.088977 61.546614 
L 376.755399 61.937615 
L 373.473697 62.357624 
L 356.058351 64.666377 
L 353.433157 65.118254 
L 341.433523 68.687845 
L 336.497332 69.816829 
L 329.727757 71.313007 
L 326.88983 72.407209 
L 323.801753 73.866748 
L 319.038836 76.24148 
L 315.166311 77.883051 
L 301.44687 84.064869 
L 292.079285 88.320289 
L 282.965045 93.973194 
L 278.971546 96.144558 
L 273.629959 98.683414 
L 269.316018 100.528707 
L 266.652955 101.689256 
L 263.918987 103.170222 
L 261.014151 105.037268 
L 252.471887 110.812856 
L 228.369834 126.18575 
L 226.429613 127.835826 
L 221.680324 132.262935 
L 216.192491 136.725286 
L 209.744584 141.494748 
L 206.974902 143.369218 
L 204.743863 144.933852 
L 202.485381 146.837071 
L 200.27771 149.058713 
L 196.943645 152.593554 
L 194.178396 155.230389 
L 187.544398 161.686326 
L 177.263542 171.575816 
L 175.923587 173.334097 
L 172.020659 178.861403 
L 165.186904 187.571935 
L 161.6435 191.656694 
L 160.479969 193.358775 
L 158.853029 196.231537 
L 155.995463 201.614413 
L 154.947244 203.366403 
L 150.101374 211.950576 
L 141.979446 226.024877 
L 141.141671 228.192997 
L 139.201194 233.93156 
L 135.964663 241.67922 
L 133.287567 247.397739 
L 131.522988 251.027716 
L 130.745632 253.031987 
L 130.063357 255.244628 
L 129.18332 258.967928 
L 127.44958 267.438629 
L 126.777728 269.84575 
L 122.674072 287.079889 
L 119.572328 300.130654 
L 119.332475 304.351941 
L 119.060784 308.44792 
L 118.209623 315.196923 
L 117.248828 320.587591 
L 115.636348 328.909927 
L 115.056037 331.992059 
L 114.767482 335.287304 
L 114.723571 338.855651 
L 114.726636 345.426917 
L 114.614674 347.639506 
L 114.315248 357.176855 
L 113.575568 374.912852 
L 113.866189 377.367923 
L 115.071303 384.762946 
L 116.508791 396.605096 
L 117.521308 402.857581 
L 118.108799 404.779081 
L 118.8972 406.749695 
L 120.390686 409.829597 
L 122.255865 413.509043 
L 123.930407 417.315245 
L 129.15708 428.58312 
L 135.144 441.765163 
L 136.480339 443.766357 
L 140.211268 448.805515 
L 143.326602 453.80991 
L 145.707298 458.04023 
L 148.177843 462.786401 
L 149.479379 465.467756 
L 150.536895 467.264235 
L 152.482974 470.007088 
L 155.622162 473.825607 
L 157.551825 476.195888 
L 160.898073 480.704785 
L 168.814115 491.235517 
L 176.583877 501.681988 
L 178.399863 503.410862 
L 184.223448 508.418906 
L 192.093181 515.914064 
L 198.191669 521.142113 
L 200.09679 522.420566 
L 202.220701 523.629439 
L 205.777968 525.371646 
L 209.996201 527.388562 
L 215.356133 530.253144 
L 232.580577 539.252206 
L 239.338511 542.834623 
L 241.862294 543.737643 
L 248.471398 545.765102 
L 256.445825 548.789163 
L 263.49457 551.601104 
L 269.532269 553.808238 
L 271.733847 554.376796 
L 275.38133 555.027765 
L 280.832451 555.653211 
L 284.185413 556.04523 
L 291.737921 557.236754 
L 310.342283 560.112364 
L 316.873116 561.156579 
L 319.602625 561.186504 
L 327.857621 560.929575 
L 346.33747 561.201246 
L 349.540082 561.171442 
L 351.765103 560.982236 
L 355.259648 560.381108 
L 358.995944 559.473382 
L 363.371819 558.389255 
L 369.174171 557.207104 
L 382.761667 554.385012 
L 394.99246 551.899264 
L 397.402657 550.991338 
L 404.535552 547.862741 
L 413.662077 544.197167 
L 417.492611 542.273585 
L 420.023194 540.904169 
L 421.770799 539.755729 
L 423.45951 538.399673 
L 425.942151 535.996248 
L 429.66739 532.092629 
L 432.757172 529.174738 
L 442.593036 519.506114 
L 450.740192 511.606091 
L 452.168565 509.69214 
L 455.629161 504.564914 
L 460.461051 498.471 
L 465.075171 492.908219 
L 468.707114 488.127019 
L 469.851119 486.318065 
L 471.485211 483.207811 
L 473.075913 479.630708 
L 475.435757 474.048626 
L 479.343473 465.988548 
L 488.65804 446.642549 
L 489.225251 445.49887 
L 489.984496 442.954019 
L 491.852121 435.205799 
L 493.948262 428.433149 
L 495.491658 423.660676 
L 496.254776 420.275182 
L 497.292187 414.763439 
L 497.465427 412.724832 
L 497.461371 410.605284 
L 497.185885 407.228571 
L 496.603869 401.993835 
L 496.269232 396.679876 
L 495.417989 384.238708 
L 494.703629 373.046877 
L 494.132686 370.770536 
L 491.995708 363.971999 
L 490.149318 357.421254 
L 489.278265 354.646271 
L 486.564281 347.66711 
L 485.572522 345.928259 
L 484.374582 344.199394 
L 481.582427 340.72508 
L 480.630948 339.403302 
L 478.403316 336.212661 
L 471.576331 326.86225 
L 464.277813 316.737145 
L 462.651228 315.164732 
L 458.158117 311.27057 
L 451.85253 304.912495 
L 448.768798 301.763504 
L 444.435031 297.606764 
L 442.6999 296.26219 
L 439.652767 294.28013 
L 434.896398 291.625089 
L 431.983295 289.991062 
L 425.531209 286.000728 
L 407.292886 274.849539 
L 403.965218 272.783394 
L 401.464045 271.723679 
L 393.735132 268.850625 
L 384.55093 264.719333 
L 381.123459 263.243922 
L 371.121369 259.40817 
L 367.533158 258.597122 
L 362.195932 257.768379 
L 358.906151 257.242712 
L 351.507624 255.796822 
L 335.916114 252.742168 
L 326.938821 250.953697 
L 324.25077 250.849004 
L 316.105827 250.944886 
L 304.892913 250.662429 
L 301.307432 250.899439 
L 295.31194 251.480563 
L 293.166113 251.929145 
L 290.961714 252.584388 
L 287.49666 253.900612 
L 282.174493 256.078442 
L 276.659433 258.033376 
L 259.045645 264.514971 
L 252.089839 267.02123 
L 249.866905 268.25416 
L 243.354625 272.313255 
L 236.095478 276.221605 
L 233.274832 277.804569 
L 227.058002 281.781244 
L 225.514212 283.095475 
L 223.286877 285.399669 
L 217.89807 291.467308 
L 208.377477 301.842586 
L 199.586764 311.285486 
L 198.368247 313.201589 
L 194.952854 319.278716 
L 189.559719 327.886191 
L 185.87119 334.690543 
L 185.118857 336.714997 
L 184.482534 338.931257 
L 183.682945 342.588299 
L 182.783833 346.895267 
L 181.323728 352.46512 
L 176.825513 370.339958 
L 175.011379 377.369472 
L 174.825536 379.862802 
L 174.748967 386.314738 
L 174.091224 393.444348 
L 173.417494 399.569189 
L 173.085387 406.710725 
L 173.127077 409.993404 
L 173.358586 412.329871 
L 174.017494 416.130306 
L 175.309131 421.705594 
L 176.051126 425.083147 
L 178.482761 438.613638 
L 181.710451 456.756032 
L 182.172796 459.477571 
L 183.136098 462.089236 
L 186.574754 469.643729 
L 188.481048 474.636995 
L 190.392799 480.037705 
L 191.495945 482.060398 
L 193.586302 485.363167 
L 194.607257 486.653486 
L 195.826943 487.930598 
L 198.033756 489.839694 
L 201.44453 492.314213 
L 202.303717 492.924765 
L 202.636854 493.319359 
L 204.680214 495.065941 
L 212.431803 501.196393 
L 223.113759 509.763857 
L 225.003062 510.795415 
L 231.000574 513.717663 
L 242.653397 520.164778 
L 245.249611 521.627979 
L 247.17137 522.494355 
L 250.399377 523.612987 
L 254.005226 524.586249 
L 257.018893 525.407391 
L 262.429247 527.122522 
L 275.086483 531.09384 
L 289.87135 535.769258 
L 292.367048 536.042692 
L 300.099776 536.380122 
L 310.361079 537.564832 
L 316.574589 537.838683 
L 318.839873 537.767227 
L 321.225402 537.493882 
L 323.752376 537.017204 
L 327.804138 535.989493 
L 332.558778 534.735858 
L 338.872188 533.374874 
L 361.712886 528.18839 
L 366.98856 527.026115 
L 369.546375 526.010518 
L 375.933812 523.023204 
L 381.479791 520.927134 
L 392.957915 516.796546 
L 399.313058 514.095157 
L 401.478638 512.937964 
L 404.851588 510.82044 
L 409.628006 507.418867 
L 412.55742 505.355583 
L 442.602915 485.857969 
L 444.701581 483.942702 
L 450.555478 477.824736 
L 458.841928 469.880504 
L 460.389264 467.862107 
L 462.942758 464.174157 
L 463.901407 462.477361 
L 464.766457 460.578351 
L 465.476713 458.519991 
L 466.3078 455.171714 
L 467.047909 451.72441 
L 467.275729 451.241827 
L 468.461954 447.278428 
L 471.988845 434.306893 
L 474.972187 423.646134 
L 475.184061 421.332697 
L 475.366849 415.303946 
L 476.335706 406.465126 
L 476.665458 403.247065 
L 477.016177 395.661369 
L 476.905658 393.59589 
L 476.615599 391.421774 
L 475.884066 387.924005 
L 474.375424 381.465119 
L 473.971701 379.251186 
L 472.082024 369.750569 
L 468.703289 352.016226 
L 467.792144 349.711096 
L 464.55324 342.886951 
L 461.645195 336.168103 
L 460.617106 333.992636 
L 458.8422 330.965167 
L 456.777793 327.614079 
L 455.471973 325.877132 
L 453.92883 324.190337 
L 452.156178 322.527882 
L 448.161592 319.214595 
L 446.771071 317.958164 
L 442.502479 313.992474 
L 427.785898 300.64306 
L 423.287853 296.51587 
L 421.13264 295.121168 
L 415.346971 291.826942 
L 409.227313 287.725909 
L 403.988329 284.088186 
L 397.64484 280.214231 
L 394.616062 278.637168 
L 392.350505 277.681509 
L 388.5404 276.353019 
L 379.83056 273.609821 
L 377.358997 272.687883 
L 365.210523 268.458636 
L 347.843389 262.239534 
L 345.052172 261.725947 
L 336.585247 260.701702 
L 324.286907 258.672641 
L 319.770629 258.575094 
L 316.866805 258.626498 
L 314.787452 258.83931 
L 312.611335 259.243141 
L 310.388125 259.842128 
L 305.798103 261.400549 
L 304.099556 261.881921 
L 299.958471 263.016824 
L 287.725844 266.594457 
L 275.60109 270.071144 
L 273.43402 271.112776 
L 266.949807 274.610654 
L 254.096661 280.81611 
L 249.675257 283.274009 
L 247.93416 284.485447 
L 246.190327 285.904861 
L 243.522337 288.407509 
L 238.683484 293.153666 
L 236.958179 294.690248 
L 229.647962 301.439909 
L 216.830629 313.07341 
L 215.293781 315.055463 
L 210.977246 321.323344 
L 204.410375 329.975214 
L 202.475459 333.077262 
L 199.911786 337.426314 
L 199.006501 339.344982 
L 198.232228 341.435662 
L 197.268964 344.929441 
L 195.426725 352.898166 
L 194.761954 355.162242 
L 191.535343 367.53894 
L 187.550887 382.220854 
L 187.327757 384.761129 
L 187.136984 392.447521 
L 186.255643 404.70899 
L 186.540704 410.999002 
L 186.825524 413.005574 
L 187.312939 415.06423 
L 188.387291 418.260582 
L 190.23011 423.172799 
L 191.480267 427.133668 
L 195.017816 437.781227 
L 199.495727 451.513492 
L 200.639939 453.564747 
L 204.550501 459.628919 
L 208.500321 466.283301 
L 209.797014 468.272944 
L 214.204437 474.356382 
L 215.733906 475.901547 
L 217.481582 477.408626 
L 221.410943 480.374633 
L 222.798956 481.513625 
L 226.10143 484.331339 
L 236.044285 492.554468 
L 246.722392 501.480035 
L 248.850727 502.683797 
L 255.607219 506.021047 
L 267.185389 512.507569 
L 273.100445 515.449295 
L 275.361487 516.299682 
L 277.847353 517.047838 
L 281.987599 518.027273 
L 288.46698 519.403139 
L 297.887991 521.842129 
L 321.835109 527.968591 
L 324.563922 528.692976 
L 327.438092 528.960534 
L 336.13358 529.233876 
L 345.524669 530.159961 
L 348.252957 530.343428 
L 354.189799 530.285302 
L 357.481238 530.091134 
L 359.752346 529.735889 
L 362.073467 529.184549 
L 365.687868 528.062015 
L 369.927301 526.732933 
L 374.338894 525.570152 
L 387.38135 521.907302 
L 401.485735 518.024948 
L 403.753086 516.934191 
L 410.462471 513.183838 
L 420.220825 508.333896 
L 425.280471 505.263107 
L 427.044358 504.014168 
L 428.756511 502.563038 
L 430.436617 500.89306 
L 432.947505 498.022769 
L 435.867699 494.611451 
L 439.885291 490.315032 
L 450.926623 478.357987 
L 457.667305 471.117963 
L 459.022089 468.991112 
L 462.76172 462.278189 
L 469.332111 451.929229 
L 472.204573 446.438929 
L 473.542963 443.451094 
L 474.289531 441.255096 
L 474.920571 438.853498 
L 475.708255 434.870835 
L 476.799147 428.675546 
L 479.152639 418.20876 
L 483.728564 397.778862 
L 484.346167 395.132617 
L 484.464087 392.398678 
L 484.216876 384.215342 
L 484.494067 377.163682 
L 484.640057 373.909472 
L 484.495921 371.498195 
L 483.742442 366.469306 
L 483.315235 364.691435 
L 482.692595 362.836761 
L 481.861303 360.934463 
L 480.26146 358.061223 
L 478.520556 355.179126 
L 478.356983 354.684238 
L 476.587738 351.178753 
L 471.648292 341.821035 
L 465.34895 329.74275 
L 463.941138 327.98388 
L 459.271887 322.815093 
L 453.483271 315.825737 
L 448.597148 310.461973 
L 447.072356 309.096751 
L 445.335425 307.793866 
L 442.344818 305.911579 
L 437.571415 303.126594 
L 433.915715 300.721584 
L 422.895978 293.7154 
L 411.050669 286.08842 
L 408.772243 285.164815 
L 401.601007 282.774089 
L 392.156237 279.126714 
L 386.401404 277.396514 
L 384.260299 276.870349 
L 381.983154 276.499238 
L 379.532273 276.293431 
L 375.521727 276.24485 
L 369.262917 276.348647 
L 362.890465 276.152141 
L 339.747042 275.691459 
L 334.407106 275.549753 
L 331.702351 275.927368 
L 323.569175 277.523815 
L 316.166024 278.430096 
L 311.513191 278.963033 
L 306.384666 279.893537 
L 301.924414 280.774865 
L 299.653441 281.427836 
L 297.316821 282.275069 
L 293.641533 283.879565 
L 286.904369 286.975561 
L 284.557221 287.931553 
L 274.533304 292.1748 
L 255.776996 299.97313 
L 253.503844 301.426825 
L 246.968365 306.265089 
L 239.131179 311.570201 
L 237.170849 313.189726 
L 233.065163 317.090958 
L 231.657472 318.65912 
L 230.364976 320.418205 
L 229.190351 322.373118 
L 227.57144 325.639876 
L 225.691652 329.477459 
L 223.556242 333.332182 
L 216.883608 346.007899 
L 211.314666 356.414145 
L 210.591506 358.726374 
L 208.805346 365.903933 
L 205.079957 377.896121 
L 203.564809 384.859363 
L 203.3249 387.046665 
L 203.254052 389.377823 
L 203.417069 393.170599 
L 203.880886 400.194722 
L 203.918206 402.598782 
L 204.270872 412.94516 
L 204.763738 432.236921 
L 205.318958 434.777967 
L 207.82728 443.437511 
L 210.07211 451.979906 
L 211.76152 456.005456 
L 212.985058 458.645649 
L 214.045786 460.484941 
L 215.34566 462.302218 
L 216.871875 464.097543 
L 220.359668 467.681 
L 221.240326 468.567131 
L 221.549904 469.044169 
L 224.408696 472.401309 
L 234.745443 483.999688 
L 242.537627 492.858924 
L 244.482048 494.390904 
L 250.717969 498.732823 
L 259.545273 505.558857 
L 266.682117 510.236169 
L 268.841923 511.310968 
L 271.214774 512.296578 
L 275.141639 513.666624 
L 279.760375 515.243381 
L 287.015045 518.059502 
L 306.150314 525.391619 
L 312.415705 527.82253 
L 315.116563 528.367872 
L 323.437184 529.555566 
L 336.324402 532.139701 
L 344.040469 532.914986 
L 346.421101 532.980188 
L 348.914476 532.864937 
L 352.92392 532.371258 
L 363.197742 530.768421 
L 375.806878 529.014452 
L 396.811048 526.286555 
L 399.50058 525.457271 
L 408.582276 522.026311 
L 417.575227 518.983518 
L 419.980851 517.827069 
L 424.276216 515.558826 
L 426.081493 514.37875 
L 427.825662 512.98325 
L 429.508682 511.382319 
L 431.980958 508.689839 
L 433.604828 506.860809 
L 434.793102 505.830967 
L 436.372414 504.318271 
L 444.59662 496.012448 
L 456.087567 484.568257 
L 457.429973 482.595198 
L 461.147704 476.309781 
L 467.061918 467.36299 
L 469.921027 462.18741 
L 470.772592 460.282942 
L 471.487506 458.206652 
L 472.073069 455.938422 
L 472.772033 452.20043 
L 473.546746 447.798771 
L 475.097961 440.843358 
L 477.769921 428.599667 
L 477.769921 428.599667 
" clip-path="url(#p9cfd3b5168)" style="fill: none; stroke: #ff0000; stroke-width: 2; stroke-linecap: square"/>
   </g>
   <g id="patch_3">
    <path d="M 72.99375 586.44375 
L 72.99375 32.04375 
" style="fill: none; stroke: #000000; stroke-width: 0.8; stroke-linejoin: miter; stroke-linecap: square"/>
   </g>
   <g id="patch_4">
    <path d="M 965.79375 586.44375 
L 965.79375 32.04375 
" style="fill: none; stroke: #000000; stroke-width: 0.8; stroke-linejoin: miter; stroke-linecap: square"/>
   </g>
   <g id="patch_5">
    <path d="M 72.99375 586.44375 
L 965.79375 586.44375 
" style="fill: none; stroke: #000000; stroke-width: 0.8; stroke-linejoin: miter; stroke-linecap: square"/>
   </g>
   <g id="patch_6">
    <path d="M 72.99375 32.04375 
L 965.79375 32.04375 
" style="fill: none; stroke: #000000; stroke-width: 0.8; stroke-linejoin: miter; stroke-linecap: square"/>
   </g>
   <g id="text_14">
    <!-- 躯干水平位置 -->
    <g transform="translate(447.39375 26.04375)scale(0.24 -0.24)">
     <defs>
      <path id="FangSong-8eaf" d="M 1775 275 
L 2525 -100 
Q 2600 25 2575 425 
L 2600 1825 
Q 1525 500 500 -100 
L 450 0 
Q 1275 550 2250 1800 
Q 1075 1525 925 1450 
L 650 1725 
Q 950 1750 1350 1825 
L 1350 3575 
Q 1325 3975 1275 4275 
L 1350 4300 
L 1550 3975 
L 1800 4000 
Q 1925 4400 1987 4687 
Q 2050 4975 1975 5175 
L 2050 5225 
L 2375 4825 
Q 2325 4825 2212 4625 
Q 2100 4425 1950 4025 
L 2600 4125 
L 2750 4375 
L 3050 4125 
L 2850 3875 
L 2825 550 
Q 2875 -200 2625 -625 
Q 2300 -200 1725 175 
L 1775 275 
z
M 5700 4225 
Q 5500 4275 3650 4000 
L 3625 75 
Q 5475 200 5650 300 
L 5925 25 
Q 5775 50 3625 -150 
L 3450 -300 
L 3225 25 
L 3400 100 
L 3425 3850 
Q 3425 4275 3325 4675 
L 3425 4700 
L 3625 4225 
Q 5375 4425 5375 4500 
L 5700 4225 
z
M 1575 3225 
Q 2175 3300 2300 3375 
L 2500 3150 
Q 2200 3125 1575 3025 
L 1575 2600 
Q 2175 2675 2325 2725 
L 2525 2500 
Q 2350 2475 1575 2375 
L 1575 1875 
L 2600 2050 
L 2625 3900 
L 1575 3750 
L 1575 3225 
z
M 4825 2200 
Q 5200 1475 5450 1125 
Q 5375 850 5275 650 
Q 5150 1000 4700 2000 
Q 4350 1275 3750 550 
L 3675 625 
Q 4200 1400 4550 2225 
L 3925 3575 
L 4000 3625 
L 4675 2450 
Q 4850 2800 5012 3250 
Q 5175 3700 5075 3875 
L 5125 3900 
L 5425 3450 
Q 5350 3450 5187 3087 
Q 5025 2725 4825 2200 
z
" transform="scale(0.015625)"/>
      <path id="FangSong-5e72" d="M 2875 -175 
Q 3050 -50 3025 450 
L 3050 2575 
Q 1125 2400 950 2375 
L 625 2650 
Q 1025 2625 3050 2800 
L 3075 4425 
Q 1800 4300 1650 4275 
L 1350 4550 
Q 1825 4550 3150 4675 
Q 4475 4800 4725 4875 
L 5025 4600 
Q 4575 4600 3300 4450 
L 3275 2825 
Q 5550 3050 5600 3100 
L 5925 2800 
Q 5425 2800 3275 2600 
L 3250 -225 
Q 3275 -625 3175 -675 
L 2875 -175 
z
" transform="scale(0.015625)"/>
      <path id="FangSong-6c34" d="M 4900 325 
Q 4975 400 4562 1112 
Q 4150 1825 3350 3225 
L 3350 100 
Q 3350 -425 3150 -675 
Q 2875 -275 2175 325 
L 2225 400 
L 3075 -125 
Q 3150 150 3125 450 
L 3125 4375 
Q 3150 4925 3000 5175 
L 3075 5225 
L 3475 4850 
Q 3325 4800 3350 4375 
L 3350 3600 
Q 3700 2950 3925 2600 
Q 4475 3075 4725 3362 
Q 4975 3650 4950 3825 
L 5025 3825 
L 5175 3300 
Q 5125 3350 4825 3100 
Q 4500 2825 4025 2425 
Q 4675 1325 4837 1087 
Q 5000 850 5137 712 
Q 5275 575 5975 525 
L 5975 400 
L 4900 325 
z
M 2700 3325 
L 3025 3050 
L 2800 2825 
Q 1975 900 475 -150 
L 400 -75 
Q 1850 1200 2525 2825 
Q 1375 2650 1250 2600 
L 900 2850 
Q 1325 2850 2575 3100 
L 2700 3325 
z
" transform="scale(0.015625)"/>
      <path id="FangSong-5e73" d="M 3125 4450 
Q 1775 4325 1625 4275 
L 1350 4575 
Q 1825 4550 3375 4687 
Q 4925 4825 4950 4875 
L 5250 4575 
Q 4650 4575 3350 4450 
L 3325 2375 
Q 5600 2550 5625 2600 
L 5975 2300 
Q 5550 2350 3325 2150 
L 3300 -100 
Q 3325 -675 3225 -625 
L 2950 -125 
Q 3100 -100 3075 400 
L 3100 2125 
Q 850 1975 800 1900 
L 425 2200 
Q 825 2175 3100 2350 
L 3125 4450 
z
M 4900 3900 
Q 4850 3950 4587 3525 
Q 4325 3100 3975 2575 
L 3875 2625 
Q 4200 3225 4412 3687 
Q 4625 4150 4500 4300 
L 4575 4350 
L 4900 3900 
z
M 2475 3000 
Q 2425 2875 2275 2625 
Q 1975 3275 1650 3850 
L 1700 3900 
Q 2100 3475 2475 3000 
z
" transform="scale(0.015625)"/>
     </defs>
     <use xlink:href="#FangSong-8eaf"/>
     <use xlink:href="#FangSong-5e72" x="100"/>
     <use xlink:href="#FangSong-6c34" x="200"/>
     <use xlink:href="#FangSong-5e73" x="300"/>
     <use xlink:href="#FangSong-4f4d" x="400"/>
     <use xlink:href="#FangSong-7f6e" x="500"/>
    </g>
   </g>
   <g id="legend_1">
    <g id="patch_7">
     <path d="M 827.79375 76.559375 
L 951.79375 76.559375 
Q 955.79375 76.559375 955.79375 72.559375 
L 955.79375 46.04375 
Q 955.79375 42.04375 951.79375 42.04375 
L 827.79375 42.04375 
Q 823.79375 42.04375 823.79375 46.04375 
L 823.79375 72.559375 
Q 823.79375 76.559375 827.79375 76.559375 
z
" style="fill: #ffffff; opacity: 0.8; stroke: #cccccc; stroke-linejoin: miter"/>
    </g>
    <g id="line2d_13">
     <path d="M 831.79375 58.66875 
L 851.79375 58.66875 
L 871.79375 58.66875 
" style="fill: none; stroke: #ff0000; stroke-width: 2; stroke-linecap: square"/>
    </g>
    <g id="text_15">
     <!-- XY位置 -->
     <g transform="translate(887.79375 65.66875)scale(0.2 -0.2)">
      <use xlink:href="#FangSong-58"/>
      <use xlink:href="#FangSong-59" x="50"/>
      <use xlink:href="#FangSong-4f4d" x="100"/>
      <use xlink:href="#FangSong-7f6e" x="200"/>
     </g>
    </g>
   </g>
  </g>
 </g>
 <defs>
  <clipPath id="p9cfd3b5168">
   <rect x="72.99375" y="32.04375" width="892.8" height="554.4"/>
  </clipPath>
 </defs>
</svg>
