<?xml version="1.0" encoding="utf-8" standalone="no"?>
<!DOCTYPE svg PUBLIC "-//W3C//DTD SVG 1.1//EN"
  "http://www.w3.org/Graphics/SVG/1.1/DTD/svg11.dtd">
<svg xmlns:xlink="http://www.w3.org/1999/xlink" width="957.99375pt" height="530.53875pt" viewBox="0 0 957.99375 530.53875" xmlns="http://www.w3.org/2000/svg" version="1.1">
 <metadata>
  <rdf:RDF xmlns:dc="http://purl.org/dc/elements/1.1/" xmlns:cc="http://creativecommons.org/ns#" xmlns:rdf="http://www.w3.org/1999/02/22-rdf-syntax-ns#">
   <cc:Work>
    <dc:type rdf:resource="http://purl.org/dc/dcmitype/StillImage"/>
    <dc:date>2022-10-12T09:48:34.524328</dc:date>
    <dc:format>image/svg+xml</dc:format>
    <dc:creator>
     <cc:Agent>
      <dc:title>Matplotlib v3.5.1, https://matplotlib.org/</dc:title>
     </cc:Agent>
    </dc:creator>
   </cc:Work>
  </rdf:RDF>
 </metadata>
 <defs>
  <style type="text/css">*{stroke-linejoin: round; stroke-linecap: butt}</style>
 </defs>
 <g id="figure_1">
  <g id="patch_1">
   <path d="M 0 530.53875 
L 957.99375 530.53875 
L 957.99375 0 
L 0 0 
z
" style="fill: #ffffff"/>
  </g>
  <g id="axes_1">
   <g id="patch_2">
    <path d="M 57.99375 475.6575 
L 950.79375 475.6575 
L 950.79375 32.1375 
L 57.99375 32.1375 
z
" style="fill: #ffffff"/>
   </g>
   <g id="matplotlib.axis_1">
    <g id="xtick_1">
     <g id="line2d_1">
      <defs>
       <path id="me59b972bf3" d="M 0 0 
L 0 3.5 
" style="stroke: #000000; stroke-width: 0.8"/>
      </defs>
      <g>
       <use xlink:href="#me59b972bf3" x="98.372608" y="475.6575" style="stroke: #000000; stroke-width: 0.8"/>
      </g>
     </g>
     <g id="text_1">
      <!-- 0 -->
      <g transform="translate(93.372608 496.545)scale(0.2 -0.2)">
       <defs>
        <path id="TimesNewRomanPSMT-30" d="M 231 2094 
Q 231 2819 450 3342 
Q 669 3866 1031 4122 
Q 1313 4325 1613 4325 
Q 2100 4325 2488 3828 
Q 2972 3213 2972 2159 
Q 2972 1422 2759 906 
Q 2547 391 2217 158 
Q 1888 -75 1581 -75 
Q 975 -75 572 641 
Q 231 1244 231 2094 
z
M 844 2016 
Q 844 1141 1059 588 
Q 1238 122 1591 122 
Q 1759 122 1940 273 
Q 2122 425 2216 781 
Q 2359 1319 2359 2297 
Q 2359 3022 2209 3506 
Q 2097 3866 1919 4016 
Q 1791 4119 1609 4119 
Q 1397 4119 1231 3928 
Q 1006 3669 925 3112 
Q 844 2556 844 2016 
z
" transform="scale(0.015625)"/>
       </defs>
       <use xlink:href="#TimesNewRomanPSMT-30"/>
      </g>
     </g>
    </g>
    <g id="xtick_2">
     <g id="line2d_2">
      <g>
       <use xlink:href="#me59b972bf3" x="199.852524" y="475.6575" style="stroke: #000000; stroke-width: 0.8"/>
      </g>
     </g>
     <g id="text_2">
      <!-- 5 -->
      <g transform="translate(194.852524 496.545)scale(0.2 -0.2)">
       <defs>
        <path id="TimesNewRomanPSMT-35" d="M 2778 4238 
L 2534 3706 
L 1259 3706 
L 981 3138 
Q 1809 3016 2294 2522 
Q 2709 2097 2709 1522 
Q 2709 1188 2573 903 
Q 2438 619 2231 419 
Q 2025 219 1772 97 
Q 1413 -75 1034 -75 
Q 653 -75 479 54 
Q 306 184 306 341 
Q 306 428 378 495 
Q 450 563 559 563 
Q 641 563 702 538 
Q 763 513 909 409 
Q 1144 247 1384 247 
Q 1750 247 2026 523 
Q 2303 800 2303 1197 
Q 2303 1581 2056 1914 
Q 1809 2247 1375 2428 
Q 1034 2569 447 2591 
L 1259 4238 
L 2778 4238 
z
" transform="scale(0.015625)"/>
       </defs>
       <use xlink:href="#TimesNewRomanPSMT-35"/>
      </g>
     </g>
    </g>
    <g id="xtick_3">
     <g id="line2d_3">
      <g>
       <use xlink:href="#me59b972bf3" x="301.332439" y="475.6575" style="stroke: #000000; stroke-width: 0.8"/>
      </g>
     </g>
     <g id="text_3">
      <!-- 10 -->
      <g transform="translate(291.332439 496.545)scale(0.2 -0.2)">
       <defs>
        <path id="TimesNewRomanPSMT-31" d="M 750 3822 
L 1781 4325 
L 1884 4325 
L 1884 747 
Q 1884 391 1914 303 
Q 1944 216 2037 169 
Q 2131 122 2419 116 
L 2419 0 
L 825 0 
L 825 116 
Q 1125 122 1212 167 
Q 1300 213 1334 289 
Q 1369 366 1369 747 
L 1369 3034 
Q 1369 3497 1338 3628 
Q 1316 3728 1258 3775 
Q 1200 3822 1119 3822 
Q 1003 3822 797 3725 
L 750 3822 
z
" transform="scale(0.015625)"/>
       </defs>
       <use xlink:href="#TimesNewRomanPSMT-31"/>
       <use xlink:href="#TimesNewRomanPSMT-30" x="50"/>
      </g>
     </g>
    </g>
    <g id="xtick_4">
     <g id="line2d_4">
      <g>
       <use xlink:href="#me59b972bf3" x="402.812355" y="475.6575" style="stroke: #000000; stroke-width: 0.8"/>
      </g>
     </g>
     <g id="text_4">
      <!-- 15 -->
      <g transform="translate(392.812355 496.545)scale(0.2 -0.2)">
       <use xlink:href="#TimesNewRomanPSMT-31"/>
       <use xlink:href="#TimesNewRomanPSMT-35" x="50"/>
      </g>
     </g>
    </g>
    <g id="xtick_5">
     <g id="line2d_5">
      <g>
       <use xlink:href="#me59b972bf3" x="504.29227" y="475.6575" style="stroke: #000000; stroke-width: 0.8"/>
      </g>
     </g>
     <g id="text_5">
      <!-- 20 -->
      <g transform="translate(494.29227 496.545)scale(0.2 -0.2)">
       <defs>
        <path id="TimesNewRomanPSMT-32" d="M 2934 816 
L 2638 0 
L 138 0 
L 138 116 
Q 1241 1122 1691 1759 
Q 2141 2397 2141 2925 
Q 2141 3328 1894 3587 
Q 1647 3847 1303 3847 
Q 991 3847 742 3664 
Q 494 3481 375 3128 
L 259 3128 
Q 338 3706 661 4015 
Q 984 4325 1469 4325 
Q 1984 4325 2329 3994 
Q 2675 3663 2675 3213 
Q 2675 2891 2525 2569 
Q 2294 2063 1775 1497 
Q 997 647 803 472 
L 1909 472 
Q 2247 472 2383 497 
Q 2519 522 2628 598 
Q 2738 675 2819 816 
L 2934 816 
z
" transform="scale(0.015625)"/>
       </defs>
       <use xlink:href="#TimesNewRomanPSMT-32"/>
       <use xlink:href="#TimesNewRomanPSMT-30" x="50"/>
      </g>
     </g>
    </g>
    <g id="xtick_6">
     <g id="line2d_6">
      <g>
       <use xlink:href="#me59b972bf3" x="605.772186" y="475.6575" style="stroke: #000000; stroke-width: 0.8"/>
      </g>
     </g>
     <g id="text_6">
      <!-- 25 -->
      <g transform="translate(595.772186 496.545)scale(0.2 -0.2)">
       <use xlink:href="#TimesNewRomanPSMT-32"/>
       <use xlink:href="#TimesNewRomanPSMT-35" x="50"/>
      </g>
     </g>
    </g>
    <g id="xtick_7">
     <g id="line2d_7">
      <g>
       <use xlink:href="#me59b972bf3" x="707.252101" y="475.6575" style="stroke: #000000; stroke-width: 0.8"/>
      </g>
     </g>
     <g id="text_7">
      <!-- 30 -->
      <g transform="translate(697.252101 496.545)scale(0.2 -0.2)">
       <defs>
        <path id="TimesNewRomanPSMT-33" d="M 325 3431 
Q 506 3859 782 4092 
Q 1059 4325 1472 4325 
Q 1981 4325 2253 3994 
Q 2459 3747 2459 3466 
Q 2459 3003 1878 2509 
Q 2269 2356 2469 2072 
Q 2669 1788 2669 1403 
Q 2669 853 2319 450 
Q 1863 -75 997 -75 
Q 569 -75 414 31 
Q 259 138 259 259 
Q 259 350 332 419 
Q 406 488 509 488 
Q 588 488 669 463 
Q 722 447 909 348 
Q 1097 250 1169 231 
Q 1284 197 1416 197 
Q 1734 197 1970 444 
Q 2206 691 2206 1028 
Q 2206 1275 2097 1509 
Q 2016 1684 1919 1775 
Q 1784 1900 1550 2001 
Q 1316 2103 1072 2103 
L 972 2103 
L 972 2197 
Q 1219 2228 1467 2375 
Q 1716 2522 1828 2728 
Q 1941 2934 1941 3181 
Q 1941 3503 1739 3701 
Q 1538 3900 1238 3900 
Q 753 3900 428 3381 
L 325 3431 
z
" transform="scale(0.015625)"/>
       </defs>
       <use xlink:href="#TimesNewRomanPSMT-33"/>
       <use xlink:href="#TimesNewRomanPSMT-30" x="50"/>
      </g>
     </g>
    </g>
    <g id="xtick_8">
     <g id="line2d_8">
      <g>
       <use xlink:href="#me59b972bf3" x="808.732016" y="475.6575" style="stroke: #000000; stroke-width: 0.8"/>
      </g>
     </g>
     <g id="text_8">
      <!-- 35 -->
      <g transform="translate(798.732016 496.545)scale(0.2 -0.2)">
       <use xlink:href="#TimesNewRomanPSMT-33"/>
       <use xlink:href="#TimesNewRomanPSMT-35" x="50"/>
      </g>
     </g>
    </g>
    <g id="xtick_9">
     <g id="line2d_9">
      <g>
       <use xlink:href="#me59b972bf3" x="910.211932" y="475.6575" style="stroke: #000000; stroke-width: 0.8"/>
      </g>
     </g>
     <g id="text_9">
      <!-- 40 -->
      <g transform="translate(900.211932 496.545)scale(0.2 -0.2)">
       <defs>
        <path id="TimesNewRomanPSMT-34" d="M 2978 1563 
L 2978 1119 
L 2409 1119 
L 2409 0 
L 1894 0 
L 1894 1119 
L 100 1119 
L 100 1519 
L 2066 4325 
L 2409 4325 
L 2409 1563 
L 2978 1563 
z
M 1894 1563 
L 1894 3666 
L 406 1563 
L 1894 1563 
z
" transform="scale(0.015625)"/>
       </defs>
       <use xlink:href="#TimesNewRomanPSMT-34"/>
       <use xlink:href="#TimesNewRomanPSMT-30" x="50"/>
      </g>
     </g>
    </g>
    <g id="text_10">
     <!-- 时间 [s] -->
     <g transform="translate(464.39375 520.448125)scale(0.2 -0.2)">
      <defs>
       <path id="FangSong-65f6" d="M 1200 725 
Q 1225 -50 1100 125 
L 875 550 
Q 1000 725 975 1125 
L 975 3350 
Q 975 3850 900 4375 
L 975 4400 
L 1150 3925 
L 2275 4100 
L 2400 4325 
L 2700 4100 
L 2525 3875 
Q 2525 1425 2462 837 
Q 2400 250 2325 337 
Q 2250 425 2200 850 
L 1200 725 
z
M 1200 975 
Q 1925 1050 1975 1100 
L 2225 850 
Q 2275 1625 2275 2175 
L 2275 3825 
L 1200 3675 
L 1200 2525 
Q 1875 2600 2025 2700 
L 2250 2400 
Q 1900 2375 1200 2275 
L 1200 975 
z
M 4325 5250 
L 4775 4875 
Q 4625 4775 4650 4300 
L 4650 3100 
Q 5650 3225 5650 3325 
L 6000 3025 
Q 5625 3000 4650 2875 
L 4650 425 
Q 4675 -350 4475 -675 
Q 4225 -325 3400 275 
L 3450 375 
L 4375 -150 
Q 4425 150 4425 425 
L 4425 2850 
Q 3100 2675 2900 2600 
L 2550 2900 
Q 3000 2900 4425 3075 
L 4425 4400 
Q 4450 4925 4250 5175 
L 4325 5250 
z
M 3525 1275 
Q 3325 1850 3050 2450 
L 3125 2500 
Q 3425 2100 3725 1675 
Q 3650 1500 3525 1275 
z
" transform="scale(0.015625)"/>
       <path id="FangSong-95f4" d="M 4150 1450 
L 2525 1300 
Q 2550 800 2450 900 
L 2225 1275 
Q 2300 1400 2300 1650 
L 2300 2875 
Q 2325 3225 2200 3525 
L 2275 3575 
L 2500 3225 
L 3750 3400 
L 3900 3600 
L 4200 3325 
L 4025 3150 
L 3975 1650 
L 4150 1450 
z
M 5000 4925 
L 5325 4675 
L 5175 4475 
L 5175 450 
Q 5175 -325 4975 -650 
Q 4700 -225 3975 500 
L 4050 575 
L 4875 -75 
Q 4925 -75 4950 425 
L 4950 4475 
Q 3075 4275 2925 4250 
L 2550 4475 
Q 2925 4450 4875 4700 
L 5000 4925 
z
M 3775 3150 
L 2525 3000 
L 2525 2375 
Q 3225 2475 3300 2550 
L 3550 2300 
Q 3300 2300 2525 2175 
L 2525 1525 
L 3725 1650 
L 3775 3150 
z
M 1400 -225 
Q 1425 -675 1325 -550 
L 1075 -175 
Q 1175 -25 1175 350 
L 1175 3475 
Q 1175 3900 1025 4225 
L 1100 4275 
L 1475 3875 
Q 1400 3725 1400 3375 
L 1400 -225 
z
M 1425 5175 
Q 1950 4725 2200 4525 
Q 2125 4275 2050 4075 
Q 1875 4425 1350 5100 
L 1425 5175 
z
" transform="scale(0.015625)"/>
       <path id="FangSong-20" transform="scale(0.015625)"/>
       <path id="FangSong-5b" d="M 2725 5100 
L 2725 4875 
L 1475 4875 
L 1475 -225 
L 2725 -225 
L 2725 -450 
L 1225 -450 
L 1225 5100 
L 2725 5100 
z
" transform="scale(0.015625)"/>
       <path id="FangSong-73" d="M 600 2075 
Q 600 2450 887 2650 
Q 1175 2850 1575 2850 
Q 1800 2850 2000 2787 
Q 2200 2725 2275 2725 
Q 2350 2725 2400 2750 
Q 2450 2775 2525 2850 
L 2625 2025 
L 2475 2000 
Q 2375 2325 2137 2512 
Q 1900 2700 1600 2700 
Q 1275 2700 1087 2575 
Q 900 2450 900 2225 
Q 900 2025 987 1912 
Q 1075 1800 1300 1750 
Q 1475 1675 1737 1587 
Q 2000 1500 2225 1400 
Q 2425 1300 2562 1137 
Q 2700 975 2700 775 
Q 2700 400 2437 187 
Q 2175 -25 1675 -25 
Q 1350 -25 1187 37 
Q 1025 100 925 100 
Q 850 100 762 62 
Q 675 25 575 -25 
L 500 900 
L 650 925 
Q 725 525 975 325 
Q 1225 125 1675 125 
Q 2025 125 2212 250 
Q 2400 375 2400 625 
Q 2400 800 2300 912 
Q 2200 1025 2100 1075 
Q 1850 1175 1550 1287 
Q 1250 1400 1025 1500 
Q 800 1600 700 1750 
Q 600 1900 600 2075 
z
" transform="scale(0.015625)"/>
       <path id="FangSong-5d" d="M 1900 -450 
L 400 -450 
L 400 -225 
L 1650 -225 
L 1650 4875 
L 400 4875 
L 400 5100 
L 1900 5100 
L 1900 -450 
z
" transform="scale(0.015625)"/>
      </defs>
      <use xlink:href="#FangSong-65f6"/>
      <use xlink:href="#FangSong-95f4" x="100"/>
      <use xlink:href="#FangSong-20" x="200"/>
      <use xlink:href="#FangSong-5b" x="250"/>
      <use xlink:href="#FangSong-73" x="300"/>
      <use xlink:href="#FangSong-5d" x="350"/>
     </g>
    </g>
   </g>
   <g id="matplotlib.axis_2">
    <g id="ytick_1">
     <g id="line2d_10">
      <defs>
       <path id="mfc714c2b9d" d="M 0 0 
L -3.5 0 
" style="stroke: #000000; stroke-width: 0.8"/>
      </defs>
      <g>
       <use xlink:href="#mfc714c2b9d" x="57.99375" y="460.318062" style="stroke: #000000; stroke-width: 0.8"/>
      </g>
     </g>
     <g id="text_11">
      <!-- −4 -->
      <g transform="translate(29.715625 467.261812)scale(0.2 -0.2)">
       <defs>
        <path id="TimesNewRomanPSMT-2212" d="M 3484 2000 
L 116 2000 
L 116 2256 
L 3484 2256 
L 3484 2000 
z
" transform="scale(0.015625)"/>
       </defs>
       <use xlink:href="#TimesNewRomanPSMT-2212"/>
       <use xlink:href="#TimesNewRomanPSMT-34" x="56.396484"/>
      </g>
     </g>
    </g>
    <g id="ytick_2">
     <g id="line2d_11">
      <g>
       <use xlink:href="#mfc714c2b9d" x="57.99375" y="379.001752" style="stroke: #000000; stroke-width: 0.8"/>
      </g>
     </g>
     <g id="text_12">
      <!-- −3 -->
      <g transform="translate(29.715625 385.945502)scale(0.2 -0.2)">
       <use xlink:href="#TimesNewRomanPSMT-2212"/>
       <use xlink:href="#TimesNewRomanPSMT-33" x="56.396484"/>
      </g>
     </g>
    </g>
    <g id="ytick_3">
     <g id="line2d_12">
      <g>
       <use xlink:href="#mfc714c2b9d" x="57.99375" y="297.685442" style="stroke: #000000; stroke-width: 0.8"/>
      </g>
     </g>
     <g id="text_13">
      <!-- −2 -->
      <g transform="translate(29.715625 304.629192)scale(0.2 -0.2)">
       <use xlink:href="#TimesNewRomanPSMT-2212"/>
       <use xlink:href="#TimesNewRomanPSMT-32" x="56.396484"/>
      </g>
     </g>
    </g>
    <g id="ytick_4">
     <g id="line2d_13">
      <g>
       <use xlink:href="#mfc714c2b9d" x="57.99375" y="216.369132" style="stroke: #000000; stroke-width: 0.8"/>
      </g>
     </g>
     <g id="text_14">
      <!-- −1 -->
      <g transform="translate(29.715625 223.312882)scale(0.2 -0.2)">
       <use xlink:href="#TimesNewRomanPSMT-2212"/>
       <use xlink:href="#TimesNewRomanPSMT-31" x="56.396484"/>
      </g>
     </g>
    </g>
    <g id="ytick_5">
     <g id="line2d_14">
      <g>
       <use xlink:href="#mfc714c2b9d" x="57.99375" y="135.052823" style="stroke: #000000; stroke-width: 0.8"/>
      </g>
     </g>
     <g id="text_15">
      <!-- 0 -->
      <g transform="translate(40.99375 141.996573)scale(0.2 -0.2)">
       <use xlink:href="#TimesNewRomanPSMT-30"/>
      </g>
     </g>
    </g>
    <g id="ytick_6">
     <g id="line2d_15">
      <g>
       <use xlink:href="#mfc714c2b9d" x="57.99375" y="53.736513" style="stroke: #000000; stroke-width: 0.8"/>
      </g>
     </g>
     <g id="text_16">
      <!-- 1 -->
      <g transform="translate(40.99375 60.680263)scale(0.2 -0.2)">
       <use xlink:href="#TimesNewRomanPSMT-31"/>
      </g>
     </g>
    </g>
    <g id="text_17">
     <!-- 位置 [m] -->
     <g transform="translate(22.825 293.8975)rotate(-90)scale(0.2 -0.2)">
      <defs>
       <path id="FangSong-4f4d" d="M 1625 3325 
Q 1250 2725 500 2000 
L 450 2125 
Q 1225 2975 1737 3900 
Q 2250 4825 2200 5100 
L 2300 5125 
L 2550 4625 
Q 2450 4625 2300 4387 
Q 2150 4150 1850 3650 
L 1825 -350 
Q 1825 -725 1725 -550 
L 1475 -100 
Q 1600 0 1600 325 
L 1625 3325 
z
M 4925 2725 
Q 4775 2700 4600 1962 
Q 4425 1225 4175 375 
Q 5500 475 5675 550 
L 6000 250 
Q 5475 250 4062 150 
Q 2650 50 2450 0 
L 2150 250 
Q 2650 250 4000 350 
Q 4275 1350 4425 2112 
Q 4575 2875 4425 3125 
L 4500 3175 
L 4925 2725 
z
M 2375 3350 
Q 2900 3375 4050 3500 
Q 5200 3625 5300 3700 
L 5625 3425 
Q 5250 3400 4062 3287 
Q 2875 3175 2675 3100 
L 2375 3350 
z
M 3575 1375 
Q 3500 1125 3325 925 
Q 3200 1625 2825 2750 
L 2925 2800 
Q 3400 1750 3575 1375 
z
M 3950 3800 
Q 3825 4250 3400 5100 
L 3500 5150 
Q 3950 4575 4150 4275 
Q 4075 4050 3950 3800 
z
" transform="scale(0.015625)"/>
       <path id="FangSong-7f6e" d="M 1575 3650 
Q 1600 3350 1500 3400 
L 1275 3700 
Q 1375 3800 1375 4300 
Q 1375 4825 1300 5050 
L 1375 5100 
L 1575 4775 
L 4800 4975 
L 4950 5200 
L 5225 4950 
L 5050 4750 
L 4975 4075 
L 5150 3875 
L 3025 3725 
L 3350 3525 
Q 3275 3525 3250 3225 
L 3250 3150 
Q 4975 3300 5150 3375 
L 5450 3100 
Q 5000 3100 3250 2925 
L 3225 2425 
L 4200 2525 
L 4350 2700 
L 4625 2425 
L 4450 2275 
L 4325 0 
Q 5475 75 5650 100 
L 5950 -150 
Q 5300 -175 3137 -300 
Q 975 -425 725 -500 
L 450 -200 
Q 750 -225 1975 -150 
L 1875 2050 
Q 1850 2350 1775 2550 
L 1850 2575 
L 2075 2325 
L 3000 2400 
L 3025 2900 
Q 1600 2775 1225 2700 
L 925 2975 
Q 1400 2975 3025 3125 
L 3025 3250 
Q 3050 3600 2950 3700 
L 3000 3725 
L 1575 3650 
z
M 2150 1700 
Q 3475 1825 3775 1875 
L 4050 1675 
Q 3350 1600 2150 1475 
L 2150 1075 
Q 3600 1250 3775 1300 
L 3975 1075 
Q 3600 1050 2175 875 
L 2175 475 
Q 3600 625 3775 675 
L 3975 450 
Q 3600 425 2200 250 
L 2200 -125 
L 4100 0 
L 4225 2300 
L 2150 2100 
L 2150 1700 
z
M 2700 3950 
L 3650 4000 
L 3675 4650 
L 2725 4600 
L 2700 3950 
z
M 4750 4075 
L 4825 4750 
L 3900 4675 
L 3875 4025 
L 4750 4075 
z
M 2500 4575 
L 1600 4525 
L 1600 3875 
L 2475 3925 
L 2500 4575 
z
" transform="scale(0.015625)"/>
       <path id="FangSong-6d" d="M 150 2800 
Q 275 2800 400 2825 
Q 525 2850 600 2900 
L 650 2900 
L 650 2475 
Q 775 2675 925 2762 
Q 1075 2850 1250 2850 
Q 1475 2850 1600 2762 
Q 1725 2675 1750 2475 
Q 1875 2675 2037 2762 
Q 2200 2850 2375 2850 
Q 2675 2850 2787 2675 
Q 2900 2500 2900 2225 
L 2900 325 
Q 2900 225 2950 187 
Q 3000 150 3100 150 
L 3150 150 
L 3150 0 
L 2300 0 
L 2300 150 
L 2350 150 
Q 2450 150 2500 187 
Q 2550 225 2550 325 
L 2550 2200 
Q 2550 2475 2487 2562 
Q 2425 2650 2300 2650 
Q 2125 2650 1987 2525 
Q 1850 2400 1775 2175 
L 1775 325 
Q 1775 225 1825 187 
Q 1875 150 1975 150 
L 2025 150 
L 2025 0 
L 1175 0 
L 1175 150 
L 1225 150 
Q 1325 150 1375 187 
Q 1425 225 1425 325 
L 1425 2200 
Q 1425 2425 1375 2537 
Q 1325 2650 1175 2650 
Q 1000 2650 862 2525 
Q 725 2400 650 2150 
L 650 325 
Q 650 225 700 187 
Q 750 150 850 150 
L 900 150 
L 900 0 
L 50 0 
L 50 150 
L 100 150 
Q 200 150 250 187 
Q 300 225 300 325 
L 300 2500 
Q 300 2575 275 2612 
Q 250 2650 175 2650 
L 75 2650 
L 75 2800 
L 150 2800 
z
" transform="scale(0.015625)"/>
      </defs>
      <use xlink:href="#FangSong-4f4d"/>
      <use xlink:href="#FangSong-7f6e" x="100"/>
      <use xlink:href="#FangSong-20" x="200"/>
      <use xlink:href="#FangSong-5b" x="250"/>
      <use xlink:href="#FangSong-6d" x="300"/>
      <use xlink:href="#FangSong-5d" x="350"/>
     </g>
    </g>
   </g>
   <g id="line2d_16">
    <path d="M 98.575568 135.052861 
L 99.590367 135.125637 
L 103.446604 135.040149 
L 104.664363 134.794505 
L 105.476202 134.445522 
L 106.085082 133.985787 
L 106.896921 133.036455 
L 108.31764 130.944011 
L 114.203475 121.682796 
L 115.421234 119.875157 
L 116.436033 119.115364 
L 118.262672 117.950929 
L 118.871551 117.9421 
L 119.683391 118.205197 
L 120.29227 118.631347 
L 120.90115 119.337677 
L 121.915949 120.992035 
L 122.118909 121.339046 
L 122.321868 121.436868 
L 122.930748 122.2025 
L 128.207703 130.524635 
L 129.425462 132.848106 
L 130.643221 134.601553 
L 132.67282 137.383021 
L 133.687619 139.037381 
L 134.499458 140.813769 
L 135.717217 144.158168 
L 135.920177 144.729584 
L 136.123137 144.934385 
L 136.732016 146.336446 
L 141.400092 159.298167 
L 142.820811 162.736242 
L 143.83561 164.621424 
L 145.053369 166.437796 
L 146.068169 167.653168 
L 147.082968 168.472719 
L 148.300727 169.023767 
L 150.533285 169.811448 
L 155.81024 171.086249 
L 159.666477 174.114206 
L 160.478317 175.07383 
L 161.290156 176.488364 
L 162.304955 178.855129 
L 162.710875 179.846566 
L 162.913835 180.033522 
L 163.522714 181.191442 
L 171.235188 198.80539 
L 174.482545 204.478995 
L 175.497344 206.845625 
L 177.121023 210.873155 
L 177.729902 212.392019 
L 180.7743 220.606367 
L 184.427577 230.018892 
L 185.442376 231.718181 
L 187.066054 233.930334 
L 188.283813 235.223633 
L 189.501572 236.625778 
L 191.125251 238.591995 
L 192.54597 240.226211 
L 197.011086 245.582371 
L 198.431805 247.868469 
L 199.649564 249.341009 
L 201.070283 251.066332 
L 202.288042 252.737752 
L 203.302841 254.605966 
L 204.31764 256.480634 
L 205.129479 257.898367 
L 210.812355 269.198208 
L 211.827154 271.288789 
L 213.247873 273.691868 
L 215.074511 276.901432 
L 216.08931 279.019968 
L 217.104109 281.688216 
L 217.712989 283.398386 
L 217.915949 283.624268 
L 218.727788 285.609069 
L 224.613623 301.529828 
L 225.831382 304.160119 
L 229.484659 311.283161 
L 230.702418 314.208979 
L 231.920177 317.176699 
L 232.934976 319.65537 
L 238.820811 334.946885 
L 239.83561 336.849858 
L 241.865209 339.974871 
L 244.097767 343.528521 
L 245.721446 346.357213 
L 247.142164 348.85036 
L 251.81024 357.402135 
L 252.82504 359.252123 
L 254.245758 361.280358 
L 255.463517 363.108357 
L 257.087196 365.9772 
L 258.507915 368.959894 
L 259.116794 370.040605 
L 260.131594 372.087634 
L 266.220388 385.044524 
L 267.641107 387.320793 
L 269.264786 389.985048 
L 271.497344 394.174405 
L 279.818697 411.263273 
L 281.036456 413.092801 
L 284.283813 417.578511 
L 286.313412 420.665645 
L 286.719331 421.095176 
L 288.74893 424.117186 
L 293.011086 430.391628 
L 294.228845 431.876612 
L 297.476202 435.249297 
L 298.896921 436.883557 
L 306.203475 444.509226 
L 308.638993 446.328578 
L 310.059712 447.486879 
L 311.277471 448.502703 
L 312.69819 449.331899 
L 314.524828 450.385457 
L 318.786985 453.048299 
L 320.410663 453.392204 
L 323.455061 454.374608 
L 325.281699 455.001756 
L 326.499458 454.989158 
L 327.311298 455.054498 
L 330.558655 455.331555 
L 332.385293 455.45286 
L 334.820811 454.630326 
L 337.865209 453.946685 
L 338.474088 453.612025 
L 339.285928 452.884472 
L 340.300727 451.887165 
L 341.315526 450.989688 
L 346.592482 445.650083 
L 347.607281 444.169387 
L 348.82504 442.947636 
L 352.072397 440.124435 
L 352.884236 439.00808 
L 354.101995 437.206764 
L 355.116794 435.814983 
L 360.19079 428.111979 
L 361.205589 426.113423 
L 362.220388 424.615523 
L 364.452947 421.654274 
L 365.467746 419.918805 
L 366.482545 417.659887 
L 367.497344 415.393943 
L 368.309183 413.643982 
L 373.789099 400.451401 
L 374.803898 397.999485 
L 376.021657 395.726302 
L 377.442376 393.142742 
L 379.269014 389.229989 
L 380.486773 385.931519 
L 380.892693 384.775551 
L 381.095653 384.536945 
L 382.110452 381.950189 
L 388.605166 364.513474 
L 390.228845 361.494028 
L 391.852524 358.253879 
L 393.476202 354.468981 
L 394.693961 351.601499 
L 395.708761 349.188167 
L 401.797555 334.047686 
L 402.812355 332.234173 
L 406.262672 326.609647 
L 407.88635 324.027647 
L 409.104109 322.06426 
L 413.975145 314.092294 
L 415.801784 311.679191 
L 418.643221 308.285731 
L 420.46986 306.193326 
L 424.934976 301.192338 
L 426.761615 299.084154 
L 428.791213 297.76831 
L 430.820811 296.649821 
L 432.85041 295.90094 
L 433.662249 295.830573 
L 434.677048 296.068048 
L 435.488887 296.204708 
L 436.300727 296.32641 
L 440.968803 297.215049 
L 442.389522 298.212682 
L 443.81024 298.871823 
L 445.230959 299.566029 
L 446.245758 300.190114 
L 447.057598 301.014627 
L 453.755272 309.393105 
L 454.161192 309.950232 
L 456.19079 313.35172 
L 459.844067 318.234331 
L 460.655906 319.874499 
L 468.36838 337.974443 
L 469.383179 340.291374 
L 470.600938 342.453937 
L 472.021657 344.987935 
L 473.442376 347.915572 
L 474.660135 350.955039 
L 475.471974 353.22481 
L 475.674934 353.458873 
L 476.689733 355.994603 
L 483.184448 373.054608 
L 484.808126 375.92422 
L 486.228845 378.617571 
L 487.852524 382.189501 
L 489.679162 386.229757 
L 492.72356 393.533008 
L 495.970917 401.095464 
L 496.985716 403.004475 
L 498.609395 405.416069 
L 500.233073 407.964524 
L 502.262672 411.082575 
L 508.351467 419.98359 
L 510.381065 422.287617 
L 514.034342 425.591097 
L 515.049141 426.233763 
L 517.890579 427.811072 
L 521.543856 429.99988 
L 524.791213 430.460895 
L 526.211932 430.668215 
L 527.632651 430.728659 
L 528.44449 430.465372 
L 529.459289 429.821093 
L 530.068169 429.51248 
L 531.488887 428.82362 
L 535.548084 426.565677 
L 536.968803 424.951164 
L 537.983602 424.22282 
L 539.607281 423.251909 
L 541.027999 422.016389 
L 541.839839 421.00124 
L 542.854638 419.31036 
L 543.463517 418.454864 
L 544.275357 417.280779 
L 549.552312 408.717461 
L 550.770071 406.30724 
L 551.784871 404.777161 
L 553.611509 402.144356 
L 554.829268 399.931936 
L 555.844067 397.604729 
L 556.655906 395.836125 
L 557.670706 393.585834 
L 565.586139 375.106923 
L 567.006858 372.418052 
L 568.427577 369.131162 
L 569.848295 365.246241 
L 570.254215 364.417351 
L 571.066054 362.348441 
L 577.357809 345.396144 
L 578.575568 342.877577 
L 580.605166 338.863269 
L 583.243644 332.865406 
L 584.055484 331.144077 
L 585.070283 328.765239 
L 589.941319 316.942645 
L 591.362038 314.294315 
L 592.579797 312.612701 
L 594.000515 311.038146 
L 595.827154 309.27332 
L 596.841953 308.685057 
L 598.668591 307.652922 
L 603.133708 305.096218 
L 604.757386 304.895521 
L 608.410663 304.337387 
L 609.222503 304.431295 
L 610.034342 304.805069 
L 611.049141 305.355067 
L 612.46986 306.003411 
L 616.529057 307.959749 
L 618.761615 310.179041 
L 620.994173 311.893173 
L 622.008972 313.011472 
L 622.820811 314.294202 
L 630.330325 328.566483 
L 631.345124 330.800421 
L 632.359923 332.529145 
L 634.186562 335.428622 
L 635.81024 338.6063 
L 636.82504 341.133307 
L 638.042799 344.280921 
L 639.057598 346.898319 
L 645.552312 364.600241 
L 646.973031 367.15172 
L 648.59671 370.128435 
L 650.017429 373.173286 
L 651.641107 376.651967 
L 653.061826 379.825734 
L 658.541742 392.107577 
L 659.556541 393.831964 
L 661.789099 397.414699 
L 664.833496 402.956897 
L 665.036456 403.132982 
L 666.254215 405.308218 
L 670.719331 413.494663 
L 672.54597 416.017837 
L 674.575568 418.118563 
L 677.214046 420.562722 
L 682.896921 424.177433 
L 683.91172 424.7933 
L 687.970917 425.275182 
L 689.594596 425.149623 
L 690.203475 424.940464 
L 691.015314 424.381585 
L 692.030114 423.615114 
L 693.044913 422.944356 
L 697.915949 419.285427 
L 699.336668 417.444695 
L 700.554427 416.34421 
L 701.975145 415.070483 
L 702.989945 413.926654 
L 703.801784 412.65476 
L 711.514257 398.25232 
L 712.529057 396.026407 
L 713.746816 393.964441 
L 715.167534 391.607645 
L 716.588253 388.688414 
L 717.603052 386.046214 
L 718.820811 382.756143 
L 719.83561 380.015954 
L 726.330325 361.435887 
L 727.548084 359.024538 
L 729.171763 355.852217 
L 730.795441 352.141513 
L 732.41912 348.451666 
L 733.839839 345.069326 
L 739.319754 332.015414 
L 740.334553 330.157153 
L 743.175991 325.482411 
L 745.408549 321.629162 
L 745.814469 321.143338 
L 748.655906 316.245197 
L 751.294384 311.818353 
L 753.526942 309.114429 
L 756.97726 305.778788 
L 757.992059 305.08943 
L 762.254215 302.692972 
L 764.689733 301.240172 
L 765.501572 301.320442 
L 766.516372 301.316471 
L 768.95189 301.223201 
L 770.575568 301.714276 
L 771.184448 302.134884 
L 771.996287 302.984411 
L 772.605166 303.708493 
L 773.011086 303.937981 
L 773.822925 304.72119 
L 778.693961 309.772407 
L 780.11468 311.976218 
L 781.332439 313.314903 
L 782.753158 314.826455 
L 783.970917 316.460952 
L 784.782756 317.905465 
L 792.69819 334.275681 
L 793.712989 336.529205 
L 794.930748 338.619831 
L 796.148507 340.765453 
L 797.366266 343.378661 
L 798.584025 346.548072 
L 799.395864 348.900767 
L 799.598824 349.151256 
L 800.410663 351.236687 
L 807.108338 369.594186 
L 808.529057 372.385462 
L 809.949775 375.303765 
L 812.182334 380.603927 
L 813.197133 382.955746 
L 814.211932 385.411511 
L 819.488887 398.689856 
L 820.706646 401.161899 
L 821.924405 402.997177 
L 825.577682 407.864999 
L 831.260558 414.155183 
L 832.275357 415.146342 
L 836.334553 417.438722 
L 838.364152 418.191942 
L 839.175991 418.130355 
L 840.39375 417.937443 
L 841.205589 417.877679 
L 845.873665 417.339316 
L 847.294384 416.296047 
L 848.715103 415.652458 
L 849.526942 415.236275 
L 850.947661 414.150809 
L 851.759501 413.16898 
L 852.7743 411.452296 
L 853.180219 410.717253 
L 853.383179 410.588492 
L 854.195018 409.399455 
L 859.471974 400.599869 
L 860.689733 398.094511 
L 861.704532 396.520427 
L 863.328211 394.107833 
L 864.54597 391.816968 
L 865.560769 389.406224 
L 866.778528 386.37742 
L 867.793327 383.893239 
L 874.693961 365.942745 
L 877.129479 361.077155 
L 878.753158 357.074358 
L 884.233073 341.745925 
L 887.277471 333.282513 
L 888.29227 331.13294 
L 890.118909 328.056501 
L 899.455061 312.480551 
L 901.484659 310.024338 
L 904.732016 306.931049 
L 905.746816 306.285056 
L 909.806012 304.24602 
L 910.211932 304.020699 
L 910.211932 304.020699 
" clip-path="url(#p7d3dfff0a6)" style="fill: none; stroke: #ff0000; stroke-width: 2; stroke-linecap: square"/>
   </g>
   <g id="line2d_17">
    <path d="M 98.575568 135.052266 
L 105.273243 134.985554 
L 106.288042 134.632803 
L 107.505801 133.953732 
L 111.767957 131.387176 
L 115.624194 128.917724 
L 117.450832 127.384596 
L 120.90115 125.056611 
L 132.87578 114.649705 
L 135.311298 111.754808 
L 136.123137 110.86627 
L 136.934976 109.819815 
L 141.603052 103.728941 
L 143.83561 101.442677 
L 147.894807 97.466682 
L 156.62208 86.694172 
L 157.636879 85.628353 
L 158.854638 84.736839 
L 161.290156 83.066217 
L 164.943433 80.499215 
L 168.79967 77.845283 
L 170.423348 76.933888 
L 172.047027 75.795317 
L 173.670706 74.357044 
L 177.729902 70.434338 
L 180.36838 67.457959 
L 182.195018 65.50675 
L 185.848295 62.999854 
L 189.095653 61.236698 
L 192.95189 59.148034 
L 197.011086 56.902826 
L 200.055484 55.757081 
L 202.693961 54.603559 
L 203.91172 54.492441 
L 204.92652 54.346463 
L 210.609395 53.767352 
L 211.624194 53.830914 
L 212.841953 53.713258 
L 214.262672 53.316574 
L 216.08931 52.831417 
L 217.307069 52.830269 
L 218.321868 52.781262 
L 222.584025 52.434657 
L 222.989945 52.446911 
L 225.019543 52.87855 
L 226.237302 52.867991 
L 228.2669 52.591566 
L 230.093539 52.299182 
L 231.514257 52.477854 
L 232.123137 52.499095 
L 232.934976 52.496663 
L 237.197133 52.686849 
L 238.414892 53.246823 
L 239.83561 53.547121 
L 242.880008 53.749652 
L 243.894807 53.854817 
L 244.909606 54.188532 
L 245.721446 54.394758 
L 247.345124 54.803361 
L 250.998401 55.758204 
L 253.230959 57.073394 
L 254.854638 57.676452 
L 256.884236 58.480688 
L 257.696076 59.159725 
L 260.334553 61.790459 
L 264.79967 66.555089 
L 265.814469 67.981812 
L 267.032228 69.224636 
L 271.091424 72.736746 
L 272.106224 74.262804 
L 272.715103 75.258705 
L 273.121023 75.606885 
L 273.729902 76.422484 
L 278.600938 83.722496 
L 279.615737 85.596528 
L 280.630536 86.994382 
L 282.051255 88.480262 
L 284.486773 91.098203 
L 285.501572 92.648541 
L 286.516372 94.202041 
L 287.531171 95.679493 
L 292.605166 103.744227 
L 293.619966 105.746293 
L 294.837725 107.543652 
L 297.273243 110.701757 
L 298.288042 112.520678 
L 302.753158 121.534494 
L 305.797555 127.9417 
L 307.015314 130.811967 
L 308.233073 133.019079 
L 309.856752 135.866792 
L 311.277471 138.817081 
L 312.29227 141.539996 
L 313.104109 143.960497 
L 313.307069 144.2007 
L 314.118909 146.312496 
L 320.613623 164.766588 
L 321.831382 167.265093 
L 324.06394 171.689947 
L 325.484659 175.001726 
L 327.311298 179.413735 
L 331.370494 189.852397 
L 334.617851 197.960504 
L 336.24153 200.733217 
L 337.662249 203.352445 
L 339.894807 208.184279 
L 340.300727 208.869752 
L 341.315526 210.990577 
L 347.81024 225.185016 
L 349.027999 227.20625 
L 350.854638 230.150311 
L 352.884236 234.111567 
L 354.101995 236.419504 
L 355.319754 238.820144 
L 360.59671 249.501017 
L 361.814469 251.530975 
L 363.438147 253.618045 
L 364.858866 255.571671 
L 366.279585 257.523629 
L 373.383179 266.280811 
L 376.630536 268.934641 
L 379.471974 270.979666 
L 380.892693 271.463077 
L 381.501572 271.699982 
L 385.154849 273.299301 
L 386.372608 273.78065 
L 389.417006 273.747541 
L 391.040684 273.778759 
L 392.664363 273.681595 
L 393.476202 273.296915 
L 394.896921 272.453844 
L 395.708761 272.022491 
L 400.376837 269.290773 
L 401.797555 267.737719 
L 403.015314 266.835407 
L 404.436033 265.81216 
L 405.450832 264.857642 
L 406.262672 263.756961 
L 407.277471 261.920662 
L 407.88635 260.985127 
L 408.69819 259.702766 
L 413.772186 250.679452 
L 414.989945 248.128096 
L 416.207703 246.20902 
L 417.831382 243.764277 
L 419.455061 240.868021 
L 420.46986 238.473611 
L 421.687619 235.475821 
L 422.702418 233.0028 
L 429.197133 216.174721 
L 433.662249 207.593602 
L 443.201361 185.178519 
L 447.057598 178.789378 
L 448.681276 175.977039 
L 450.710875 172.285035 
L 455.175991 164.273367 
L 456.39375 162.436934 
L 459.032228 158.84372 
L 461.873665 154.72646 
L 462.279585 154.322263 
L 466.135822 148.543882 
L 467.556541 146.55761 
L 470.195018 143.982243 
L 474.051255 140.896724 
L 475.471974 140.25642 
L 476.080854 139.971631 
L 478.516372 138.666305 
L 480.95189 137.389724 
L 485.214046 137.340737 
L 486.837725 137.661121 
L 487.446604 137.991271 
L 488.258443 138.724689 
L 489.273243 139.681806 
L 490.288042 140.540965 
L 494.956118 145.032818 
L 496.376837 147.052881 
L 497.391636 148.049016 
L 499.421234 149.830722 
L 500.436033 150.97773 
L 501.247873 152.211929 
L 504.90115 158.397809 
L 508.757386 165.25089 
L 509.975145 167.830399 
L 510.989945 169.456399 
L 512.613623 171.925296 
L 513.831382 174.230425 
L 514.846181 176.611747 
L 516.06394 179.594184 
L 516.87578 181.518337 
L 523.979374 199.660803 
L 526.617851 204.948764 
L 528.24153 208.890254 
L 529.662249 213.093074 
L 529.865209 213.711343 
L 530.068169 213.956365 
L 531.082968 216.824057 
L 536.359923 232.485339 
L 537.374723 234.93317 
L 538.389522 236.817382 
L 539.81024 238.996852 
L 543.057598 243.503221 
L 549.146393 251.404052 
L 551.175991 253.479293 
L 554.220388 256.178265 
L 555.235188 257.103635 
L 556.452947 257.954211 
L 557.061826 258.351804 
L 559.700304 260.387115 
L 562.744701 262.679998 
L 567.209818 263.475874 
L 568.021657 263.479012 
L 568.630536 263.264718 
L 569.442376 262.697729 
L 570.254215 262.146779 
L 571.269014 261.548651 
L 575.93709 258.312147 
L 577.357809 256.598902 
L 578.372608 255.783484 
L 580.199247 254.448861 
L 581.822925 252.832296 
L 582.634765 251.636379 
L 587.505801 243.41051 
L 589.535399 239.824091 
L 590.956118 236.763437 
L 591.970917 235.208647 
L 594.203475 232.129292 
L 595.218274 230.390456 
L 596.233073 228.175255 
L 597.450832 225.452639 
L 598.465632 223.236257 
L 605.569226 206.794988 
L 607.598824 203.1769 
L 609.222503 199.647185 
L 610.643221 196.005633 
L 611.049141 195.235043 
L 612.06394 192.779922 
L 618.152735 177.39153 
L 619.167534 175.532274 
L 622.008972 170.735354 
L 624.03857 167.069059 
L 624.44449 166.559436 
L 627.285928 161.466034 
L 630.127365 156.549006 
L 632.156964 153.822276 
L 637.027999 148.404429 
L 640.681276 144.91195 
L 643.319754 142.258675 
L 644.943433 141.621488 
L 646.770071 140.950001 
L 647.784871 140.796445 
L 649.205589 140.838619 
L 649.814469 141.072636 
L 650.626308 141.667292 
L 651.438147 142.232332 
L 652.452947 142.87756 
L 657.121023 146.289129 
L 658.541742 148.027681 
L 659.759501 149.050796 
L 661.180219 150.158239 
L 662.600938 151.633774 
L 663.412777 152.789987 
L 664.427577 154.700879 
L 664.833496 155.51442 
L 665.036456 155.665333 
L 666.051255 157.392568 
L 670.719331 166.079649 
L 671.93709 168.741234 
L 672.95189 170.401303 
L 674.778528 173.164253 
L 676.199247 175.846029 
L 677.214046 178.197849 
L 686.144279 201.416176 
L 687.564997 203.92919 
L 689.188676 206.932231 
L 690.609395 210.014209 
L 692.233073 213.519944 
L 693.653792 216.727096 
L 699.133708 229.138617 
L 700.148507 230.887276 
L 702.989945 235.262201 
L 705.019543 238.576434 
L 705.425462 239.043693 
L 708.67282 244.266593 
L 711.108338 248.060469 
L 713.340896 250.61368 
L 717.806012 254.803653 
L 720.64745 256.793635 
L 724.300727 259.56949 
L 725.315526 259.654359 
L 726.939205 260.000836 
L 728.359923 260.218966 
L 729.983602 260.105506 
L 730.592482 259.838305 
L 731.404321 259.213744 
L 732.21616 258.629636 
L 733.230959 257.968844 
L 738.101995 254.323263 
L 739.522714 252.460989 
L 740.537513 251.539599 
L 741.958232 250.340187 
L 743.175991 248.929438 
L 743.98783 247.652239 
L 745.002629 245.569286 
L 745.408549 244.685237 
L 745.611509 244.512817 
L 746.626308 242.624617 
L 751.700304 232.223665 
L 752.715103 229.886019 
L 753.729902 228.076944 
L 755.556541 224.985146 
L 757.180219 221.556988 
L 758.195018 218.86213 
L 759.412777 215.53516 
L 760.427577 212.739617 
L 766.516372 194.979517 
L 767.531171 192.896613 
L 771.590367 185.345594 
L 772.808126 183.017298 
L 774.025885 180.65774 
L 779.708761 169.370001 
L 780.72356 167.768086 
L 784.173877 162.982409 
L 786.000515 160.507541 
L 786.406435 160.112256 
L 791.277471 153.422637 
L 792.08931 152.464749 
L 794.524828 150.479782 
L 797.163306 148.819479 
L 797.975145 148.565934 
L 798.786985 148.560094 
L 799.801784 148.568382 
L 800.613623 148.50384 
L 805.078739 148.301686 
L 807.514257 149.418454 
L 809.543856 149.973438 
L 810.964575 150.668508 
L 811.776414 151.411843 
L 817.459289 157.844668 
L 818.880008 159.611613 
L 820.300727 162.022645 
L 821.315526 163.229909 
L 822.939205 165.046096 
L 824.156964 166.828911 
L 825.171763 168.817136 
L 834.913835 190.697614 
L 836.537513 193.626722 
L 837.958232 196.752295 
L 839.175991 199.931368 
L 839.98783 202.284431 
L 840.19079 202.532367 
L 841.205589 205.2016 
L 847.294384 222.022781 
L 848.309183 224.052418 
L 851.759501 230.313484 
L 853.383179 233.276451 
L 854.600938 235.532171 
L 859.471974 244.739214 
L 861.298613 247.430201 
L 865.560769 252.490605 
L 871.040684 258.040152 
L 872.258443 259.24538 
L 874.693961 260.358709 
L 876.31764 261.005814 
L 878.144279 261.375193 
L 878.753158 261.2696 
L 879.564997 260.889542 
L 880.376837 260.5178 
L 882.000515 259.882514 
L 886.059712 258.069005 
L 887.480431 256.561159 
L 888.69819 255.73114 
L 889.915949 254.896535 
L 891.133708 253.718815 
L 891.945547 252.586895 
L 892.960346 250.700018 
L 893.366266 249.896191 
L 893.569226 249.74233 
L 894.381065 248.413171 
L 899.658021 238.753402 
L 900.87578 236.081435 
L 901.890579 234.392987 
L 903.514257 231.818576 
L 904.934976 228.980151 
L 905.949775 226.439322 
L 906.964575 223.939477 
L 907.979374 221.421721 
L 910.211932 215.501813 
L 910.211932 215.501813 
" clip-path="url(#p7d3dfff0a6)" style="fill: none; stroke-dasharray: 7.4,3.2; stroke-dashoffset: 0; stroke: #008000; stroke-width: 2"/>
   </g>
   <g id="line2d_18">
    <path d="M 98.575568 67.560286 
L 98.981488 67.779278 
L 99.387408 68.332442 
L 99.996287 69.765066 
L 100.605166 71.911597 
L 101.417006 75.880148 
L 102.634765 82.817167 
L 104.055484 90.760085 
L 104.867323 94.020566 
L 105.273243 94.544013 
L 105.476202 94.550639 
L 105.882122 94.108466 
L 106.288042 93.143136 
L 106.896921 90.797426 
L 107.505801 87.466972 
L 109.535399 74.906506 
L 110.144279 72.574019 
L 110.753158 70.971792 
L 111.159078 70.303895 
L 111.564997 69.955625 
L 111.970917 69.926562 
L 112.376837 70.216331 
L 112.782756 70.825125 
L 113.391636 72.335464 
L 114.000515 74.559542 
L 114.812355 78.630764 
L 116.233073 86.053096 
L 117.450832 91.715537 
L 118.059712 93.812987 
L 118.465632 94.341738 
L 118.871551 94.353212 
L 119.277471 93.855234 
L 119.683391 92.83951 
L 120.29227 90.388543 
L 121.104109 85.673492 
L 122.321868 78.210846 
L 123.133708 74.741817 
L 123.742587 73.011113 
L 124.351467 72.002377 
L 124.757386 71.729466 
L 125.163306 71.775731 
L 125.569226 72.143594 
L 125.975145 72.831345 
L 126.584025 74.459348 
L 127.192904 76.800605 
L 128.004744 80.248276 
L 129.425462 85.647045 
L 130.643221 90.235437 
L 131.252101 91.922982 
L 131.86098 92.961034 
L 132.2669 93.24447 
L 132.67282 93.293098 
L 132.87578 93.170715 
L 133.281699 92.528759 
L 133.687619 91.363019 
L 134.296498 88.729654 
L 135.108338 84.015042 
L 135.920177 79.331569 
L 137.137936 74.784244 
L 137.746816 73.586772 
L 138.152735 73.200225 
L 138.558655 73.133071 
L 138.964575 73.384851 
L 139.370494 73.955107 
L 139.979374 75.408709 
L 140.385293 76.416948 
L 141.400092 78.475742 
L 142.211932 81.021175 
L 143.429691 85.946783 
L 144.44449 89.822514 
L 145.053369 91.528087 
L 145.662249 92.598985 
L 146.068169 92.939388 
L 146.474088 93.009788 
L 146.677048 92.987591 
L 147.082968 92.581465 
L 147.488887 91.690832 
L 148.097767 89.461637 
L 148.909606 85.088933 
L 150.127365 78.052784 
L 150.736245 75.629029 
L 151.345124 73.936356 
L 151.954004 72.962882 
L 152.359923 72.712849 
L 152.765843 72.781749 
L 153.171763 73.169284 
L 153.577682 73.875092 
L 154.186562 75.529549 
L 154.795441 77.89714 
L 157.839839 91.868469 
L 158.448718 93.632626 
L 158.854638 94.308425 
L 159.260558 94.390243 
L 159.666477 93.972148 
L 160.072397 93.043292 
L 160.681276 90.713546 
L 161.290156 87.388142 
L 163.116794 76.245097 
L 163.928634 73.037798 
L 164.537513 71.508955 
L 164.943433 70.899365 
L 165.349353 70.609431 
L 165.755272 70.63871 
L 166.161192 70.98679 
L 166.567112 71.654312 
L 167.175991 73.255712 
L 167.784871 75.571087 
L 168.59671 78.95438 
L 169.611509 82.714755 
L 171.641107 91.011478 
L 172.249987 92.65981 
L 172.655906 93.347586 
L 173.061826 93.657493 
L 173.467746 93.659914 
L 173.873665 93.203368 
L 174.279585 92.199084 
L 174.888465 89.737441 
L 175.700304 85.078326 
L 176.715103 78.874236 
L 177.729902 74.686802 
L 178.338782 73.098828 
L 178.744701 72.452546 
L 179.150621 72.126058 
L 179.556541 72.118887 
L 179.96246 72.43059 
L 180.36838 73.062592 
L 180.97726 74.610497 
L 181.586139 76.87237 
L 182.195018 79.041487 
L 183.209818 82.326053 
L 185.848295 92.225852 
L 186.457175 93.372117 
L 186.863095 93.679496 
L 187.269014 93.676997 
L 187.674934 93.249231 
L 188.080854 92.31182 
L 188.689733 89.973524 
L 189.501572 85.418531 
L 190.922291 76.718189 
L 191.734131 73.419784 
L 192.34301 71.784738 
L 192.74893 71.094168 
L 193.154849 70.723017 
L 193.560769 70.670979 
L 193.966689 70.937731 
L 194.372608 71.522921 
L 194.981488 72.99682 
L 195.590367 75.184398 
L 196.402207 79.20727 
L 197.214046 83.220342 
L 199.040684 90.90934 
L 199.649564 92.738775 
L 200.055484 93.598297 
L 200.461403 93.90927 
L 200.867323 93.878713 
L 201.273243 93.389168 
L 201.679162 92.37772 
L 202.288042 89.906918 
L 203.099881 85.145188 
L 204.31764 77.659745 
L 205.129479 74.197551 
L 205.738359 72.464671 
L 206.347238 71.452159 
L 206.753158 71.176688 
L 207.159078 71.22128 
L 207.564997 71.587218 
L 207.970917 72.272227 
L 208.579797 73.895775 
L 209.188676 76.232468 
L 211.015314 84.196487 
L 212.638993 90.718923 
L 213.247873 92.464425 
L 213.856752 93.529852 
L 214.262672 93.717081 
L 214.465632 93.708294 
L 214.871551 93.293544 
L 215.277471 92.345883 
L 215.88635 89.964117 
L 216.69819 85.351431 
L 217.712989 79.094184 
L 218.727788 74.858157 
L 219.336668 73.2476 
L 219.742587 72.581199 
L 220.148507 72.234509 
L 220.554427 72.207127 
L 220.960346 72.498619 
L 221.366266 73.109366 
L 221.975145 74.625819 
L 222.584025 76.856655 
L 223.192904 79.042805 
L 224.207703 82.398697 
L 226.440262 90.734255 
L 227.049141 92.151056 
L 227.455061 92.711291 
L 227.86098 92.960401 
L 228.2669 92.995984 
L 228.46986 92.958103 
L 228.87578 92.495568 
L 229.281699 91.511236 
L 229.890579 89.120766 
L 230.702418 84.610892 
L 231.717217 78.634197 
L 232.732016 74.688029 
L 233.340896 73.258624 
L 233.746816 72.704614 
L 234.152735 72.469949 
L 234.558655 72.554371 
L 234.964575 72.959492 
L 235.370494 73.684946 
L 235.979374 75.369518 
L 236.588253 77.766987 
L 237.197133 80.114214 
L 238.414892 84.430859 
L 240.03857 90.540065 
L 240.64745 92.178142 
L 241.256329 93.155486 
L 241.662249 93.389871 
L 242.068169 93.395861 
L 242.474088 92.988874 
L 242.880008 92.074114 
L 243.488887 89.77099 
L 244.300727 85.262969 
L 245.518486 78.06994 
L 246.127365 75.540437 
L 246.736245 73.737672 
L 247.345124 72.654817 
L 247.751044 72.332316 
L 248.156964 72.328907 
L 248.562883 72.64423 
L 248.968803 73.277894 
L 249.577682 74.824269 
L 250.186562 77.083975 
L 252.41912 86.633779 
L 253.433919 90.354233 
L 254.042799 92.020094 
L 254.651678 93.056561 
L 255.057598 93.337129 
L 255.463517 93.384886 
L 255.666477 93.3511 
L 256.072397 92.90192 
L 256.478317 91.938368 
L 257.087196 89.561483 
L 257.899035 84.991596 
L 258.913835 78.814856 
L 259.928634 74.67079 
L 260.537513 73.123827 
L 260.943433 72.492065 
L 261.349353 72.17984 
L 261.755272 72.186812 
L 262.161192 72.513016 
L 262.567112 73.160197 
L 263.175991 74.728385 
L 263.784871 77.010057 
L 264.79967 81.13016 
L 266.017429 85.826461 
L 267.235188 90.371508 
L 267.844067 92.035068 
L 268.452947 93.04181 
L 268.858866 93.298558 
L 269.264786 93.331037 
L 269.467746 93.288821 
L 269.873665 92.81599 
L 270.279585 91.81737 
L 270.888465 89.389575 
L 271.700304 84.793186 
L 272.715103 78.664072 
L 273.729902 74.562925 
L 274.338782 73.043199 
L 274.744701 72.429189 
L 275.150621 72.134641 
L 275.556541 72.159269 
L 275.96246 72.504347 
L 276.36838 73.169895 
L 276.97726 74.764798 
L 277.586139 77.072874 
L 278.600938 81.201321 
L 279.818697 85.876981 
L 281.036456 90.519378 
L 281.645336 92.249674 
L 282.254215 93.311053 
L 282.660135 93.578449 
L 283.066054 93.585097 
L 283.471974 93.165836 
L 283.877894 92.229002 
L 284.486773 89.879855 
L 285.298613 85.28394 
L 286.516372 77.982696 
L 287.125251 75.376419 
L 287.734131 73.505029 
L 288.34301 72.35723 
L 288.74893 71.992439 
L 289.154849 71.946955 
L 289.560769 72.220289 
L 289.966689 72.81201 
L 290.575568 74.29553 
L 291.184448 76.492465 
L 294.634765 91.272222 
L 295.243644 92.997878 
L 295.649564 93.770916 
L 296.055484 94.006132 
L 296.258443 93.986776 
L 296.664363 93.555989 
L 297.070283 92.610291 
L 297.679162 90.238955 
L 298.491002 85.564795 
L 299.708761 78.06841 
L 300.5206 74.619039 
L 301.129479 72.885767 
L 301.738359 71.874188 
L 302.144279 71.601616 
L 302.550198 71.648554 
L 302.956118 72.014271 
L 303.362038 72.698256 
L 303.970917 74.319861 
L 304.579797 76.654415 
L 306.406435 84.60551 
L 308.030114 90.962081 
L 308.638993 92.611578 
L 309.044913 93.331499 
L 309.450832 93.682182 
L 309.856752 93.706159 
L 310.262672 93.27952 
L 310.668591 92.323742 
L 311.277471 89.93686 
L 312.08931 85.329328 
L 313.104109 79.099114 
L 314.118909 74.870304 
L 314.727788 73.275819 
L 315.133708 72.615788 
L 315.539627 72.275318 
L 315.945547 72.254103 
L 316.351467 72.551752 
L 316.757386 73.168825 
L 317.366266 74.694146 
L 317.975145 76.933403 
L 318.786985 80.247186 
L 320.004744 84.692936 
L 321.628422 90.904946 
L 322.237302 92.520353 
L 322.643221 93.211071 
L 323.049141 93.553645 
L 323.455061 93.609545 
L 323.86098 93.229164 
L 324.2669 92.326966 
L 324.67282 90.906972 
L 325.281699 87.906373 
L 327.311298 76.384211 
L 327.920177 74.288732 
L 328.529057 72.915356 
L 328.934976 72.401723 
L 329.340896 72.208379 
L 329.746816 72.334244 
L 330.152735 72.778726 
L 330.558655 73.541326 
L 331.167534 75.280534 
L 331.776414 77.732233 
L 332.791213 82.12356 
L 335.632651 92.447947 
L 336.24153 93.476863 
L 336.64745 93.669957 
L 336.85041 93.671256 
L 337.256329 93.29368 
L 337.662249 92.410117 
L 338.068169 91.02074 
L 338.677048 88.061071 
L 339.691847 81.54735 
L 340.503687 76.929043 
L 341.315526 73.584226 
L 341.924405 71.918775 
L 342.533285 70.974164 
L 342.939205 70.74662 
L 343.345124 70.838978 
L 343.751044 71.250174 
L 344.156964 71.979599 
L 344.765843 73.669212 
L 345.374723 76.071537 
L 346.998401 83.27368 
L 349.230959 92.058413 
L 349.839839 93.447703 
L 350.245758 93.880519 
L 350.651678 93.89985 
L 351.057598 93.45046 
L 351.463517 92.470151 
L 352.072397 90.033336 
L 352.884236 85.312989 
L 354.101995 77.866617 
L 354.710875 75.180023 
L 355.319754 73.236381 
L 355.928634 72.011926 
L 356.334553 71.59766 
L 356.740473 71.503427 
L 357.146393 71.728238 
L 357.552312 72.271523 
L 358.161192 73.682475 
L 358.770071 75.806942 
L 362.423348 91.140802 
L 363.032228 92.835507 
L 363.438147 93.586492 
L 363.844067 93.844557 
L 364.047027 93.850705 
L 364.452947 93.477219 
L 364.858866 92.584361 
L 365.264786 91.171229 
L 365.873665 88.169876 
L 367.903264 76.528256 
L 368.512143 74.383034 
L 369.121023 72.964126 
L 369.526942 72.417877 
L 369.932862 72.191117 
L 370.338782 72.285498 
L 370.744701 72.699828 
L 371.150621 73.43264 
L 371.759501 75.127371 
L 372.36838 77.534722 
L 373.383179 81.835363 
L 374.803898 87.452141 
L 375.818697 91.09779 
L 376.427577 92.642712 
L 376.833496 93.290477 
L 377.239416 93.588981 
L 377.645336 93.635796 
L 378.051255 93.254405 
L 378.457175 92.34909 
L 379.066054 90.035594 
L 379.877894 85.496163 
L 381.095653 78.315263 
L 381.704532 75.741585 
L 382.313412 73.920377 
L 382.922291 72.816871 
L 383.328211 72.480547 
L 383.734131 72.465133 
L 384.14005 72.770008 
L 384.54597 73.393578 
L 385.154849 74.92481 
L 385.763729 77.169156 
L 386.778528 81.220345 
L 387.996287 85.825589 
L 389.214046 90.36923 
L 389.822925 92.058486 
L 390.431805 93.100632 
L 390.837725 93.370503 
L 391.243644 93.408264 
L 391.649564 93.023759 
L 392.055484 92.127507 
L 392.664363 89.844469 
L 393.476202 85.354996 
L 394.693961 78.230114 
L 395.302841 75.700128 
L 395.91172 73.912993 
L 396.5206 72.844454 
L 396.92652 72.533506 
L 397.332439 72.542095 
L 397.738359 72.869499 
L 398.144279 73.515201 
L 398.753158 75.079439 
L 399.362038 77.356711 
L 401.391636 86.019118 
L 402.609395 90.801107 
L 403.421234 93.083305 
L 403.827154 93.783292 
L 404.233073 93.988693 
L 404.436033 93.964509 
L 404.841953 93.532722 
L 405.247873 92.594619 
L 405.856752 90.251643 
L 406.668591 85.629351 
L 407.88635 78.223634 
L 408.69819 74.819095 
L 409.307069 73.123863 
L 409.915949 72.148279 
L 410.321868 71.898331 
L 410.727788 71.969523 
L 411.133708 72.35988 
L 411.539627 73.068567 
L 412.148507 74.727164 
L 412.757386 77.098566 
L 413.772186 81.36426 
L 415.192904 86.969121 
L 416.207703 90.640026 
L 416.816583 92.230605 
L 417.222503 92.923965 
L 417.628422 93.284304 
L 418.034342 93.354968 
L 418.237302 93.328721 
L 418.643221 92.890162 
L 419.049141 91.936864 
L 419.658021 89.586198 
L 420.46986 85.089844 
L 421.484659 79.062584 
L 422.296498 75.672557 
L 422.905378 73.965734 
L 423.514257 72.975532 
L 423.920177 72.714494 
L 424.326097 72.772573 
L 424.732016 73.150781 
L 425.137936 73.848785 
L 425.746816 75.491914 
L 426.355695 77.847886 
L 426.964575 80.167965 
L 428.182334 84.477715 
L 429.806012 90.568957 
L 430.414892 92.19188 
L 431.023771 93.151697 
L 431.429691 93.380875 
L 431.83561 93.399381 
L 432.24153 93.007856 
L 432.64745 92.115534 
L 433.256329 89.843756 
L 434.068169 85.367027 
L 435.285928 78.246678 
L 435.894807 75.718268 
L 436.503687 73.931152 
L 437.112566 72.863419 
L 437.518486 72.552828 
L 437.924405 72.561697 
L 438.330325 72.889364 
L 438.736245 73.535335 
L 439.345124 75.100001 
L 439.954004 77.377742 
L 441.983602 86.047167 
L 443.201361 90.828539 
L 444.0132 93.118668 
L 444.41912 93.816411 
L 444.82504 94.005027 
L 445.027999 93.970568 
L 445.433919 93.508216 
L 445.839839 92.529175 
L 446.448718 90.111213 
L 447.260558 85.402058 
L 448.478317 77.903704 
L 449.290156 74.453287 
L 449.899035 72.71929 
L 450.507915 71.706827 
L 450.913835 71.43335 
L 451.319754 71.479319 
L 451.725674 71.844053 
L 452.131594 72.527057 
L 452.740473 74.147206 
L 453.349353 76.480335 
L 455.175991 84.455082 
L 456.79967 90.864161 
L 457.408549 92.54436 
L 458.017429 93.53403 
L 458.423348 93.715973 
L 458.626308 93.707657 
L 459.032228 93.298467 
L 459.438147 92.366021 
L 460.047027 90.019923 
L 460.858866 85.452966 
L 462.076625 78.264734 
L 462.685505 75.681778 
L 463.294384 73.855803 
L 463.903264 72.747719 
L 464.309183 72.408376 
L 464.715103 72.388279 
L 465.121023 72.689061 
L 465.526942 73.309374 
L 466.135822 74.836066 
L 466.744701 77.075953 
L 467.759501 81.110574 
L 468.97726 85.701644 
L 470.195018 90.2651 
L 470.803898 91.97329 
L 471.412777 93.037621 
L 471.818697 93.322928 
L 472.224617 93.372811 
L 472.630536 92.999808 
L 473.036456 92.115579 
L 473.645336 89.855233 
L 474.457175 85.405508 
L 475.674934 78.340717 
L 476.283813 75.840056 
L 476.892693 74.083729 
L 477.501572 73.045336 
L 477.907492 72.754319 
L 478.313412 72.782778 
L 478.719331 73.130011 
L 479.125251 73.795501 
L 479.734131 75.389328 
L 480.34301 77.696055 
L 481.357809 81.86908 
L 482.778528 87.355088 
L 483.793327 90.943144 
L 484.402207 92.487566 
L 484.808126 93.151577 
L 485.214046 93.483562 
L 485.619966 93.558363 
L 485.822925 93.537882 
L 486.228845 93.110458 
L 486.634765 92.167388 
L 487.243644 89.813484 
L 488.055484 85.246118 
L 489.273243 78.073299 
L 489.882122 75.498637 
L 490.491002 73.677677 
L 491.099881 72.575003 
L 491.505801 72.239279 
L 491.91172 72.223122 
L 492.31764 72.527888 
L 492.72356 73.151801 
L 493.332439 74.683779 
L 493.941319 76.928973 
L 495.767957 84.616723 
L 497.594596 91.668367 
L 498.203475 93.20161 
L 498.609395 93.746625 
L 499.015314 93.834936 
L 499.218274 93.793732 
L 499.624194 93.330143 
L 500.030114 92.360688 
L 500.638993 89.970607 
L 501.450832 85.312039 
L 502.668591 77.918258 
L 503.480431 74.540615 
L 504.08931 72.860625 
L 504.69819 71.90272 
L 505.104109 71.664979 
L 505.510029 71.746479 
L 505.915949 72.146655 
L 506.321868 72.865034 
L 506.930748 74.538115 
L 507.539627 76.923989 
L 509.366266 85.039916 
L 510.786985 90.761143 
L 511.395864 92.582348 
L 512.004744 93.741889 
L 512.410663 93.956344 
L 512.613623 93.943347 
L 513.019543 93.522921 
L 513.425462 92.581352 
L 514.034342 90.208008 
L 514.846181 85.56086 
L 516.06394 78.179155 
L 516.67282 75.507936 
L 517.281699 73.586862 
L 517.890579 72.384589 
L 518.296498 71.982659 
L 518.702418 71.901158 
L 519.108338 72.14037 
L 519.514257 72.698454 
L 520.123137 74.131707 
L 520.732016 76.278405 
L 522.558655 83.702429 
L 524.385293 90.753065 
L 524.994173 92.3795 
L 525.400092 93.092786 
L 525.806012 93.4688 
L 526.211932 93.577196 
L 526.617851 93.519262 
L 527.023771 93.032188 
L 527.429691 92.023733 
L 528.03857 89.589539 
L 528.85041 85.00282 
L 529.865209 78.916427 
L 530.677048 75.469859 
L 531.285928 73.727933 
L 531.894807 72.701345 
L 532.300727 72.415931 
L 532.706646 72.45055 
L 533.112566 72.80572 
L 533.518486 73.479576 
L 534.127365 75.086048 
L 534.736245 77.405305 
L 535.751044 81.54171 
L 536.968803 86.217838 
L 538.389522 91.618169 
L 538.998401 93.215341 
L 539.404321 93.797971 
L 539.81024 93.892793 
L 540.0132 93.845437 
L 540.41912 93.379606 
L 540.82504 92.408406 
L 541.433919 90.014966 
L 542.245758 85.37062 
L 543.463517 78.008529 
L 544.275357 74.652708 
L 544.884236 72.987224 
L 545.493116 72.045045 
L 545.899035 71.817187 
L 546.304955 71.908475 
L 546.710875 72.318412 
L 547.116794 73.04655 
L 547.725674 74.734284 
L 548.334553 77.134831 
L 550.364152 86.195182 
L 551.581911 91.005402 
L 552.19079 92.772179 
L 552.59671 93.585009 
L 553.002629 93.864626 
L 553.205589 93.873394 
L 553.408549 93.749633 
L 553.814469 93.110092 
L 554.220388 91.956624 
L 554.829268 89.3005 
L 555.641107 84.391397 
L 556.655906 77.960016 
L 557.467746 74.219147 
L 558.076625 72.265126 
L 558.685505 71.034786 
L 559.091424 70.614611 
L 559.497344 70.513749 
L 559.903264 70.731752 
L 560.309183 71.268191 
L 560.918063 72.668888 
L 561.526942 74.783148 
L 562.338782 78.70811 
L 562.947661 81.683714 
L 565.586139 92.41467 
L 566.195018 93.851871 
L 566.600938 94.145256 
L 566.803898 94.135283 
L 567.209818 93.716128 
L 567.615737 92.772422 
L 568.224617 90.389293 
L 569.036456 85.715654 
L 570.254215 78.28032 
L 570.863095 75.572235 
L 571.471974 73.619885 
L 572.080854 72.386447 
L 572.486773 71.963801 
L 572.892693 71.860549 
L 573.298613 72.077039 
L 573.704532 72.614024 
L 574.313412 74.016396 
L 574.922291 76.132397 
L 576.74893 83.428059 
L 578.778528 91.163775 
L 579.387408 92.648369 
L 579.793327 93.245942 
L 580.199247 93.507681 
L 580.605166 93.524685 
L 581.011086 93.112278 
L 581.417006 92.181498 
L 582.025885 89.852144 
L 582.837725 85.34815 
L 584.055484 78.294159 
L 584.664363 75.796095 
L 585.273243 74.050284 
L 585.882122 73.019637 
L 586.288042 72.732842 
L 586.693961 72.76646 
L 587.099881 73.119073 
L 587.505801 73.789973 
L 588.11468 75.391853 
L 588.72356 77.706505 
L 589.738359 81.879946 
L 590.956118 86.598209 
L 592.173877 91.156169 
L 592.782756 92.804446 
L 593.188676 93.534906 
L 593.594596 93.787904 
L 594.000515 93.761871 
L 594.406435 93.304466 
L 594.812355 92.334857 
L 595.421234 89.945953 
L 596.233073 85.317672 
L 597.450832 78.002052 
L 598.059712 75.365608 
L 598.668591 73.475652 
L 599.277471 72.30487 
L 599.683391 71.923911 
L 600.08931 71.864108 
L 600.49523 72.124207 
L 600.90115 72.702974 
L 601.510029 74.167165 
L 602.118909 76.344768 
L 604.351467 85.580618 
L 605.569226 90.288093 
L 606.178105 92.065738 
L 606.786985 93.20218 
L 607.192904 93.540738 
L 607.598824 93.617731 
L 607.801784 93.502085 
L 608.207703 92.885298 
L 608.613623 91.751871 
L 609.222503 89.138029 
L 610.034342 84.335555 
L 610.846181 79.429407 
L 611.658021 75.907872 
L 612.2669 74.097239 
L 612.87578 73.006468 
L 613.281699 72.679857 
L 613.687619 72.672524 
L 614.093539 72.983948 
L 614.499458 73.61367 
L 615.108338 75.153971 
L 615.717217 77.407368 
L 617.746816 85.999486 
L 618.964575 90.76532 
L 619.776414 93.043401 
L 620.182334 93.742155 
L 620.588253 93.961418 
L 620.791213 93.949125 
L 621.197133 93.529976 
L 621.603052 92.592691 
L 622.211932 90.232599 
L 623.023771 85.595206 
L 624.24153 78.200051 
L 624.85041 75.521975 
L 625.459289 73.592118 
L 626.068169 72.381345 
L 626.474088 71.973783 
L 626.880008 71.886544 
L 627.285928 72.11999 
L 627.691847 72.672308 
L 628.300727 74.096933 
L 628.909606 76.235036 
L 630.939205 84.477492 
L 632.359923 90.054557 
L 633.171763 92.349415 
L 633.577682 93.065335 
L 633.983602 93.444612 
L 634.389522 93.539677 
L 634.592482 93.520652 
L 634.998401 93.093258 
L 635.404321 92.147579 
L 636.0132 89.798922 
L 636.82504 85.277049 
L 638.042799 78.219411 
L 638.651678 75.713592 
L 639.260558 73.961995 
L 639.869437 72.92619 
L 640.275357 72.634997 
L 640.681276 72.664837 
L 641.087196 73.014104 
L 641.493116 73.681782 
L 642.101995 75.278909 
L 642.710875 77.588863 
L 643.725674 81.746304 
L 644.943433 86.442873 
L 646.161192 91.000653 
L 646.770071 92.657455 
L 647.378951 93.642021 
L 647.784871 93.807713 
L 647.98783 93.791629 
L 648.39375 93.371535 
L 648.79967 92.43673 
L 649.408549 90.091678 
L 650.220388 85.493678 
L 651.438147 78.15586 
L 652.047027 75.518029 
L 652.655906 73.620867 
L 653.264786 72.443185 
L 653.670706 72.059711 
L 654.076625 71.996115 
L 654.482545 72.251497 
L 654.888465 72.82531 
L 655.497344 74.281982 
L 656.106224 76.452075 
L 658.338782 85.685163 
L 659.556541 90.351654 
L 660.16542 92.089064 
L 660.7743 93.175053 
L 661.180219 93.47679 
L 661.586139 93.542039 
L 661.992059 93.183824 
L 662.397978 92.314336 
L 662.803898 90.936971 
L 663.412777 88.015089 
L 665.442376 76.727924 
L 666.051255 74.703478 
L 666.660135 73.398605 
L 667.066054 72.930013 
L 667.471974 72.781472 
L 667.877894 72.952026 
L 668.283813 73.441113 
L 668.689733 74.24824 
L 669.298613 76.054074 
L 670.110452 79.510257 
L 672.54597 88.7537 
L 673.357809 91.342638 
L 673.966689 92.656794 
L 674.372608 93.147867 
L 674.778528 93.328659 
L 675.184448 93.336395 
L 675.590367 92.922758 
L 675.996287 92.001945 
L 676.605166 89.698828 
L 677.417006 85.230344 
L 678.634765 78.229139 
L 679.243644 75.740576 
L 679.852524 74.007511 
L 680.461403 72.991458 
L 680.867323 72.713263 
L 681.273243 72.754584 
L 681.679162 73.116539 
L 682.085082 73.79743 
L 682.693961 75.4146 
L 683.302841 77.74465 
L 684.31764 81.932963 
L 685.535399 86.654016 
L 686.753158 91.142861 
L 687.362038 92.733747 
L 687.767957 93.420107 
L 688.173877 93.741609 
L 688.579797 93.751618 
L 688.985716 93.318466 
L 689.391636 92.368483 
L 690.000515 89.999174 
L 690.812355 85.3742 
L 692.030114 78.024206 
L 692.638993 75.386975 
L 693.247873 73.488771 
L 693.856752 72.310906 
L 694.262672 71.926926 
L 694.668591 71.862447 
L 695.074511 72.116845 
L 695.480431 72.689647 
L 696.08931 74.144789 
L 696.69819 76.313347 
L 700.351467 91.783148 
L 700.960346 93.393915 
L 701.366266 93.965915 
L 701.772186 94.028433 
L 702.178105 93.602727 
L 702.584025 92.658771 
L 703.192904 90.287129 
L 704.004744 85.616892 
L 705.222503 78.125314 
L 706.034342 74.679187 
L 706.643221 72.948507 
L 707.252101 71.939163 
L 707.658021 71.667525 
L 708.06394 71.715254 
L 708.46986 72.081716 
L 708.87578 72.76642 
L 709.484659 74.389061 
L 710.093539 76.7246 
L 711.920177 84.69787 
L 713.543856 91.093268 
L 714.152735 92.756329 
L 714.558655 93.478604 
L 714.964575 93.824114 
L 715.370494 93.836418 
L 715.776414 93.389986 
L 716.182334 92.420232 
L 716.791213 90.020232 
L 717.603052 85.398229 
L 718.820811 78.168404 
L 719.429691 75.567553 
L 720.03857 73.724973 
L 720.64745 72.59937 
L 721.053369 72.248283 
L 721.459289 72.216461 
L 721.865209 72.505506 
L 722.271128 73.113857 
L 722.880008 74.6225 
L 723.488887 76.844295 
L 725.315526 84.430962 
L 727.142164 91.576171 
L 727.751044 93.186245 
L 728.156964 93.77466 
L 728.562883 93.875779 
L 728.765843 93.833344 
L 729.171763 93.357264 
L 729.577682 92.363761 
L 730.186562 89.93064 
L 730.998401 85.230616 
L 732.21616 77.814217 
L 732.82504 75.14278 
L 733.433919 73.21233 
L 734.042799 72.000989 
L 734.448718 71.595068 
L 734.854638 71.50904 
L 735.260558 71.74201 
L 735.666477 72.293429 
L 736.275357 73.716552 
L 736.884236 75.85315 
L 740.740473 91.918582 
L 741.349353 93.373021 
L 741.755272 93.863148 
L 742.161192 93.926309 
L 742.567112 93.523264 
L 742.973031 92.607273 
L 743.581911 90.280616 
L 744.39375 85.685604 
L 745.611509 78.324408 
L 746.220388 75.674869 
L 746.829268 73.768593 
L 747.438147 72.580835 
L 747.844067 72.19059 
L 748.249987 72.120425 
L 748.655906 72.369283 
L 749.061826 72.936573 
L 749.670706 74.383432 
L 750.279585 76.543662 
L 752.309183 84.852631 
L 753.729902 90.352911 
L 754.338782 92.102521 
L 754.947661 93.210104 
L 755.353581 93.524399 
L 755.759501 93.586756 
L 755.96246 93.554681 
L 756.36838 93.101406 
L 756.7743 92.130251 
L 757.383179 89.749596 
L 758.195018 85.205491 
L 759.209818 79.111577 
L 760.021657 75.655283 
L 760.630536 73.90728 
L 761.239416 72.875005 
L 761.645336 72.585872 
L 762.051255 72.616463 
L 762.457175 72.967583 
L 762.863095 73.637486 
L 763.471974 75.238087 
L 764.080854 77.551516 
L 765.095653 81.694707 
L 766.313412 86.377789 
L 767.531171 91.002379 
L 768.14005 92.711712 
L 768.74893 93.748813 
L 769.154849 93.912977 
L 769.357809 93.881552 
L 769.763729 93.430769 
L 770.169649 92.465104 
L 770.778528 90.073538 
L 771.590367 85.42139 
L 772.808126 78.031668 
L 773.619966 74.657838 
L 774.228845 72.979411 
L 774.837725 72.023849 
L 775.243644 71.786825 
L 775.649564 71.868915 
L 776.055484 72.269646 
L 776.461403 72.988572 
L 777.070283 74.662474 
L 777.679162 77.049173 
L 779.708761 86.052533 
L 780.92652 90.896707 
L 781.535399 92.696233 
L 781.941319 93.525258 
L 782.347238 93.81967 
L 782.753158 93.801601 
L 783.159078 93.340786 
L 783.564997 92.364425 
L 784.173877 89.958321 
L 784.985716 85.295197 
L 786.203475 77.92062 
L 786.812355 75.268572 
L 787.421234 73.358797 
L 788.030114 72.168055 
L 788.436033 71.775926 
L 788.841953 71.703827 
L 789.247873 71.950747 
L 789.653792 72.516111 
L 790.262672 73.960126 
L 790.871551 76.117578 
L 794.524828 91.559276 
L 795.133708 93.198517 
L 795.539627 93.804049 
L 795.945547 93.923014 
L 796.148507 93.891379 
L 796.554427 93.437844 
L 796.960346 92.469168 
L 797.569226 90.068761 
L 798.381065 85.41702 
L 799.598824 78.09034 
L 800.207703 75.439521 
L 800.816583 73.544062 
L 801.425462 72.366989 
L 801.831382 71.981796 
L 802.237302 71.915933 
L 802.643221 72.17016 
L 803.049141 72.744404 
L 803.658021 74.202296 
L 804.2669 76.373616 
L 806.093539 83.845489 
L 807.920177 90.962421 
L 808.529057 92.601363 
L 808.934976 93.315266 
L 809.340896 93.662615 
L 809.746816 93.711293 
L 810.152735 93.317873 
L 810.558655 92.406456 
L 811.167534 90.091078 
L 811.979374 85.549018 
L 813.197133 78.322573 
L 813.806012 75.752083 
L 814.414892 73.923314 
L 815.023771 72.813877 
L 815.429691 72.474344 
L 815.83561 72.454027 
L 816.24153 72.752459 
L 816.64745 73.36919 
L 817.256329 74.890003 
L 817.865209 77.123907 
L 819.691847 84.805442 
L 821.315526 91.104376 
L 821.924405 92.78048 
L 822.330325 93.532293 
L 822.736245 93.792663 
L 823.142164 93.768813 
L 823.548084 93.31221 
L 823.954004 92.345105 
L 824.562883 89.95941 
L 825.374723 85.33053 
L 826.592482 78.013831 
L 827.201361 75.378731 
L 827.81024 73.490872 
L 828.41912 72.321651 
L 828.82504 71.941771 
L 829.230959 71.883144 
L 829.636879 72.144199 
L 830.042799 72.723851 
L 830.651678 74.189309 
L 831.260558 76.368127 
L 833.290156 84.748397 
L 834.710875 90.328416 
L 835.319754 92.119294 
L 835.928634 93.266501 
L 836.334553 93.608499 
L 836.740473 93.678304 
L 837.146393 93.308058 
L 837.552312 92.421801 
L 837.958232 91.025703 
L 838.567112 88.075153 
L 840.59671 76.709466 
L 841.205589 74.66642 
L 841.814469 73.340956 
L 842.220388 72.85842 
L 842.626308 72.695887 
L 843.032228 72.852444 
L 843.438147 73.32754 
L 843.844067 74.120678 
L 844.452947 75.90553 
L 845.061826 78.402645 
L 846.076625 82.863139 
L 848.715103 92.718623 
L 849.121023 93.595077 
L 849.526942 93.914491 
L 849.932862 93.890923 
L 850.338782 93.421947 
L 850.744701 92.441588 
L 851.353581 90.03227 
L 852.16542 85.355876 
L 853.383179 77.949428 
L 854.195018 74.54627 
L 854.803898 72.853022 
L 855.412777 71.87909 
L 855.818697 71.629828 
L 856.224617 71.701554 
L 856.630536 72.092528 
L 857.036456 72.801845 
L 857.645336 74.461367 
L 858.254215 76.83366 
L 860.080854 84.894416 
L 861.704532 91.404589 
L 862.313412 93.0979 
L 862.719331 93.741508 
L 863.125251 93.886647 
L 863.328211 93.863316 
L 863.734131 93.419946 
L 864.14005 92.45741 
L 864.74893 90.066717 
L 865.560769 85.423066 
L 866.778528 78.085191 
L 867.387408 75.443795 
L 867.996287 73.550514 
L 868.605166 72.375068 
L 869.011086 71.991418 
L 869.417006 71.928959 
L 869.822925 72.185951 
L 870.228845 72.761465 
L 870.837725 74.220645 
L 871.446604 76.393112 
L 873.476202 84.722479 
L 874.896921 90.348486 
L 875.708761 92.650687 
L 876.11468 93.359861 
L 876.5206 93.706106 
L 876.92652 93.753153 
L 877.332439 93.355301 
L 877.738359 92.438272 
L 878.347238 90.115828 
L 879.159078 85.572279 
L 880.376837 78.367162 
L 880.985716 75.794381 
L 881.594596 73.969943 
L 882.203475 72.86193 
L 882.609395 72.524421 
L 883.015314 72.506883 
L 883.421234 72.808284 
L 883.827154 73.428024 
L 884.436033 74.95334 
L 885.044913 77.191701 
L 886.871551 84.874687 
L 888.69819 91.91136 
L 889.307069 93.421243 
L 889.712989 93.946146 
L 890.118909 93.995264 
L 890.524828 93.565635 
L 890.930748 92.621208 
L 891.539627 90.257792 
L 892.351467 85.612572 
L 893.569226 78.166238 
L 894.381065 74.74768 
L 894.989945 73.037759 
L 895.598824 72.048821 
L 896.004744 71.790684 
L 896.410663 71.851899 
L 896.816583 72.23183 
L 897.222503 72.929983 
L 897.831382 74.572751 
L 898.440262 76.928349 
L 900.2669 84.96579 
L 901.890579 91.369416 
L 902.499458 93.005254 
L 902.905378 93.704689 
L 903.311298 93.931518 
L 903.514257 93.927323 
L 903.920177 93.524719 
L 904.326097 92.601586 
L 904.934976 90.260292 
L 905.746816 85.657132 
L 906.964575 78.314884 
L 907.573454 75.671922 
L 908.182334 73.775421 
L 908.791213 72.597045 
L 909.197133 72.211986 
L 909.603052 72.147815 
L 910.008972 72.402863 
L 910.211932 72.649849 
L 910.211932 72.649849 
" clip-path="url(#p7d3dfff0a6)" style="fill: none; stroke-dasharray: 2,3.3; stroke-dashoffset: 0; stroke: #0000ff; stroke-width: 2"/>
   </g>
   <g id="patch_3">
    <path d="M 57.99375 475.6575 
L 57.99375 32.1375 
" style="fill: none; stroke: #000000; stroke-width: 0.8; stroke-linejoin: miter; stroke-linecap: square"/>
   </g>
   <g id="patch_4">
    <path d="M 950.79375 475.6575 
L 950.79375 32.1375 
" style="fill: none; stroke: #000000; stroke-width: 0.8; stroke-linejoin: miter; stroke-linecap: square"/>
   </g>
   <g id="patch_5">
    <path d="M 57.99375 475.6575 
L 950.79375 475.6575 
" style="fill: none; stroke: #000000; stroke-width: 0.8; stroke-linejoin: miter; stroke-linecap: square"/>
   </g>
   <g id="patch_6">
    <path d="M 57.99375 32.1375 
L 950.79375 32.1375 
" style="fill: none; stroke: #000000; stroke-width: 0.8; stroke-linejoin: miter; stroke-linecap: square"/>
   </g>
   <g id="text_18">
    <!-- 躯干位置曲线 -->
    <g transform="translate(432.39375 26.1375)scale(0.24 -0.24)">
     <defs>
      <path id="FangSong-8eaf" d="M 1775 275 
L 2525 -100 
Q 2600 25 2575 425 
L 2600 1825 
Q 1525 500 500 -100 
L 450 0 
Q 1275 550 2250 1800 
Q 1075 1525 925 1450 
L 650 1725 
Q 950 1750 1350 1825 
L 1350 3575 
Q 1325 3975 1275 4275 
L 1350 4300 
L 1550 3975 
L 1800 4000 
Q 1925 4400 1987 4687 
Q 2050 4975 1975 5175 
L 2050 5225 
L 2375 4825 
Q 2325 4825 2212 4625 
Q 2100 4425 1950 4025 
L 2600 4125 
L 2750 4375 
L 3050 4125 
L 2850 3875 
L 2825 550 
Q 2875 -200 2625 -625 
Q 2300 -200 1725 175 
L 1775 275 
z
M 5700 4225 
Q 5500 4275 3650 4000 
L 3625 75 
Q 5475 200 5650 300 
L 5925 25 
Q 5775 50 3625 -150 
L 3450 -300 
L 3225 25 
L 3400 100 
L 3425 3850 
Q 3425 4275 3325 4675 
L 3425 4700 
L 3625 4225 
Q 5375 4425 5375 4500 
L 5700 4225 
z
M 1575 3225 
Q 2175 3300 2300 3375 
L 2500 3150 
Q 2200 3125 1575 3025 
L 1575 2600 
Q 2175 2675 2325 2725 
L 2525 2500 
Q 2350 2475 1575 2375 
L 1575 1875 
L 2600 2050 
L 2625 3900 
L 1575 3750 
L 1575 3225 
z
M 4825 2200 
Q 5200 1475 5450 1125 
Q 5375 850 5275 650 
Q 5150 1000 4700 2000 
Q 4350 1275 3750 550 
L 3675 625 
Q 4200 1400 4550 2225 
L 3925 3575 
L 4000 3625 
L 4675 2450 
Q 4850 2800 5012 3250 
Q 5175 3700 5075 3875 
L 5125 3900 
L 5425 3450 
Q 5350 3450 5187 3087 
Q 5025 2725 4825 2200 
z
" transform="scale(0.015625)"/>
      <path id="FangSong-5e72" d="M 2875 -175 
Q 3050 -50 3025 450 
L 3050 2575 
Q 1125 2400 950 2375 
L 625 2650 
Q 1025 2625 3050 2800 
L 3075 4425 
Q 1800 4300 1650 4275 
L 1350 4550 
Q 1825 4550 3150 4675 
Q 4475 4800 4725 4875 
L 5025 4600 
Q 4575 4600 3300 4450 
L 3275 2825 
Q 5550 3050 5600 3100 
L 5925 2800 
Q 5425 2800 3275 2600 
L 3250 -225 
Q 3275 -625 3175 -675 
L 2875 -175 
z
" transform="scale(0.015625)"/>
      <path id="FangSong-66f2" d="M 5250 3550 
L 5550 3275 
L 5350 3100 
Q 5050 450 4950 25 
Q 4850 -400 4812 -312 
Q 4775 -225 4725 150 
L 1625 -75 
Q 1650 -425 1575 -375 
L 1275 0 
Q 1400 200 1375 400 
L 1250 2575 
Q 1250 3025 1125 3400 
L 1225 3425 
L 1450 3000 
L 2575 3100 
L 2575 4250 
Q 2600 4700 2425 4925 
L 2500 4975 
L 2900 4575 
Q 2775 4525 2800 4225 
L 2800 3125 
L 3675 3200 
L 3675 4525 
Q 3675 5050 3500 5175 
L 3550 5250 
L 4050 4875 
Q 3875 4825 3900 4450 
L 3900 3225 
L 5075 3350 
L 5250 3550 
z
M 3900 1925 
Q 4500 2000 4475 2050 
L 4700 1750 
Q 4400 1750 3900 1700 
L 3900 325 
Q 4550 375 4550 425 
L 4725 175 
Q 4850 475 5075 3075 
L 3900 3000 
L 3900 1925 
z
M 2575 1550 
Q 2075 1500 2000 1450 
L 1700 1725 
Q 1975 1725 2575 1775 
L 2575 2875 
L 1500 2775 
L 1625 175 
L 2575 225 
L 2575 1550 
z
M 2800 250 
L 3675 300 
L 3675 1675 
L 2800 1575 
L 2800 250 
z
M 3675 1900 
L 3675 2975 
L 2800 2900 
L 2800 1800 
L 3675 1900 
z
" transform="scale(0.015625)"/>
      <path id="FangSong-7ebf" d="M 4100 1125 
Q 4450 1450 4637 1700 
Q 4825 1950 4800 2150 
L 4875 2175 
L 5050 1625 
Q 4950 1650 4775 1475 
Q 4600 1300 4200 875 
Q 4800 0 5425 -200 
L 5475 800 
L 5575 800 
Q 5650 -350 5725 -625 
Q 4700 -350 4025 725 
Q 3425 150 2325 -350 
L 2275 -250 
Q 3150 175 3925 950 
Q 3750 1350 3575 2050 
Q 2975 1875 2900 1825 
L 2550 1975 
Q 2875 2050 3550 2250 
Q 3500 2575 3425 3025 
Q 3075 2950 2950 2875 
L 2650 3025 
Q 2850 3075 3425 3225 
Q 3325 4025 3300 4462 
Q 3275 4900 3125 5125 
L 3200 5200 
L 3650 4825 
Q 3550 4650 3562 4325 
Q 3575 4000 3625 3325 
Q 4550 3600 4600 3675 
L 4950 3475 
Q 4600 3400 3650 3100 
Q 3700 2600 3775 2300 
Q 5000 2725 5050 2800 
L 5400 2600 
Q 5225 2575 3800 2125 
Q 3925 1500 4100 1125 
z
M 2525 1725 
Q 1375 1350 1175 1225 
L 950 1500 
L 1225 1575 
L 1950 2725 
Q 1175 2575 975 2450 
L 775 2750 
L 1050 2875 
Q 1550 3800 1737 4250 
Q 1925 4700 1850 4900 
L 1925 4950 
L 2225 4475 
Q 2125 4525 1812 3937 
Q 1500 3350 1225 2800 
L 2075 2925 
Q 2450 3500 2375 3750 
L 2450 3800 
L 2700 3325 
Q 2600 3325 2337 2925 
Q 2075 2525 1475 1625 
L 2500 1825 
L 2525 1725 
z
M 2825 825 
Q 1100 50 1000 -25 
L 625 200 
Q 1000 250 2775 950 
L 2825 825 
z
M 4700 3900 
Q 4450 4175 3925 4650 
L 3975 4750 
Q 4525 4475 4700 4400 
L 4700 3900 
z
" transform="scale(0.015625)"/>
     </defs>
     <use xlink:href="#FangSong-8eaf"/>
     <use xlink:href="#FangSong-5e72" x="100"/>
     <use xlink:href="#FangSong-4f4d" x="200"/>
     <use xlink:href="#FangSong-7f6e" x="300"/>
     <use xlink:href="#FangSong-66f2" x="400"/>
     <use xlink:href="#FangSong-7ebf" x="500"/>
    </g>
   </g>
   <g id="legend_1">
    <g id="patch_7">
     <path d="M 858.35 132.971875 
L 936.79375 132.971875 
Q 940.79375 132.971875 940.79375 128.971875 
L 940.79375 46.1375 
Q 940.79375 42.1375 936.79375 42.1375 
L 858.35 42.1375 
Q 854.35 42.1375 854.35 46.1375 
L 854.35 128.971875 
Q 854.35 132.971875 858.35 132.971875 
z
" style="fill: #ffffff; opacity: 0.8; stroke: #cccccc; stroke-linejoin: miter"/>
    </g>
    <g id="line2d_19">
     <path d="M 862.35 57.1375 
L 882.35 57.1375 
L 902.35 57.1375 
" style="fill: none; stroke: #ff0000; stroke-width: 2; stroke-linecap: square"/>
    </g>
    <g id="text_19">
     <!-- X -->
     <g transform="translate(918.35 64.1375)scale(0.2 -0.2)">
      <defs>
       <path id="TimesNewRomanPSMT-58" d="M 2613 2347 
L 3522 991 
Q 3900 428 4083 279 
Q 4266 131 4547 116 
L 4547 0 
L 2728 0 
L 2728 116 
Q 2909 119 2997 153 
Q 3063 181 3105 239 
Q 3147 297 3147 356 
Q 3147 428 3119 500 
Q 3097 553 2947 775 
L 2228 1863 
L 1341 725 
Q 1200 544 1172 483 
Q 1144 422 1144 356 
Q 1144 256 1228 190 
Q 1313 125 1550 116 
L 1550 0 
L 47 0 
L 47 116 
Q 206 131 322 181 
Q 516 263 691 400 
Q 866 538 1091 822 
L 2091 2084 
L 1256 3306 
Q 916 3803 678 3958 
Q 441 4113 131 4122 
L 131 4238 
L 2091 4238 
L 2091 4122 
Q 1841 4113 1748 4041 
Q 1656 3969 1656 3881 
Q 1656 3766 1806 3544 
L 2456 2572 
L 3209 3525 
Q 3341 3694 3370 3756 
Q 3400 3819 3400 3884 
Q 3400 3950 3363 4000 
Q 3316 4066 3244 4092 
Q 3172 4119 2947 4122 
L 2947 4238 
L 4450 4238 
L 4450 4122 
Q 4272 4113 4159 4066 
Q 3991 3994 3850 3872 
Q 3709 3750 3453 3422 
L 2613 2347 
z
" transform="scale(0.015625)"/>
      </defs>
      <use xlink:href="#TimesNewRomanPSMT-58"/>
     </g>
    </g>
    <g id="line2d_20">
     <path d="M 862.35 85.415625 
L 882.35 85.415625 
L 902.35 85.415625 
" style="fill: none; stroke-dasharray: 7.4,3.2; stroke-dashoffset: 0; stroke: #008000; stroke-width: 2"/>
    </g>
    <g id="text_20">
     <!-- Y -->
     <g transform="translate(918.35 92.415625)scale(0.2 -0.2)">
      <defs>
       <path id="TimesNewRomanPSMT-59" d="M 3050 4238 
L 4528 4238 
L 4528 4122 
L 4447 4122 
Q 4366 4122 4209 4050 
Q 4053 3978 3925 3843 
Q 3797 3709 3609 3406 
L 2588 1797 
L 2588 734 
Q 2588 344 2675 247 
Q 2794 116 3050 116 
L 3188 116 
L 3188 0 
L 1388 0 
L 1388 116 
L 1538 116 
Q 1806 116 1919 278 
Q 1988 378 1988 734 
L 1988 1738 
L 825 3513 
Q 619 3825 545 3903 
Q 472 3981 241 4091 
Q 178 4122 59 4122 
L 59 4238 
L 1872 4238 
L 1872 4122 
L 1778 4122 
Q 1631 4122 1507 4053 
Q 1384 3984 1384 3847 
Q 1384 3734 1575 3441 
L 2459 2075 
L 3291 3381 
Q 3478 3675 3478 3819 
Q 3478 3906 3433 3975 
Q 3388 4044 3303 4083 
Q 3219 4122 3050 4122 
L 3050 4238 
z
" transform="scale(0.015625)"/>
      </defs>
      <use xlink:href="#TimesNewRomanPSMT-59"/>
     </g>
    </g>
    <g id="line2d_21">
     <path d="M 862.35 113.69375 
L 882.35 113.69375 
L 902.35 113.69375 
" style="fill: none; stroke-dasharray: 2,3.3; stroke-dashoffset: 0; stroke: #0000ff; stroke-width: 2"/>
    </g>
    <g id="text_21">
     <!-- Z -->
     <g transform="translate(918.35 120.69375)scale(0.2 -0.2)">
      <defs>
       <path id="TimesNewRomanPSMT-5a" d="M 3681 4238 
L 897 256 
L 2634 256 
Q 3034 256 3248 431 
Q 3463 606 3628 1141 
L 3731 1122 
L 3531 0 
L 81 0 
L 81 116 
L 2800 3984 
L 1444 3984 
Q 1106 3984 954 3911 
Q 803 3838 723 3698 
Q 644 3559 578 3178 
L 459 3178 
L 547 4238 
L 3681 4238 
z
" transform="scale(0.015625)"/>
      </defs>
      <use xlink:href="#TimesNewRomanPSMT-5a"/>
     </g>
    </g>
   </g>
  </g>
 </g>
 <defs>
  <clipPath id="p7d3dfff0a6">
   <rect x="57.99375" y="32.1375" width="892.8" height="443.52"/>
  </clipPath>
 </defs>
</svg>
